G75*
G70*
%OFA0B0*%
%FSLAX24Y24*%
%IPPOS*%
%LPD*%
%AMOC8*
5,1,8,0,0,1.08239X$1,22.5*
%
%ADD10C,0.0000*%
%ADD11C,0.0050*%
%ADD12C,0.0100*%
%ADD13C,0.0080*%
%ADD14C,0.0060*%
%ADD15C,0.0110*%
%ADD16C,0.0040*%
%ADD17R,0.0320X0.0010*%
%ADD18R,0.0340X0.0010*%
%ADD19R,0.0120X0.0010*%
%ADD20R,0.0420X0.0010*%
%ADD21R,0.0560X0.0010*%
%ADD22R,0.0680X0.0010*%
%ADD23R,0.0780X0.0010*%
%ADD24R,0.0880X0.0010*%
%ADD25R,0.0960X0.0010*%
%ADD26R,0.1020X0.0010*%
%ADD27R,0.1100X0.0010*%
%ADD28R,0.1160X0.0010*%
%ADD29R,0.1220X0.0010*%
%ADD30R,0.1290X0.0010*%
%ADD31R,0.1360X0.0010*%
%ADD32R,0.1410X0.0010*%
%ADD33R,0.1450X0.0010*%
%ADD34R,0.1500X0.0010*%
%ADD35R,0.1530X0.0010*%
%ADD36R,0.1570X0.0010*%
%ADD37R,0.1630X0.0010*%
%ADD38R,0.1670X0.0010*%
%ADD39R,0.1710X0.0010*%
%ADD40R,0.1750X0.0010*%
%ADD41R,0.1790X0.0010*%
%ADD42R,0.1820X0.0010*%
%ADD43R,0.1860X0.0010*%
%ADD44R,0.1890X0.0010*%
%ADD45R,0.1930X0.0010*%
%ADD46R,0.1950X0.0010*%
%ADD47R,0.1990X0.0010*%
%ADD48R,0.2030X0.0010*%
%ADD49R,0.2050X0.0010*%
%ADD50R,0.2090X0.0010*%
%ADD51R,0.2120X0.0010*%
%ADD52R,0.0910X0.0010*%
%ADD53R,0.0860X0.0010*%
%ADD54R,0.0790X0.0010*%
%ADD55R,0.0760X0.0010*%
%ADD56R,0.0770X0.0010*%
%ADD57R,0.0740X0.0010*%
%ADD58R,0.0710X0.0010*%
%ADD59R,0.0720X0.0010*%
%ADD60R,0.0690X0.0010*%
%ADD61R,0.0670X0.0010*%
%ADD62R,0.0650X0.0010*%
%ADD63R,0.0630X0.0010*%
%ADD64R,0.0610X0.0010*%
%ADD65R,0.0050X0.0010*%
%ADD66R,0.0620X0.0010*%
%ADD67R,0.0600X0.0010*%
%ADD68R,0.0090X0.0010*%
%ADD69R,0.0080X0.0010*%
%ADD70R,0.0110X0.0010*%
%ADD71R,0.0590X0.0010*%
%ADD72R,0.0580X0.0010*%
%ADD73R,0.0150X0.0010*%
%ADD74R,0.0140X0.0010*%
%ADD75R,0.0570X0.0010*%
%ADD76R,0.0180X0.0010*%
%ADD77R,0.0190X0.0010*%
%ADD78R,0.0200X0.0010*%
%ADD79R,0.0550X0.0010*%
%ADD80R,0.0210X0.0010*%
%ADD81R,0.0220X0.0010*%
%ADD82R,0.0540X0.0010*%
%ADD83R,0.0230X0.0010*%
%ADD84R,0.0240X0.0010*%
%ADD85R,0.0250X0.0010*%
%ADD86R,0.0260X0.0010*%
%ADD87R,0.0530X0.0010*%
%ADD88R,0.0280X0.0010*%
%ADD89R,0.0270X0.0010*%
%ADD90R,0.0520X0.0010*%
%ADD91R,0.0290X0.0010*%
%ADD92R,0.0310X0.0010*%
%ADD93R,0.0300X0.0010*%
%ADD94R,0.0510X0.0010*%
%ADD95R,0.0500X0.0010*%
%ADD96R,0.0330X0.0010*%
%ADD97R,0.0350X0.0010*%
%ADD98R,0.0490X0.0010*%
%ADD99R,0.0360X0.0010*%
%ADD100R,0.0370X0.0010*%
%ADD101R,0.0480X0.0010*%
%ADD102R,0.0470X0.0010*%
%ADD103R,0.0460X0.0010*%
%ADD104R,0.0450X0.0010*%
%ADD105R,0.0440X0.0010*%
%ADD106R,0.0430X0.0010*%
%ADD107R,0.0410X0.0010*%
%ADD108R,0.0750X0.0010*%
%ADD109R,0.0640X0.0010*%
%ADD110R,0.0730X0.0010*%
%ADD111R,0.0700X0.0010*%
%ADD112R,0.0400X0.0010*%
%ADD113R,0.0830X0.0010*%
%ADD114R,0.0870X0.0010*%
%ADD115R,0.0390X0.0010*%
%ADD116R,0.0660X0.0010*%
%ADD117R,0.0990X0.0010*%
%ADD118R,0.1010X0.0010*%
%ADD119R,0.1040X0.0010*%
%ADD120R,0.1070X0.0010*%
%ADD121R,0.1130X0.0010*%
%ADD122R,0.0380X0.0010*%
%ADD123R,0.1190X0.0010*%
%ADD124R,0.0170X0.0010*%
%ADD125R,0.1250X0.0010*%
%ADD126R,0.1270X0.0010*%
%ADD127R,0.0160X0.0010*%
%ADD128R,0.1310X0.0010*%
%ADD129R,0.1330X0.0010*%
%ADD130R,0.1350X0.0010*%
%ADD131R,0.1370X0.0010*%
%ADD132R,0.1390X0.0010*%
%ADD133R,0.1430X0.0010*%
%ADD134R,0.1470X0.0010*%
%ADD135R,0.1480X0.0010*%
%ADD136R,0.1510X0.0010*%
%ADD137R,0.0030X0.0010*%
%ADD138R,0.1540X0.0010*%
%ADD139R,0.1550X0.0010*%
%ADD140R,0.1590X0.0010*%
%ADD141R,0.1600X0.0010*%
%ADD142R,0.1610X0.0010*%
%ADD143R,0.1640X0.0010*%
%ADD144R,0.1660X0.0010*%
%ADD145R,0.1680X0.0010*%
%ADD146R,0.1690X0.0010*%
%ADD147R,0.1700X0.0010*%
%ADD148R,0.1720X0.0010*%
%ADD149R,0.1230X0.0010*%
%ADD150R,0.0020X0.0010*%
%ADD151R,0.0130X0.0010*%
%ADD152R,0.0100X0.0010*%
%ADD153R,0.0040X0.0010*%
%ADD154R,0.0010X0.0010*%
%ADD155R,0.0070X0.0010*%
%ADD156R,0.0060X0.0010*%
%ADD157R,0.1340X0.0010*%
%ADD158R,0.1920X0.0010*%
%ADD159R,0.1910X0.0010*%
%ADD160R,0.1900X0.0010*%
%ADD161R,0.1880X0.0010*%
%ADD162R,0.1050X0.0010*%
%ADD163R,0.1210X0.0010*%
%ADD164R,0.1580X0.0010*%
%ADD165R,0.1730X0.0010*%
%ADD166R,0.1810X0.0010*%
%ADD167R,0.1870X0.0010*%
%ADD168R,0.1960X0.0010*%
%ADD169R,0.2130X0.0010*%
%ADD170R,0.2170X0.0010*%
%ADD171R,0.2190X0.0010*%
%ADD172R,0.2210X0.0010*%
%ADD173R,0.1080X0.0010*%
%ADD174R,0.1000X0.0010*%
%ADD175R,0.0940X0.0010*%
%ADD176R,0.0800X0.0010*%
%ADD177R,0.0810X0.0010*%
%ADD178R,0.1170X0.0010*%
%ADD179R,0.1280X0.0010*%
%ADD180R,0.1560X0.0010*%
%ADD181R,0.1520X0.0010*%
%ADD182R,0.1460X0.0010*%
%ADD183R,0.1440X0.0010*%
%ADD184R,0.0820X0.0010*%
%ADD185R,0.0930X0.0010*%
%ADD186R,0.2110X0.0010*%
%ADD187R,0.2080X0.0010*%
%ADD188R,0.2020X0.0010*%
%ADD189R,0.1850X0.0010*%
%ADD190R,0.1780X0.0010*%
%ADD191R,0.1740X0.0010*%
%ADD192R,0.1650X0.0010*%
%ADD193R,0.1490X0.0010*%
%ADD194R,0.1380X0.0010*%
D10*
X000206Y000206D02*
X000206Y027203D01*
X020677Y027203D01*
X020677Y000206D01*
X000206Y000206D01*
D11*
X001431Y000827D02*
X001477Y000781D01*
X001522Y000781D01*
X001567Y000827D01*
X001567Y001052D01*
X001522Y001052D02*
X001612Y001052D01*
X001726Y000962D02*
X001816Y001052D01*
X001816Y000781D01*
X001726Y000781D02*
X001906Y000781D01*
X003031Y001877D02*
X003077Y001831D01*
X003167Y001831D01*
X003212Y001877D01*
X003212Y001967D01*
X003167Y002012D01*
X003122Y002012D01*
X003031Y001967D01*
X003031Y002102D01*
X003212Y002102D01*
X003326Y002102D02*
X003326Y001922D01*
X003416Y001831D01*
X003506Y001922D01*
X003506Y002102D01*
X003621Y002057D02*
X003621Y001877D01*
X003801Y002057D01*
X003801Y001877D01*
X003756Y001831D01*
X003666Y001831D01*
X003621Y001877D01*
X003621Y002057D02*
X003666Y002102D01*
X003756Y002102D01*
X003801Y002057D01*
X003831Y001702D02*
X003831Y001522D01*
X003922Y001431D01*
X004012Y001522D01*
X004012Y001702D01*
X004126Y001657D02*
X004126Y001477D01*
X004171Y001431D01*
X004261Y001431D01*
X004306Y001477D01*
X004421Y001477D02*
X004421Y001657D01*
X004466Y001702D01*
X004556Y001702D01*
X004601Y001657D01*
X004601Y001477D02*
X004556Y001431D01*
X004466Y001431D01*
X004421Y001477D01*
X004306Y001657D02*
X004261Y001702D01*
X004171Y001702D01*
X004126Y001657D01*
X005010Y001657D02*
X005010Y001612D01*
X005055Y001567D01*
X005145Y001567D01*
X005190Y001522D01*
X005190Y001477D01*
X005145Y001431D01*
X005055Y001431D01*
X005010Y001477D01*
X005010Y001657D02*
X005055Y001702D01*
X005145Y001702D01*
X005190Y001657D01*
X005305Y001702D02*
X005305Y001431D01*
X005485Y001431D01*
X005395Y001567D02*
X005305Y001567D01*
X005305Y001702D02*
X005485Y001702D01*
X005599Y001702D02*
X005780Y001702D01*
X005689Y001702D02*
X005689Y001431D01*
X005666Y001831D02*
X005621Y001877D01*
X005666Y001831D02*
X005756Y001831D01*
X005801Y001877D01*
X005801Y001922D01*
X005756Y001967D01*
X005711Y001967D01*
X005756Y001967D02*
X005801Y002012D01*
X005801Y002057D01*
X005756Y002102D01*
X005666Y002102D01*
X005621Y002057D01*
X005506Y002102D02*
X005506Y001922D01*
X005416Y001831D01*
X005326Y001922D01*
X005326Y002102D01*
X005212Y002057D02*
X005212Y002012D01*
X005167Y001967D01*
X005212Y001922D01*
X005212Y001877D01*
X005167Y001831D01*
X005077Y001831D01*
X005031Y001877D01*
X005122Y001967D02*
X005167Y001967D01*
X005212Y002057D02*
X005167Y002102D01*
X005077Y002102D01*
X005031Y002057D01*
X003506Y003581D02*
X003416Y003581D01*
X003371Y003627D01*
X003256Y003672D02*
X003256Y003852D01*
X003371Y003807D02*
X003416Y003852D01*
X003506Y003852D01*
X003551Y003807D01*
X003551Y003762D01*
X003506Y003717D01*
X003551Y003672D01*
X003551Y003627D01*
X003506Y003581D01*
X003506Y003717D02*
X003461Y003717D01*
X003256Y003672D02*
X003166Y003581D01*
X003076Y003672D01*
X003076Y003852D01*
X002962Y003807D02*
X002962Y003762D01*
X002917Y003717D01*
X002962Y003672D01*
X002962Y003627D01*
X002917Y003581D01*
X002827Y003581D01*
X002781Y003627D01*
X002872Y003717D02*
X002917Y003717D01*
X002962Y003807D02*
X002917Y003852D01*
X002827Y003852D01*
X002781Y003807D01*
X002827Y004581D02*
X002781Y004627D01*
X002827Y004581D02*
X002917Y004581D01*
X002962Y004627D01*
X002962Y004672D01*
X002917Y004717D01*
X002827Y004717D01*
X002781Y004762D01*
X002781Y004807D01*
X002827Y004852D01*
X002917Y004852D01*
X002962Y004807D01*
X003076Y004852D02*
X003211Y004852D01*
X003256Y004807D01*
X003256Y004627D01*
X003211Y004581D01*
X003076Y004581D01*
X003076Y004852D01*
X003371Y004762D02*
X003371Y004581D01*
X003371Y004717D02*
X003551Y004717D01*
X003551Y004762D02*
X003551Y004581D01*
X003665Y004581D02*
X003846Y004852D01*
X003960Y004807D02*
X003960Y004762D01*
X004005Y004717D01*
X004095Y004717D01*
X004140Y004672D01*
X004140Y004627D01*
X004095Y004581D01*
X004005Y004581D01*
X003960Y004627D01*
X003960Y004807D02*
X004005Y004852D01*
X004095Y004852D01*
X004140Y004807D01*
X004255Y004807D02*
X004255Y004627D01*
X004300Y004581D01*
X004390Y004581D01*
X004435Y004627D01*
X004549Y004581D02*
X004730Y004581D01*
X004549Y004581D02*
X004549Y004852D01*
X004435Y004807D02*
X004390Y004852D01*
X004300Y004852D01*
X004255Y004807D01*
X004337Y005581D02*
X004157Y005581D01*
X004157Y005852D01*
X004337Y005852D01*
X004451Y005807D02*
X004451Y005762D01*
X004496Y005717D01*
X004586Y005717D01*
X004631Y005672D01*
X004631Y005627D01*
X004586Y005581D01*
X004496Y005581D01*
X004451Y005627D01*
X004451Y005807D02*
X004496Y005852D01*
X004586Y005852D01*
X004631Y005807D01*
X004746Y005852D02*
X004746Y005581D01*
X004926Y005581D01*
X004836Y005717D02*
X004746Y005717D01*
X004746Y005852D02*
X004926Y005852D01*
X005040Y005852D02*
X005221Y005852D01*
X005131Y005852D02*
X005131Y005581D01*
X004247Y005717D02*
X004157Y005717D01*
X004042Y005717D02*
X003997Y005672D01*
X003862Y005672D01*
X003952Y005672D02*
X004042Y005581D01*
X004042Y005717D02*
X004042Y005807D01*
X003997Y005852D01*
X003862Y005852D01*
X003862Y005581D01*
X003747Y005852D02*
X003567Y005581D01*
X003363Y005581D02*
X003363Y005852D01*
X003273Y005852D02*
X003453Y005852D01*
X003158Y005852D02*
X003158Y005581D01*
X002978Y005852D01*
X002978Y005581D01*
X002872Y005581D02*
X002781Y005581D01*
X002827Y005581D02*
X002827Y005852D01*
X002872Y005852D02*
X002781Y005852D01*
X002827Y006681D02*
X002917Y006681D01*
X002962Y006727D01*
X002962Y006817D01*
X002872Y006817D01*
X002962Y006907D02*
X002917Y006952D01*
X002827Y006952D01*
X002781Y006907D01*
X002781Y006727D01*
X002827Y006681D01*
X003076Y006681D02*
X003076Y006952D01*
X003256Y006681D01*
X003256Y006952D01*
X003371Y006952D02*
X003371Y006681D01*
X003506Y006681D01*
X003551Y006727D01*
X003551Y006907D01*
X003506Y006952D01*
X003371Y006952D01*
X003371Y007636D02*
X003551Y007636D01*
X003665Y007681D02*
X003846Y007681D01*
X003756Y007681D02*
X003756Y007952D01*
X003665Y007862D01*
X003960Y007681D02*
X004140Y007952D01*
X004255Y007952D02*
X004255Y007681D01*
X004255Y007772D02*
X004390Y007772D01*
X004435Y007817D01*
X004435Y007907D01*
X004390Y007952D01*
X004255Y007952D01*
X004549Y007862D02*
X004639Y007952D01*
X004730Y007862D01*
X004730Y007681D01*
X004844Y007636D02*
X005024Y007636D01*
X005139Y007727D02*
X005319Y007907D01*
X005319Y007727D01*
X005274Y007681D01*
X005184Y007681D01*
X005139Y007727D01*
X005139Y007907D01*
X005184Y007952D01*
X005274Y007952D01*
X005319Y007907D01*
X004730Y007817D02*
X004549Y007817D01*
X004549Y007862D02*
X004549Y007681D01*
X004844Y008636D02*
X005024Y008636D01*
X005139Y008681D02*
X005319Y008862D01*
X005319Y008907D01*
X005274Y008952D01*
X005184Y008952D01*
X005139Y008907D01*
X005139Y008681D02*
X005319Y008681D01*
X004730Y008681D02*
X004730Y008862D01*
X004639Y008952D01*
X004549Y008862D01*
X004549Y008681D01*
X004549Y008817D02*
X004730Y008817D01*
X004435Y008817D02*
X004390Y008772D01*
X004255Y008772D01*
X004255Y008681D02*
X004255Y008952D01*
X004390Y008952D01*
X004435Y008907D01*
X004435Y008817D01*
X004140Y008952D02*
X003960Y008681D01*
X003846Y008727D02*
X003801Y008681D01*
X003710Y008681D01*
X003665Y008727D01*
X003756Y008817D02*
X003801Y008817D01*
X003846Y008772D01*
X003846Y008727D01*
X003801Y008817D02*
X003846Y008862D01*
X003846Y008907D01*
X003801Y008952D01*
X003710Y008952D01*
X003665Y008907D01*
X003551Y008636D02*
X003371Y008636D01*
X003256Y008681D02*
X003256Y008862D01*
X003166Y008952D01*
X003076Y008862D01*
X003076Y008681D01*
X003076Y008817D02*
X003256Y008817D01*
X002962Y008817D02*
X002917Y008772D01*
X002781Y008772D01*
X002781Y008681D02*
X002781Y008952D01*
X002917Y008952D01*
X002962Y008907D01*
X002962Y008817D01*
X002917Y007952D02*
X002962Y007907D01*
X002962Y007817D01*
X002917Y007772D01*
X002781Y007772D01*
X002781Y007681D02*
X002781Y007952D01*
X002917Y007952D01*
X003076Y007862D02*
X003166Y007952D01*
X003256Y007862D01*
X003256Y007681D01*
X003256Y007817D02*
X003076Y007817D01*
X003076Y007862D02*
X003076Y007681D01*
X003371Y009636D02*
X003551Y009636D01*
X003665Y009727D02*
X003710Y009681D01*
X003801Y009681D01*
X003846Y009727D01*
X003846Y009817D01*
X003801Y009862D01*
X003756Y009862D01*
X003665Y009817D01*
X003665Y009952D01*
X003846Y009952D01*
X003960Y009681D02*
X004140Y009952D01*
X004255Y009952D02*
X004255Y009681D01*
X004255Y009772D02*
X004390Y009772D01*
X004435Y009817D01*
X004435Y009907D01*
X004390Y009952D01*
X004255Y009952D01*
X004549Y009862D02*
X004639Y009952D01*
X004730Y009862D01*
X004730Y009681D01*
X004844Y009636D02*
X005024Y009636D01*
X005139Y009817D02*
X005319Y009817D01*
X005274Y009952D02*
X005274Y009681D01*
X005139Y009817D02*
X005274Y009952D01*
X005024Y010636D02*
X004844Y010636D01*
X004730Y010681D02*
X004730Y010862D01*
X004639Y010952D01*
X004549Y010862D01*
X004549Y010681D01*
X004549Y010817D02*
X004730Y010817D01*
X004435Y010817D02*
X004390Y010772D01*
X004255Y010772D01*
X004255Y010681D02*
X004255Y010952D01*
X004390Y010952D01*
X004435Y010907D01*
X004435Y010817D01*
X004140Y010952D02*
X003960Y010681D01*
X003846Y010907D02*
X003665Y010727D01*
X003665Y010681D01*
X003551Y010636D02*
X003371Y010636D01*
X003256Y010681D02*
X003256Y010862D01*
X003166Y010952D01*
X003076Y010862D01*
X003076Y010681D01*
X003076Y010817D02*
X003256Y010817D01*
X002962Y010817D02*
X002917Y010772D01*
X002781Y010772D01*
X002781Y010681D02*
X002781Y010952D01*
X002917Y010952D01*
X002962Y010907D01*
X002962Y010817D01*
X003665Y010952D02*
X003846Y010952D01*
X003846Y010907D01*
X003506Y011681D02*
X003551Y011727D01*
X003551Y011907D01*
X003506Y011952D01*
X003371Y011952D01*
X003371Y011681D01*
X003506Y011681D01*
X003256Y011681D02*
X003256Y011952D01*
X003076Y011952D02*
X003076Y011681D01*
X002962Y011727D02*
X002962Y011817D01*
X002872Y011817D01*
X002962Y011907D02*
X002917Y011952D01*
X002827Y011952D01*
X002781Y011907D01*
X002781Y011727D01*
X002827Y011681D01*
X002917Y011681D01*
X002962Y011727D01*
X003076Y011952D02*
X003256Y011681D01*
X003371Y012636D02*
X003551Y012636D01*
X003665Y012681D02*
X003846Y012681D01*
X003756Y012681D02*
X003756Y012952D01*
X003665Y012862D01*
X003960Y012681D02*
X004140Y012952D01*
X004255Y012952D02*
X004255Y012681D01*
X004255Y012772D02*
X004390Y012772D01*
X004435Y012817D01*
X004435Y012907D01*
X004390Y012952D01*
X004255Y012952D01*
X004549Y012952D02*
X004549Y012681D01*
X004685Y012681D01*
X004730Y012727D01*
X004730Y012772D01*
X004685Y012817D01*
X004549Y012817D01*
X004549Y012952D02*
X004685Y012952D01*
X004730Y012907D01*
X004730Y012862D01*
X004685Y012817D01*
X004844Y012636D02*
X005024Y012636D01*
X005139Y012727D02*
X005319Y012907D01*
X005319Y012727D01*
X005274Y012681D01*
X005184Y012681D01*
X005139Y012727D01*
X005139Y012907D01*
X005184Y012952D01*
X005274Y012952D01*
X005319Y012907D01*
X005319Y013581D02*
X005139Y013581D01*
X005319Y013762D01*
X005319Y013807D01*
X005274Y013852D01*
X005184Y013852D01*
X005139Y013807D01*
X005024Y013536D02*
X004844Y013536D01*
X004730Y013627D02*
X004685Y013581D01*
X004549Y013581D01*
X004549Y013852D01*
X004685Y013852D01*
X004730Y013807D01*
X004730Y013762D01*
X004685Y013717D01*
X004549Y013717D01*
X004435Y013717D02*
X004390Y013672D01*
X004255Y013672D01*
X004255Y013581D02*
X004255Y013852D01*
X004390Y013852D01*
X004435Y013807D01*
X004435Y013717D01*
X004685Y013717D02*
X004730Y013672D01*
X004730Y013627D01*
X004140Y013852D02*
X003960Y013581D01*
X003846Y013627D02*
X003801Y013581D01*
X003710Y013581D01*
X003665Y013627D01*
X003756Y013717D02*
X003801Y013717D01*
X003846Y013672D01*
X003846Y013627D01*
X003801Y013717D02*
X003846Y013762D01*
X003846Y013807D01*
X003801Y013852D01*
X003710Y013852D01*
X003665Y013807D01*
X003551Y013536D02*
X003371Y013536D01*
X003256Y013627D02*
X003211Y013581D01*
X003076Y013581D01*
X003076Y013852D01*
X003211Y013852D01*
X003256Y013807D01*
X003256Y013762D01*
X003211Y013717D01*
X003076Y013717D01*
X002962Y013717D02*
X002917Y013672D01*
X002781Y013672D01*
X002781Y013581D02*
X002781Y013852D01*
X002917Y013852D01*
X002962Y013807D01*
X002962Y013717D01*
X003211Y013717D02*
X003256Y013672D01*
X003256Y013627D01*
X003211Y012952D02*
X003076Y012952D01*
X003076Y012681D01*
X003211Y012681D01*
X003256Y012727D01*
X003256Y012772D01*
X003211Y012817D01*
X003076Y012817D01*
X002962Y012817D02*
X002917Y012772D01*
X002781Y012772D01*
X002781Y012681D02*
X002781Y012952D01*
X002917Y012952D01*
X002962Y012907D01*
X002962Y012817D01*
X003211Y012817D02*
X003256Y012862D01*
X003256Y012907D01*
X003211Y012952D01*
X003371Y014536D02*
X003551Y014536D01*
X003665Y014627D02*
X003710Y014581D01*
X003801Y014581D01*
X003846Y014627D01*
X003846Y014717D01*
X003801Y014762D01*
X003756Y014762D01*
X003665Y014717D01*
X003665Y014852D01*
X003846Y014852D01*
X003960Y014581D02*
X004140Y014852D01*
X004255Y014852D02*
X004255Y014581D01*
X004255Y014672D02*
X004390Y014672D01*
X004435Y014717D01*
X004435Y014807D01*
X004390Y014852D01*
X004255Y014852D01*
X004549Y014852D02*
X004549Y014581D01*
X004685Y014581D01*
X004730Y014627D01*
X004730Y014672D01*
X004685Y014717D01*
X004549Y014717D01*
X004549Y014852D02*
X004685Y014852D01*
X004730Y014807D01*
X004730Y014762D01*
X004685Y014717D01*
X004844Y014536D02*
X005024Y014536D01*
X005139Y014717D02*
X005319Y014717D01*
X005274Y014852D02*
X005274Y014581D01*
X005139Y014717D02*
X005274Y014852D01*
X005024Y015536D02*
X004844Y015536D01*
X004730Y015627D02*
X004685Y015581D01*
X004549Y015581D01*
X004549Y015852D01*
X004685Y015852D01*
X004730Y015807D01*
X004730Y015762D01*
X004685Y015717D01*
X004549Y015717D01*
X004435Y015717D02*
X004390Y015672D01*
X004255Y015672D01*
X004255Y015581D02*
X004255Y015852D01*
X004390Y015852D01*
X004435Y015807D01*
X004435Y015717D01*
X004685Y015717D02*
X004730Y015672D01*
X004730Y015627D01*
X005139Y015627D02*
X005184Y015581D01*
X005274Y015581D01*
X005319Y015627D01*
X005319Y015672D01*
X005274Y015717D01*
X005139Y015717D01*
X005139Y015627D01*
X005139Y015717D02*
X005229Y015807D01*
X005319Y015852D01*
X004140Y015852D02*
X003960Y015581D01*
X003846Y015807D02*
X003665Y015627D01*
X003665Y015581D01*
X003551Y015536D02*
X003371Y015536D01*
X003256Y015627D02*
X003211Y015581D01*
X003076Y015581D01*
X003076Y015852D01*
X003211Y015852D01*
X003256Y015807D01*
X003256Y015762D01*
X003211Y015717D01*
X003076Y015717D01*
X002962Y015717D02*
X002917Y015672D01*
X002781Y015672D01*
X002781Y015581D02*
X002781Y015852D01*
X002917Y015852D01*
X002962Y015807D01*
X002962Y015717D01*
X003211Y015717D02*
X003256Y015672D01*
X003256Y015627D01*
X003665Y015852D02*
X003846Y015852D01*
X003846Y015807D01*
X003506Y016681D02*
X003551Y016727D01*
X003551Y016907D01*
X003506Y016952D01*
X003371Y016952D01*
X003371Y016681D01*
X003506Y016681D01*
X003256Y016681D02*
X003256Y016952D01*
X003076Y016952D02*
X003076Y016681D01*
X002962Y016727D02*
X002962Y016817D01*
X002872Y016817D01*
X002962Y016907D02*
X002917Y016952D01*
X002827Y016952D01*
X002781Y016907D01*
X002781Y016727D01*
X002827Y016681D01*
X002917Y016681D01*
X002962Y016727D01*
X003076Y016952D02*
X003256Y016681D01*
X003371Y017536D02*
X003551Y017536D01*
X003665Y017581D02*
X003846Y017581D01*
X003756Y017581D02*
X003756Y017852D01*
X003665Y017762D01*
X003960Y017581D02*
X004140Y017852D01*
X004255Y017852D02*
X004255Y017581D01*
X004255Y017672D02*
X004390Y017672D01*
X004435Y017717D01*
X004435Y017807D01*
X004390Y017852D01*
X004255Y017852D01*
X004549Y017807D02*
X004549Y017627D01*
X004594Y017581D01*
X004685Y017581D01*
X004730Y017627D01*
X004844Y017536D02*
X005024Y017536D01*
X005139Y017627D02*
X005319Y017807D01*
X005319Y017627D01*
X005274Y017581D01*
X005184Y017581D01*
X005139Y017627D01*
X005139Y017807D01*
X005184Y017852D01*
X005274Y017852D01*
X005319Y017807D01*
X004730Y017807D02*
X004685Y017852D01*
X004594Y017852D01*
X004549Y017807D01*
X004844Y018636D02*
X005024Y018636D01*
X005139Y018681D02*
X005319Y018862D01*
X005319Y018907D01*
X005274Y018952D01*
X005184Y018952D01*
X005139Y018907D01*
X005139Y018681D02*
X005319Y018681D01*
X004730Y018727D02*
X004685Y018681D01*
X004594Y018681D01*
X004549Y018727D01*
X004549Y018907D01*
X004594Y018952D01*
X004685Y018952D01*
X004730Y018907D01*
X004435Y018907D02*
X004435Y018817D01*
X004390Y018772D01*
X004255Y018772D01*
X004255Y018681D02*
X004255Y018952D01*
X004390Y018952D01*
X004435Y018907D01*
X004140Y018952D02*
X003960Y018681D01*
X003846Y018727D02*
X003801Y018681D01*
X003710Y018681D01*
X003665Y018727D01*
X003756Y018817D02*
X003801Y018817D01*
X003846Y018772D01*
X003846Y018727D01*
X003801Y018817D02*
X003846Y018862D01*
X003846Y018907D01*
X003801Y018952D01*
X003710Y018952D01*
X003665Y018907D01*
X003551Y018636D02*
X003371Y018636D01*
X003256Y018727D02*
X003211Y018681D01*
X003121Y018681D01*
X003076Y018727D01*
X003076Y018907D01*
X003121Y018952D01*
X003211Y018952D01*
X003256Y018907D01*
X002962Y018907D02*
X002962Y018817D01*
X002917Y018772D01*
X002781Y018772D01*
X002781Y018681D02*
X002781Y018952D01*
X002917Y018952D01*
X002962Y018907D01*
X003121Y019681D02*
X003211Y019681D01*
X003256Y019727D01*
X003121Y019681D02*
X003076Y019727D01*
X003076Y019907D01*
X003121Y019952D01*
X003211Y019952D01*
X003256Y019907D01*
X003371Y019636D02*
X003551Y019636D01*
X003665Y019727D02*
X003710Y019681D01*
X003801Y019681D01*
X003846Y019727D01*
X003846Y019817D01*
X003801Y019862D01*
X003756Y019862D01*
X003665Y019817D01*
X003665Y019952D01*
X003846Y019952D01*
X003960Y019681D02*
X004140Y019952D01*
X004255Y019952D02*
X004255Y019681D01*
X004255Y019772D02*
X004390Y019772D01*
X004435Y019817D01*
X004435Y019907D01*
X004390Y019952D01*
X004255Y019952D01*
X004549Y019907D02*
X004549Y019727D01*
X004594Y019681D01*
X004685Y019681D01*
X004730Y019727D01*
X004844Y019636D02*
X005024Y019636D01*
X005139Y019817D02*
X005319Y019817D01*
X005274Y019952D02*
X005139Y019817D01*
X005274Y019952D02*
X005274Y019681D01*
X004730Y019907D02*
X004685Y019952D01*
X004594Y019952D01*
X004549Y019907D01*
X004594Y020681D02*
X004685Y020681D01*
X004730Y020727D01*
X004594Y020681D02*
X004549Y020727D01*
X004549Y020907D01*
X004594Y020952D01*
X004685Y020952D01*
X004730Y020907D01*
X004844Y020636D02*
X005024Y020636D01*
X005139Y020727D02*
X005184Y020681D01*
X005274Y020681D01*
X005319Y020727D01*
X005319Y020772D01*
X005274Y020817D01*
X005139Y020817D01*
X005139Y020727D01*
X005139Y020817D02*
X005229Y020907D01*
X005319Y020952D01*
X004435Y020907D02*
X004435Y020817D01*
X004390Y020772D01*
X004255Y020772D01*
X004255Y020681D02*
X004255Y020952D01*
X004390Y020952D01*
X004435Y020907D01*
X004140Y020952D02*
X003960Y020681D01*
X003846Y020907D02*
X003665Y020727D01*
X003665Y020681D01*
X003551Y020636D02*
X003371Y020636D01*
X003256Y020727D02*
X003211Y020681D01*
X003121Y020681D01*
X003076Y020727D01*
X003076Y020907D01*
X003121Y020952D01*
X003211Y020952D01*
X003256Y020907D01*
X002962Y020907D02*
X002962Y020817D01*
X002917Y020772D01*
X002781Y020772D01*
X002781Y020681D02*
X002781Y020952D01*
X002917Y020952D01*
X002962Y020907D01*
X003665Y020952D02*
X003846Y020952D01*
X003846Y020907D01*
X002917Y019952D02*
X002962Y019907D01*
X002962Y019817D01*
X002917Y019772D01*
X002781Y019772D01*
X002781Y019681D02*
X002781Y019952D01*
X002917Y019952D01*
X002917Y017852D02*
X002962Y017807D01*
X002962Y017717D01*
X002917Y017672D01*
X002781Y017672D01*
X002781Y017581D02*
X002781Y017852D01*
X002917Y017852D01*
X003076Y017807D02*
X003076Y017627D01*
X003121Y017581D01*
X003211Y017581D01*
X003256Y017627D01*
X003256Y017807D02*
X003211Y017852D01*
X003121Y017852D01*
X003076Y017807D01*
X003076Y014852D02*
X003211Y014852D01*
X003256Y014807D01*
X003256Y014762D01*
X003211Y014717D01*
X003076Y014717D01*
X002962Y014717D02*
X002917Y014672D01*
X002781Y014672D01*
X002781Y014581D02*
X002781Y014852D01*
X002917Y014852D01*
X002962Y014807D01*
X002962Y014717D01*
X003076Y014852D02*
X003076Y014581D01*
X003211Y014581D01*
X003256Y014627D01*
X003256Y014672D01*
X003211Y014717D01*
X005229Y010907D02*
X005139Y010817D01*
X005274Y010817D01*
X005319Y010772D01*
X005319Y010727D01*
X005274Y010681D01*
X005184Y010681D01*
X005139Y010727D01*
X005139Y010817D01*
X005229Y010907D02*
X005319Y010952D01*
X004730Y009817D02*
X004549Y009817D01*
X004549Y009862D02*
X004549Y009681D01*
X003256Y009681D02*
X003256Y009862D01*
X003166Y009952D01*
X003076Y009862D01*
X003076Y009681D01*
X003076Y009817D02*
X003256Y009817D01*
X002962Y009817D02*
X002962Y009907D01*
X002917Y009952D01*
X002781Y009952D01*
X002781Y009681D01*
X002781Y009772D02*
X002917Y009772D01*
X002962Y009817D01*
X006781Y006822D02*
X006781Y006732D01*
X006826Y006687D01*
X007006Y006687D01*
X007051Y006732D01*
X007051Y006822D01*
X007006Y006867D01*
X006826Y006867D02*
X006781Y006822D01*
X006826Y006572D02*
X006781Y006527D01*
X006781Y006437D01*
X006826Y006392D01*
X007006Y006392D01*
X007051Y006437D01*
X007051Y006527D01*
X007006Y006572D01*
X006961Y006278D02*
X006781Y006278D01*
X006961Y006278D02*
X007051Y006188D01*
X006961Y006098D01*
X006781Y006098D01*
X007781Y006133D02*
X007781Y006043D01*
X007826Y005998D01*
X008006Y005998D01*
X008051Y006043D01*
X008051Y006133D01*
X008006Y006178D01*
X007916Y006178D01*
X007916Y006088D01*
X007826Y006178D02*
X007781Y006133D01*
X007781Y006292D02*
X008051Y006472D01*
X007781Y006472D01*
X007781Y006587D02*
X007781Y006722D01*
X007826Y006767D01*
X008006Y006767D01*
X008051Y006722D01*
X008051Y006587D01*
X007781Y006587D01*
X007781Y006292D02*
X008051Y006292D01*
X008781Y006292D02*
X008781Y006427D01*
X008826Y006472D01*
X009006Y006472D01*
X009051Y006427D01*
X009051Y006292D01*
X008781Y006292D01*
X008826Y006178D02*
X008781Y006133D01*
X008781Y006043D01*
X008826Y005998D01*
X008871Y005998D01*
X008916Y006043D01*
X008916Y006133D01*
X008961Y006178D01*
X009006Y006178D01*
X009051Y006133D01*
X009051Y006043D01*
X009006Y005998D01*
X009051Y006587D02*
X008871Y006587D01*
X008781Y006677D01*
X008871Y006767D01*
X009051Y006767D01*
X008916Y006767D02*
X008916Y006587D01*
X009781Y006587D02*
X010051Y006587D01*
X010051Y006767D01*
X010006Y006472D02*
X010051Y006427D01*
X010051Y006337D01*
X010006Y006292D01*
X009826Y006292D01*
X009781Y006337D01*
X009781Y006427D01*
X009826Y006472D01*
X009826Y006178D02*
X009781Y006133D01*
X009781Y006043D01*
X009826Y005998D01*
X009871Y005998D01*
X009916Y006043D01*
X009916Y006133D01*
X009961Y006178D01*
X010006Y006178D01*
X010051Y006133D01*
X010051Y006043D01*
X010006Y005998D01*
X010781Y006043D02*
X010781Y005908D01*
X011051Y005908D01*
X010961Y005908D02*
X010961Y006043D01*
X010916Y006088D01*
X010826Y006088D01*
X010781Y006043D01*
X010781Y006203D02*
X011051Y006203D01*
X011051Y006383D01*
X011006Y006498D02*
X011051Y006543D01*
X011051Y006633D01*
X011006Y006678D01*
X010961Y006678D01*
X010916Y006633D01*
X010916Y006543D01*
X010871Y006498D01*
X010826Y006498D01*
X010781Y006543D01*
X010781Y006633D01*
X010826Y006678D01*
X010781Y006792D02*
X011051Y006792D01*
X011051Y006972D01*
X010916Y006882D02*
X010916Y006792D01*
X010781Y006792D02*
X010781Y006972D01*
X010781Y007087D02*
X010781Y007267D01*
X010781Y007177D02*
X011051Y007177D01*
X010781Y006383D02*
X010781Y006203D01*
X010916Y006203D02*
X010916Y006293D01*
X011051Y006088D02*
X010961Y005998D01*
X011781Y005986D02*
X011781Y005896D01*
X011781Y005941D02*
X012051Y005941D01*
X012051Y005896D02*
X012051Y005986D01*
X012051Y006092D02*
X011781Y006092D01*
X012051Y006272D01*
X011781Y006272D01*
X011781Y006387D02*
X011781Y006567D01*
X011781Y006477D02*
X012051Y006477D01*
X012431Y006012D02*
X012522Y006102D01*
X012522Y005831D01*
X012612Y005831D02*
X012431Y005831D01*
X013981Y005852D02*
X013981Y005581D01*
X013981Y005672D02*
X014117Y005672D01*
X014162Y005717D01*
X014162Y005807D01*
X014117Y005852D01*
X013981Y005852D01*
X014276Y005762D02*
X014276Y005581D01*
X014276Y005717D02*
X014456Y005717D01*
X014456Y005762D02*
X014456Y005581D01*
X014571Y005536D02*
X014751Y005536D01*
X014865Y005717D02*
X015001Y005852D01*
X015001Y005581D01*
X015046Y005717D02*
X014865Y005717D01*
X014456Y005762D02*
X014366Y005852D01*
X014276Y005762D01*
X014276Y006481D02*
X014276Y006662D01*
X014366Y006752D01*
X014456Y006662D01*
X014456Y006481D01*
X014571Y006436D02*
X014751Y006436D01*
X014865Y006527D02*
X014865Y006617D01*
X015001Y006617D01*
X015046Y006572D01*
X015046Y006527D01*
X015001Y006481D01*
X014910Y006481D01*
X014865Y006527D01*
X014865Y006617D02*
X014956Y006707D01*
X015046Y006752D01*
X015012Y007231D02*
X014831Y007231D01*
X014922Y007231D02*
X014922Y007502D01*
X014831Y007412D01*
X014456Y006617D02*
X014276Y006617D01*
X014162Y006617D02*
X014117Y006572D01*
X013981Y006572D01*
X013981Y006481D02*
X013981Y006752D01*
X014117Y006752D01*
X014162Y006707D01*
X014162Y006617D01*
X014117Y004852D02*
X013981Y004852D01*
X013981Y004581D01*
X013981Y004672D02*
X014117Y004672D01*
X014162Y004717D01*
X014162Y004807D01*
X014117Y004852D01*
X014276Y004762D02*
X014276Y004581D01*
X014276Y004717D02*
X014456Y004717D01*
X014456Y004762D02*
X014456Y004581D01*
X014571Y004536D02*
X014751Y004536D01*
X014865Y004581D02*
X015046Y004762D01*
X015046Y004807D01*
X015001Y004852D01*
X014910Y004852D01*
X014865Y004807D01*
X014865Y004581D02*
X015046Y004581D01*
X014456Y004762D02*
X014366Y004852D01*
X014276Y004762D01*
X014366Y003852D02*
X014456Y003762D01*
X014456Y003581D01*
X014571Y003536D02*
X014751Y003536D01*
X014865Y003627D02*
X015046Y003807D01*
X015046Y003627D01*
X015001Y003581D01*
X014910Y003581D01*
X014865Y003627D01*
X014865Y003807D01*
X014910Y003852D01*
X015001Y003852D01*
X015046Y003807D01*
X014456Y003717D02*
X014276Y003717D01*
X014276Y003762D02*
X014366Y003852D01*
X014276Y003762D02*
X014276Y003581D01*
X014162Y003717D02*
X014117Y003672D01*
X013981Y003672D01*
X013981Y003581D02*
X013981Y003852D01*
X014117Y003852D01*
X014162Y003807D01*
X014162Y003717D01*
X014327Y002852D02*
X014281Y002807D01*
X014281Y002627D01*
X014327Y002581D01*
X014417Y002581D01*
X014462Y002627D01*
X014462Y002717D01*
X014372Y002717D01*
X014462Y002807D02*
X014417Y002852D01*
X014327Y002852D01*
X014576Y002852D02*
X014576Y002581D01*
X014756Y002581D02*
X014576Y002852D01*
X014756Y002852D02*
X014756Y002581D01*
X014871Y002581D02*
X014871Y002852D01*
X015006Y002852D01*
X015051Y002807D01*
X015051Y002627D01*
X015006Y002581D01*
X014871Y002581D01*
X014916Y001852D02*
X014871Y001807D01*
X014871Y001627D01*
X014916Y001581D01*
X015006Y001581D01*
X015051Y001627D01*
X015051Y001807D02*
X015006Y001852D01*
X014916Y001852D01*
X014756Y001807D02*
X014711Y001852D01*
X014621Y001852D01*
X014576Y001807D01*
X014576Y001627D01*
X014621Y001581D01*
X014711Y001581D01*
X014756Y001627D01*
X014462Y001672D02*
X014462Y001852D01*
X014462Y001672D02*
X014372Y001581D01*
X014281Y001672D01*
X014281Y001852D01*
X014372Y010581D02*
X014462Y010672D01*
X014462Y010852D01*
X014576Y010807D02*
X014576Y010627D01*
X014621Y010581D01*
X014711Y010581D01*
X014756Y010627D01*
X014871Y010627D02*
X014871Y010807D01*
X014916Y010852D01*
X015006Y010852D01*
X015051Y010807D01*
X015051Y010627D02*
X015006Y010581D01*
X014916Y010581D01*
X014871Y010627D01*
X014756Y010807D02*
X014711Y010852D01*
X014621Y010852D01*
X014576Y010807D01*
X014281Y010852D02*
X014281Y010672D01*
X014372Y010581D01*
X014417Y011581D02*
X014462Y011627D01*
X014462Y011717D01*
X014372Y011717D01*
X014462Y011807D02*
X014417Y011852D01*
X014327Y011852D01*
X014281Y011807D01*
X014281Y011627D01*
X014327Y011581D01*
X014417Y011581D01*
X014576Y011581D02*
X014576Y011852D01*
X014756Y011581D01*
X014756Y011852D01*
X014871Y011852D02*
X014871Y011581D01*
X015006Y011581D01*
X015051Y011627D01*
X015051Y011807D01*
X015006Y011852D01*
X014871Y011852D01*
X014824Y012536D02*
X014644Y012536D01*
X014530Y012627D02*
X014485Y012581D01*
X014349Y012581D01*
X014349Y012852D01*
X014485Y012852D01*
X014530Y012807D01*
X014530Y012762D01*
X014485Y012717D01*
X014349Y012717D01*
X014235Y012717D02*
X014190Y012672D01*
X014055Y012672D01*
X014055Y012581D02*
X014055Y012852D01*
X014190Y012852D01*
X014235Y012807D01*
X014235Y012717D01*
X014485Y012717D02*
X014530Y012672D01*
X014530Y012627D01*
X014939Y012581D02*
X015119Y012581D01*
X015029Y012581D02*
X015029Y012852D01*
X014939Y012762D01*
X014824Y013536D02*
X014644Y013536D01*
X014530Y013627D02*
X014485Y013581D01*
X014349Y013581D01*
X014349Y013852D01*
X014485Y013852D01*
X014530Y013807D01*
X014530Y013762D01*
X014485Y013717D01*
X014349Y013717D01*
X014235Y013717D02*
X014190Y013672D01*
X014055Y013672D01*
X014055Y013581D02*
X014055Y013852D01*
X014190Y013852D01*
X014235Y013807D01*
X014235Y013717D01*
X014485Y013717D02*
X014530Y013672D01*
X014530Y013627D01*
X014939Y013627D02*
X014984Y013581D01*
X015074Y013581D01*
X015119Y013627D01*
X015119Y013672D01*
X015074Y013717D01*
X015029Y013717D01*
X015074Y013717D02*
X015119Y013762D01*
X015119Y013807D01*
X015074Y013852D01*
X014984Y013852D01*
X014939Y013807D01*
X014824Y014536D02*
X014644Y014536D01*
X014530Y014627D02*
X014485Y014581D01*
X014349Y014581D01*
X014349Y014852D01*
X014485Y014852D01*
X014530Y014807D01*
X014530Y014762D01*
X014485Y014717D01*
X014349Y014717D01*
X014235Y014717D02*
X014190Y014672D01*
X014055Y014672D01*
X014055Y014581D02*
X014055Y014852D01*
X014190Y014852D01*
X014235Y014807D01*
X014235Y014717D01*
X014485Y014717D02*
X014530Y014672D01*
X014530Y014627D01*
X014939Y014627D02*
X014984Y014581D01*
X015074Y014581D01*
X015119Y014627D01*
X015119Y014717D01*
X015074Y014762D01*
X015029Y014762D01*
X014939Y014717D01*
X014939Y014852D01*
X015119Y014852D01*
X014824Y015536D02*
X014644Y015536D01*
X014530Y015627D02*
X014485Y015581D01*
X014349Y015581D01*
X014349Y015852D01*
X014485Y015852D01*
X014530Y015807D01*
X014530Y015762D01*
X014485Y015717D01*
X014349Y015717D01*
X014235Y015717D02*
X014190Y015672D01*
X014055Y015672D01*
X014055Y015581D02*
X014055Y015852D01*
X014190Y015852D01*
X014235Y015807D01*
X014235Y015717D01*
X014485Y015717D02*
X014530Y015672D01*
X014530Y015627D01*
X014939Y015627D02*
X014939Y015581D01*
X014939Y015627D02*
X015119Y015807D01*
X015119Y015852D01*
X014939Y015852D01*
X014931Y016231D02*
X015112Y016231D01*
X015022Y016231D02*
X015022Y016502D01*
X014931Y016412D01*
X013940Y015852D02*
X013760Y015581D01*
X013646Y015627D02*
X013601Y015581D01*
X013510Y015581D01*
X013465Y015627D01*
X013465Y015717D01*
X013601Y015717D01*
X013646Y015672D01*
X013646Y015627D01*
X013556Y015807D02*
X013646Y015852D01*
X013556Y015807D02*
X013465Y015717D01*
X013351Y015536D02*
X013171Y015536D01*
X013056Y015627D02*
X013011Y015581D01*
X012876Y015581D01*
X012876Y015852D01*
X013011Y015852D01*
X013056Y015807D01*
X013056Y015762D01*
X013011Y015717D01*
X012876Y015717D01*
X012762Y015717D02*
X012717Y015672D01*
X012581Y015672D01*
X012581Y015581D02*
X012581Y015852D01*
X012717Y015852D01*
X012762Y015807D01*
X012762Y015717D01*
X013011Y015717D02*
X013056Y015672D01*
X013056Y015627D01*
X013011Y014852D02*
X012876Y014852D01*
X012876Y014581D01*
X013011Y014581D01*
X013056Y014627D01*
X013056Y014672D01*
X013011Y014717D01*
X012876Y014717D01*
X012762Y014717D02*
X012717Y014672D01*
X012581Y014672D01*
X012581Y014581D02*
X012581Y014852D01*
X012717Y014852D01*
X012762Y014807D01*
X012762Y014717D01*
X013011Y014717D02*
X013056Y014762D01*
X013056Y014807D01*
X013011Y014852D01*
X013171Y014536D02*
X013351Y014536D01*
X013465Y014717D02*
X013646Y014717D01*
X013601Y014852D02*
X013601Y014581D01*
X013760Y014581D02*
X013940Y014852D01*
X013601Y014852D02*
X013465Y014717D01*
X013510Y013852D02*
X013465Y013807D01*
X013510Y013852D02*
X013601Y013852D01*
X013646Y013807D01*
X013646Y013762D01*
X013465Y013581D01*
X013646Y013581D01*
X013760Y013581D02*
X013940Y013852D01*
X013351Y013536D02*
X013171Y013536D01*
X013056Y013627D02*
X013011Y013581D01*
X012876Y013581D01*
X012876Y013852D01*
X013011Y013852D01*
X013056Y013807D01*
X013056Y013762D01*
X013011Y013717D01*
X012876Y013717D01*
X012762Y013717D02*
X012717Y013672D01*
X012581Y013672D01*
X012581Y013581D02*
X012581Y013852D01*
X012717Y013852D01*
X012762Y013807D01*
X012762Y013717D01*
X013011Y013717D02*
X013056Y013672D01*
X013056Y013627D01*
X013011Y012852D02*
X012876Y012852D01*
X012876Y012581D01*
X013011Y012581D01*
X013056Y012627D01*
X013056Y012672D01*
X013011Y012717D01*
X012876Y012717D01*
X012762Y012717D02*
X012717Y012672D01*
X012581Y012672D01*
X012581Y012581D02*
X012581Y012852D01*
X012717Y012852D01*
X012762Y012807D01*
X012762Y012717D01*
X013011Y012717D02*
X013056Y012762D01*
X013056Y012807D01*
X013011Y012852D01*
X013171Y012536D02*
X013351Y012536D01*
X013465Y012627D02*
X013646Y012807D01*
X013646Y012627D01*
X013601Y012581D01*
X013510Y012581D01*
X013465Y012627D01*
X013465Y012807D01*
X013510Y012852D01*
X013601Y012852D01*
X013646Y012807D01*
X013760Y012581D02*
X013940Y012852D01*
X014372Y019581D02*
X014462Y019672D01*
X014462Y019852D01*
X014576Y019807D02*
X014576Y019627D01*
X014621Y019581D01*
X014711Y019581D01*
X014756Y019627D01*
X014871Y019627D02*
X014871Y019807D01*
X014916Y019852D01*
X015006Y019852D01*
X015051Y019807D01*
X015051Y019627D02*
X015006Y019581D01*
X014916Y019581D01*
X014871Y019627D01*
X014756Y019807D02*
X014711Y019852D01*
X014621Y019852D01*
X014576Y019807D01*
X014281Y019852D02*
X014281Y019672D01*
X014372Y019581D01*
X014417Y020581D02*
X014462Y020627D01*
X014462Y020717D01*
X014372Y020717D01*
X014462Y020807D02*
X014417Y020852D01*
X014327Y020852D01*
X014281Y020807D01*
X014281Y020627D01*
X014327Y020581D01*
X014417Y020581D01*
X014576Y020581D02*
X014576Y020852D01*
X014756Y020581D01*
X014756Y020852D01*
X014871Y020852D02*
X014871Y020581D01*
X015006Y020581D01*
X015051Y020627D01*
X015051Y020807D01*
X015006Y020852D01*
X014871Y020852D01*
X014751Y021536D02*
X014571Y021536D01*
X014456Y021627D02*
X014411Y021581D01*
X014321Y021581D01*
X014276Y021627D01*
X014276Y021807D01*
X014321Y021852D01*
X014411Y021852D01*
X014456Y021807D01*
X014162Y021807D02*
X014162Y021717D01*
X014117Y021672D01*
X013981Y021672D01*
X013981Y021581D02*
X013981Y021852D01*
X014117Y021852D01*
X014162Y021807D01*
X014321Y022581D02*
X014411Y022581D01*
X014456Y022627D01*
X014321Y022581D02*
X014276Y022627D01*
X014276Y022807D01*
X014321Y022852D01*
X014411Y022852D01*
X014456Y022807D01*
X014571Y022536D02*
X014751Y022536D01*
X014865Y022581D02*
X015046Y022762D01*
X015046Y022807D01*
X015001Y022852D01*
X014910Y022852D01*
X014865Y022807D01*
X014865Y022581D02*
X015046Y022581D01*
X015001Y021852D02*
X015046Y021807D01*
X014865Y021627D01*
X014910Y021581D01*
X015001Y021581D01*
X015046Y021627D01*
X015046Y021807D01*
X015001Y021852D02*
X014910Y021852D01*
X014865Y021807D01*
X014865Y021627D01*
X014117Y022672D02*
X013981Y022672D01*
X013981Y022581D02*
X013981Y022852D01*
X014117Y022852D01*
X014162Y022807D01*
X014162Y022717D01*
X014117Y022672D01*
X014571Y023536D02*
X014751Y023536D01*
X014865Y023717D02*
X015046Y023717D01*
X015001Y023852D02*
X014865Y023717D01*
X015001Y023852D02*
X015001Y023581D01*
X014456Y023627D02*
X014411Y023581D01*
X014321Y023581D01*
X014276Y023627D01*
X014276Y023807D01*
X014321Y023852D01*
X014411Y023852D01*
X014456Y023807D01*
X014162Y023807D02*
X014162Y023717D01*
X014117Y023672D01*
X013981Y023672D01*
X013981Y023581D02*
X013981Y023852D01*
X014117Y023852D01*
X014162Y023807D01*
X014321Y024581D02*
X014411Y024581D01*
X014456Y024627D01*
X014321Y024581D02*
X014276Y024627D01*
X014276Y024807D01*
X014321Y024852D01*
X014411Y024852D01*
X014456Y024807D01*
X014571Y024536D02*
X014751Y024536D01*
X014865Y024627D02*
X014865Y024717D01*
X015001Y024717D01*
X015046Y024672D01*
X015046Y024627D01*
X015001Y024581D01*
X014910Y024581D01*
X014865Y024627D01*
X014865Y024717D02*
X014956Y024807D01*
X015046Y024852D01*
X015012Y025231D02*
X014831Y025231D01*
X014922Y025231D02*
X014922Y025502D01*
X014831Y025412D01*
X014162Y024807D02*
X014162Y024717D01*
X014117Y024672D01*
X013981Y024672D01*
X013981Y024581D02*
X013981Y024852D01*
X014117Y024852D01*
X014162Y024807D01*
X011986Y021351D02*
X012031Y021306D01*
X012031Y021216D01*
X011986Y021171D01*
X011806Y021171D01*
X011761Y021216D01*
X011761Y021306D01*
X011806Y021351D01*
X011806Y021056D02*
X011761Y021011D01*
X011761Y020921D01*
X011806Y020876D01*
X011986Y020876D01*
X012031Y020921D01*
X012031Y021011D01*
X011986Y021056D01*
X011941Y020762D02*
X011761Y020762D01*
X011941Y020762D02*
X012031Y020672D01*
X011941Y020581D01*
X011761Y020581D01*
X011031Y020627D02*
X011031Y020717D01*
X010986Y020762D01*
X010896Y020762D01*
X010896Y020672D01*
X010806Y020762D02*
X010761Y020717D01*
X010761Y020627D01*
X010806Y020581D01*
X010986Y020581D01*
X011031Y020627D01*
X011031Y020876D02*
X010761Y020876D01*
X011031Y021056D01*
X010761Y021056D01*
X010761Y021171D02*
X010761Y021306D01*
X010806Y021351D01*
X010986Y021351D01*
X011031Y021306D01*
X011031Y021171D01*
X010761Y021171D01*
X010031Y021171D02*
X009851Y021171D01*
X009761Y021261D01*
X009851Y021351D01*
X010031Y021351D01*
X009896Y021351D02*
X009896Y021171D01*
X009806Y021056D02*
X009761Y021011D01*
X009761Y020876D01*
X010031Y020876D01*
X010031Y021011D01*
X009986Y021056D01*
X009806Y021056D01*
X009806Y020762D02*
X009761Y020717D01*
X009761Y020627D01*
X009806Y020581D01*
X009851Y020581D01*
X009896Y020627D01*
X009896Y020717D01*
X009941Y020762D01*
X009986Y020762D01*
X010031Y020717D01*
X010031Y020627D01*
X009986Y020581D01*
X009031Y020727D02*
X008986Y020681D01*
X009031Y020727D02*
X009031Y020817D01*
X008986Y020862D01*
X008941Y020862D01*
X008896Y020817D01*
X008896Y020727D01*
X008851Y020681D01*
X008806Y020681D01*
X008761Y020727D01*
X008761Y020817D01*
X008806Y020862D01*
X008806Y020976D02*
X008986Y020976D01*
X009031Y021021D01*
X009031Y021111D01*
X008986Y021156D01*
X009031Y021271D02*
X009031Y021451D01*
X009031Y021271D02*
X008761Y021271D01*
X008806Y021156D02*
X008761Y021111D01*
X008761Y021021D01*
X008806Y020976D01*
X008031Y020906D02*
X008031Y020816D01*
X007986Y020771D01*
X007896Y020816D02*
X007896Y020906D01*
X007941Y020951D01*
X007986Y020951D01*
X008031Y020906D01*
X008031Y021065D02*
X008031Y021246D01*
X007896Y021156D02*
X007896Y021065D01*
X007761Y021065D02*
X008031Y021065D01*
X007806Y020951D02*
X007761Y020906D01*
X007761Y020816D01*
X007806Y020771D01*
X007851Y020771D01*
X007896Y020816D01*
X007761Y020656D02*
X007761Y020476D01*
X008031Y020476D01*
X008031Y020656D01*
X007896Y020566D02*
X007896Y020476D01*
X007896Y020362D02*
X007941Y020317D01*
X007941Y020181D01*
X008031Y020181D02*
X007761Y020181D01*
X007761Y020317D01*
X007806Y020362D01*
X007896Y020362D01*
X007941Y020272D02*
X008031Y020362D01*
X007761Y021065D02*
X007761Y021246D01*
X007761Y021360D02*
X007761Y021540D01*
X007761Y021450D02*
X008031Y021450D01*
X007031Y021463D02*
X006761Y021463D01*
X006761Y021373D02*
X006761Y021553D01*
X006761Y021258D02*
X007031Y021258D01*
X006761Y021078D01*
X007031Y021078D01*
X007031Y020972D02*
X007031Y020881D01*
X007031Y020927D02*
X006761Y020927D01*
X006761Y020972D02*
X006761Y020881D01*
X006312Y021431D02*
X006131Y021431D01*
X006222Y021431D02*
X006222Y021702D01*
X006131Y021612D01*
X000712Y021331D02*
X000531Y021331D01*
X000622Y021331D02*
X000622Y021602D01*
X000531Y021512D01*
X003461Y004852D02*
X003551Y004762D01*
X003461Y004852D02*
X003371Y004762D01*
D12*
X006406Y004506D02*
X006406Y000906D01*
X012406Y000906D01*
X012406Y004206D01*
X017006Y001206D02*
X020006Y001206D01*
X020006Y007206D01*
X017006Y007206D01*
X017006Y010206D02*
X020006Y010206D01*
X020006Y016206D01*
X017006Y016206D01*
X017006Y019206D02*
X020006Y019206D01*
X020006Y025206D01*
X016906Y025206D01*
X012406Y026506D02*
X012406Y023006D01*
X012406Y026506D02*
X006406Y026506D01*
X006406Y023206D01*
D13*
X005719Y024007D02*
X005719Y024167D01*
X005559Y024327D01*
X005364Y024247D02*
X005284Y024327D01*
X005124Y024327D01*
X005043Y024247D01*
X005032Y024546D02*
X004952Y024627D01*
X004952Y024947D01*
X004872Y024867D02*
X005032Y024867D01*
X005215Y024787D02*
X005215Y024627D01*
X005295Y024546D01*
X005456Y024546D01*
X005536Y024627D01*
X005536Y024787D01*
X005456Y024867D01*
X005295Y024867D01*
X005215Y024787D01*
X005364Y024247D02*
X005364Y024167D01*
X005043Y023846D01*
X005364Y023846D01*
X005559Y023846D02*
X005719Y024007D01*
X005384Y023467D02*
X005464Y023387D01*
X005464Y023307D01*
X005143Y023307D01*
X005143Y023387D02*
X005224Y023467D01*
X005384Y023467D01*
X005143Y023387D02*
X005143Y023227D01*
X005224Y023146D01*
X005384Y023146D01*
X004960Y023146D02*
X004800Y023146D01*
X004880Y023146D02*
X004880Y023627D01*
X004800Y023627D01*
X004848Y023846D02*
X004528Y023846D01*
X004688Y023846D02*
X004688Y024327D01*
X004528Y024167D01*
X004344Y024327D02*
X004184Y024167D01*
X004184Y024007D01*
X004344Y023846D01*
X004089Y023627D02*
X004089Y023146D01*
X003849Y023146D01*
X003768Y023227D01*
X003768Y023387D01*
X003849Y023467D01*
X004089Y023467D01*
X004284Y023467D02*
X004284Y023227D01*
X004364Y023146D01*
X004604Y023146D01*
X004604Y023467D01*
X004668Y022867D02*
X004668Y022546D01*
X004668Y022707D02*
X004829Y022867D01*
X004909Y022867D01*
X004473Y022787D02*
X004473Y022627D01*
X004393Y022546D01*
X004233Y022546D01*
X004153Y022627D01*
X004153Y022787D01*
X004233Y022867D01*
X004393Y022867D01*
X004473Y022787D01*
X003969Y022867D02*
X003809Y022867D01*
X003889Y022947D02*
X003889Y022627D01*
X003969Y022546D01*
X003614Y022627D02*
X003614Y022787D01*
X003534Y022867D01*
X003293Y022867D01*
X003293Y022386D01*
X003293Y022546D02*
X003534Y022546D01*
X003614Y022627D01*
X003493Y023146D02*
X003333Y023146D01*
X003253Y023227D01*
X003253Y023387D01*
X003333Y023467D01*
X003493Y023467D01*
X003573Y023387D01*
X003573Y023227D01*
X003493Y023146D01*
X003057Y023146D02*
X003057Y023627D01*
X002897Y023467D01*
X002737Y023627D01*
X002737Y023146D01*
X002582Y023027D02*
X002582Y022546D01*
X002342Y022546D01*
X002262Y022627D01*
X002262Y022787D01*
X002342Y022867D01*
X002582Y022867D01*
X002858Y022867D02*
X003018Y022867D01*
X003098Y022787D01*
X003098Y022546D01*
X002858Y022546D01*
X002778Y022627D01*
X002858Y022707D01*
X003098Y022707D01*
X003233Y023846D02*
X003153Y023927D01*
X003153Y024087D01*
X003233Y024167D01*
X003393Y024167D01*
X003473Y024087D01*
X003473Y024007D01*
X003153Y024007D01*
X003233Y023846D02*
X003393Y023846D01*
X002957Y024167D02*
X002797Y023846D01*
X002637Y024167D01*
X002373Y024327D02*
X002373Y023846D01*
X002293Y023846D02*
X002454Y023846D01*
X002098Y024007D02*
X001778Y024007D01*
X001778Y024087D02*
X001858Y024167D01*
X002018Y024167D01*
X002098Y024087D01*
X002098Y024007D01*
X002018Y023846D02*
X001858Y023846D01*
X001778Y023927D01*
X001778Y024087D01*
X001582Y024167D02*
X001582Y023927D01*
X001502Y023846D01*
X001422Y023927D01*
X001342Y023846D01*
X001262Y023927D01*
X001262Y024167D01*
X001067Y024327D02*
X000746Y024327D01*
X000907Y024327D02*
X000907Y023846D01*
X000846Y023627D02*
X001087Y023627D01*
X001167Y023547D01*
X001167Y023387D01*
X001087Y023307D01*
X000846Y023307D01*
X000846Y023146D02*
X000846Y023627D01*
X001362Y023467D02*
X001442Y023467D01*
X001442Y023146D01*
X001362Y023146D02*
X001522Y023146D01*
X001706Y023146D02*
X001706Y023467D01*
X001946Y023467D01*
X002026Y023387D01*
X002026Y023146D01*
X001907Y023027D02*
X002067Y022867D01*
X002067Y022546D01*
X002067Y022787D02*
X001746Y022787D01*
X001746Y022867D02*
X001907Y023027D01*
X001746Y022867D02*
X001746Y022546D01*
X001442Y023627D02*
X001442Y023707D01*
X001262Y024546D02*
X001262Y025027D01*
X001502Y025027D01*
X001582Y024947D01*
X001582Y024787D01*
X001502Y024707D01*
X001262Y024707D01*
X001067Y024627D02*
X000987Y024546D01*
X000827Y024546D01*
X000746Y024627D01*
X000746Y024947D01*
X000827Y025027D01*
X000987Y025027D01*
X001067Y024947D01*
X001778Y025027D02*
X001778Y024546D01*
X001938Y024867D02*
X002098Y025027D01*
X002098Y024546D01*
X002293Y024327D02*
X002373Y024327D01*
X002293Y024787D02*
X002614Y024787D01*
X002809Y024787D02*
X003129Y024787D01*
X003325Y024627D02*
X003325Y024947D01*
X003405Y025027D01*
X003565Y025027D01*
X003645Y024947D01*
X003325Y024627D01*
X003405Y024546D01*
X003565Y024546D01*
X003645Y024627D01*
X003645Y024947D01*
X003840Y024947D02*
X003840Y024867D01*
X003920Y024787D01*
X004081Y024787D01*
X004161Y024707D01*
X004161Y024627D01*
X004081Y024546D01*
X003920Y024546D01*
X003840Y024627D01*
X003840Y024947D02*
X003920Y025027D01*
X004081Y025027D01*
X004161Y024947D01*
X003049Y025027D02*
X003049Y024546D01*
X002809Y024787D02*
X003049Y025027D01*
X001938Y024867D02*
X001778Y025027D01*
X012586Y025325D02*
X012586Y025485D01*
X012586Y025405D02*
X013066Y025405D01*
X013066Y025325D02*
X013066Y025485D01*
X013066Y025668D02*
X012746Y025989D01*
X012666Y025989D01*
X012586Y025909D01*
X012586Y025749D01*
X012666Y025668D01*
X013066Y025668D02*
X013066Y025989D01*
X012986Y026184D02*
X013066Y026264D01*
X013066Y026424D01*
X012986Y026504D01*
X012986Y026184D02*
X012666Y026184D01*
X012586Y026264D01*
X012586Y026424D01*
X012666Y026504D01*
X012826Y024614D02*
X012826Y024293D01*
X012586Y023582D02*
X012586Y023262D01*
X013066Y023262D01*
X013066Y023582D01*
X012826Y023422D02*
X012826Y023262D01*
X012826Y023067D02*
X012906Y022987D01*
X012906Y022746D01*
X013066Y022746D02*
X012586Y022746D01*
X012586Y022987D01*
X012666Y023067D01*
X012826Y023067D01*
X015578Y019067D02*
X015818Y019067D01*
X015898Y018987D01*
X015898Y018827D01*
X015818Y018747D01*
X015578Y018747D01*
X015578Y018586D02*
X015578Y019067D01*
X016093Y018907D02*
X016093Y018586D01*
X016093Y018827D02*
X016414Y018827D01*
X016414Y018907D02*
X016414Y018586D01*
X016414Y018907D02*
X016253Y019067D01*
X016093Y018907D01*
X017125Y018827D02*
X017445Y018827D01*
X018156Y018987D02*
X018156Y018667D01*
X018236Y018586D01*
X018396Y018586D01*
X018476Y018667D01*
X018476Y018827D01*
X018316Y018827D01*
X018476Y018987D02*
X018396Y019067D01*
X018236Y019067D01*
X018156Y018987D01*
X018671Y019067D02*
X018671Y018586D01*
X018671Y018747D02*
X018912Y018747D01*
X018992Y018827D01*
X018992Y018987D01*
X018912Y019067D01*
X018671Y019067D01*
X019187Y019067D02*
X019347Y019067D01*
X019267Y019067D02*
X019267Y018586D01*
X019187Y018586D02*
X019347Y018586D01*
X019531Y018667D02*
X019611Y018586D01*
X019771Y018586D01*
X019851Y018667D01*
X019851Y018987D01*
X019771Y019067D01*
X019611Y019067D01*
X019531Y018987D01*
X019531Y018667D01*
X019511Y009967D02*
X019431Y009887D01*
X019431Y009567D01*
X019511Y009486D01*
X019671Y009486D01*
X019751Y009567D01*
X019751Y009887D01*
X019671Y009967D01*
X019511Y009967D01*
X019247Y009967D02*
X019087Y009967D01*
X019167Y009967D02*
X019167Y009486D01*
X019087Y009486D02*
X019247Y009486D01*
X018892Y009727D02*
X018892Y009887D01*
X018812Y009967D01*
X018571Y009967D01*
X018571Y009486D01*
X018571Y009647D02*
X018812Y009647D01*
X018892Y009727D01*
X018376Y009727D02*
X018376Y009567D01*
X018296Y009486D01*
X018136Y009486D01*
X018056Y009567D01*
X018056Y009887D01*
X018136Y009967D01*
X018296Y009967D01*
X018376Y009887D01*
X018376Y009727D02*
X018216Y009727D01*
X017345Y009727D02*
X017025Y009727D01*
X016314Y009807D02*
X016233Y009727D01*
X015993Y009727D01*
X015798Y009727D02*
X015798Y009887D01*
X015718Y009967D01*
X015478Y009967D01*
X015478Y009486D01*
X015478Y009647D02*
X015718Y009647D01*
X015798Y009727D01*
X015993Y009967D02*
X015993Y009486D01*
X016233Y009486D01*
X016314Y009567D01*
X016314Y009647D01*
X016233Y009727D01*
X016314Y009807D02*
X016314Y009887D01*
X016233Y009967D01*
X015993Y009967D01*
X012986Y004604D02*
X013066Y004524D01*
X013066Y004364D01*
X012986Y004284D01*
X012666Y004284D01*
X012586Y004364D01*
X012586Y004524D01*
X012666Y004604D01*
X012666Y004089D02*
X012586Y004009D01*
X012586Y003849D01*
X012666Y003768D01*
X012586Y003585D02*
X012586Y003425D01*
X012586Y003505D02*
X013066Y003505D01*
X013066Y003425D02*
X013066Y003585D01*
X013066Y003768D02*
X012746Y004089D01*
X012666Y004089D01*
X013066Y004089D02*
X013066Y003768D01*
X012826Y002714D02*
X012826Y002393D01*
X012666Y001682D02*
X012586Y001602D01*
X012586Y001362D01*
X013066Y001362D01*
X013066Y001602D01*
X012986Y001682D01*
X012666Y001682D01*
X012666Y001167D02*
X012826Y001167D01*
X012906Y001087D01*
X012906Y000846D01*
X013066Y000846D02*
X012586Y000846D01*
X012586Y001087D01*
X012666Y001167D01*
X015378Y000967D02*
X015378Y000486D01*
X015378Y000647D02*
X015618Y000647D01*
X015698Y000727D01*
X015698Y000887D01*
X015618Y000967D01*
X015378Y000967D01*
X015893Y000807D02*
X015893Y000486D01*
X015893Y000727D02*
X016214Y000727D01*
X016214Y000807D02*
X016214Y000486D01*
X016214Y000807D02*
X016053Y000967D01*
X015893Y000807D01*
X016925Y000727D02*
X017245Y000727D01*
X017956Y000887D02*
X017956Y000567D01*
X018036Y000486D01*
X018196Y000486D01*
X018276Y000567D01*
X018276Y000727D01*
X018116Y000727D01*
X018276Y000887D02*
X018196Y000967D01*
X018036Y000967D01*
X017956Y000887D01*
X018471Y000967D02*
X018471Y000486D01*
X018471Y000647D02*
X018712Y000647D01*
X018792Y000727D01*
X018792Y000887D01*
X018712Y000967D01*
X018471Y000967D01*
X018987Y000967D02*
X019147Y000967D01*
X019067Y000967D02*
X019067Y000486D01*
X018987Y000486D02*
X019147Y000486D01*
X019331Y000567D02*
X019411Y000486D01*
X019571Y000486D01*
X019651Y000567D01*
X019651Y000887D01*
X019571Y000967D01*
X019411Y000967D01*
X019331Y000887D01*
X019331Y000567D01*
X005806Y002456D02*
X005806Y002956D01*
X005556Y003206D01*
X005056Y003206D01*
X004806Y002956D01*
X004556Y003206D01*
X004056Y003206D01*
X003806Y002956D01*
X003556Y003206D01*
X003056Y003206D01*
X002806Y002956D01*
X002806Y002456D01*
X003056Y002206D01*
X003556Y002206D01*
X003806Y002456D01*
X004056Y002206D01*
X004556Y002206D01*
X004806Y002456D01*
X005056Y002206D01*
X005556Y002206D01*
X005806Y002456D01*
D14*
X006656Y003706D02*
X006406Y003956D01*
X006406Y005456D01*
X006656Y005706D01*
X007156Y005706D01*
X007406Y005456D01*
X007656Y005706D01*
X008156Y005706D01*
X008406Y005456D01*
X008656Y005706D01*
X009156Y005706D01*
X009406Y005456D01*
X009656Y005706D01*
X010156Y005706D01*
X010406Y005456D01*
X010656Y005706D01*
X011406Y005706D01*
X012406Y005706D01*
X012406Y004706D01*
X012406Y003956D01*
X012156Y003706D01*
X011656Y003706D01*
X011406Y003956D01*
X011156Y003706D01*
X010656Y003706D01*
X010406Y003956D01*
X010156Y003706D01*
X009656Y003706D01*
X009406Y003956D01*
X009156Y003706D01*
X008656Y003706D01*
X008406Y003956D01*
X008156Y003706D01*
X007656Y003706D01*
X007406Y003956D01*
X007156Y003706D01*
X006656Y003706D01*
X002606Y003456D02*
X002356Y003206D01*
X002606Y002956D01*
X002606Y002456D01*
X002356Y002206D01*
X002606Y001956D01*
X002606Y001456D01*
X002356Y001206D01*
X000856Y001206D01*
X000606Y001456D01*
X000606Y001956D01*
X000856Y002206D01*
X000606Y002456D01*
X000606Y002956D01*
X000856Y003206D01*
X000606Y003456D01*
X000606Y003956D01*
X000856Y004206D01*
X000606Y004456D01*
X000606Y004956D01*
X000856Y005206D01*
X000606Y005456D01*
X000606Y005956D01*
X000856Y006206D01*
X000606Y006456D01*
X000606Y006956D01*
X000856Y007206D01*
X000606Y007456D01*
X000606Y007956D01*
X000856Y008206D01*
X000606Y008456D01*
X000606Y008956D01*
X000856Y009206D01*
X000606Y009456D01*
X000606Y009956D01*
X000856Y010206D01*
X000606Y010456D01*
X000606Y010956D01*
X000856Y011206D01*
X000606Y011456D01*
X000606Y011956D01*
X000856Y012206D01*
X000606Y012456D01*
X000606Y012956D01*
X000856Y013206D01*
X000606Y013456D01*
X000606Y013956D01*
X000856Y014206D01*
X000606Y014456D01*
X000606Y014956D01*
X000856Y015206D01*
X000606Y015456D01*
X000606Y015956D01*
X000856Y016206D01*
X000606Y016456D01*
X000606Y016956D01*
X000856Y017206D01*
X000606Y017456D01*
X000606Y017956D01*
X000856Y018206D01*
X000606Y018456D01*
X000606Y018956D01*
X000856Y019206D01*
X000606Y019456D01*
X000606Y019956D01*
X000856Y020206D01*
X000606Y020206D02*
X000606Y020906D01*
X000606Y021006D01*
X000806Y021206D01*
X000706Y021206D01*
X000606Y021106D01*
X000606Y021006D01*
X000606Y020906D02*
X000906Y021206D01*
X000806Y021206D01*
X000706Y021206D02*
X000606Y021206D01*
X000606Y021106D01*
X000906Y021206D02*
X001606Y021206D01*
X001606Y020206D01*
X000606Y020206D01*
X001606Y021206D02*
X002356Y021206D01*
X002606Y020956D01*
X002606Y020456D01*
X002356Y020206D01*
X002606Y019956D01*
X002606Y019456D01*
X002356Y019206D01*
X002606Y018956D01*
X002606Y018456D01*
X002356Y018206D01*
X002606Y017956D01*
X002606Y017456D01*
X002356Y017206D01*
X002606Y016956D01*
X002606Y016456D01*
X002356Y016206D01*
X002606Y015956D01*
X002606Y015456D01*
X002356Y015206D01*
X002606Y014956D01*
X002606Y014456D01*
X002356Y014206D01*
X002606Y013956D01*
X002606Y013456D01*
X002356Y013206D01*
X002606Y012956D01*
X002606Y012456D01*
X002356Y012206D01*
X002606Y011956D01*
X002606Y011456D01*
X002356Y011206D01*
X002606Y010956D01*
X002606Y010456D01*
X002356Y010206D01*
X002606Y009956D01*
X002606Y009456D01*
X002356Y009206D01*
X002606Y008956D01*
X002606Y008456D01*
X002356Y008206D01*
X002606Y007956D01*
X002606Y007456D01*
X002356Y007206D01*
X002606Y006956D01*
X002606Y006456D01*
X002356Y006206D01*
X002606Y005956D01*
X002606Y005456D01*
X002356Y005206D01*
X002606Y004956D01*
X002606Y004456D01*
X002356Y004206D01*
X002606Y003956D01*
X002606Y003456D01*
X011406Y004706D02*
X011406Y005706D01*
X011406Y004706D02*
X012406Y004706D01*
X015206Y004456D02*
X015206Y004956D01*
X015456Y005206D01*
X015206Y005456D01*
X015206Y006206D01*
X015206Y007206D01*
X016206Y007206D01*
X016956Y007206D01*
X017206Y006956D01*
X017206Y006456D01*
X016956Y006206D01*
X017206Y005956D01*
X017206Y005456D01*
X016956Y005206D01*
X017206Y004956D01*
X017206Y004456D01*
X016956Y004206D01*
X017206Y003956D01*
X017206Y003456D01*
X016956Y003206D01*
X017206Y002956D01*
X017206Y002456D01*
X016956Y002206D01*
X017206Y001956D01*
X017206Y001456D01*
X016956Y001206D01*
X015456Y001206D01*
X015206Y001456D01*
X015206Y001956D01*
X015456Y002206D01*
X015206Y002456D01*
X015206Y002956D01*
X015456Y003206D01*
X015206Y003456D01*
X015206Y003956D01*
X015456Y004206D01*
X015206Y004456D01*
X015206Y006206D02*
X016206Y006206D01*
X016206Y007206D01*
X015456Y010206D02*
X015206Y010456D01*
X015206Y010956D01*
X015456Y011206D01*
X015206Y011456D01*
X015206Y011956D01*
X015456Y012206D01*
X015206Y012456D01*
X015206Y012956D01*
X015456Y013206D01*
X015206Y013456D01*
X015206Y013956D01*
X015456Y014206D01*
X015206Y014456D01*
X015206Y015206D01*
X015206Y016206D01*
X016206Y016206D01*
X016956Y016206D01*
X017206Y015956D01*
X017206Y015456D01*
X016956Y015206D01*
X017206Y014956D01*
X017206Y014456D01*
X016956Y014206D01*
X017206Y013956D01*
X017206Y013456D01*
X016956Y013206D01*
X017206Y012956D01*
X017206Y012456D01*
X016956Y012206D01*
X017206Y011956D01*
X017206Y011456D01*
X016956Y011206D01*
X017206Y010956D01*
X017206Y010456D01*
X016956Y010206D01*
X015456Y010206D01*
X015206Y015206D02*
X016206Y015206D01*
X016206Y016206D01*
X015456Y019206D02*
X015206Y019456D01*
X015206Y019956D01*
X015456Y020206D01*
X015206Y020456D01*
X015206Y020956D01*
X015456Y021206D01*
X015206Y021456D01*
X015206Y021956D01*
X015456Y022206D01*
X015206Y022456D01*
X015206Y022956D01*
X015456Y023206D01*
X015206Y023456D01*
X015206Y024206D01*
X015206Y025206D01*
X016206Y025206D01*
X016956Y025206D01*
X017206Y024956D01*
X017206Y024456D01*
X016956Y024206D01*
X017206Y023956D01*
X017206Y023456D01*
X016956Y023206D01*
X017206Y022956D01*
X017206Y022456D01*
X016956Y022206D01*
X017206Y021956D01*
X017206Y021456D01*
X016956Y021206D01*
X017206Y020956D01*
X017206Y020456D01*
X016956Y020206D01*
X017206Y019956D01*
X017206Y019456D01*
X016956Y019206D01*
X015456Y019206D01*
X012406Y021956D02*
X012156Y021706D01*
X011656Y021706D01*
X011406Y021956D01*
X011156Y021706D01*
X010656Y021706D01*
X010406Y021956D01*
X010156Y021706D01*
X009656Y021706D01*
X009406Y021956D01*
X009156Y021706D01*
X008656Y021706D01*
X008406Y021956D01*
X008156Y021706D01*
X007406Y021706D01*
X006406Y021706D01*
X006406Y022706D01*
X006406Y023456D01*
X006656Y023706D01*
X007156Y023706D01*
X007406Y023456D01*
X007656Y023706D01*
X008156Y023706D01*
X008406Y023456D01*
X008656Y023706D01*
X009156Y023706D01*
X009406Y023456D01*
X009656Y023706D01*
X010156Y023706D01*
X010406Y023456D01*
X010656Y023706D01*
X011156Y023706D01*
X011406Y023456D01*
X011656Y023706D01*
X012156Y023706D01*
X012406Y023456D01*
X012406Y021956D01*
X015206Y024206D02*
X016206Y024206D01*
X016206Y025206D01*
X007406Y022706D02*
X007406Y021706D01*
X007406Y022706D02*
X006406Y022706D01*
X006143Y025936D02*
X006143Y026107D01*
X006086Y026163D01*
X006029Y026107D01*
X006029Y025936D01*
X005916Y025936D02*
X005916Y026163D01*
X005972Y026163D01*
X006029Y026107D01*
X005774Y026107D02*
X005774Y025993D01*
X005717Y025936D01*
X005604Y025936D01*
X005547Y025993D01*
X005547Y026107D01*
X005604Y026163D01*
X005717Y026163D01*
X005774Y026107D01*
X005406Y026163D02*
X005236Y026163D01*
X005179Y026107D01*
X005179Y025993D01*
X005236Y025936D01*
X005406Y025936D01*
X005052Y025936D02*
X004995Y025936D01*
X004995Y025993D01*
X005052Y025993D01*
X005052Y025936D01*
X004853Y025993D02*
X004797Y026050D01*
X004683Y026050D01*
X004627Y026107D01*
X004683Y026163D01*
X004853Y026163D01*
X004853Y025993D02*
X004797Y025936D01*
X004627Y025936D01*
X004494Y025936D02*
X004438Y025993D01*
X004438Y026220D01*
X004494Y026163D02*
X004381Y026163D01*
X004240Y026107D02*
X004240Y025936D01*
X004240Y026107D02*
X004183Y026163D01*
X004013Y026163D01*
X004013Y025936D01*
X003871Y026050D02*
X003644Y026050D01*
X003644Y026107D02*
X003701Y026163D01*
X003815Y026163D01*
X003871Y026107D01*
X003871Y026050D01*
X003815Y025936D02*
X003701Y025936D01*
X003644Y025993D01*
X003644Y026107D01*
X003503Y026163D02*
X003503Y025880D01*
X003446Y025823D01*
X003390Y025823D01*
X003333Y025936D02*
X003503Y025936D01*
X003333Y025936D02*
X003276Y025993D01*
X003276Y026107D01*
X003333Y026163D01*
X003503Y026163D01*
X003135Y026107D02*
X003135Y025936D01*
X002964Y025936D01*
X002908Y025993D01*
X002964Y026050D01*
X003135Y026050D01*
X003135Y026107D02*
X003078Y026163D01*
X002964Y026163D01*
X002766Y026107D02*
X002766Y025936D01*
X002766Y026107D02*
X002710Y026163D01*
X002539Y026163D01*
X002539Y025936D01*
X002403Y026163D02*
X002346Y026163D01*
X002233Y026050D01*
X002233Y026163D02*
X002233Y025936D01*
X002091Y026050D02*
X001864Y026050D01*
X001864Y026107D02*
X001921Y026163D01*
X002034Y026163D01*
X002091Y026107D01*
X002091Y026050D01*
X002034Y025936D02*
X001921Y025936D01*
X001864Y025993D01*
X001864Y026107D01*
X001732Y026163D02*
X001619Y026163D01*
X001675Y026220D02*
X001675Y025993D01*
X001732Y025936D01*
X001487Y025936D02*
X001430Y025993D01*
X001430Y026220D01*
X001373Y026163D02*
X001487Y026163D01*
X001232Y026107D02*
X001232Y025936D01*
X001062Y025936D01*
X001005Y025993D01*
X001062Y026050D01*
X001232Y026050D01*
X001232Y026107D02*
X001175Y026163D01*
X001062Y026163D01*
X000863Y026107D02*
X000863Y025993D01*
X000807Y025936D01*
X000636Y025936D01*
X000636Y025823D02*
X000636Y026163D01*
X000807Y026163D01*
X000863Y026107D01*
D15*
X004361Y012152D02*
X004657Y012152D01*
X004755Y012054D01*
X004755Y011857D01*
X004657Y011758D01*
X004361Y011758D01*
X004361Y011561D02*
X004361Y012152D01*
X005006Y011660D02*
X005104Y011758D01*
X005400Y011758D01*
X005400Y011857D02*
X005400Y011561D01*
X005104Y011561D01*
X005006Y011660D01*
X005104Y011955D02*
X005301Y011955D01*
X005400Y011857D01*
X005651Y011955D02*
X005847Y011955D01*
X005749Y012054D02*
X005749Y011660D01*
X005847Y011561D01*
X006179Y011660D02*
X006277Y011561D01*
X006179Y011660D02*
X006179Y012054D01*
X006277Y011955D02*
X006080Y011955D01*
X006510Y011857D02*
X006510Y011660D01*
X006608Y011561D01*
X006805Y011561D01*
X006904Y011758D02*
X006904Y011857D01*
X006805Y011955D01*
X006608Y011955D01*
X006510Y011857D01*
X006510Y011758D02*
X006904Y011758D01*
X007155Y011758D02*
X007351Y011955D01*
X007450Y011955D01*
X007692Y011955D02*
X007692Y011561D01*
X007692Y011955D02*
X007987Y011955D01*
X008085Y011857D01*
X008085Y011561D01*
X008336Y011561D02*
X008336Y011955D01*
X008533Y012152D01*
X008730Y011955D01*
X008730Y011561D01*
X008981Y011660D02*
X008981Y011857D01*
X009079Y011955D01*
X009374Y011955D01*
X009374Y011463D01*
X009276Y011365D01*
X009178Y011365D01*
X009079Y011561D02*
X008981Y011660D01*
X009079Y011561D02*
X009374Y011561D01*
X009625Y011660D02*
X009625Y011857D01*
X009724Y011955D01*
X009921Y011955D01*
X010019Y011857D01*
X010019Y011758D01*
X009625Y011758D01*
X009625Y011660D02*
X009724Y011561D01*
X009921Y011561D01*
X010270Y011561D02*
X010270Y011955D01*
X010565Y011955D01*
X010664Y011857D01*
X010664Y011561D01*
X011013Y011660D02*
X011111Y011561D01*
X011013Y011660D02*
X011013Y012054D01*
X011111Y011955D02*
X010914Y011955D01*
X011344Y011857D02*
X011443Y011758D01*
X011639Y011758D01*
X011738Y011660D01*
X011639Y011561D01*
X011344Y011561D01*
X011344Y011857D02*
X011443Y011955D01*
X011738Y011955D01*
X011989Y011660D02*
X012087Y011660D01*
X012087Y011561D01*
X011989Y011561D01*
X011989Y011660D01*
X012311Y011660D02*
X012311Y011857D01*
X012409Y011955D01*
X012705Y011955D01*
X012955Y011857D02*
X012955Y011660D01*
X013054Y011561D01*
X013251Y011561D01*
X013349Y011660D01*
X013349Y011857D01*
X013251Y011955D01*
X013054Y011955D01*
X012955Y011857D01*
X012705Y011561D02*
X012409Y011561D01*
X012311Y011660D01*
X013600Y011561D02*
X013600Y011955D01*
X013698Y011955D01*
X013797Y011857D01*
X013895Y011955D01*
X013994Y011857D01*
X013994Y011561D01*
X013797Y011561D02*
X013797Y011857D01*
X008730Y011857D02*
X008336Y011857D01*
X007155Y011955D02*
X007155Y011561D01*
D16*
X012576Y005498D02*
X012576Y005258D01*
X012756Y005258D01*
X012696Y005378D01*
X012696Y005438D01*
X012756Y005498D01*
X012876Y005498D01*
X012936Y005438D01*
X012936Y005318D01*
X012876Y005258D01*
X012876Y005070D02*
X012576Y005070D01*
X012576Y005010D02*
X012576Y005130D01*
X012876Y005070D02*
X012936Y005010D01*
X012936Y004950D01*
X012876Y004890D01*
X015387Y007376D02*
X015447Y007376D01*
X015507Y007437D01*
X015507Y007737D01*
X015447Y007737D02*
X015567Y007737D01*
X015695Y007677D02*
X015755Y007737D01*
X015875Y007737D01*
X015935Y007677D01*
X015935Y007617D01*
X015695Y007376D01*
X015935Y007376D01*
X015387Y007376D02*
X015326Y007437D01*
X015487Y016376D02*
X015426Y016437D01*
X015487Y016376D02*
X015547Y016376D01*
X015607Y016437D01*
X015607Y016737D01*
X015547Y016737D02*
X015667Y016737D01*
X015795Y016677D02*
X015855Y016737D01*
X015975Y016737D01*
X016035Y016677D01*
X016035Y016617D01*
X015975Y016557D01*
X016035Y016497D01*
X016035Y016437D01*
X015975Y016376D01*
X015855Y016376D01*
X015795Y016437D01*
X015915Y016557D02*
X015975Y016557D01*
X015975Y025376D02*
X015975Y025737D01*
X015795Y025557D01*
X016035Y025557D01*
X015667Y025737D02*
X015547Y025737D01*
X015607Y025737D02*
X015607Y025437D01*
X015547Y025376D01*
X015487Y025376D01*
X015426Y025437D01*
X006235Y022237D02*
X006115Y022177D01*
X005995Y022057D01*
X006175Y022057D01*
X006235Y021997D01*
X006235Y021937D01*
X006175Y021876D01*
X006055Y021876D01*
X005995Y021937D01*
X005995Y022057D01*
X005867Y022237D02*
X005747Y022237D01*
X005807Y022237D02*
X005807Y021937D01*
X005747Y021876D01*
X005687Y021876D01*
X005626Y021937D01*
X004605Y003547D02*
X004538Y003480D01*
X004451Y003513D02*
X004451Y003447D01*
X004418Y003413D01*
X004317Y003413D01*
X004317Y003346D02*
X004317Y003547D01*
X004418Y003547D01*
X004451Y003513D01*
X004605Y003547D02*
X004605Y003346D01*
X004538Y003346D02*
X004672Y003346D01*
X004197Y003380D02*
X004197Y003547D01*
X004230Y003547D02*
X004163Y003547D01*
X004197Y003380D02*
X004163Y003346D01*
X004130Y003346D01*
X004096Y003380D01*
D17*
X007749Y012576D03*
X009159Y013296D03*
X009789Y013296D03*
X009969Y013376D03*
X010189Y014076D03*
X010199Y014086D03*
X009899Y014166D03*
X009899Y014456D03*
X010279Y014466D03*
X010279Y014476D03*
X010459Y015086D03*
X011179Y014946D03*
X011179Y014936D03*
X011189Y014896D03*
X011189Y014886D03*
X011189Y014876D03*
X011189Y014866D03*
X011199Y014806D03*
X011199Y014796D03*
X011199Y014786D03*
X011199Y014776D03*
X011199Y014766D03*
X011199Y014756D03*
X011199Y014506D03*
X011199Y014496D03*
X011199Y014486D03*
X011199Y014476D03*
X011199Y014466D03*
X011199Y014456D03*
X011189Y014396D03*
X011189Y014386D03*
X011189Y014376D03*
X011189Y014366D03*
X011189Y014356D03*
X011179Y014326D03*
X011179Y014316D03*
X011179Y014306D03*
X009839Y015936D03*
X009479Y014406D03*
X009469Y014216D03*
X009049Y014166D03*
X008659Y014476D03*
X008659Y014486D03*
X007739Y014536D03*
X007739Y014546D03*
X007739Y014556D03*
X007739Y014566D03*
X007739Y014576D03*
X007739Y014586D03*
X007739Y014596D03*
X007739Y014606D03*
X007739Y014616D03*
X007739Y014626D03*
X007739Y014636D03*
X007739Y014646D03*
X007739Y014656D03*
X007739Y014666D03*
X007739Y014676D03*
X007739Y014686D03*
X007739Y014696D03*
X007739Y014706D03*
X007739Y014716D03*
X007739Y014726D03*
X007759Y014896D03*
X007769Y014956D03*
X007769Y014966D03*
D18*
X007809Y015116D03*
X007809Y015126D03*
X007819Y015146D03*
X007819Y015156D03*
X007819Y015166D03*
X007829Y015176D03*
X007829Y015186D03*
X007829Y015196D03*
X007839Y015216D03*
X007849Y015236D03*
X007849Y015246D03*
X007859Y015266D03*
X008499Y015096D03*
X008679Y014516D03*
X008769Y014056D03*
X009029Y013356D03*
X009139Y013306D03*
X009469Y014196D03*
X009469Y014436D03*
X009899Y014446D03*
X010169Y014056D03*
X010269Y014496D03*
X010269Y014506D03*
X011159Y014226D03*
X011139Y014156D03*
X011139Y014146D03*
X011129Y014126D03*
X011129Y014116D03*
X011129Y014106D03*
X011119Y014086D03*
X011109Y014056D03*
X011099Y014026D03*
X011159Y015036D03*
X011149Y015076D03*
X011139Y015106D03*
X011139Y015116D03*
X011129Y015136D03*
X011129Y015146D03*
X011129Y015156D03*
X011119Y015176D03*
X011109Y015196D03*
X011109Y015206D03*
X011099Y015236D03*
X009839Y015926D03*
X007749Y014416D03*
X007749Y014406D03*
X007749Y014396D03*
X007749Y014386D03*
X007749Y014376D03*
X007749Y014366D03*
X007749Y013516D03*
X007749Y013506D03*
X007749Y013496D03*
X007749Y013486D03*
X007749Y013476D03*
X007749Y013466D03*
X007749Y013456D03*
X007749Y013446D03*
X007749Y013436D03*
X007749Y013426D03*
X007749Y013416D03*
X007749Y013406D03*
X007749Y013396D03*
X007749Y013386D03*
X007749Y013376D03*
X007749Y013366D03*
X007749Y013356D03*
X007749Y013346D03*
X007749Y013336D03*
X007749Y013326D03*
X007749Y013316D03*
X007749Y013306D03*
X007749Y013296D03*
X007749Y013286D03*
X007749Y013276D03*
X007749Y013266D03*
X007749Y013256D03*
X007749Y013246D03*
X007749Y013236D03*
X007749Y013226D03*
X007749Y013216D03*
X007749Y013206D03*
X007749Y013196D03*
X007749Y013186D03*
X007749Y013176D03*
X007749Y013166D03*
X007749Y013156D03*
X007749Y013146D03*
X007749Y013136D03*
X007749Y013126D03*
X007749Y013116D03*
X007749Y013106D03*
X007749Y013096D03*
X007749Y013086D03*
X007749Y013076D03*
X007749Y013066D03*
X007749Y013056D03*
X007749Y013046D03*
X007749Y013036D03*
X007749Y013026D03*
X007749Y013016D03*
X007749Y013006D03*
X007749Y012996D03*
X007749Y012986D03*
X007749Y012976D03*
X007749Y012966D03*
X007749Y012956D03*
X007749Y012946D03*
X007749Y012936D03*
X007749Y012926D03*
X007749Y012916D03*
X007749Y012906D03*
X007749Y012896D03*
X007749Y012886D03*
X007749Y012876D03*
X007749Y012866D03*
X007749Y012856D03*
X007749Y012846D03*
X007749Y012836D03*
X007749Y012826D03*
X007749Y012816D03*
X007749Y012806D03*
X007749Y012796D03*
X007749Y012786D03*
X007749Y012776D03*
X007749Y012766D03*
X007749Y012756D03*
X007749Y012746D03*
X007749Y012736D03*
X007749Y012726D03*
X007749Y012716D03*
X007749Y012706D03*
X007749Y012696D03*
X007749Y012686D03*
X007749Y012676D03*
X007749Y012666D03*
X007749Y012656D03*
X007749Y012646D03*
X007749Y012636D03*
X007749Y012626D03*
X007749Y012616D03*
X007749Y012606D03*
X007749Y012596D03*
X007749Y012586D03*
D19*
X008919Y014196D03*
X009049Y014276D03*
X009049Y014326D03*
X009049Y014336D03*
X009159Y014436D03*
X008919Y014426D03*
X009159Y014186D03*
X009169Y014196D03*
X009549Y014256D03*
X009779Y014196D03*
X009899Y014116D03*
X009899Y014296D03*
X009899Y014306D03*
X009899Y014316D03*
X009899Y014326D03*
X009779Y014426D03*
X009369Y013196D03*
X009479Y012736D03*
X010839Y014346D03*
X008569Y015196D03*
X008119Y014386D03*
X008109Y014356D03*
X008099Y014326D03*
D20*
X007789Y014086D03*
X007789Y014076D03*
X007789Y014066D03*
X008149Y013516D03*
X008159Y013506D03*
X008469Y013826D03*
X008459Y013836D03*
X008529Y015076D03*
X008109Y015696D03*
X008119Y015706D03*
X008129Y015716D03*
X009019Y015746D03*
X009099Y015926D03*
X009469Y015766D03*
X009839Y015886D03*
X009469Y016516D03*
X010799Y015736D03*
X010809Y015726D03*
X010819Y015716D03*
X010829Y015706D03*
X010839Y015686D03*
X010849Y015676D03*
X009459Y014486D03*
X010479Y013826D03*
X010489Y013836D03*
X010499Y013846D03*
X010829Y013556D03*
X010809Y013526D03*
X010799Y013516D03*
X010789Y013506D03*
X010779Y013496D03*
X009479Y012746D03*
D21*
X009469Y012756D03*
X009469Y013556D03*
X009469Y014076D03*
X008479Y013226D03*
X007859Y013796D03*
X008469Y016026D03*
X010489Y016016D03*
X010479Y013236D03*
D22*
X009479Y012766D03*
X010069Y014706D03*
X010289Y014996D03*
X010299Y016126D03*
X008649Y016126D03*
X007919Y013626D03*
D23*
X009469Y013596D03*
X009479Y012776D03*
X008749Y016166D03*
D24*
X008769Y014976D03*
X009479Y012786D03*
D25*
X009469Y012796D03*
X009469Y013636D03*
D26*
X009469Y012806D03*
D27*
X009479Y012816D03*
X009469Y013686D03*
D28*
X009469Y013706D03*
X009479Y012826D03*
X009469Y016436D03*
D29*
X009469Y016426D03*
X009479Y015276D03*
X009469Y013726D03*
X009479Y012836D03*
D30*
X009474Y012846D03*
X009474Y013756D03*
D31*
X009469Y012856D03*
D32*
X009474Y012866D03*
X009474Y013816D03*
X009464Y015306D03*
D33*
X009474Y015596D03*
X009474Y013836D03*
X009474Y012876D03*
D34*
X009479Y012886D03*
X009469Y013866D03*
X009479Y015516D03*
X009479Y015526D03*
D35*
X009484Y015476D03*
X009484Y015466D03*
X009454Y015326D03*
X009474Y016366D03*
X009474Y013886D03*
X009474Y012896D03*
D36*
X009474Y012906D03*
X009474Y013916D03*
X009484Y015386D03*
X009484Y015396D03*
X009484Y015406D03*
X009474Y016356D03*
D37*
X009474Y013956D03*
X009474Y012916D03*
D38*
X009474Y012926D03*
X009474Y013986D03*
X009474Y014836D03*
D39*
X009474Y014026D03*
X009474Y012936D03*
D40*
X009474Y012946D03*
D41*
X009474Y012956D03*
D42*
X009469Y012966D03*
D43*
X009479Y012976D03*
D44*
X009474Y012986D03*
X009474Y014676D03*
X009474Y014686D03*
X009474Y016276D03*
D45*
X009474Y012996D03*
D46*
X009474Y013006D03*
X009474Y016256D03*
D47*
X009474Y016246D03*
X009474Y014886D03*
X009474Y013016D03*
D48*
X009474Y013026D03*
X009474Y014896D03*
D49*
X009474Y016226D03*
X009474Y013036D03*
D50*
X009474Y013046D03*
X009474Y014906D03*
D51*
X009469Y013056D03*
D52*
X009474Y013626D03*
X008854Y013066D03*
X010094Y013066D03*
X009484Y015236D03*
D53*
X008819Y016186D03*
X009469Y016476D03*
X008809Y013076D03*
X010129Y013076D03*
D54*
X010184Y013086D03*
X008764Y013086D03*
X010194Y016166D03*
X009474Y016486D03*
D55*
X010219Y016156D03*
X007959Y013546D03*
X007959Y013536D03*
X008739Y013096D03*
D56*
X007964Y013526D03*
X010204Y013096D03*
D57*
X010229Y013106D03*
X009469Y013586D03*
X008709Y013106D03*
X007949Y013566D03*
X008689Y014996D03*
D58*
X007934Y013596D03*
X008684Y013116D03*
D59*
X007939Y013586D03*
X009479Y014576D03*
X009489Y015216D03*
X008699Y016146D03*
X010259Y013116D03*
D60*
X010284Y013126D03*
X008874Y014706D03*
X007924Y013616D03*
X008664Y013126D03*
D61*
X008644Y013136D03*
X007914Y013636D03*
X008644Y015016D03*
X008624Y016116D03*
X009854Y015626D03*
X010314Y016116D03*
X010324Y013146D03*
X010304Y013136D03*
D62*
X010344Y013156D03*
X008624Y013146D03*
X008604Y013156D03*
X007904Y013666D03*
X010344Y016106D03*
D63*
X010364Y016096D03*
X009874Y015636D03*
X009144Y015806D03*
X008584Y016096D03*
X008564Y016086D03*
X009474Y014566D03*
X008584Y013166D03*
X007894Y013686D03*
X007894Y013696D03*
X010364Y013166D03*
D64*
X009474Y014766D03*
X009074Y015636D03*
X008534Y016066D03*
X009874Y015646D03*
X010394Y016076D03*
X008564Y013176D03*
X007884Y013716D03*
D65*
X008604Y015216D03*
X009044Y014256D03*
X009414Y013176D03*
X009524Y013176D03*
D66*
X010379Y013176D03*
X008619Y015026D03*
X008549Y016076D03*
X007889Y013706D03*
X010379Y016086D03*
D67*
X010409Y016066D03*
X010339Y015016D03*
X009139Y015816D03*
X008519Y016056D03*
X007879Y013736D03*
X007879Y013726D03*
X008529Y013196D03*
X008549Y013186D03*
X010399Y013186D03*
D68*
X010054Y014236D03*
X010064Y014256D03*
X010064Y014266D03*
X010074Y014296D03*
X010074Y014306D03*
X010074Y014316D03*
X010074Y014326D03*
X010074Y014336D03*
X010064Y014366D03*
X010064Y014376D03*
X009904Y014356D03*
X009734Y014366D03*
X009734Y014376D03*
X009724Y014346D03*
X009724Y014336D03*
X009724Y014326D03*
X009724Y014316D03*
X009724Y014306D03*
X009724Y014296D03*
X009724Y014286D03*
X009724Y014276D03*
X009724Y014266D03*
X009734Y014256D03*
X009734Y014246D03*
X009894Y014576D03*
X010504Y014826D03*
X009844Y016016D03*
X008584Y015206D03*
X008884Y014376D03*
X008874Y014356D03*
X008874Y014346D03*
X008874Y014276D03*
X008874Y014266D03*
X008884Y014256D03*
X008884Y014246D03*
X009214Y014256D03*
X009214Y014266D03*
X009214Y014276D03*
X009224Y014296D03*
X009224Y014306D03*
X009224Y014316D03*
X009224Y014326D03*
X009214Y014356D03*
X009214Y014366D03*
X009204Y014386D03*
X009394Y013186D03*
D69*
X009549Y013186D03*
X009899Y014266D03*
X010069Y014276D03*
X010069Y014286D03*
X010069Y014346D03*
X010069Y014356D03*
X010369Y015206D03*
X009479Y015706D03*
X009219Y014346D03*
X009219Y014336D03*
X009219Y014286D03*
X009049Y014266D03*
X008869Y014286D03*
X008869Y014296D03*
X008869Y014306D03*
X008869Y014316D03*
X008869Y014326D03*
X008869Y014336D03*
X008879Y014366D03*
D70*
X008894Y014226D03*
X008904Y014216D03*
X008914Y014206D03*
X009184Y014206D03*
X009184Y014416D03*
X009174Y014426D03*
X009474Y014756D03*
X009764Y014416D03*
X009754Y014406D03*
X009904Y014336D03*
X009894Y014286D03*
X009764Y014206D03*
X009754Y014216D03*
X010024Y014196D03*
X010034Y014206D03*
X010044Y014406D03*
X010034Y014416D03*
X010024Y014426D03*
X009574Y013196D03*
X009074Y016046D03*
X009474Y016526D03*
D71*
X009134Y015826D03*
X009064Y015646D03*
X008504Y016046D03*
X009884Y015656D03*
X010424Y016056D03*
X009464Y014066D03*
X010414Y013196D03*
X010434Y013206D03*
X007874Y013746D03*
D72*
X007869Y013756D03*
X007869Y013766D03*
X008509Y013206D03*
X009469Y014556D03*
X008599Y015036D03*
X009129Y015836D03*
X010439Y016046D03*
X010449Y013216D03*
D73*
X009344Y013206D03*
X008654Y013766D03*
X008954Y014176D03*
X008454Y014816D03*
X008254Y014626D03*
X008244Y014616D03*
X008234Y014606D03*
X008224Y014586D03*
X008214Y014576D03*
X008204Y014556D03*
X008194Y014546D03*
X008184Y014526D03*
X008104Y014296D03*
X010674Y014646D03*
X010684Y014636D03*
X010694Y014626D03*
X010704Y014606D03*
X010714Y014596D03*
X010724Y014586D03*
X010734Y014566D03*
X010744Y014556D03*
X010754Y014536D03*
D74*
X010759Y014526D03*
X010769Y014516D03*
X010769Y014506D03*
X010779Y014496D03*
X010789Y014476D03*
X010799Y014456D03*
X010809Y014426D03*
X010839Y014296D03*
X010749Y014546D03*
X010729Y014576D03*
X010499Y014816D03*
X010419Y015176D03*
X009849Y016006D03*
X008549Y015186D03*
X008229Y014596D03*
X008209Y014566D03*
X008189Y014536D03*
X008179Y014516D03*
X008169Y014506D03*
X008169Y014496D03*
X008139Y014436D03*
X008099Y014306D03*
X009469Y013516D03*
X009599Y013206D03*
X009789Y014186D03*
X010289Y013766D03*
D75*
X010464Y013226D03*
X008794Y014586D03*
X009054Y015656D03*
X008484Y016036D03*
X009884Y015666D03*
X010464Y016036D03*
X010474Y016026D03*
X008494Y013216D03*
X007864Y013776D03*
X007864Y013786D03*
D76*
X008349Y014046D03*
X008359Y014036D03*
X008369Y014026D03*
X008379Y014016D03*
X008389Y014006D03*
X008399Y013996D03*
X008409Y013986D03*
X008439Y013716D03*
X008449Y013706D03*
X008459Y013696D03*
X009319Y013216D03*
X009629Y013216D03*
X010499Y013706D03*
X010509Y013716D03*
X010519Y013726D03*
X010499Y013956D03*
X010509Y013966D03*
X010519Y013976D03*
X010529Y013986D03*
X010569Y014016D03*
X010579Y014026D03*
X010589Y014036D03*
X010599Y014046D03*
X010609Y014056D03*
X010619Y014066D03*
X010629Y014076D03*
X010639Y014086D03*
X010829Y014266D03*
X010629Y014686D03*
X010619Y014696D03*
X010609Y014706D03*
X010599Y014716D03*
X010269Y014266D03*
X010439Y015156D03*
X009849Y015996D03*
X008529Y015166D03*
X008329Y014706D03*
X008319Y014696D03*
X008309Y014686D03*
D77*
X008344Y014716D03*
X008114Y014266D03*
X008254Y014136D03*
X008264Y014126D03*
X008274Y014116D03*
X008284Y014106D03*
X008294Y014096D03*
X008304Y014086D03*
X008314Y014076D03*
X008324Y014066D03*
X008334Y014056D03*
X008474Y013686D03*
X008484Y013676D03*
X008494Y013666D03*
X008504Y013656D03*
X009294Y013226D03*
X010454Y013666D03*
X010464Y013676D03*
X010474Y013686D03*
X010484Y013696D03*
X010654Y014096D03*
X010664Y014106D03*
X010674Y014116D03*
X010684Y014126D03*
X010694Y014136D03*
X010704Y014146D03*
X010584Y014726D03*
D78*
X010569Y014736D03*
X010489Y014806D03*
X009899Y014496D03*
X009899Y014126D03*
X010389Y013616D03*
X010419Y013636D03*
X010429Y013646D03*
X010439Y013656D03*
X010719Y014156D03*
X010729Y014166D03*
X010739Y014176D03*
X009649Y013226D03*
X009049Y014126D03*
X008539Y013626D03*
X008529Y013636D03*
X008519Y013646D03*
X008239Y014146D03*
X008229Y014156D03*
X008219Y014166D03*
X008119Y014256D03*
X008359Y014726D03*
X008459Y014806D03*
X008519Y015156D03*
X009079Y016026D03*
X009469Y015716D03*
X009629Y015806D03*
D79*
X009894Y015676D03*
X010504Y016006D03*
X010364Y015026D03*
X010134Y014716D03*
X009474Y014546D03*
X008814Y014716D03*
X009124Y015846D03*
X008454Y016016D03*
X009474Y016506D03*
X007854Y013816D03*
X007854Y013806D03*
X008464Y013236D03*
X010494Y013246D03*
D80*
X010374Y013606D03*
X010404Y013626D03*
X010754Y014186D03*
X010764Y014196D03*
X010774Y014206D03*
X010824Y014256D03*
X010554Y014746D03*
X010464Y015136D03*
X010454Y015146D03*
X009844Y015986D03*
X009044Y014496D03*
X008624Y013776D03*
X008554Y013616D03*
X008584Y013596D03*
X008204Y014176D03*
X008194Y014186D03*
X008164Y014206D03*
X008154Y014216D03*
X008144Y014226D03*
X008134Y014236D03*
X008124Y014246D03*
X008374Y014736D03*
X009274Y013236D03*
D81*
X009669Y013236D03*
X010319Y013566D03*
X010329Y013576D03*
X010349Y013586D03*
X010359Y013596D03*
X010319Y013776D03*
X010789Y014216D03*
X010799Y014226D03*
X010809Y014236D03*
X010819Y014246D03*
X010539Y014756D03*
X010469Y015126D03*
X008649Y014246D03*
X008639Y014256D03*
X008659Y014206D03*
X008179Y014196D03*
X008389Y014746D03*
X008409Y014756D03*
X008569Y013606D03*
X008599Y013586D03*
X008609Y013576D03*
X008639Y013556D03*
D82*
X008439Y013256D03*
X008449Y013246D03*
X007849Y013826D03*
X007849Y013836D03*
X009049Y015666D03*
X009119Y015856D03*
X008439Y016006D03*
X008429Y015996D03*
X008409Y015986D03*
X009819Y015816D03*
X010519Y015996D03*
X010529Y015986D03*
X010509Y013256D03*
D83*
X010294Y013546D03*
X010304Y013556D03*
X010274Y013536D03*
X010264Y013526D03*
X010284Y014226D03*
X010294Y014246D03*
X010294Y014256D03*
X009894Y014136D03*
X009254Y013246D03*
X008714Y013506D03*
X008684Y013526D03*
X008664Y013536D03*
X008654Y013546D03*
X008624Y013566D03*
X008674Y014166D03*
X008674Y014176D03*
X008664Y014186D03*
X008664Y014196D03*
X008654Y014216D03*
X008654Y014226D03*
X008654Y014236D03*
X009044Y014136D03*
X009044Y014486D03*
X009504Y015196D03*
X009844Y015976D03*
X009074Y016016D03*
X008504Y015146D03*
X008494Y015136D03*
D84*
X008489Y015126D03*
X008629Y014366D03*
X008629Y014356D03*
X008629Y014346D03*
X008679Y014156D03*
X008689Y014146D03*
X008689Y014136D03*
X008699Y013516D03*
X008729Y013496D03*
X008749Y013486D03*
X009689Y013246D03*
X010209Y013496D03*
X010229Y013506D03*
X010249Y013516D03*
X010269Y014186D03*
X010269Y014196D03*
X010279Y014206D03*
X010279Y014216D03*
X010289Y014236D03*
X009899Y014486D03*
X010279Y014756D03*
X010479Y015116D03*
D85*
X010474Y014796D03*
X010304Y014356D03*
X010194Y013486D03*
X010174Y013476D03*
X010164Y013466D03*
X009234Y013256D03*
X008804Y013456D03*
X008784Y013466D03*
X008764Y013476D03*
X008704Y014116D03*
X008694Y014126D03*
X008634Y014376D03*
X008634Y014386D03*
X008664Y014756D03*
X008474Y014796D03*
D86*
X008639Y014406D03*
X008639Y014396D03*
X008599Y013786D03*
X009709Y013256D03*
X010119Y013446D03*
X010139Y013456D03*
X010249Y014156D03*
X010259Y014176D03*
X010299Y014366D03*
X010299Y014376D03*
X009899Y014476D03*
X009899Y014146D03*
X010479Y015106D03*
X009839Y015966D03*
X009469Y015726D03*
X009079Y016006D03*
X008489Y015116D03*
D87*
X008574Y015046D03*
X009044Y015676D03*
X008394Y015976D03*
X009894Y015686D03*
X010544Y015976D03*
X009474Y014086D03*
X008424Y013266D03*
X007844Y013846D03*
X010524Y013266D03*
X010534Y013276D03*
D88*
X010079Y013426D03*
X010229Y014126D03*
X010239Y014136D03*
X010299Y014396D03*
X009469Y014356D03*
X008849Y013436D03*
X008869Y013426D03*
X008879Y013416D03*
X009209Y013266D03*
X008729Y014086D03*
X008719Y014096D03*
X008649Y014426D03*
X008649Y014436D03*
X009839Y015956D03*
D89*
X010294Y014386D03*
X010254Y014166D03*
X010244Y014146D03*
X010104Y013436D03*
X009734Y013266D03*
X009044Y014146D03*
X009044Y014476D03*
X008644Y014416D03*
X008714Y014106D03*
X008824Y013446D03*
D90*
X008409Y013276D03*
X008399Y013286D03*
X007839Y013856D03*
X007839Y013866D03*
X009119Y015866D03*
X009819Y015826D03*
X010379Y015036D03*
X010559Y015966D03*
X009469Y014536D03*
X010549Y013286D03*
X008369Y015956D03*
X008379Y015966D03*
D91*
X009084Y015996D03*
X009044Y014466D03*
X009044Y014156D03*
X009474Y014376D03*
X009474Y014386D03*
X010224Y014116D03*
X010294Y014406D03*
X010294Y014416D03*
X010294Y014426D03*
X010294Y014436D03*
X010474Y015096D03*
X010064Y013416D03*
X009754Y013276D03*
X009194Y013276D03*
X008904Y013406D03*
X008654Y014446D03*
D92*
X008654Y014466D03*
X008694Y014746D03*
X008484Y014786D03*
X008754Y014066D03*
X009044Y014456D03*
X009474Y014396D03*
X009464Y014236D03*
X009464Y014226D03*
X008974Y013376D03*
X008954Y013386D03*
X009174Y013286D03*
X009994Y013386D03*
X010284Y014456D03*
X009464Y015736D03*
X009084Y015986D03*
D93*
X008489Y015106D03*
X008659Y014456D03*
X008739Y014076D03*
X008929Y013396D03*
X009469Y014246D03*
X009469Y014366D03*
X009899Y014466D03*
X009899Y014156D03*
X010209Y014096D03*
X010219Y014106D03*
X010289Y014446D03*
X010249Y014746D03*
X010459Y014786D03*
X009839Y015946D03*
X010039Y013406D03*
X010019Y013396D03*
X009769Y013286D03*
D94*
X009474Y014096D03*
X009464Y014526D03*
X009034Y015686D03*
X009824Y015836D03*
X009904Y015696D03*
X010574Y015956D03*
X010584Y015946D03*
X010574Y013306D03*
X010564Y013296D03*
X008384Y013296D03*
X007834Y013876D03*
X008354Y015946D03*
D95*
X008349Y015936D03*
X009109Y015876D03*
X009459Y015796D03*
X009499Y015206D03*
X009469Y014516D03*
X008559Y015056D03*
X007829Y013906D03*
X007829Y013896D03*
X007829Y013886D03*
X008359Y013316D03*
X008369Y013306D03*
X010589Y013316D03*
X010599Y013326D03*
X010619Y015916D03*
X010609Y015926D03*
X010599Y015936D03*
D96*
X011134Y015126D03*
X011144Y015096D03*
X011144Y015086D03*
X011154Y015066D03*
X011154Y015056D03*
X011154Y015046D03*
X011164Y015026D03*
X011164Y015016D03*
X011164Y015006D03*
X011164Y014996D03*
X011174Y014986D03*
X011174Y014976D03*
X011174Y014966D03*
X011174Y014956D03*
X011184Y014926D03*
X011184Y014916D03*
X011184Y014906D03*
X011194Y014856D03*
X011194Y014846D03*
X011194Y014836D03*
X011194Y014826D03*
X011194Y014816D03*
X011204Y014746D03*
X011204Y014736D03*
X011204Y014726D03*
X011204Y014716D03*
X011204Y014706D03*
X011204Y014696D03*
X011204Y014686D03*
X011204Y014676D03*
X011204Y014666D03*
X011204Y014656D03*
X011204Y014646D03*
X011204Y014636D03*
X011204Y014626D03*
X011204Y014616D03*
X011204Y014606D03*
X011204Y014596D03*
X011204Y014586D03*
X011204Y014576D03*
X011204Y014566D03*
X011204Y014556D03*
X011204Y014546D03*
X011204Y014536D03*
X011204Y014526D03*
X011204Y014516D03*
X011194Y014446D03*
X011194Y014436D03*
X011194Y014426D03*
X011194Y014416D03*
X011194Y014406D03*
X011184Y014346D03*
X011184Y014336D03*
X011174Y014296D03*
X011174Y014286D03*
X011174Y014276D03*
X011164Y014266D03*
X011164Y014256D03*
X011164Y014246D03*
X011164Y014236D03*
X011154Y014216D03*
X011154Y014206D03*
X011154Y014196D03*
X011154Y014186D03*
X011144Y014176D03*
X011144Y014166D03*
X011134Y014136D03*
X010274Y014486D03*
X010184Y014066D03*
X009464Y014206D03*
X009474Y014416D03*
X009474Y014426D03*
X009044Y014446D03*
X008674Y014506D03*
X008664Y014496D03*
X007744Y014496D03*
X007744Y014486D03*
X007744Y014476D03*
X007744Y014466D03*
X007744Y014456D03*
X007744Y014446D03*
X007744Y014436D03*
X007744Y014426D03*
X007744Y014506D03*
X007744Y014516D03*
X007744Y014526D03*
X007744Y014736D03*
X007744Y014746D03*
X007744Y014756D03*
X007744Y014766D03*
X007744Y014776D03*
X007744Y014786D03*
X007744Y014796D03*
X007744Y014806D03*
X007744Y014816D03*
X007744Y014826D03*
X007754Y014836D03*
X007754Y014846D03*
X007754Y014856D03*
X007754Y014866D03*
X007754Y014876D03*
X007754Y014886D03*
X007764Y014906D03*
X007764Y014916D03*
X007764Y014926D03*
X007764Y014936D03*
X007764Y014946D03*
X007774Y014976D03*
X007774Y014986D03*
X007774Y014996D03*
X007774Y015006D03*
X007784Y015016D03*
X007784Y015026D03*
X007784Y015036D03*
X007784Y015046D03*
X007794Y015056D03*
X007794Y015066D03*
X007794Y015076D03*
X007794Y015086D03*
X007804Y015096D03*
X007804Y015106D03*
X007814Y015136D03*
X009084Y015976D03*
X009004Y013366D03*
X009804Y013306D03*
X009944Y013366D03*
D97*
X009914Y013356D03*
X009824Y013316D03*
X009474Y013526D03*
X009124Y013316D03*
X009104Y013326D03*
X009474Y014446D03*
X010264Y014516D03*
X011074Y013976D03*
X011074Y013966D03*
X011064Y013946D03*
X011054Y013916D03*
X011084Y013986D03*
X011084Y013996D03*
X011094Y014006D03*
X011094Y014016D03*
X011104Y014036D03*
X011104Y014046D03*
X011114Y014066D03*
X011114Y014076D03*
X011124Y014096D03*
X011124Y015166D03*
X011114Y015186D03*
X011104Y015216D03*
X011104Y015226D03*
X011094Y015246D03*
X011094Y015256D03*
X011084Y015266D03*
X011084Y015276D03*
X011074Y015286D03*
X011074Y015296D03*
X011064Y015316D03*
X011044Y015366D03*
X009844Y015916D03*
X009464Y015746D03*
X009094Y015966D03*
X007894Y015346D03*
X007884Y015326D03*
X007884Y015316D03*
X007874Y015306D03*
X007874Y015296D03*
X007864Y015286D03*
X007864Y015276D03*
X007854Y015256D03*
X007844Y015226D03*
X007834Y015206D03*
X007754Y014356D03*
X007754Y014346D03*
X007754Y014336D03*
X007754Y014326D03*
X007754Y014316D03*
X007754Y014306D03*
X007754Y014296D03*
D98*
X007824Y013926D03*
X007824Y013916D03*
X008334Y013336D03*
X008344Y013326D03*
X009474Y013546D03*
X009474Y014106D03*
X010614Y013336D03*
X010624Y013346D03*
X009904Y015706D03*
X009824Y015846D03*
X009034Y015696D03*
X008334Y015926D03*
X008324Y015916D03*
X008314Y015906D03*
X010634Y015906D03*
X010644Y015896D03*
D99*
X011019Y015416D03*
X011019Y015406D03*
X011029Y015396D03*
X011029Y015386D03*
X011039Y015376D03*
X011049Y015356D03*
X011049Y015346D03*
X011059Y015336D03*
X011059Y015326D03*
X011069Y015306D03*
X010449Y015076D03*
X009919Y015796D03*
X009919Y015806D03*
X009089Y015956D03*
X009009Y015796D03*
X008689Y014526D03*
X009469Y014456D03*
X009469Y014186D03*
X009469Y014176D03*
X009059Y013346D03*
X009839Y013326D03*
X011019Y013846D03*
X011029Y013866D03*
X011039Y013876D03*
X011039Y013886D03*
X011049Y013896D03*
X011049Y013906D03*
X011059Y013926D03*
X011059Y013936D03*
X011069Y013956D03*
X007759Y014256D03*
X007759Y014266D03*
X007759Y014276D03*
X007759Y014286D03*
X007889Y015336D03*
X007899Y015356D03*
X007899Y015366D03*
X007909Y015376D03*
X007909Y015386D03*
X007919Y015396D03*
X007919Y015406D03*
X007929Y015416D03*
X007939Y015436D03*
D100*
X007934Y015426D03*
X007944Y015446D03*
X007954Y015456D03*
X007954Y015466D03*
X007964Y015476D03*
X007964Y015486D03*
X007974Y015496D03*
X008504Y014776D03*
X008694Y014536D03*
X008794Y014046D03*
X009084Y013336D03*
X009854Y013336D03*
X009884Y013346D03*
X010254Y014526D03*
X010214Y014736D03*
X010444Y014776D03*
X011014Y015426D03*
X011004Y015436D03*
X011004Y015446D03*
X010994Y015456D03*
X010984Y015466D03*
X010984Y015476D03*
X010974Y015486D03*
X010974Y015496D03*
X010964Y015506D03*
X009844Y015906D03*
X011024Y013856D03*
X011014Y013836D03*
X011004Y013826D03*
X011004Y013816D03*
X010994Y013806D03*
X010994Y013796D03*
X010984Y013786D03*
X010974Y013766D03*
X010964Y013746D03*
X007764Y014216D03*
X007764Y014226D03*
X007764Y014236D03*
X007764Y014246D03*
D101*
X007819Y013946D03*
X007819Y013936D03*
X008299Y013366D03*
X008309Y013356D03*
X008319Y013346D03*
X009029Y015706D03*
X009109Y015886D03*
X009459Y015786D03*
X009909Y015716D03*
X010649Y015886D03*
X010659Y013376D03*
X010649Y013366D03*
X010639Y013356D03*
X008279Y015876D03*
X008289Y015886D03*
X008299Y015896D03*
D102*
X008264Y015866D03*
X008254Y015856D03*
X008244Y015846D03*
X009024Y015716D03*
X009104Y015896D03*
X009834Y015856D03*
X010664Y015876D03*
X010674Y015866D03*
X010404Y015046D03*
X008284Y013376D03*
X008274Y013386D03*
X008264Y013396D03*
X007814Y013956D03*
X007814Y013966D03*
D103*
X007809Y013976D03*
X007809Y013986D03*
X008249Y013406D03*
X009479Y014116D03*
X009469Y014506D03*
X010199Y014576D03*
X009909Y015726D03*
X010689Y015856D03*
X010699Y015846D03*
X010709Y015836D03*
X010719Y015826D03*
X010689Y013406D03*
X010679Y013396D03*
X010669Y013386D03*
X008549Y015066D03*
X008239Y015836D03*
D104*
X008224Y015826D03*
X008214Y015816D03*
X008204Y015806D03*
X009024Y015726D03*
X009104Y015906D03*
X009464Y015776D03*
X009834Y015866D03*
X009914Y015736D03*
X010724Y015816D03*
X010734Y015806D03*
X010744Y015796D03*
X010754Y015786D03*
X010184Y014726D03*
X010214Y014566D03*
X010734Y013446D03*
X010724Y013436D03*
X010714Y013426D03*
X010704Y013416D03*
X008764Y014726D03*
X007804Y014006D03*
X007804Y013996D03*
X008204Y013456D03*
X008214Y013446D03*
X008224Y013436D03*
X008234Y013426D03*
X008244Y013416D03*
D105*
X008199Y013466D03*
X008189Y013476D03*
X008499Y013796D03*
X007799Y014016D03*
X007799Y014026D03*
X007799Y014036D03*
X008729Y014576D03*
X009469Y014496D03*
X010419Y015056D03*
X009909Y015746D03*
X009019Y015736D03*
X008199Y015796D03*
X008189Y015786D03*
X008179Y015776D03*
X008169Y015766D03*
X010439Y013786D03*
X010449Y013796D03*
X010459Y013806D03*
X010759Y013476D03*
X010749Y013466D03*
X010739Y013456D03*
D106*
X010774Y013486D03*
X010464Y013816D03*
X010424Y014766D03*
X010794Y015746D03*
X010784Y015756D03*
X010774Y015766D03*
X010764Y015776D03*
X009914Y015756D03*
X009834Y015876D03*
X009104Y015916D03*
X008164Y015756D03*
X008154Y015746D03*
X008144Y015736D03*
X008134Y015726D03*
X008524Y014766D03*
X008474Y013816D03*
X008484Y013806D03*
X008164Y013496D03*
X008174Y013486D03*
X007794Y014046D03*
X007794Y014056D03*
X009474Y014126D03*
D107*
X009474Y014136D03*
X009474Y013536D03*
X010234Y014556D03*
X010504Y013856D03*
X010834Y013566D03*
X010844Y013576D03*
X010854Y013586D03*
X010824Y013546D03*
X010814Y013536D03*
X010864Y015656D03*
X010854Y015666D03*
X010834Y015696D03*
X009914Y015766D03*
X009014Y015756D03*
X008714Y014566D03*
X008424Y013866D03*
X008434Y013856D03*
X008444Y013846D03*
X007784Y014096D03*
X007784Y014106D03*
X007784Y014116D03*
X008064Y015636D03*
X008074Y015646D03*
X008094Y015676D03*
X008104Y015686D03*
D108*
X008724Y016156D03*
X007954Y013556D03*
D109*
X007899Y013676D03*
X009469Y013566D03*
X009479Y014056D03*
X010319Y015006D03*
X009079Y015626D03*
D110*
X010244Y016146D03*
X010264Y014986D03*
X007944Y013576D03*
D111*
X007929Y013606D03*
X008669Y015006D03*
X009109Y015616D03*
X008669Y016136D03*
X009839Y015616D03*
X010279Y016136D03*
X009469Y013576D03*
D112*
X009469Y014146D03*
X010239Y014546D03*
X010529Y013876D03*
X010519Y013866D03*
X010859Y013596D03*
X010869Y013606D03*
X010879Y013616D03*
X010889Y013636D03*
X010899Y013646D03*
X010919Y013676D03*
X010889Y015626D03*
X010879Y015636D03*
X010869Y015646D03*
X008709Y014556D03*
X008419Y013876D03*
X007779Y014126D03*
X007779Y014136D03*
X008049Y015616D03*
X008059Y015626D03*
X008079Y015656D03*
X008089Y015666D03*
D113*
X009494Y015226D03*
X009474Y013606D03*
D114*
X009474Y013616D03*
X009474Y014776D03*
X010184Y014966D03*
X010124Y016186D03*
D115*
X009844Y015896D03*
X009914Y015776D03*
X009464Y015756D03*
X009094Y015936D03*
X009014Y015776D03*
X009014Y015766D03*
X008704Y014546D03*
X008004Y015546D03*
X008014Y015566D03*
X008024Y015576D03*
X008024Y015586D03*
X008034Y015596D03*
X008044Y015606D03*
X007774Y014166D03*
X007774Y014156D03*
X007774Y014146D03*
X009464Y014476D03*
X010244Y014536D03*
X010434Y015066D03*
X010944Y015546D03*
X010924Y015576D03*
X010914Y015586D03*
X010914Y015596D03*
X010904Y015606D03*
X010894Y015616D03*
X010954Y013726D03*
X010944Y013716D03*
X010934Y013696D03*
X010924Y013686D03*
X010914Y013666D03*
X010904Y013656D03*
X010884Y013626D03*
D116*
X009469Y016496D03*
X008609Y016106D03*
X007909Y013656D03*
X007909Y013646D03*
D117*
X009474Y013646D03*
X009484Y015246D03*
D118*
X009474Y016456D03*
X009474Y013656D03*
D119*
X009469Y013666D03*
D120*
X009474Y013676D03*
D121*
X009474Y013696D03*
D122*
X009469Y014156D03*
X009469Y014166D03*
X009469Y014466D03*
X008729Y014736D03*
X008519Y015086D03*
X007989Y015516D03*
X007989Y015526D03*
X007999Y015536D03*
X008009Y015556D03*
X007979Y015506D03*
X009009Y015786D03*
X009089Y015946D03*
X009919Y015786D03*
X010929Y015566D03*
X010939Y015556D03*
X010949Y015536D03*
X010959Y015526D03*
X010959Y015516D03*
X010979Y013776D03*
X010969Y013756D03*
X010959Y013736D03*
X010939Y013706D03*
X007769Y014176D03*
X007769Y014186D03*
X007769Y014196D03*
X007769Y014206D03*
D123*
X009474Y013716D03*
D124*
X009044Y014506D03*
X008464Y013936D03*
X008454Y013946D03*
X008444Y013956D03*
X008434Y013966D03*
X008424Y013976D03*
X008394Y013756D03*
X008404Y013746D03*
X008414Y013736D03*
X008424Y013726D03*
X008114Y014276D03*
X008264Y014636D03*
X008274Y014646D03*
X008284Y014656D03*
X008294Y014666D03*
X008304Y014676D03*
X010464Y013926D03*
X010474Y013936D03*
X010484Y013946D03*
X010544Y013996D03*
X010554Y014006D03*
X010564Y013766D03*
X010554Y013756D03*
X010544Y013746D03*
X010534Y013736D03*
X010834Y014276D03*
X010654Y014666D03*
X010644Y014676D03*
D125*
X009474Y013736D03*
D126*
X009474Y013746D03*
X009474Y016416D03*
D127*
X009079Y016036D03*
X008539Y015176D03*
X008109Y014286D03*
X008479Y013926D03*
X008489Y013916D03*
X008509Y013906D03*
X008519Y013896D03*
X008529Y013886D03*
X008369Y013786D03*
X008369Y013776D03*
X008379Y013766D03*
X009129Y014176D03*
X009809Y014176D03*
X009989Y014176D03*
X009899Y014506D03*
X010449Y013916D03*
X010439Y013906D03*
X010429Y013896D03*
X010419Y013886D03*
X010569Y013776D03*
X010839Y014286D03*
X010699Y014616D03*
X010669Y014656D03*
X010429Y015166D03*
D128*
X009474Y013766D03*
D129*
X009474Y013776D03*
X009474Y014806D03*
X009474Y016406D03*
D130*
X009474Y013786D03*
D131*
X009474Y013796D03*
D132*
X009474Y013806D03*
D133*
X009474Y013826D03*
D134*
X009474Y013846D03*
X009474Y014816D03*
X009464Y015316D03*
D135*
X009479Y015536D03*
X009479Y015546D03*
X009479Y015556D03*
X009479Y015566D03*
X009469Y013856D03*
D136*
X009474Y013876D03*
X009484Y015506D03*
D137*
X010714Y013886D03*
X008234Y013886D03*
D138*
X009469Y013896D03*
X009479Y015456D03*
D139*
X009484Y015446D03*
X009484Y015436D03*
X009474Y013906D03*
D140*
X009474Y013926D03*
X009474Y015346D03*
X009484Y015356D03*
X009484Y015366D03*
X009484Y015376D03*
D141*
X009469Y013936D03*
D142*
X009474Y013946D03*
X009474Y016346D03*
D143*
X009469Y013966D03*
D144*
X009469Y013976D03*
D145*
X009469Y013996D03*
D146*
X009474Y014006D03*
X009474Y016326D03*
D147*
X009469Y014016D03*
D148*
X009469Y014036D03*
D149*
X009724Y014046D03*
D150*
X009899Y014106D03*
X009039Y014106D03*
X008729Y014336D03*
D151*
X008934Y014436D03*
X009054Y014316D03*
X009044Y014306D03*
X009044Y014296D03*
X009044Y014286D03*
X008934Y014186D03*
X009044Y014116D03*
X009784Y014436D03*
X010004Y014436D03*
X010014Y014186D03*
X010784Y014486D03*
X010794Y014466D03*
X010804Y014446D03*
X010804Y014436D03*
X010814Y014416D03*
X010814Y014406D03*
X010824Y014396D03*
X010824Y014386D03*
X010824Y014376D03*
X010834Y014366D03*
X010834Y014356D03*
X010844Y014336D03*
X010844Y014326D03*
X010844Y014316D03*
X010844Y014306D03*
X010404Y015186D03*
X008164Y014486D03*
X008154Y014476D03*
X008154Y014466D03*
X008144Y014456D03*
X008144Y014446D03*
X008134Y014426D03*
X008134Y014416D03*
X008124Y014406D03*
X008124Y014396D03*
X008114Y014376D03*
X008114Y014366D03*
X008104Y014346D03*
X008104Y014336D03*
X008104Y014316D03*
D152*
X008449Y014826D03*
X008889Y014396D03*
X008889Y014386D03*
X008899Y014406D03*
X008909Y014416D03*
X009049Y014346D03*
X009189Y014406D03*
X009199Y014396D03*
X009209Y014376D03*
X009209Y014246D03*
X009199Y014236D03*
X009199Y014226D03*
X009189Y014216D03*
X008889Y014236D03*
X009729Y014356D03*
X009739Y014386D03*
X009749Y014396D03*
X009899Y014346D03*
X009899Y014276D03*
X010039Y014216D03*
X010049Y014226D03*
X010059Y014246D03*
X010059Y014386D03*
X010049Y014396D03*
X009749Y014226D03*
X009739Y014236D03*
X010389Y015196D03*
D153*
X010359Y015216D03*
X010509Y014836D03*
X010409Y014346D03*
X009419Y014256D03*
D154*
X009474Y014256D03*
X010404Y014266D03*
X008614Y015226D03*
D155*
X009054Y014356D03*
D156*
X009039Y014516D03*
X008439Y014836D03*
X009899Y014516D03*
X009899Y014366D03*
D157*
X009759Y014586D03*
X009469Y015296D03*
D158*
X009469Y014616D03*
X009469Y014606D03*
X009469Y014596D03*
X009469Y016266D03*
D159*
X009474Y014656D03*
X009474Y014646D03*
X009474Y014636D03*
X009474Y014626D03*
D160*
X009469Y014666D03*
D161*
X009469Y014696D03*
D162*
X009474Y014786D03*
D163*
X009474Y014796D03*
D164*
X009479Y014826D03*
D165*
X009474Y014846D03*
D166*
X009474Y014856D03*
X009474Y016296D03*
D167*
X009474Y014866D03*
D168*
X009479Y014876D03*
D169*
X009474Y014916D03*
D170*
X009474Y014926D03*
D171*
X009474Y014936D03*
D172*
X009474Y014946D03*
D173*
X009479Y015256D03*
X008899Y014956D03*
X009469Y016446D03*
D174*
X010099Y014956D03*
D175*
X008809Y014966D03*
X009469Y016466D03*
D176*
X010219Y014976D03*
D177*
X008724Y014986D03*
D178*
X009474Y015266D03*
D179*
X009469Y015286D03*
D180*
X009469Y015336D03*
X009479Y015416D03*
X009479Y015426D03*
D181*
X009479Y015486D03*
X009479Y015496D03*
D182*
X009479Y015576D03*
X009479Y015586D03*
D183*
X009479Y015606D03*
X009469Y016386D03*
D184*
X008789Y016176D03*
X010159Y016176D03*
D185*
X010074Y016196D03*
X008864Y016196D03*
D186*
X009474Y016206D03*
D187*
X009469Y016216D03*
D188*
X009469Y016236D03*
D189*
X009474Y016286D03*
D190*
X009469Y016306D03*
D191*
X009469Y016316D03*
D192*
X009474Y016336D03*
D193*
X009474Y016376D03*
D194*
X009469Y016396D03*
M02*
