%
M48
M72
T01C0.0236
T02C0.0400
%
T01
X4206Y5706
X4806Y4706
X5606Y5206
X5606Y6706
X4806Y7206
X6906Y6206
X8906Y7206
X9406Y6706
X9906Y7206
X10906Y11706
X7906Y11706
X4206Y11706
T02
X1106Y1706
X1106Y2706
X1106Y3706
X1106Y4706
X1106Y5706
X1106Y6706
X1106Y7706
X1106Y8706
X1106Y9706
X1106Y10706
X1106Y11706
X1106Y12706
X1106Y13706
X1106Y14706
X1106Y15706
X1106Y16706
X1106Y17706
X1106Y18706
X1106Y19706
X1106Y20706
X2106Y20706
X2106Y19706
X2106Y18706
X2106Y17706
X2106Y16706
X2106Y15706
X2106Y14706
X2106Y13706
X2106Y12706
X2106Y11706
X2106Y10706
X2106Y9706
X2106Y8706
X2106Y7706
X2106Y6706
X2106Y5706
X2106Y4706
X2106Y3706
X2106Y2706
X2106Y1706
X3306Y2706
X4306Y2706
X5306Y2706
X6906Y4206
X6906Y5206
X7906Y5206
X7906Y4206
X8906Y4206
X8906Y5206
X9906Y5206
X9906Y4206
X10906Y4206
X10906Y5206
X11906Y5206
X11906Y4206
X15706Y3706
X15706Y2706
X15706Y1706
X16706Y1706
X16706Y2706
X16706Y3706
X16706Y4706
X16706Y5706
X15706Y5706
X15706Y4706
X15706Y6706
X16706Y6706
X16706Y10706
X16706Y11706
X15706Y11706
X15706Y10706
X15706Y12706
X15706Y13706
X15706Y14706
X15706Y15706
X16706Y15706
X16706Y14706
X16706Y13706
X16706Y12706
X16706Y19706
X15706Y19706
X15706Y20706
X15706Y21706
X15706Y22706
X15706Y23706
X15706Y24706
X16706Y24706
X16706Y23706
X16706Y22706
X16706Y21706
X16706Y20706
X11906Y22206
X11906Y23206
X10906Y23206
X10906Y22206
X9906Y22206
X9906Y23206
X8906Y23206
X8906Y22206
X7906Y22206
X7906Y23206
X6906Y23206
X6906Y22206
M30
