G75*
G70*
%OFA0B0*%
%FSLAX24Y24*%
%IPPOS*%
%LPD*%
%AMOC8*
5,1,8,0,0,1.08239X$1,22.5*
%
%ADD10OC8,0.0720*%
%ADD11R,0.0720X0.0720*%
%ADD12C,0.0820*%
%ADD13C,0.0500*%
%ADD14C,0.0671*%
D10*
X001106Y001706D03*
X001106Y002706D03*
X001106Y003706D03*
X001106Y004706D03*
X001106Y005706D03*
X001106Y006706D03*
X001106Y007706D03*
X001106Y008706D03*
X001106Y009706D03*
X001106Y010706D03*
X001106Y011706D03*
X001106Y012706D03*
X001106Y013706D03*
X001106Y014706D03*
X001106Y015706D03*
X001106Y016706D03*
X001106Y017706D03*
X001106Y018706D03*
X001106Y019706D03*
X001106Y020706D03*
X002106Y020706D03*
X002106Y019706D03*
X002106Y018706D03*
X002106Y017706D03*
X002106Y016706D03*
X002106Y015706D03*
X002106Y014706D03*
X002106Y013706D03*
X002106Y012706D03*
X002106Y011706D03*
X002106Y010706D03*
X002106Y009706D03*
X002106Y008706D03*
X002106Y007706D03*
X002106Y006706D03*
X002106Y005706D03*
X002106Y004706D03*
X002106Y003706D03*
X002106Y002706D03*
X002106Y001706D03*
X006906Y004206D03*
X006906Y005206D03*
X007906Y005206D03*
X007906Y004206D03*
X008906Y004206D03*
X008906Y005206D03*
X009906Y005206D03*
X009906Y004206D03*
X010906Y004206D03*
X010906Y005206D03*
X011906Y004206D03*
X015706Y003706D03*
X015706Y002706D03*
X015706Y001706D03*
X016706Y001706D03*
X016706Y002706D03*
X016706Y003706D03*
X016706Y004706D03*
X016706Y005706D03*
X015706Y005706D03*
X015706Y004706D03*
X016706Y006706D03*
X016706Y010706D03*
X016706Y011706D03*
X015706Y011706D03*
X015706Y010706D03*
X015706Y012706D03*
X015706Y013706D03*
X015706Y014706D03*
X016706Y014706D03*
X016706Y013706D03*
X016706Y012706D03*
X016706Y015706D03*
X016706Y019706D03*
X015706Y019706D03*
X015706Y020706D03*
X015706Y021706D03*
X015706Y022706D03*
X015706Y023706D03*
X016706Y023706D03*
X016706Y022706D03*
X016706Y021706D03*
X016706Y020706D03*
X016706Y024706D03*
X011906Y023206D03*
X011906Y022206D03*
X010906Y022206D03*
X010906Y023206D03*
X009906Y023206D03*
X009906Y022206D03*
X008906Y022206D03*
X008906Y023206D03*
X007906Y023206D03*
X007906Y022206D03*
X006906Y023206D03*
D11*
X006906Y022206D03*
X015706Y024706D03*
X015706Y015706D03*
X015706Y006706D03*
X011906Y005206D03*
D12*
X005306Y002706D03*
X004306Y002706D03*
X003306Y002706D03*
D13*
X000350Y000706D02*
X000352Y000743D01*
X000358Y000780D01*
X000367Y000816D01*
X000381Y000851D01*
X000398Y000884D01*
X000418Y000915D01*
X000441Y000944D01*
X000468Y000971D01*
X000497Y000994D01*
X000528Y001014D01*
X000561Y001031D01*
X000596Y001045D01*
X000632Y001054D01*
X000669Y001060D01*
X000706Y001062D01*
X000743Y001060D01*
X000780Y001054D01*
X000816Y001045D01*
X000851Y001031D01*
X000884Y001014D01*
X000915Y000994D01*
X000944Y000971D01*
X000971Y000944D01*
X000994Y000915D01*
X001014Y000884D01*
X001031Y000851D01*
X001045Y000816D01*
X001054Y000780D01*
X001060Y000743D01*
X001062Y000706D01*
X001060Y000669D01*
X001054Y000632D01*
X001045Y000596D01*
X001031Y000561D01*
X001014Y000528D01*
X000994Y000497D01*
X000971Y000468D01*
X000944Y000441D01*
X000915Y000418D01*
X000884Y000398D01*
X000851Y000381D01*
X000816Y000367D01*
X000780Y000358D01*
X000743Y000352D01*
X000706Y000350D01*
X000669Y000352D01*
X000632Y000358D01*
X000596Y000367D01*
X000561Y000381D01*
X000528Y000398D01*
X000497Y000418D01*
X000468Y000441D01*
X000441Y000468D01*
X000418Y000497D01*
X000398Y000528D01*
X000381Y000561D01*
X000367Y000596D01*
X000358Y000632D01*
X000352Y000669D01*
X000350Y000706D01*
X019850Y000706D02*
X019852Y000743D01*
X019858Y000780D01*
X019867Y000816D01*
X019881Y000851D01*
X019898Y000884D01*
X019918Y000915D01*
X019941Y000944D01*
X019968Y000971D01*
X019997Y000994D01*
X020028Y001014D01*
X020061Y001031D01*
X020096Y001045D01*
X020132Y001054D01*
X020169Y001060D01*
X020206Y001062D01*
X020243Y001060D01*
X020280Y001054D01*
X020316Y001045D01*
X020351Y001031D01*
X020384Y001014D01*
X020415Y000994D01*
X020444Y000971D01*
X020471Y000944D01*
X020494Y000915D01*
X020514Y000884D01*
X020531Y000851D01*
X020545Y000816D01*
X020554Y000780D01*
X020560Y000743D01*
X020562Y000706D01*
X020560Y000669D01*
X020554Y000632D01*
X020545Y000596D01*
X020531Y000561D01*
X020514Y000528D01*
X020494Y000497D01*
X020471Y000468D01*
X020444Y000441D01*
X020415Y000418D01*
X020384Y000398D01*
X020351Y000381D01*
X020316Y000367D01*
X020280Y000358D01*
X020243Y000352D01*
X020206Y000350D01*
X020169Y000352D01*
X020132Y000358D01*
X020096Y000367D01*
X020061Y000381D01*
X020028Y000398D01*
X019997Y000418D01*
X019968Y000441D01*
X019941Y000468D01*
X019918Y000497D01*
X019898Y000528D01*
X019881Y000561D01*
X019867Y000596D01*
X019858Y000632D01*
X019852Y000669D01*
X019850Y000706D01*
X019750Y026706D02*
X019752Y026743D01*
X019758Y026780D01*
X019767Y026816D01*
X019781Y026851D01*
X019798Y026884D01*
X019818Y026915D01*
X019841Y026944D01*
X019868Y026971D01*
X019897Y026994D01*
X019928Y027014D01*
X019961Y027031D01*
X019996Y027045D01*
X020032Y027054D01*
X020069Y027060D01*
X020106Y027062D01*
X020143Y027060D01*
X020180Y027054D01*
X020216Y027045D01*
X020251Y027031D01*
X020284Y027014D01*
X020315Y026994D01*
X020344Y026971D01*
X020371Y026944D01*
X020394Y026915D01*
X020414Y026884D01*
X020431Y026851D01*
X020445Y026816D01*
X020454Y026780D01*
X020460Y026743D01*
X020462Y026706D01*
X020460Y026669D01*
X020454Y026632D01*
X020445Y026596D01*
X020431Y026561D01*
X020414Y026528D01*
X020394Y026497D01*
X020371Y026468D01*
X020344Y026441D01*
X020315Y026418D01*
X020284Y026398D01*
X020251Y026381D01*
X020216Y026367D01*
X020180Y026358D01*
X020143Y026352D01*
X020106Y026350D01*
X020069Y026352D01*
X020032Y026358D01*
X019996Y026367D01*
X019961Y026381D01*
X019928Y026398D01*
X019897Y026418D01*
X019868Y026441D01*
X019841Y026468D01*
X019818Y026497D01*
X019798Y026528D01*
X019781Y026561D01*
X019767Y026596D01*
X019758Y026632D01*
X019752Y026669D01*
X019750Y026706D01*
X000350Y026706D02*
X000352Y026743D01*
X000358Y026780D01*
X000367Y026816D01*
X000381Y026851D01*
X000398Y026884D01*
X000418Y026915D01*
X000441Y026944D01*
X000468Y026971D01*
X000497Y026994D01*
X000528Y027014D01*
X000561Y027031D01*
X000596Y027045D01*
X000632Y027054D01*
X000669Y027060D01*
X000706Y027062D01*
X000743Y027060D01*
X000780Y027054D01*
X000816Y027045D01*
X000851Y027031D01*
X000884Y027014D01*
X000915Y026994D01*
X000944Y026971D01*
X000971Y026944D01*
X000994Y026915D01*
X001014Y026884D01*
X001031Y026851D01*
X001045Y026816D01*
X001054Y026780D01*
X001060Y026743D01*
X001062Y026706D01*
X001060Y026669D01*
X001054Y026632D01*
X001045Y026596D01*
X001031Y026561D01*
X001014Y026528D01*
X000994Y026497D01*
X000971Y026468D01*
X000944Y026441D01*
X000915Y026418D01*
X000884Y026398D01*
X000851Y026381D01*
X000816Y026367D01*
X000780Y026358D01*
X000743Y026352D01*
X000706Y026350D01*
X000669Y026352D01*
X000632Y026358D01*
X000596Y026367D01*
X000561Y026381D01*
X000528Y026398D01*
X000497Y026418D01*
X000468Y026441D01*
X000441Y026468D01*
X000418Y026497D01*
X000398Y026528D01*
X000381Y026561D01*
X000367Y026596D01*
X000358Y026632D01*
X000352Y026669D01*
X000350Y026706D01*
D14*
X000706Y000706D03*
X020206Y000706D03*
X020106Y026706D03*
X000706Y026706D03*
M02*
