G75*
G70*
%OFA0B0*%
%FSLAX24Y24*%
%IPPOS*%
%LPD*%
%AMOC8*
5,1,8,0,0,1.08239X$1,22.5*
%
%ADD10OC8,0.0640*%
%ADD11R,0.0640X0.0640*%
%ADD12C,0.0740*%
%ADD13C,0.0436*%
%ADD14C,0.0160*%
%ADD15C,0.0100*%
%ADD16C,0.0560*%
D10*
X001106Y001706D03*
X001106Y002706D03*
X001106Y003706D03*
X001106Y004706D03*
X001106Y005706D03*
X001106Y006706D03*
X001106Y007706D03*
X001106Y008706D03*
X001106Y009706D03*
X001106Y010706D03*
X001106Y011706D03*
X001106Y012706D03*
X001106Y013706D03*
X001106Y014706D03*
X001106Y015706D03*
X001106Y016706D03*
X001106Y017706D03*
X001106Y018706D03*
X001106Y019706D03*
X001106Y020706D03*
X002106Y020706D03*
X002106Y019706D03*
X002106Y018706D03*
X002106Y017706D03*
X002106Y016706D03*
X002106Y015706D03*
X002106Y014706D03*
X002106Y013706D03*
X002106Y012706D03*
X002106Y011706D03*
X002106Y010706D03*
X002106Y009706D03*
X002106Y008706D03*
X002106Y007706D03*
X002106Y006706D03*
X002106Y005706D03*
X002106Y004706D03*
X002106Y003706D03*
X002106Y002706D03*
X002106Y001706D03*
X006906Y004206D03*
X006906Y005206D03*
X007906Y005206D03*
X007906Y004206D03*
X008906Y004206D03*
X008906Y005206D03*
X009906Y005206D03*
X009906Y004206D03*
X010906Y004206D03*
X010906Y005206D03*
X011906Y004206D03*
X015706Y003706D03*
X015706Y002706D03*
X015706Y001706D03*
X016706Y001706D03*
X016706Y002706D03*
X016706Y003706D03*
X016706Y004706D03*
X016706Y005706D03*
X015706Y005706D03*
X015706Y004706D03*
X016706Y006706D03*
X016706Y010706D03*
X016706Y011706D03*
X015706Y011706D03*
X015706Y010706D03*
X015706Y012706D03*
X015706Y013706D03*
X015706Y014706D03*
X016706Y014706D03*
X016706Y013706D03*
X016706Y012706D03*
X016706Y015706D03*
X016706Y019706D03*
X015706Y019706D03*
X015706Y020706D03*
X015706Y021706D03*
X015706Y022706D03*
X015706Y023706D03*
X016706Y023706D03*
X016706Y022706D03*
X016706Y021706D03*
X016706Y020706D03*
X016706Y024706D03*
X011906Y023206D03*
X011906Y022206D03*
X010906Y022206D03*
X010906Y023206D03*
X009906Y023206D03*
X009906Y022206D03*
X008906Y022206D03*
X008906Y023206D03*
X007906Y023206D03*
X007906Y022206D03*
X006906Y023206D03*
D11*
X006906Y022206D03*
X015706Y024706D03*
X015706Y015706D03*
X015706Y006706D03*
X011906Y005206D03*
D12*
X005306Y002706D03*
X004306Y002706D03*
X003306Y002706D03*
D13*
X004806Y004706D03*
X004206Y005706D03*
X005606Y005206D03*
X005606Y006706D03*
X004806Y007206D03*
X006906Y006206D03*
X008906Y007206D03*
X009406Y006706D03*
X009906Y007206D03*
X010906Y011706D03*
X007906Y011706D03*
X004206Y011706D03*
D14*
X004206Y005706D01*
X004806Y004706D02*
X004806Y007206D01*
X005606Y006706D02*
X005606Y005206D01*
X006906Y006206D02*
X006906Y022206D01*
X007906Y022206D02*
X007906Y011706D01*
X009906Y008306D02*
X009406Y007806D01*
X009406Y006706D01*
X008906Y006206D01*
X008906Y005206D01*
X009906Y005206D02*
X009906Y007206D01*
X009906Y008306D02*
X009906Y022206D01*
X008906Y022206D02*
X008906Y007206D01*
X010906Y005206D02*
X010906Y011706D01*
X016706Y011706D02*
X017506Y011706D01*
X017906Y011306D01*
X017906Y003006D01*
X017606Y002706D01*
X016706Y002706D01*
X017506Y011706D02*
X017906Y012106D01*
X017906Y020606D01*
X017806Y020706D01*
X017906Y020806D01*
X017906Y026206D01*
X017606Y026506D01*
X011006Y026506D01*
X010906Y026406D01*
X010906Y022206D01*
X011006Y026506D02*
X000806Y026506D01*
X000406Y026106D01*
X000406Y016706D01*
X001106Y016706D01*
X001106Y002706D02*
X002106Y001706D01*
X016706Y020706D02*
X017806Y020706D01*
D15*
X000416Y026993D02*
X000416Y000416D01*
X020467Y000416D01*
X020467Y026993D01*
X000416Y026993D01*
X000416Y026966D02*
X020467Y026966D01*
X020366Y026993D02*
X020366Y000416D01*
X020467Y000446D02*
X000416Y000446D01*
X000446Y000416D02*
X000446Y026993D01*
X000566Y026993D02*
X000566Y000416D01*
X000686Y000416D02*
X000686Y001377D01*
X000657Y001406D02*
X000416Y001406D01*
X000416Y001286D02*
X000777Y001286D01*
X000806Y001257D02*
X000806Y000416D01*
X000926Y000416D02*
X000926Y001176D01*
X000887Y001176D02*
X001326Y001176D01*
X001636Y001487D01*
X001636Y001926D01*
X001326Y002236D01*
X000887Y002236D01*
X000576Y001926D01*
X000576Y001487D01*
X000887Y001176D01*
X001046Y001176D02*
X001046Y000416D01*
X001166Y000416D02*
X001166Y001176D01*
X001286Y001176D02*
X001286Y000416D01*
X001406Y000416D02*
X001406Y001257D01*
X001436Y001286D02*
X001890Y001286D01*
X001886Y001290D02*
X001886Y000416D01*
X001766Y000416D02*
X001766Y001410D01*
X001770Y001406D02*
X001556Y001406D01*
X001526Y001377D02*
X001526Y000416D01*
X001646Y000416D02*
X001646Y002417D01*
X001697Y002366D02*
X001403Y002366D01*
X001406Y002370D02*
X001406Y002156D01*
X001436Y002126D02*
X001890Y002126D01*
X001886Y002123D02*
X001886Y002177D01*
X001887Y002176D02*
X002326Y002176D01*
X002636Y002487D01*
X002636Y002926D01*
X002356Y003206D01*
X002998Y003206D01*
X002978Y003198D02*
X002815Y003035D01*
X002726Y002822D01*
X002726Y026993D01*
X002606Y026993D02*
X002606Y020956D01*
X002596Y020966D02*
X006616Y020966D01*
X006616Y020846D02*
X002636Y020846D01*
X002636Y020926D02*
X002326Y021236D01*
X001887Y021236D01*
X001606Y020956D01*
X001326Y021236D01*
X000887Y021236D01*
X000576Y020926D01*
X000576Y020487D01*
X000857Y020206D01*
X000576Y019926D01*
X000576Y019487D01*
X000857Y019206D01*
X000576Y018926D01*
X000576Y018487D01*
X000857Y018206D01*
X000416Y018206D01*
X000416Y018086D02*
X000737Y018086D01*
X000686Y018036D02*
X000686Y018377D01*
X000737Y018326D02*
X000416Y018326D01*
X000416Y018446D02*
X000617Y018446D01*
X000576Y018566D02*
X000416Y018566D01*
X000416Y018686D02*
X000576Y018686D01*
X000576Y018806D02*
X000416Y018806D01*
X000416Y018926D02*
X000577Y018926D01*
X000686Y019036D02*
X000686Y019377D01*
X000657Y019406D02*
X000416Y019406D01*
X000416Y019286D02*
X000777Y019286D01*
X000806Y019257D02*
X000806Y019156D01*
X000817Y019166D02*
X000416Y019166D01*
X000416Y019046D02*
X000697Y019046D01*
X000576Y019526D02*
X000416Y019526D01*
X000416Y019646D02*
X000576Y019646D01*
X000576Y019766D02*
X000416Y019766D01*
X000416Y019886D02*
X000576Y019886D01*
X000657Y020006D02*
X000416Y020006D01*
X000416Y020126D02*
X000777Y020126D01*
X000806Y020156D02*
X000806Y020257D01*
X000817Y020246D02*
X000416Y020246D01*
X000416Y020366D02*
X000697Y020366D01*
X000686Y020377D02*
X000686Y020036D01*
X000577Y020486D02*
X000416Y020486D01*
X000416Y020606D02*
X000576Y020606D01*
X000576Y020726D02*
X000416Y020726D01*
X000416Y020846D02*
X000576Y020846D01*
X000617Y020966D02*
X000416Y020966D01*
X000416Y021086D02*
X000737Y021086D01*
X000686Y021036D02*
X000686Y026993D01*
X000806Y026993D02*
X000806Y021156D01*
X000857Y021206D02*
X000416Y021206D01*
X000416Y021326D02*
X006616Y021326D01*
X006616Y021206D02*
X002356Y021206D01*
X002366Y021196D02*
X002366Y026993D01*
X002246Y026993D02*
X002246Y021236D01*
X002126Y021236D02*
X002126Y026993D01*
X002006Y026993D02*
X002006Y021236D01*
X001886Y021236D02*
X001886Y026993D01*
X001766Y026993D02*
X001766Y021116D01*
X001737Y021086D02*
X001476Y021086D01*
X001526Y021036D02*
X001526Y026993D01*
X001406Y026993D02*
X001406Y021156D01*
X001356Y021206D02*
X001857Y021206D01*
X001646Y020996D02*
X001646Y026993D01*
X001286Y026993D02*
X001286Y021236D01*
X001166Y021236D02*
X001166Y026993D01*
X001046Y026993D02*
X001046Y021236D01*
X000926Y021236D02*
X000926Y026993D01*
X000416Y026846D02*
X020467Y026846D01*
X020467Y026726D02*
X000416Y026726D01*
X000416Y026606D02*
X020467Y026606D01*
X020467Y026486D02*
X000416Y026486D01*
X000416Y026366D02*
X020467Y026366D01*
X020467Y026246D02*
X000416Y026246D01*
X000416Y026126D02*
X020467Y026126D01*
X020467Y026006D02*
X000416Y026006D01*
X000416Y025886D02*
X020467Y025886D01*
X020467Y025766D02*
X000416Y025766D01*
X000416Y025646D02*
X020467Y025646D01*
X020467Y025526D02*
X000416Y025526D01*
X000416Y025406D02*
X020467Y025406D01*
X020467Y025286D02*
X000416Y025286D01*
X000416Y025166D02*
X015230Y025166D01*
X015206Y025143D02*
X015206Y026993D01*
X015086Y026993D02*
X015086Y020196D01*
X014966Y020196D02*
X014966Y026993D01*
X014846Y026993D02*
X014846Y020196D01*
X014726Y020196D02*
X014726Y026993D01*
X014606Y026993D02*
X014606Y020196D01*
X014486Y020196D02*
X014486Y026993D01*
X014366Y026993D02*
X014366Y020196D01*
X014246Y020196D02*
X014246Y026993D01*
X014126Y026993D02*
X014126Y020196D01*
X014006Y020196D02*
X014006Y026993D01*
X013886Y026993D02*
X013886Y020196D01*
X013766Y020196D02*
X013766Y026993D01*
X013646Y026993D02*
X013646Y020196D01*
X013526Y020196D02*
X013526Y026993D01*
X013406Y026993D02*
X013406Y020196D01*
X013286Y020196D02*
X013286Y026993D01*
X013166Y026993D02*
X013166Y020196D01*
X013046Y020196D02*
X013046Y026993D01*
X012926Y026993D02*
X012926Y020196D01*
X012806Y020196D02*
X012806Y026993D01*
X012686Y026993D02*
X012686Y020196D01*
X012566Y020196D02*
X012566Y026993D01*
X012446Y026993D02*
X012446Y020196D01*
X012396Y020196D02*
X012396Y021947D01*
X012436Y021987D01*
X012436Y022426D01*
X012156Y022706D01*
X012436Y022987D01*
X012436Y023426D01*
X012126Y023736D01*
X011687Y023736D01*
X011376Y023426D01*
X011376Y022987D01*
X011657Y022706D01*
X011376Y022426D01*
X011376Y021987D01*
X011416Y021947D01*
X011416Y019609D01*
X011491Y019429D01*
X011629Y019291D01*
X011809Y019216D01*
X015447Y019216D01*
X015487Y019176D01*
X015926Y019176D01*
X016206Y019457D01*
X016487Y019176D01*
X016926Y019176D01*
X017236Y019487D01*
X017236Y019926D01*
X016926Y020236D01*
X016487Y020236D01*
X016206Y019956D01*
X015926Y020236D01*
X015487Y020236D01*
X015447Y020196D01*
X012396Y020196D01*
X012396Y020246D02*
X020467Y020246D01*
X020467Y020126D02*
X017036Y020126D01*
X017006Y020156D02*
X017006Y020370D01*
X017003Y020366D02*
X020467Y020366D01*
X020467Y020486D02*
X017123Y020486D01*
X017126Y020490D02*
X017126Y020036D01*
X017156Y020006D02*
X020467Y020006D01*
X020467Y019886D02*
X017236Y019886D01*
X017236Y019766D02*
X020467Y019766D01*
X020467Y019646D02*
X017236Y019646D01*
X017236Y019526D02*
X020467Y019526D01*
X020467Y019406D02*
X017156Y019406D01*
X017126Y019377D02*
X017126Y016036D01*
X017116Y016046D02*
X020467Y016046D01*
X020467Y015926D02*
X017236Y015926D01*
X016926Y016236D01*
X016487Y016236D01*
X016236Y015986D01*
X016236Y016113D01*
X016113Y016236D01*
X015300Y016236D01*
X015176Y016113D01*
X015176Y015300D01*
X015300Y015176D01*
X015427Y015176D01*
X015176Y014926D01*
X015176Y014487D01*
X015457Y014206D01*
X015176Y013926D01*
X015176Y013487D01*
X015457Y013206D01*
X015176Y012926D01*
X015176Y012487D01*
X015487Y012176D01*
X015926Y012176D01*
X016206Y012457D01*
X016487Y012176D01*
X016926Y012176D01*
X017236Y012487D01*
X017236Y012926D01*
X016956Y013206D01*
X017236Y013487D01*
X017236Y013926D01*
X016956Y014206D01*
X017236Y014487D01*
X017236Y014926D01*
X016956Y015206D01*
X020467Y015206D01*
X020467Y015086D02*
X017076Y015086D01*
X017126Y015036D02*
X017126Y015377D01*
X017076Y015326D02*
X020467Y015326D01*
X020467Y015446D02*
X017196Y015446D01*
X017236Y015487D02*
X017236Y015926D01*
X017236Y015806D02*
X020467Y015806D01*
X020467Y015686D02*
X017236Y015686D01*
X017236Y015566D02*
X020467Y015566D01*
X020467Y014966D02*
X017196Y014966D01*
X017236Y014846D02*
X020467Y014846D01*
X020467Y014726D02*
X017236Y014726D01*
X017236Y014606D02*
X020467Y014606D01*
X020467Y014486D02*
X017236Y014486D01*
X017126Y014377D02*
X017126Y014036D01*
X017156Y014006D02*
X020467Y014006D01*
X020467Y013886D02*
X017236Y013886D01*
X017236Y013766D02*
X020467Y013766D01*
X020467Y013646D02*
X017236Y013646D01*
X017236Y013526D02*
X020467Y013526D01*
X020467Y013406D02*
X017156Y013406D01*
X017126Y013377D02*
X017126Y013036D01*
X017116Y013046D02*
X020467Y013046D01*
X020467Y012926D02*
X017236Y012926D01*
X017236Y012806D02*
X020467Y012806D01*
X020467Y012686D02*
X017236Y012686D01*
X017236Y012566D02*
X020467Y012566D01*
X020467Y012446D02*
X017196Y012446D01*
X017126Y012377D02*
X017126Y011923D01*
X017156Y011893D02*
X016893Y012156D01*
X016756Y012156D01*
X016756Y011757D01*
X016656Y011757D01*
X016656Y011756D02*
X016656Y011656D01*
X016256Y011656D01*
X016256Y011520D01*
X016520Y011256D01*
X016656Y011256D01*
X016656Y011656D01*
X016756Y011656D01*
X016756Y011256D01*
X016893Y011256D01*
X017156Y011520D01*
X017156Y011656D01*
X016757Y011656D01*
X016757Y011756D01*
X017156Y011756D01*
X017156Y011893D01*
X017156Y011846D02*
X020467Y011846D01*
X020467Y011726D02*
X016757Y011726D01*
X016766Y011756D02*
X016766Y011656D01*
X016756Y011606D02*
X016656Y011606D01*
X016646Y011656D02*
X016646Y011756D01*
X016656Y011756D02*
X016256Y011756D01*
X016256Y011893D01*
X016520Y012156D01*
X016656Y012156D01*
X016656Y011757D01*
X016656Y011726D02*
X015757Y011726D01*
X015757Y011756D02*
X016156Y011756D01*
X016156Y011893D01*
X015893Y012156D01*
X015756Y012156D01*
X015756Y011757D01*
X015656Y011757D01*
X015656Y011756D02*
X015656Y011656D01*
X015256Y011656D01*
X015256Y011520D01*
X015520Y011256D01*
X015656Y011256D01*
X015656Y011656D01*
X015756Y011656D01*
X015756Y011256D01*
X015893Y011256D01*
X016156Y011520D01*
X016156Y011656D01*
X015757Y011656D01*
X015757Y011756D01*
X015806Y011756D02*
X015806Y011656D01*
X015756Y011606D02*
X015656Y011606D01*
X015686Y011656D02*
X015686Y011236D01*
X015566Y011236D02*
X015566Y011256D01*
X015487Y011236D02*
X015176Y010926D01*
X015176Y010487D01*
X015487Y010176D01*
X015926Y010176D01*
X016206Y010457D01*
X016487Y010176D01*
X016926Y010176D01*
X017236Y010487D01*
X017236Y010926D01*
X016926Y011236D01*
X016487Y011236D01*
X016206Y010956D01*
X015926Y011236D01*
X015487Y011236D01*
X015446Y011196D02*
X015446Y011330D01*
X015410Y011366D02*
X011196Y011366D01*
X011196Y011391D02*
X011269Y011464D01*
X011335Y011621D01*
X011335Y011792D01*
X011269Y011949D01*
X011149Y012069D01*
X010992Y012135D01*
X010821Y012135D01*
X010664Y012069D01*
X010544Y011949D01*
X010478Y011792D01*
X010478Y011621D01*
X010544Y011464D01*
X010616Y011391D01*
X010616Y005666D01*
X010406Y005456D01*
X010406Y021957D01*
X010436Y021987D02*
X010436Y022426D01*
X010156Y022706D01*
X010436Y022987D01*
X010436Y023426D01*
X010126Y023736D01*
X009687Y023736D01*
X009406Y023456D01*
X009126Y023736D01*
X008687Y023736D01*
X008406Y023456D01*
X008126Y023736D01*
X007687Y023736D01*
X007406Y023456D01*
X007126Y023736D01*
X006687Y023736D01*
X006376Y023426D01*
X006376Y022987D01*
X006627Y022736D01*
X006500Y022736D01*
X006376Y022613D01*
X006376Y021800D01*
X006500Y021676D01*
X006616Y021676D01*
X006616Y006522D01*
X006544Y006449D01*
X006478Y006292D01*
X006478Y006121D01*
X006544Y005964D01*
X006664Y005844D01*
X006821Y005778D01*
X006992Y005778D01*
X007149Y005844D01*
X007269Y005964D01*
X007335Y006121D01*
X007335Y006292D01*
X007269Y006449D01*
X007196Y006522D01*
X007196Y021676D01*
X007313Y021676D01*
X007436Y021800D01*
X007436Y021927D01*
X007616Y021747D01*
X007616Y012022D01*
X007544Y011949D01*
X007478Y011792D01*
X007478Y011621D01*
X007544Y011464D01*
X007664Y011344D01*
X007821Y011278D01*
X007992Y011278D01*
X008149Y011344D01*
X008269Y011464D01*
X008335Y011621D01*
X008335Y011792D01*
X008269Y011949D01*
X008196Y012022D01*
X008196Y021747D01*
X008406Y021957D01*
X008616Y021747D01*
X008616Y007522D01*
X008544Y007449D01*
X008478Y007292D01*
X008478Y007121D01*
X008544Y006964D01*
X008664Y006844D01*
X008821Y006778D01*
X008978Y006778D01*
X008978Y006689D01*
X008742Y006452D01*
X008661Y006371D01*
X008616Y006264D01*
X008616Y005666D01*
X008376Y005426D01*
X008376Y004987D01*
X008657Y004706D01*
X008376Y004426D01*
X008376Y003987D01*
X008687Y003676D01*
X009126Y003676D01*
X009406Y003957D01*
X009687Y003676D01*
X010126Y003676D01*
X010406Y003957D01*
X010406Y000416D01*
X010286Y000416D02*
X010286Y003837D01*
X010256Y003806D02*
X010557Y003806D01*
X010526Y003837D02*
X010526Y000416D01*
X010646Y000416D02*
X010646Y003717D01*
X010677Y003686D02*
X010136Y003686D01*
X010166Y003717D02*
X010166Y000416D01*
X010046Y000416D02*
X010046Y003676D01*
X009926Y003676D02*
X009926Y000416D01*
X009806Y000416D02*
X009806Y003676D01*
X009686Y003677D02*
X009686Y000416D01*
X009566Y000416D02*
X009566Y003797D01*
X009557Y003806D02*
X009256Y003806D01*
X009206Y003757D02*
X009206Y000416D01*
X009086Y000416D02*
X009086Y003676D01*
X009136Y003686D02*
X009677Y003686D01*
X009446Y003917D02*
X009446Y000416D01*
X009326Y000416D02*
X009326Y003877D01*
X009376Y003926D02*
X009437Y003926D01*
X009406Y004456D02*
X009156Y004706D01*
X009406Y004957D01*
X009657Y004706D01*
X009406Y004456D01*
X009446Y004496D02*
X009446Y004917D01*
X009477Y004886D02*
X009336Y004886D01*
X009326Y004877D02*
X009326Y004536D01*
X009336Y004526D02*
X009477Y004526D01*
X009566Y004616D02*
X009566Y004797D01*
X009597Y004766D02*
X009216Y004766D01*
X009206Y004757D02*
X009206Y004656D01*
X009216Y004646D02*
X009597Y004646D01*
X010156Y004706D02*
X010406Y004957D01*
X010406Y004456D01*
X010156Y004706D01*
X010166Y004696D02*
X010166Y004717D01*
X010216Y004766D02*
X010597Y004766D01*
X010646Y004717D02*
X010646Y004696D01*
X010657Y004706D02*
X010406Y004456D01*
X010336Y004526D02*
X010477Y004526D01*
X010526Y004576D02*
X010526Y004837D01*
X010477Y004886D02*
X010336Y004886D01*
X010286Y004837D02*
X010286Y004576D01*
X010216Y004646D02*
X010597Y004646D01*
X010657Y004706D02*
X010406Y004957D01*
X010406Y005456D02*
X010196Y005666D01*
X010196Y006891D01*
X010269Y006964D01*
X010335Y007121D01*
X010335Y007292D01*
X010269Y007449D01*
X010149Y007569D01*
X009992Y007635D01*
X009821Y007635D01*
X009696Y007583D01*
X009696Y007686D01*
X010152Y008142D01*
X010196Y008249D01*
X010196Y021747D01*
X010436Y021987D01*
X010456Y022020D02*
X010720Y021756D01*
X010856Y021756D01*
X010856Y022156D01*
X010956Y022156D01*
X010956Y021756D01*
X011093Y021756D01*
X011356Y022020D01*
X011356Y022156D01*
X010957Y022156D01*
X010957Y022256D01*
X011356Y022256D01*
X011356Y022393D01*
X011093Y022656D01*
X010956Y022656D01*
X010956Y022257D01*
X010856Y022257D01*
X010856Y022256D02*
X010856Y022156D01*
X010456Y022156D01*
X010456Y022020D01*
X010456Y022046D02*
X010436Y022046D01*
X010436Y022166D02*
X010856Y022166D01*
X010886Y022156D02*
X010886Y012135D01*
X011006Y012128D02*
X011006Y021756D01*
X010956Y021806D02*
X010856Y021806D01*
X010766Y021756D02*
X010766Y012112D01*
X010705Y012086D02*
X010196Y012086D01*
X010196Y011966D02*
X010561Y011966D01*
X010526Y011908D02*
X010526Y021950D01*
X010550Y021926D02*
X010376Y021926D01*
X010286Y021837D02*
X010286Y007408D01*
X010287Y007406D02*
X010616Y007406D01*
X010616Y007286D02*
X010335Y007286D01*
X010335Y007166D02*
X010616Y007166D01*
X010616Y007046D02*
X010304Y007046D01*
X010286Y007005D02*
X010286Y005576D01*
X010256Y005606D02*
X010557Y005606D01*
X010526Y005576D02*
X010526Y011505D01*
X010534Y011486D02*
X010196Y011486D01*
X010196Y011366D02*
X010616Y011366D01*
X010616Y011246D02*
X010196Y011246D01*
X010196Y011126D02*
X010616Y011126D01*
X010616Y011006D02*
X010196Y011006D01*
X010196Y010886D02*
X010616Y010886D01*
X010616Y010766D02*
X010196Y010766D01*
X010196Y010646D02*
X010616Y010646D01*
X010616Y010526D02*
X010196Y010526D01*
X010196Y010406D02*
X010616Y010406D01*
X010616Y010286D02*
X010196Y010286D01*
X010196Y010166D02*
X010616Y010166D01*
X010616Y010046D02*
X010196Y010046D01*
X010196Y009926D02*
X010616Y009926D01*
X010616Y009806D02*
X010196Y009806D01*
X010196Y009686D02*
X010616Y009686D01*
X010616Y009566D02*
X010196Y009566D01*
X010196Y009446D02*
X010616Y009446D01*
X010616Y009326D02*
X010196Y009326D01*
X010196Y009206D02*
X010616Y009206D01*
X010616Y009086D02*
X010196Y009086D01*
X010196Y008966D02*
X010616Y008966D01*
X010616Y008846D02*
X010196Y008846D01*
X010196Y008726D02*
X010616Y008726D01*
X010616Y008606D02*
X010196Y008606D01*
X010196Y008486D02*
X010616Y008486D01*
X010616Y008366D02*
X010196Y008366D01*
X010196Y008246D02*
X010616Y008246D01*
X010616Y008126D02*
X010137Y008126D01*
X010166Y008176D02*
X010166Y007552D01*
X010192Y007526D02*
X010616Y007526D01*
X010616Y007646D02*
X009696Y007646D01*
X009806Y007628D02*
X009806Y007796D01*
X009777Y007766D02*
X010616Y007766D01*
X010616Y007886D02*
X009897Y007886D01*
X009926Y007916D02*
X009926Y007635D01*
X010046Y007612D02*
X010046Y008036D01*
X010017Y008006D02*
X010616Y008006D01*
X011196Y008006D02*
X020467Y008006D01*
X020467Y007886D02*
X011196Y007886D01*
X011196Y007766D02*
X020467Y007766D01*
X020467Y007646D02*
X011196Y007646D01*
X011196Y007526D02*
X020467Y007526D01*
X020467Y007406D02*
X011196Y007406D01*
X011196Y007286D02*
X020467Y007286D01*
X020467Y007166D02*
X016996Y007166D01*
X017006Y007156D02*
X017006Y010257D01*
X017036Y010286D02*
X020467Y010286D01*
X020467Y010166D02*
X011196Y010166D01*
X011196Y010046D02*
X020467Y010046D01*
X020467Y009926D02*
X011196Y009926D01*
X011196Y009806D02*
X020467Y009806D01*
X020467Y009686D02*
X011196Y009686D01*
X011196Y009566D02*
X020467Y009566D01*
X020467Y009446D02*
X011196Y009446D01*
X011196Y009326D02*
X020467Y009326D01*
X020467Y009206D02*
X011196Y009206D01*
X011196Y009086D02*
X020467Y009086D01*
X020467Y008966D02*
X011196Y008966D01*
X011196Y008846D02*
X020467Y008846D01*
X020467Y008726D02*
X011196Y008726D01*
X011196Y008606D02*
X020467Y008606D01*
X020467Y008486D02*
X011196Y008486D01*
X011196Y008366D02*
X020467Y008366D01*
X020467Y008246D02*
X011196Y008246D01*
X011196Y008126D02*
X020467Y008126D01*
X020467Y007046D02*
X017116Y007046D01*
X017126Y007036D02*
X017126Y010377D01*
X017156Y010406D02*
X020467Y010406D01*
X020467Y010526D02*
X017236Y010526D01*
X017236Y010646D02*
X020467Y010646D01*
X020467Y010766D02*
X017236Y010766D01*
X017236Y010886D02*
X020467Y010886D01*
X020467Y011006D02*
X017156Y011006D01*
X017126Y011036D02*
X017126Y011490D01*
X017123Y011486D02*
X020467Y011486D01*
X020467Y011366D02*
X017003Y011366D01*
X017006Y011370D02*
X017006Y011156D01*
X017036Y011126D02*
X020467Y011126D01*
X020467Y011246D02*
X011196Y011246D01*
X011196Y011126D02*
X015377Y011126D01*
X015326Y011076D02*
X015326Y011450D01*
X015290Y011486D02*
X011279Y011486D01*
X011246Y011441D02*
X011246Y005616D01*
X011256Y005606D02*
X011376Y005606D01*
X011376Y005613D02*
X011376Y005486D01*
X011376Y005486D01*
X011196Y005666D01*
X011196Y011391D01*
X011328Y011606D02*
X015256Y011606D01*
X015326Y011656D02*
X015326Y011756D01*
X015256Y011756D02*
X015256Y011893D01*
X015520Y012156D01*
X015656Y012156D01*
X015656Y011757D01*
X015656Y011756D02*
X015256Y011756D01*
X015256Y011846D02*
X011312Y011846D01*
X011335Y011726D02*
X015656Y011726D01*
X015686Y011757D02*
X015686Y012176D01*
X015656Y012086D02*
X015756Y012086D01*
X015806Y012156D02*
X015806Y012176D01*
X015926Y012177D02*
X015926Y012123D01*
X015963Y012086D02*
X016450Y012086D01*
X016406Y012043D02*
X016406Y012257D01*
X016457Y012206D02*
X015956Y012206D01*
X016046Y012297D02*
X016046Y012003D01*
X016083Y011966D02*
X016330Y011966D01*
X016286Y011923D02*
X016286Y012377D01*
X016337Y012326D02*
X016076Y012326D01*
X016166Y012417D02*
X016166Y010996D01*
X016156Y011006D02*
X016257Y011006D01*
X016286Y011036D02*
X016286Y011490D01*
X016290Y011486D02*
X016123Y011486D01*
X016046Y011410D02*
X016046Y011116D01*
X016036Y011126D02*
X016377Y011126D01*
X016406Y011156D02*
X016406Y011370D01*
X016410Y011366D02*
X016003Y011366D01*
X015926Y011290D02*
X015926Y011236D01*
X015806Y011236D02*
X015806Y011256D01*
X015756Y011366D02*
X015656Y011366D01*
X015656Y011486D02*
X015756Y011486D01*
X015926Y011656D02*
X015926Y011756D01*
X016046Y011756D02*
X016046Y011656D01*
X016156Y011606D02*
X016256Y011606D01*
X016286Y011656D02*
X016286Y011756D01*
X016256Y011846D02*
X016156Y011846D01*
X016406Y011756D02*
X016406Y011656D01*
X016526Y011656D02*
X016526Y011756D01*
X016656Y011846D02*
X016756Y011846D01*
X016756Y011966D02*
X016656Y011966D01*
X016656Y012086D02*
X016756Y012086D01*
X016766Y012156D02*
X016766Y012176D01*
X016646Y012176D02*
X016646Y012156D01*
X016526Y012156D02*
X016526Y012176D01*
X016886Y012156D02*
X016886Y012176D01*
X016956Y012206D02*
X020467Y012206D01*
X020467Y012086D02*
X016963Y012086D01*
X017006Y012043D02*
X017006Y012257D01*
X017076Y012326D02*
X020467Y012326D01*
X020467Y011966D02*
X017083Y011966D01*
X017126Y011756D02*
X017126Y011656D01*
X017156Y011606D02*
X020467Y011606D01*
X020467Y013166D02*
X016996Y013166D01*
X017006Y013156D02*
X017006Y013257D01*
X017036Y013286D02*
X020467Y013286D01*
X020467Y014126D02*
X017036Y014126D01*
X017006Y014156D02*
X017006Y014257D01*
X016996Y014246D02*
X020467Y014246D01*
X020467Y014366D02*
X017116Y014366D01*
X016457Y014206D02*
X016206Y013956D01*
X015956Y014206D01*
X016206Y014457D01*
X016457Y014206D01*
X016417Y014246D02*
X015996Y014246D01*
X016046Y014297D02*
X016046Y014116D01*
X016036Y014126D02*
X016377Y014126D01*
X016406Y014156D02*
X016406Y014257D01*
X016297Y014366D02*
X016116Y014366D01*
X016166Y014417D02*
X016166Y013996D01*
X016156Y014006D02*
X016257Y014006D01*
X016286Y014036D02*
X016286Y014377D01*
X016206Y014956D02*
X015986Y015176D01*
X016113Y015176D01*
X016236Y015300D01*
X016236Y015427D01*
X016457Y015206D01*
X016143Y015206D01*
X016166Y015230D02*
X016166Y014996D01*
X016196Y014966D02*
X016217Y014966D01*
X016206Y014956D02*
X016457Y015206D01*
X016406Y015156D02*
X016406Y015257D01*
X016337Y015326D02*
X016236Y015326D01*
X016286Y015377D02*
X016286Y015036D01*
X016337Y015086D02*
X016076Y015086D01*
X016046Y015116D02*
X016046Y015176D01*
X015337Y015086D02*
X010196Y015086D01*
X010196Y014966D02*
X015217Y014966D01*
X015206Y014956D02*
X015206Y015270D01*
X015176Y015326D02*
X010196Y015326D01*
X010196Y015206D02*
X015270Y015206D01*
X015326Y015176D02*
X015326Y015076D01*
X015176Y014846D02*
X010196Y014846D01*
X010196Y014726D02*
X015176Y014726D01*
X015176Y014606D02*
X010196Y014606D01*
X010196Y014486D02*
X015177Y014486D01*
X015206Y014457D02*
X015206Y013956D01*
X015257Y014006D02*
X010196Y014006D01*
X010196Y013886D02*
X015176Y013886D01*
X015176Y013766D02*
X010196Y013766D01*
X010196Y013646D02*
X015176Y013646D01*
X015176Y013526D02*
X010196Y013526D01*
X010196Y013406D02*
X015257Y013406D01*
X015206Y013457D02*
X015206Y012956D01*
X015177Y012926D02*
X010196Y012926D01*
X010196Y012806D02*
X015176Y012806D01*
X015176Y012686D02*
X010196Y012686D01*
X010196Y012566D02*
X015176Y012566D01*
X015206Y012457D02*
X015206Y010956D01*
X015257Y011006D02*
X011196Y011006D01*
X011196Y010886D02*
X015176Y010886D01*
X015176Y010766D02*
X011196Y010766D01*
X011196Y010646D02*
X015176Y010646D01*
X015176Y010526D02*
X011196Y010526D01*
X011196Y010406D02*
X015257Y010406D01*
X015206Y010457D02*
X015206Y007143D01*
X015230Y007166D02*
X011196Y007166D01*
X011196Y007046D02*
X015176Y007046D01*
X015176Y007113D02*
X015176Y006300D01*
X015300Y006176D01*
X015427Y006176D01*
X015176Y005926D01*
X015176Y005487D01*
X015457Y005206D01*
X015176Y004926D01*
X015176Y004487D01*
X015457Y004206D01*
X015176Y003926D01*
X015176Y003487D01*
X015487Y003176D01*
X015926Y003176D01*
X016206Y003457D01*
X016487Y003176D01*
X016926Y003176D01*
X017236Y003487D01*
X017236Y003926D01*
X016956Y004206D01*
X017236Y004487D01*
X017236Y004926D01*
X016956Y005206D01*
X017236Y005487D01*
X017236Y005926D01*
X016956Y006206D01*
X020467Y006206D01*
X020467Y006086D02*
X017076Y006086D01*
X017126Y006036D02*
X017126Y006377D01*
X017076Y006326D02*
X020467Y006326D01*
X020467Y006446D02*
X017196Y006446D01*
X017236Y006487D02*
X017236Y006926D01*
X016926Y007236D01*
X016487Y007236D01*
X016236Y006986D01*
X016236Y007113D01*
X016113Y007236D01*
X015300Y007236D01*
X015176Y007113D01*
X015176Y006926D02*
X011196Y006926D01*
X011196Y006806D02*
X015176Y006806D01*
X015176Y006686D02*
X011196Y006686D01*
X011196Y006566D02*
X015176Y006566D01*
X015176Y006446D02*
X011196Y006446D01*
X011196Y006326D02*
X015176Y006326D01*
X015206Y006270D02*
X015206Y005956D01*
X015217Y005966D02*
X011196Y005966D01*
X011196Y005846D02*
X015176Y005846D01*
X015176Y005726D02*
X012323Y005726D01*
X012326Y005723D02*
X012326Y019216D01*
X012206Y019216D02*
X012206Y005736D01*
X012313Y005736D02*
X011500Y005736D01*
X011376Y005613D01*
X011366Y005496D02*
X011366Y026993D01*
X011246Y026993D02*
X011246Y023503D01*
X011263Y023486D02*
X011437Y023486D01*
X011486Y023536D02*
X011486Y026993D01*
X011606Y026993D02*
X011606Y023656D01*
X011557Y023606D02*
X011143Y023606D01*
X011126Y023623D02*
X011126Y026993D01*
X011006Y026993D02*
X011006Y023656D01*
X010956Y023656D02*
X011093Y023656D01*
X011356Y023393D01*
X011356Y023256D01*
X010957Y023256D01*
X010957Y023156D01*
X011356Y023156D01*
X011356Y023020D01*
X011093Y022756D01*
X010956Y022756D01*
X010956Y023156D01*
X010856Y023156D01*
X010856Y022756D01*
X010720Y022756D01*
X010456Y023020D01*
X010456Y023156D01*
X010856Y023156D01*
X010856Y023256D01*
X010456Y023256D01*
X010456Y023393D01*
X010720Y023656D01*
X010856Y023656D01*
X010856Y023257D01*
X010956Y023257D01*
X010956Y023656D01*
X010956Y023606D02*
X010856Y023606D01*
X010766Y023656D02*
X010766Y026993D01*
X010646Y026993D02*
X010646Y023583D01*
X010670Y023606D02*
X010256Y023606D01*
X010286Y023576D02*
X010286Y026993D01*
X010166Y026993D02*
X010166Y023696D01*
X010136Y023726D02*
X011677Y023726D01*
X011726Y023736D02*
X011726Y026993D01*
X011846Y026993D02*
X011846Y023736D01*
X011966Y023736D02*
X011966Y026993D01*
X012086Y026993D02*
X012086Y023736D01*
X012136Y023726D02*
X015176Y023726D01*
X015176Y023606D02*
X012256Y023606D01*
X012206Y023656D02*
X012206Y026993D01*
X012326Y026993D02*
X012326Y023536D01*
X012376Y023486D02*
X015177Y023486D01*
X015176Y023487D02*
X015457Y023206D01*
X015176Y022926D01*
X015176Y022487D01*
X015457Y022206D01*
X015176Y021926D01*
X015176Y021487D01*
X015487Y021176D01*
X015926Y021176D01*
X016206Y021457D01*
X016487Y021176D01*
X016926Y021176D01*
X017236Y021487D01*
X017236Y021926D01*
X016956Y022206D01*
X017236Y022487D01*
X017236Y022926D01*
X016956Y023206D01*
X017236Y023487D01*
X017236Y023926D01*
X016956Y024206D01*
X020467Y024206D01*
X020467Y024086D02*
X017076Y024086D01*
X017126Y024036D02*
X017126Y024377D01*
X017076Y024326D02*
X020467Y024326D01*
X020467Y024446D02*
X017196Y024446D01*
X017236Y024487D02*
X017236Y024926D01*
X016926Y025236D01*
X016487Y025236D01*
X016236Y024986D01*
X016236Y025113D01*
X016113Y025236D01*
X015300Y025236D01*
X015176Y025113D01*
X015176Y024300D01*
X015300Y024176D01*
X015427Y024176D01*
X015176Y023926D01*
X015176Y023487D01*
X015206Y023457D02*
X015206Y022956D01*
X015257Y023006D02*
X012436Y023006D01*
X012436Y023126D02*
X015377Y023126D01*
X015326Y023076D02*
X015326Y023337D01*
X015297Y023366D02*
X012436Y023366D01*
X012436Y023246D02*
X015417Y023246D01*
X015446Y023217D02*
X015446Y023196D01*
X015176Y022886D02*
X012336Y022886D01*
X012326Y022877D02*
X012326Y022536D01*
X012336Y022526D02*
X015176Y022526D01*
X015206Y022457D02*
X015206Y021956D01*
X015177Y021926D02*
X012396Y021926D01*
X012396Y021806D02*
X015176Y021806D01*
X015176Y021686D02*
X012396Y021686D01*
X012396Y021566D02*
X015176Y021566D01*
X015206Y021457D02*
X015206Y020196D01*
X015326Y020196D02*
X015326Y020450D01*
X015290Y020486D02*
X012396Y020486D01*
X012396Y020366D02*
X015410Y020366D01*
X015446Y020330D02*
X015446Y020196D01*
X015520Y020256D02*
X015256Y020520D01*
X015256Y020656D01*
X015656Y020656D01*
X015656Y020756D01*
X015256Y020756D01*
X015256Y020893D01*
X015520Y021156D01*
X015656Y021156D01*
X015656Y020757D01*
X015756Y020757D01*
X015756Y021156D01*
X015893Y021156D01*
X016156Y020893D01*
X016156Y020756D01*
X015757Y020756D01*
X015757Y020656D01*
X016156Y020656D01*
X016156Y020520D01*
X015893Y020256D01*
X015756Y020256D01*
X015756Y020656D01*
X015656Y020656D01*
X015656Y020256D01*
X015520Y020256D01*
X015566Y020256D02*
X015566Y020236D01*
X015686Y020236D02*
X015686Y020656D01*
X015656Y020606D02*
X015756Y020606D01*
X015806Y020656D02*
X015806Y020756D01*
X015757Y020726D02*
X016656Y020726D01*
X016656Y020756D02*
X016656Y020656D01*
X016256Y020656D01*
X016256Y020520D01*
X016520Y020256D01*
X016656Y020256D01*
X016656Y020656D01*
X016756Y020656D01*
X016756Y020256D01*
X016893Y020256D01*
X017156Y020520D01*
X017156Y020656D01*
X016757Y020656D01*
X016757Y020756D01*
X017156Y020756D01*
X017156Y020893D01*
X016893Y021156D01*
X016756Y021156D01*
X016756Y020757D01*
X016656Y020757D01*
X016656Y020756D02*
X016256Y020756D01*
X016256Y020893D01*
X016520Y021156D01*
X016656Y021156D01*
X016656Y020757D01*
X016646Y020756D02*
X016646Y020656D01*
X016656Y020606D02*
X016756Y020606D01*
X016766Y020656D02*
X016766Y020756D01*
X016757Y020726D02*
X020467Y020726D01*
X020467Y020606D02*
X017156Y020606D01*
X017126Y020656D02*
X017126Y020756D01*
X017156Y020846D02*
X020467Y020846D01*
X020467Y020966D02*
X017083Y020966D01*
X017126Y020923D02*
X017126Y021377D01*
X017076Y021326D02*
X020467Y021326D01*
X020467Y021206D02*
X016956Y021206D01*
X017006Y021257D02*
X017006Y021043D01*
X016963Y021086D02*
X020467Y021086D01*
X020467Y021446D02*
X017196Y021446D01*
X017236Y021566D02*
X020467Y021566D01*
X020467Y021686D02*
X017236Y021686D01*
X017236Y021806D02*
X020467Y021806D01*
X020467Y021926D02*
X017236Y021926D01*
X017126Y022036D02*
X017126Y022377D01*
X017156Y022406D02*
X020467Y022406D01*
X020467Y022286D02*
X017036Y022286D01*
X017006Y022257D02*
X017006Y022156D01*
X016996Y022166D02*
X020467Y022166D01*
X020467Y022046D02*
X017116Y022046D01*
X017236Y022526D02*
X020467Y022526D01*
X020467Y022646D02*
X017236Y022646D01*
X017236Y022766D02*
X020467Y022766D01*
X020467Y022886D02*
X017236Y022886D01*
X017156Y023006D02*
X020467Y023006D01*
X020467Y023126D02*
X017036Y023126D01*
X017006Y023156D02*
X017006Y023257D01*
X016996Y023246D02*
X020467Y023246D01*
X020467Y023366D02*
X017116Y023366D01*
X017126Y023377D02*
X017126Y023036D01*
X017236Y023486D02*
X020467Y023486D01*
X020467Y023606D02*
X017236Y023606D01*
X017236Y023726D02*
X020467Y023726D01*
X020467Y023846D02*
X017236Y023846D01*
X017196Y023966D02*
X020467Y023966D01*
X020467Y024566D02*
X017236Y024566D01*
X017236Y024487D02*
X016956Y024206D01*
X017006Y024156D02*
X017006Y024257D01*
X017236Y024686D02*
X020467Y024686D01*
X020467Y024806D02*
X017236Y024806D01*
X017236Y024926D02*
X020467Y024926D01*
X020467Y025046D02*
X017116Y025046D01*
X017126Y025036D02*
X017126Y026993D01*
X017006Y026993D02*
X017006Y025156D01*
X016996Y025166D02*
X020467Y025166D01*
X020246Y026993D02*
X020246Y000416D01*
X020126Y000416D02*
X020126Y026993D01*
X020006Y026993D02*
X020006Y000416D01*
X019886Y000416D02*
X019886Y026993D01*
X019766Y026993D02*
X019766Y000416D01*
X019646Y000416D02*
X019646Y026993D01*
X019526Y026993D02*
X019526Y000416D01*
X019406Y000416D02*
X019406Y026993D01*
X019286Y026993D02*
X019286Y000416D01*
X019166Y000416D02*
X019166Y026993D01*
X019046Y026993D02*
X019046Y000416D01*
X018926Y000416D02*
X018926Y026993D01*
X018806Y026993D02*
X018806Y000416D01*
X018686Y000416D02*
X018686Y026993D01*
X018566Y026993D02*
X018566Y000416D01*
X018446Y000416D02*
X018446Y026993D01*
X018326Y026993D02*
X018326Y000416D01*
X018206Y000416D02*
X018206Y026993D01*
X018086Y026993D02*
X018086Y000416D01*
X017966Y000416D02*
X017966Y026993D01*
X017846Y026993D02*
X017846Y000416D01*
X017726Y000416D02*
X017726Y026993D01*
X017606Y026993D02*
X017606Y000416D01*
X017486Y000416D02*
X017486Y026993D01*
X017366Y026993D02*
X017366Y000416D01*
X017246Y000416D02*
X017246Y026993D01*
X016886Y026993D02*
X016886Y025236D01*
X016766Y025236D02*
X016766Y026993D01*
X016646Y026993D02*
X016646Y025236D01*
X016526Y025236D02*
X016526Y026993D01*
X016406Y026993D02*
X016406Y025156D01*
X016417Y025166D02*
X016183Y025166D01*
X016166Y025183D02*
X016166Y026993D01*
X016046Y026993D02*
X016046Y025236D01*
X015926Y025236D02*
X015926Y026993D01*
X015806Y026993D02*
X015806Y025236D01*
X015686Y025236D02*
X015686Y026993D01*
X015566Y026993D02*
X015566Y025236D01*
X015446Y025236D02*
X015446Y026993D01*
X015326Y026993D02*
X015326Y025236D01*
X015176Y025046D02*
X000416Y025046D01*
X000416Y024926D02*
X015176Y024926D01*
X015176Y024806D02*
X000416Y024806D01*
X000416Y024686D02*
X015176Y024686D01*
X015176Y024566D02*
X000416Y024566D01*
X000416Y024446D02*
X015176Y024446D01*
X015176Y024326D02*
X000416Y024326D01*
X000416Y024206D02*
X015270Y024206D01*
X015326Y024176D02*
X015326Y024076D01*
X015337Y024086D02*
X000416Y024086D01*
X000416Y023966D02*
X015217Y023966D01*
X015206Y023956D02*
X015206Y024270D01*
X015176Y023846D02*
X000416Y023846D01*
X000416Y023726D02*
X006677Y023726D01*
X006686Y023736D02*
X006686Y026993D01*
X006566Y026993D02*
X006566Y023616D01*
X006557Y023606D02*
X000416Y023606D01*
X000416Y023486D02*
X006437Y023486D01*
X006446Y023496D02*
X006446Y026993D01*
X006326Y026993D02*
X006326Y000416D01*
X006206Y000416D02*
X006206Y026993D01*
X006086Y026993D02*
X006086Y000416D01*
X005966Y000416D02*
X005966Y004961D01*
X005969Y004964D02*
X006035Y005121D01*
X006035Y005292D01*
X005969Y005449D01*
X005896Y005522D01*
X005896Y006391D01*
X005969Y006464D01*
X006035Y006621D01*
X006035Y006792D01*
X005969Y006949D01*
X005849Y007069D01*
X005692Y007135D01*
X005521Y007135D01*
X005364Y007069D01*
X005244Y006949D01*
X005178Y006792D01*
X005178Y006621D01*
X005244Y006464D01*
X005316Y006391D01*
X005316Y005522D01*
X005244Y005449D01*
X005178Y005292D01*
X005178Y005121D01*
X005244Y004964D01*
X005364Y004844D01*
X005521Y004778D01*
X005692Y004778D01*
X005849Y004844D01*
X005969Y004964D01*
X005987Y005006D02*
X006376Y005006D01*
X006376Y004987D02*
X006657Y004706D01*
X006376Y004426D01*
X006376Y003987D01*
X006687Y003676D01*
X007126Y003676D01*
X007436Y003987D01*
X007436Y004426D01*
X007156Y004706D01*
X007436Y004987D01*
X007436Y005426D01*
X007126Y005736D01*
X006687Y005736D01*
X006376Y005426D01*
X006376Y004987D01*
X006446Y004917D02*
X006446Y004496D01*
X006477Y004526D02*
X005195Y004526D01*
X005169Y004464D02*
X005235Y004621D01*
X005235Y004792D01*
X005169Y004949D01*
X005096Y005022D01*
X005096Y006891D01*
X005169Y006964D01*
X005235Y007121D01*
X005235Y007292D01*
X005169Y007449D01*
X005049Y007569D01*
X004892Y007635D01*
X004721Y007635D01*
X004564Y007569D01*
X004496Y007502D01*
X004496Y011391D01*
X004569Y011464D01*
X004635Y011621D01*
X004635Y011792D01*
X004569Y011949D01*
X004449Y012069D01*
X004292Y012135D01*
X004121Y012135D01*
X003964Y012069D01*
X003844Y011949D01*
X003778Y011792D01*
X003778Y011621D01*
X003844Y011464D01*
X003916Y011391D01*
X003916Y006022D01*
X003844Y005949D01*
X003778Y005792D01*
X003778Y005621D01*
X003844Y005464D01*
X003964Y005344D01*
X004121Y005278D01*
X004292Y005278D01*
X004449Y005344D01*
X004516Y005411D01*
X004516Y005022D01*
X004444Y004949D01*
X004378Y004792D01*
X004378Y004621D01*
X004444Y004464D01*
X004564Y004344D01*
X004721Y004278D01*
X004892Y004278D01*
X005049Y004344D01*
X005169Y004464D01*
X005126Y004421D02*
X005126Y003260D01*
X005191Y003286D02*
X004978Y003198D01*
X004815Y003035D01*
X004806Y003015D01*
X004798Y003035D01*
X004635Y003198D01*
X004422Y003286D01*
X004191Y003286D01*
X003978Y003198D01*
X003815Y003035D01*
X003806Y003015D01*
X003806Y005553D01*
X003785Y005606D02*
X002636Y005606D01*
X002636Y005487D02*
X002636Y005926D01*
X002356Y006206D01*
X003916Y006206D01*
X003916Y006086D02*
X002476Y006086D01*
X002486Y006076D02*
X002486Y006337D01*
X002476Y006326D02*
X003916Y006326D01*
X003916Y006446D02*
X002596Y006446D01*
X002606Y006457D02*
X002606Y005956D01*
X002596Y005966D02*
X003861Y005966D01*
X003806Y005860D02*
X003806Y011553D01*
X003785Y011606D02*
X002636Y011606D01*
X002636Y011487D02*
X002636Y011926D01*
X002356Y012206D01*
X006616Y012206D01*
X006616Y012086D02*
X004408Y012086D01*
X004406Y012087D02*
X004406Y026993D01*
X004286Y026993D02*
X004286Y012135D01*
X004166Y012135D02*
X004166Y026993D01*
X004046Y026993D02*
X004046Y012104D01*
X004005Y012086D02*
X002476Y012086D01*
X002486Y012076D02*
X002486Y012337D01*
X002476Y012326D02*
X006616Y012326D01*
X006616Y012446D02*
X002596Y012446D01*
X002606Y012457D02*
X002606Y011956D01*
X002596Y011966D02*
X003861Y011966D01*
X003926Y012032D02*
X003926Y026993D01*
X003806Y026993D02*
X003806Y011860D01*
X003801Y011846D02*
X002636Y011846D01*
X002636Y011726D02*
X003778Y011726D01*
X003834Y011486D02*
X002636Y011486D01*
X002636Y011487D02*
X002356Y011206D01*
X002636Y010926D01*
X002636Y010487D01*
X002356Y010206D01*
X002636Y009926D01*
X002636Y009487D01*
X002356Y009206D01*
X002636Y008926D01*
X002636Y008487D01*
X002356Y008206D01*
X002636Y007926D01*
X002636Y007487D01*
X002356Y007206D01*
X002636Y006926D01*
X002636Y006487D01*
X002356Y006206D01*
X002366Y006196D02*
X002366Y006217D01*
X002636Y006566D02*
X003916Y006566D01*
X003916Y006686D02*
X002636Y006686D01*
X002636Y006806D02*
X003916Y006806D01*
X003916Y006926D02*
X002636Y006926D01*
X002606Y006956D02*
X002606Y007457D01*
X002556Y007406D02*
X003916Y007406D01*
X003916Y007286D02*
X002436Y007286D01*
X002486Y007337D02*
X002486Y007076D01*
X002516Y007046D02*
X003916Y007046D01*
X003916Y007166D02*
X002396Y007166D01*
X002366Y007196D02*
X002366Y007217D01*
X002636Y007526D02*
X003916Y007526D01*
X003916Y007646D02*
X002636Y007646D01*
X002636Y007766D02*
X003916Y007766D01*
X003916Y007886D02*
X002636Y007886D01*
X002606Y007956D02*
X002606Y008457D01*
X002636Y008486D02*
X003916Y008486D01*
X003916Y008366D02*
X002516Y008366D01*
X002486Y008337D02*
X002486Y008076D01*
X002436Y008126D02*
X003916Y008126D01*
X003916Y008006D02*
X002556Y008006D01*
X002366Y008196D02*
X002366Y008217D01*
X002396Y008246D02*
X003916Y008246D01*
X003916Y008606D02*
X002636Y008606D01*
X002636Y008726D02*
X003916Y008726D01*
X003916Y008846D02*
X002636Y008846D01*
X002606Y008956D02*
X002606Y009457D01*
X002596Y009446D02*
X003916Y009446D01*
X003916Y009326D02*
X002476Y009326D01*
X002486Y009337D02*
X002486Y009076D01*
X002476Y009086D02*
X003916Y009086D01*
X003916Y008966D02*
X002596Y008966D01*
X002366Y009196D02*
X002366Y009217D01*
X002356Y009206D02*
X003916Y009206D01*
X003916Y009566D02*
X002636Y009566D01*
X002636Y009686D02*
X003916Y009686D01*
X003916Y009806D02*
X002636Y009806D01*
X002636Y009926D02*
X003916Y009926D01*
X003916Y010046D02*
X002516Y010046D01*
X002486Y010076D02*
X002486Y010337D01*
X002436Y010286D02*
X003916Y010286D01*
X003916Y010166D02*
X002396Y010166D01*
X002366Y010196D02*
X002366Y010217D01*
X002556Y010406D02*
X003916Y010406D01*
X003916Y010526D02*
X002636Y010526D01*
X002606Y010457D02*
X002606Y009956D01*
X002636Y010646D02*
X003916Y010646D01*
X003916Y010766D02*
X002636Y010766D01*
X002636Y010886D02*
X003916Y010886D01*
X003916Y011006D02*
X002556Y011006D01*
X002606Y010956D02*
X002606Y011457D01*
X002516Y011366D02*
X003916Y011366D01*
X003916Y011246D02*
X002396Y011246D01*
X002366Y011217D02*
X002366Y011196D01*
X002436Y011126D02*
X003916Y011126D01*
X004496Y011126D02*
X006616Y011126D01*
X006616Y011006D02*
X004496Y011006D01*
X004496Y010886D02*
X006616Y010886D01*
X006616Y010766D02*
X004496Y010766D01*
X004496Y010646D02*
X006616Y010646D01*
X006616Y010526D02*
X004496Y010526D01*
X004496Y010406D02*
X006616Y010406D01*
X006616Y010286D02*
X004496Y010286D01*
X004496Y010166D02*
X006616Y010166D01*
X006616Y010046D02*
X004496Y010046D01*
X004496Y009926D02*
X006616Y009926D01*
X006616Y009806D02*
X004496Y009806D01*
X004496Y009686D02*
X006616Y009686D01*
X006616Y009566D02*
X004496Y009566D01*
X004496Y009446D02*
X006616Y009446D01*
X006616Y009326D02*
X004496Y009326D01*
X004496Y009206D02*
X006616Y009206D01*
X006616Y009086D02*
X004496Y009086D01*
X004496Y008966D02*
X006616Y008966D01*
X006616Y008846D02*
X004496Y008846D01*
X004496Y008726D02*
X006616Y008726D01*
X006616Y008606D02*
X004496Y008606D01*
X004496Y008486D02*
X006616Y008486D01*
X006616Y008366D02*
X004496Y008366D01*
X004496Y008246D02*
X006616Y008246D01*
X006616Y008126D02*
X004496Y008126D01*
X004496Y008006D02*
X006616Y008006D01*
X006616Y007886D02*
X004496Y007886D01*
X004496Y007766D02*
X006616Y007766D01*
X006616Y007646D02*
X004496Y007646D01*
X004526Y007532D02*
X004526Y011421D01*
X004496Y011366D02*
X006616Y011366D01*
X006616Y011246D02*
X004496Y011246D01*
X004579Y011486D02*
X006616Y011486D01*
X006616Y011606D02*
X004628Y011606D01*
X004635Y011726D02*
X006616Y011726D01*
X006616Y011846D02*
X004612Y011846D01*
X004552Y011966D02*
X006616Y011966D01*
X006616Y012566D02*
X002636Y012566D01*
X002636Y012487D02*
X002636Y012926D01*
X002356Y013206D01*
X002636Y013487D01*
X002636Y013926D01*
X002356Y014206D01*
X002636Y014487D01*
X002636Y014926D01*
X002356Y015206D01*
X006616Y015206D01*
X006616Y015086D02*
X002476Y015086D01*
X002486Y015076D02*
X002486Y015337D01*
X002476Y015326D02*
X006616Y015326D01*
X006616Y015446D02*
X002596Y015446D01*
X002606Y015457D02*
X002606Y014956D01*
X002596Y014966D02*
X006616Y014966D01*
X006616Y014846D02*
X002636Y014846D01*
X002636Y014726D02*
X006616Y014726D01*
X006616Y014606D02*
X002636Y014606D01*
X002636Y014486D02*
X006616Y014486D01*
X006616Y014366D02*
X002516Y014366D01*
X002486Y014337D02*
X002486Y014076D01*
X002436Y014126D02*
X006616Y014126D01*
X006616Y014006D02*
X002556Y014006D01*
X002606Y013956D02*
X002606Y014457D01*
X002396Y014246D02*
X006616Y014246D01*
X006616Y013886D02*
X002636Y013886D01*
X002636Y013766D02*
X006616Y013766D01*
X006616Y013646D02*
X002636Y013646D01*
X002636Y013526D02*
X006616Y013526D01*
X006616Y013406D02*
X002556Y013406D01*
X002606Y013457D02*
X002606Y012956D01*
X002636Y012926D02*
X006616Y012926D01*
X006616Y012806D02*
X002636Y012806D01*
X002636Y012686D02*
X006616Y012686D01*
X006616Y013046D02*
X002516Y013046D01*
X002486Y013076D02*
X002486Y013337D01*
X002436Y013286D02*
X006616Y013286D01*
X006616Y013166D02*
X002396Y013166D01*
X002366Y013196D02*
X002366Y013217D01*
X001857Y013206D02*
X001606Y012956D01*
X001356Y013206D01*
X001606Y013457D01*
X001857Y013206D01*
X001817Y013166D02*
X001396Y013166D01*
X001406Y013156D02*
X001406Y013257D01*
X001436Y013286D02*
X001777Y013286D01*
X001766Y013297D02*
X001766Y013116D01*
X001697Y013046D02*
X001516Y013046D01*
X001526Y013036D02*
X001526Y013377D01*
X001556Y013406D02*
X001657Y013406D01*
X001646Y013417D02*
X001646Y012996D01*
X001606Y012457D02*
X001857Y012206D01*
X001356Y012206D01*
X001326Y012176D02*
X001606Y012457D01*
X001596Y012446D02*
X001617Y012446D01*
X001646Y012417D02*
X001646Y011996D01*
X001617Y011966D02*
X001483Y011966D01*
X001526Y011923D02*
X001526Y012377D01*
X001476Y012326D02*
X001737Y012326D01*
X001766Y012297D02*
X001766Y012116D01*
X001737Y012086D02*
X001363Y012086D01*
X001406Y012043D02*
X001406Y012257D01*
X001326Y012176D02*
X000887Y012176D01*
X000576Y012487D01*
X000576Y012926D01*
X000857Y013206D01*
X000576Y013487D01*
X000576Y013926D01*
X000857Y014206D01*
X000576Y014487D01*
X000576Y014926D01*
X000857Y015206D01*
X000416Y015206D01*
X000416Y015086D02*
X000737Y015086D01*
X000686Y015036D02*
X000686Y015377D01*
X000737Y015326D02*
X000416Y015326D01*
X000416Y015446D02*
X000617Y015446D01*
X000576Y015487D02*
X000857Y015206D01*
X000806Y015156D02*
X000806Y015257D01*
X000576Y015487D02*
X000576Y015926D01*
X000887Y016236D01*
X001326Y016236D01*
X001606Y015956D01*
X001857Y016206D01*
X001576Y016487D01*
X001576Y016926D01*
X001857Y017206D01*
X001606Y017457D01*
X001326Y017176D01*
X000887Y017176D01*
X000576Y017487D01*
X000576Y017926D01*
X000857Y018206D01*
X000806Y018156D02*
X000806Y018257D01*
X000617Y017966D02*
X000416Y017966D01*
X000416Y017846D02*
X000576Y017846D01*
X000576Y017726D02*
X000416Y017726D01*
X000416Y017606D02*
X000576Y017606D01*
X000577Y017486D02*
X000416Y017486D01*
X000416Y017366D02*
X000697Y017366D01*
X000686Y017377D02*
X000686Y016923D01*
X000656Y016893D02*
X000656Y016756D01*
X001056Y016756D01*
X001056Y016656D01*
X000656Y016656D01*
X000656Y016520D01*
X000920Y016256D01*
X001056Y016256D01*
X001056Y016656D01*
X001156Y016656D01*
X001156Y016256D01*
X001293Y016256D01*
X001556Y016520D01*
X001556Y016656D01*
X001157Y016656D01*
X001157Y016756D01*
X001556Y016756D01*
X001556Y016893D01*
X001293Y017156D01*
X001156Y017156D01*
X001156Y016757D01*
X001056Y016757D01*
X001056Y017156D01*
X000920Y017156D01*
X000656Y016893D01*
X000656Y016886D02*
X000416Y016886D01*
X000416Y016766D02*
X000656Y016766D01*
X000686Y016756D02*
X000686Y016656D01*
X000656Y016646D02*
X000416Y016646D01*
X000416Y016526D02*
X000656Y016526D01*
X000686Y016490D02*
X000686Y016036D01*
X000697Y016046D02*
X000416Y016046D01*
X000416Y015926D02*
X000577Y015926D01*
X000576Y015806D02*
X000416Y015806D01*
X000416Y015686D02*
X000576Y015686D01*
X000576Y015566D02*
X000416Y015566D01*
X000416Y014966D02*
X000617Y014966D01*
X000576Y014846D02*
X000416Y014846D01*
X000416Y014726D02*
X000576Y014726D01*
X000576Y014606D02*
X000416Y014606D01*
X000416Y014486D02*
X000577Y014486D01*
X000686Y014377D02*
X000686Y014036D01*
X000657Y014006D02*
X000416Y014006D01*
X000416Y013886D02*
X000576Y013886D01*
X000576Y013766D02*
X000416Y013766D01*
X000416Y013646D02*
X000576Y013646D01*
X000576Y013526D02*
X000416Y013526D01*
X000416Y013406D02*
X000657Y013406D01*
X000686Y013377D02*
X000686Y013036D01*
X000697Y013046D02*
X000416Y013046D01*
X000416Y012926D02*
X000577Y012926D01*
X000576Y012806D02*
X000416Y012806D01*
X000416Y012686D02*
X000576Y012686D01*
X000576Y012566D02*
X000416Y012566D01*
X000416Y012446D02*
X000617Y012446D01*
X000686Y012377D02*
X000686Y011923D01*
X000656Y011893D02*
X000656Y011756D01*
X001056Y011756D01*
X001056Y011656D01*
X000656Y011656D01*
X000656Y011520D01*
X000920Y011256D01*
X001056Y011256D01*
X001056Y011656D01*
X001156Y011656D01*
X001156Y011256D01*
X001293Y011256D01*
X001556Y011520D01*
X001556Y011656D01*
X001157Y011656D01*
X001157Y011756D01*
X001556Y011756D01*
X001556Y011893D01*
X001293Y012156D01*
X001156Y012156D01*
X001156Y011757D01*
X001056Y011757D01*
X001056Y012156D01*
X000920Y012156D01*
X000656Y011893D01*
X000656Y011846D02*
X000416Y011846D01*
X000416Y011726D02*
X001056Y011726D01*
X001046Y011756D02*
X001046Y011656D01*
X001056Y011606D02*
X001156Y011606D01*
X001166Y011656D02*
X001166Y011756D01*
X001157Y011726D02*
X001576Y011726D01*
X001526Y011756D02*
X001526Y011656D01*
X001556Y011606D02*
X001576Y011606D01*
X001576Y011487D02*
X001857Y011206D01*
X001606Y010956D01*
X001326Y011236D01*
X000887Y011236D01*
X000576Y010926D01*
X000576Y010487D01*
X000857Y010206D01*
X000576Y009926D01*
X000576Y009487D01*
X000857Y009206D01*
X000416Y009206D01*
X000416Y009086D02*
X000737Y009086D01*
X000686Y009036D02*
X000686Y009377D01*
X000737Y009326D02*
X000416Y009326D01*
X000416Y009446D02*
X000617Y009446D01*
X000576Y009566D02*
X000416Y009566D01*
X000416Y009686D02*
X000576Y009686D01*
X000576Y009806D02*
X000416Y009806D01*
X000416Y009926D02*
X000577Y009926D01*
X000686Y010036D02*
X000686Y010377D01*
X000657Y010406D02*
X000416Y010406D01*
X000416Y010286D02*
X000777Y010286D01*
X000806Y010257D02*
X000806Y010156D01*
X000817Y010166D02*
X000416Y010166D01*
X000416Y010046D02*
X000697Y010046D01*
X000576Y010526D02*
X000416Y010526D01*
X000416Y010646D02*
X000576Y010646D01*
X000576Y010766D02*
X000416Y010766D01*
X000416Y010886D02*
X000576Y010886D01*
X000657Y011006D02*
X000416Y011006D01*
X000416Y011126D02*
X000777Y011126D01*
X000806Y011156D02*
X000806Y011370D01*
X000810Y011366D02*
X000416Y011366D01*
X000416Y011246D02*
X001817Y011246D01*
X001766Y011297D02*
X001766Y011116D01*
X001777Y011126D02*
X001436Y011126D01*
X001406Y011156D02*
X001406Y011370D01*
X001403Y011366D02*
X001697Y011366D01*
X001646Y011417D02*
X001646Y010996D01*
X001657Y011006D02*
X001556Y011006D01*
X001526Y011036D02*
X001526Y011490D01*
X001523Y011486D02*
X001577Y011486D01*
X001576Y011487D02*
X001576Y011926D01*
X001857Y012206D01*
X001576Y011846D02*
X001556Y011846D01*
X001406Y011756D02*
X001406Y011656D01*
X001286Y011656D02*
X001286Y011756D01*
X001156Y011846D02*
X001056Y011846D01*
X001056Y011966D02*
X001156Y011966D01*
X001156Y012086D02*
X001056Y012086D01*
X001046Y012156D02*
X001046Y012176D01*
X000926Y012176D02*
X000926Y012156D01*
X000857Y012206D02*
X000416Y012206D01*
X000416Y012086D02*
X000850Y012086D01*
X000806Y012043D02*
X000806Y012257D01*
X000737Y012326D02*
X000416Y012326D01*
X000416Y011966D02*
X000730Y011966D01*
X000686Y011756D02*
X000686Y011656D01*
X000656Y011606D02*
X000416Y011606D01*
X000416Y011486D02*
X000690Y011486D01*
X000686Y011490D02*
X000686Y011036D01*
X000926Y011236D02*
X000926Y011256D01*
X001046Y011256D02*
X001046Y011236D01*
X001166Y011236D02*
X001166Y011256D01*
X001156Y011366D02*
X001056Y011366D01*
X001056Y011486D02*
X001156Y011486D01*
X001286Y011256D02*
X001286Y011236D01*
X000926Y011656D02*
X000926Y011756D01*
X000806Y011756D02*
X000806Y011656D01*
X001166Y012156D02*
X001166Y012176D01*
X001286Y012176D02*
X001286Y012156D01*
X000806Y013156D02*
X000806Y013257D01*
X000777Y013286D02*
X000416Y013286D01*
X000416Y013166D02*
X000817Y013166D01*
X000777Y014126D02*
X000416Y014126D01*
X000416Y014246D02*
X000817Y014246D01*
X000806Y014257D02*
X000806Y014156D01*
X000697Y014366D02*
X000416Y014366D01*
X001356Y014206D02*
X001606Y013956D01*
X001857Y014206D01*
X001606Y014457D01*
X001356Y014206D01*
X001396Y014246D02*
X001817Y014246D01*
X001766Y014297D02*
X001766Y014116D01*
X001777Y014126D02*
X001436Y014126D01*
X001406Y014156D02*
X001406Y014257D01*
X001516Y014366D02*
X001697Y014366D01*
X001646Y014417D02*
X001646Y013996D01*
X001657Y014006D02*
X001556Y014006D01*
X001526Y014036D02*
X001526Y014377D01*
X001606Y014956D02*
X001356Y015206D01*
X001857Y015206D01*
X001606Y014956D01*
X001596Y014966D02*
X001617Y014966D01*
X001646Y014996D02*
X001646Y015417D01*
X001617Y015446D02*
X001596Y015446D01*
X001606Y015457D02*
X001857Y015206D01*
X001766Y015116D02*
X001766Y015297D01*
X001737Y015326D02*
X001476Y015326D01*
X001526Y015377D02*
X001526Y015036D01*
X001476Y015086D02*
X001737Y015086D01*
X001606Y015457D02*
X001356Y015206D01*
X001406Y015156D02*
X001406Y015257D01*
X001646Y015996D02*
X001646Y016417D01*
X001657Y016406D02*
X001443Y016406D01*
X001406Y016370D02*
X001406Y016156D01*
X001396Y016166D02*
X001817Y016166D01*
X001766Y016116D02*
X001766Y016297D01*
X001777Y016286D02*
X001323Y016286D01*
X001286Y016256D02*
X001286Y016236D01*
X001166Y016236D02*
X001166Y016256D01*
X001156Y016286D02*
X001056Y016286D01*
X001046Y016256D02*
X001046Y016236D01*
X000926Y016236D02*
X000926Y016256D01*
X000890Y016286D02*
X000416Y016286D01*
X000416Y016166D02*
X000817Y016166D01*
X000806Y016156D02*
X000806Y016370D01*
X000770Y016406D02*
X000416Y016406D01*
X000806Y016656D02*
X000806Y016756D01*
X000926Y016756D02*
X000926Y016656D01*
X001046Y016656D02*
X001046Y016756D01*
X001056Y016766D02*
X001156Y016766D01*
X001166Y016756D02*
X001166Y016656D01*
X001156Y016646D02*
X001056Y016646D01*
X001056Y016526D02*
X001156Y016526D01*
X001156Y016406D02*
X001056Y016406D01*
X001286Y016656D02*
X001286Y016756D01*
X001406Y016756D02*
X001406Y016656D01*
X001526Y016656D02*
X001526Y016756D01*
X001556Y016766D02*
X001576Y016766D01*
X001576Y016646D02*
X001556Y016646D01*
X001556Y016526D02*
X001576Y016526D01*
X001526Y016490D02*
X001526Y016036D01*
X001516Y016046D02*
X001697Y016046D01*
X002356Y016206D02*
X002636Y016487D01*
X002636Y016926D01*
X002356Y017206D01*
X002636Y017487D01*
X002636Y017926D01*
X002356Y018206D01*
X006616Y018206D01*
X006616Y018086D02*
X002476Y018086D01*
X002486Y018076D02*
X002486Y018337D01*
X002476Y018326D02*
X006616Y018326D01*
X006616Y018446D02*
X002596Y018446D01*
X002606Y018457D02*
X002606Y017956D01*
X002596Y017966D02*
X006616Y017966D01*
X006616Y017846D02*
X002636Y017846D01*
X002636Y017726D02*
X006616Y017726D01*
X006616Y017606D02*
X002636Y017606D01*
X002636Y017486D02*
X006616Y017486D01*
X006616Y017366D02*
X002516Y017366D01*
X002486Y017337D02*
X002486Y017076D01*
X002436Y017126D02*
X006616Y017126D01*
X006616Y017006D02*
X002556Y017006D01*
X002606Y016956D02*
X002606Y017457D01*
X002396Y017246D02*
X006616Y017246D01*
X006616Y016886D02*
X002636Y016886D01*
X002636Y016766D02*
X006616Y016766D01*
X006616Y016646D02*
X002636Y016646D01*
X002636Y016526D02*
X006616Y016526D01*
X006616Y016406D02*
X002556Y016406D01*
X002606Y016457D02*
X002606Y015956D01*
X002636Y015926D02*
X006616Y015926D01*
X006616Y015806D02*
X002636Y015806D01*
X002636Y015686D02*
X006616Y015686D01*
X006616Y015566D02*
X002636Y015566D01*
X002636Y015487D02*
X002636Y015926D01*
X002356Y016206D01*
X002366Y016196D02*
X002366Y016217D01*
X002396Y016166D02*
X006616Y016166D01*
X006616Y016046D02*
X002516Y016046D01*
X002486Y016076D02*
X002486Y016337D01*
X002436Y016286D02*
X006616Y016286D01*
X007196Y016286D02*
X007616Y016286D01*
X007616Y016166D02*
X007196Y016166D01*
X007196Y016046D02*
X007616Y016046D01*
X007616Y015926D02*
X007196Y015926D01*
X007196Y015806D02*
X007616Y015806D01*
X007616Y015686D02*
X007196Y015686D01*
X007196Y015566D02*
X007616Y015566D01*
X007616Y015446D02*
X007196Y015446D01*
X007196Y015326D02*
X007616Y015326D01*
X007616Y015206D02*
X007196Y015206D01*
X007196Y015086D02*
X007616Y015086D01*
X007616Y014966D02*
X007196Y014966D01*
X007196Y014846D02*
X007616Y014846D01*
X007616Y014726D02*
X007196Y014726D01*
X007196Y014606D02*
X007616Y014606D01*
X007616Y014486D02*
X007196Y014486D01*
X007196Y014366D02*
X007616Y014366D01*
X007616Y014246D02*
X007196Y014246D01*
X007196Y014126D02*
X007616Y014126D01*
X007616Y014006D02*
X007196Y014006D01*
X007196Y013886D02*
X007616Y013886D01*
X007616Y013766D02*
X007196Y013766D01*
X007196Y013646D02*
X007616Y013646D01*
X007616Y013526D02*
X007196Y013526D01*
X007196Y013406D02*
X007616Y013406D01*
X007616Y013286D02*
X007196Y013286D01*
X007196Y013166D02*
X007616Y013166D01*
X007616Y013046D02*
X007196Y013046D01*
X007196Y012926D02*
X007616Y012926D01*
X007616Y012806D02*
X007196Y012806D01*
X007196Y012686D02*
X007616Y012686D01*
X007616Y012566D02*
X007196Y012566D01*
X007196Y012446D02*
X007616Y012446D01*
X007616Y012326D02*
X007196Y012326D01*
X007196Y012206D02*
X007616Y012206D01*
X007616Y012086D02*
X007196Y012086D01*
X007196Y011966D02*
X007561Y011966D01*
X007526Y011908D02*
X007526Y021837D01*
X007557Y021806D02*
X007436Y021806D01*
X007406Y021770D02*
X007406Y005456D01*
X007376Y005486D02*
X007550Y005486D01*
X007526Y005463D02*
X007526Y011505D01*
X007534Y011486D02*
X007196Y011486D01*
X007196Y011366D02*
X007641Y011366D01*
X007646Y011361D02*
X007646Y005583D01*
X007670Y005606D02*
X007256Y005606D01*
X007286Y005576D02*
X007286Y006005D01*
X007270Y005966D02*
X008616Y005966D01*
X008616Y005846D02*
X007152Y005846D01*
X007166Y005861D02*
X007166Y005696D01*
X007136Y005726D02*
X008616Y005726D01*
X008606Y005656D02*
X008606Y006901D01*
X008581Y006926D02*
X007196Y006926D01*
X007196Y006806D02*
X008753Y006806D01*
X008726Y006818D02*
X008726Y006437D01*
X008736Y006446D02*
X007270Y006446D01*
X007286Y006408D02*
X007286Y021676D01*
X007323Y021686D02*
X007616Y021686D01*
X007616Y021566D02*
X007196Y021566D01*
X007196Y021446D02*
X007616Y021446D01*
X007616Y021326D02*
X007196Y021326D01*
X007196Y021206D02*
X007616Y021206D01*
X007616Y021086D02*
X007196Y021086D01*
X007196Y020966D02*
X007616Y020966D01*
X007616Y020846D02*
X007196Y020846D01*
X007196Y020726D02*
X007616Y020726D01*
X007616Y020606D02*
X007196Y020606D01*
X007196Y020486D02*
X007616Y020486D01*
X007616Y020366D02*
X007196Y020366D01*
X007196Y020246D02*
X007616Y020246D01*
X007616Y020126D02*
X007196Y020126D01*
X007196Y020006D02*
X007616Y020006D01*
X007616Y019886D02*
X007196Y019886D01*
X007196Y019766D02*
X007616Y019766D01*
X007616Y019646D02*
X007196Y019646D01*
X007196Y019526D02*
X007616Y019526D01*
X007616Y019406D02*
X007196Y019406D01*
X007196Y019286D02*
X007616Y019286D01*
X007616Y019166D02*
X007196Y019166D01*
X007196Y019046D02*
X007616Y019046D01*
X007616Y018926D02*
X007196Y018926D01*
X007196Y018806D02*
X007616Y018806D01*
X007616Y018686D02*
X007196Y018686D01*
X007196Y018566D02*
X007616Y018566D01*
X007616Y018446D02*
X007196Y018446D01*
X007196Y018326D02*
X007616Y018326D01*
X007616Y018206D02*
X007196Y018206D01*
X007196Y018086D02*
X007616Y018086D01*
X007616Y017966D02*
X007196Y017966D01*
X007196Y017846D02*
X007616Y017846D01*
X007616Y017726D02*
X007196Y017726D01*
X007196Y017606D02*
X007616Y017606D01*
X007616Y017486D02*
X007196Y017486D01*
X007196Y017366D02*
X007616Y017366D01*
X007616Y017246D02*
X007196Y017246D01*
X007196Y017126D02*
X007616Y017126D01*
X007616Y017006D02*
X007196Y017006D01*
X007196Y016886D02*
X007616Y016886D01*
X007616Y016766D02*
X007196Y016766D01*
X007196Y016646D02*
X007616Y016646D01*
X007616Y016526D02*
X007196Y016526D01*
X007196Y016406D02*
X007616Y016406D01*
X008196Y016406D02*
X008616Y016406D01*
X008616Y016286D02*
X008196Y016286D01*
X008196Y016166D02*
X008616Y016166D01*
X008616Y016046D02*
X008196Y016046D01*
X008196Y015926D02*
X008616Y015926D01*
X008616Y015806D02*
X008196Y015806D01*
X008196Y015686D02*
X008616Y015686D01*
X008616Y015566D02*
X008196Y015566D01*
X008196Y015446D02*
X008616Y015446D01*
X008616Y015326D02*
X008196Y015326D01*
X008196Y015206D02*
X008616Y015206D01*
X008616Y015086D02*
X008196Y015086D01*
X008196Y014966D02*
X008616Y014966D01*
X008616Y014846D02*
X008196Y014846D01*
X008196Y014726D02*
X008616Y014726D01*
X008616Y014606D02*
X008196Y014606D01*
X008196Y014486D02*
X008616Y014486D01*
X008616Y014366D02*
X008196Y014366D01*
X008196Y014246D02*
X008616Y014246D01*
X008616Y014126D02*
X008196Y014126D01*
X008196Y014006D02*
X008616Y014006D01*
X008616Y013886D02*
X008196Y013886D01*
X008196Y013766D02*
X008616Y013766D01*
X008616Y013646D02*
X008196Y013646D01*
X008196Y013526D02*
X008616Y013526D01*
X008616Y013406D02*
X008196Y013406D01*
X008196Y013286D02*
X008616Y013286D01*
X008616Y013166D02*
X008196Y013166D01*
X008196Y013046D02*
X008616Y013046D01*
X008616Y012926D02*
X008196Y012926D01*
X008196Y012806D02*
X008616Y012806D01*
X008616Y012686D02*
X008196Y012686D01*
X008196Y012566D02*
X008616Y012566D01*
X008616Y012446D02*
X008196Y012446D01*
X008196Y012326D02*
X008616Y012326D01*
X008616Y012206D02*
X008196Y012206D01*
X008196Y012086D02*
X008616Y012086D01*
X008616Y011966D02*
X008252Y011966D01*
X008246Y011972D02*
X008246Y021797D01*
X008256Y021806D02*
X008557Y021806D01*
X008606Y021757D02*
X008606Y007512D01*
X008616Y007526D02*
X007196Y007526D01*
X007196Y007406D02*
X008526Y007406D01*
X008486Y007311D02*
X008486Y021877D01*
X008437Y021926D02*
X008376Y021926D01*
X008366Y021917D02*
X008366Y000416D01*
X008246Y000416D02*
X008246Y003910D01*
X008263Y003926D02*
X008437Y003926D01*
X008486Y003877D02*
X008486Y000416D01*
X008606Y000416D02*
X008606Y003757D01*
X008557Y003806D02*
X008143Y003806D01*
X008126Y003790D02*
X008126Y000416D01*
X008006Y000416D02*
X008006Y003756D01*
X007956Y003756D02*
X008093Y003756D01*
X008356Y004020D01*
X008356Y004156D01*
X007957Y004156D01*
X007957Y004256D01*
X008356Y004256D01*
X008356Y004393D01*
X008093Y004656D01*
X007956Y004656D01*
X007956Y004257D01*
X007856Y004257D01*
X007856Y004256D02*
X007856Y004156D01*
X007956Y004156D01*
X007956Y003756D01*
X007956Y003806D02*
X007856Y003806D01*
X007856Y003756D02*
X007856Y004156D01*
X007456Y004156D01*
X007456Y004020D01*
X007720Y003756D01*
X007856Y003756D01*
X007766Y003756D02*
X007766Y000416D01*
X007646Y000416D02*
X007646Y003830D01*
X007670Y003806D02*
X007256Y003806D01*
X007286Y003837D02*
X007286Y000416D01*
X007166Y000416D02*
X007166Y003717D01*
X007136Y003686D02*
X008677Y003686D01*
X008726Y003676D02*
X008726Y000416D01*
X008846Y000416D02*
X008846Y003676D01*
X008966Y003676D02*
X008966Y000416D01*
X007886Y000416D02*
X007886Y004156D01*
X007856Y004166D02*
X007436Y004166D01*
X007526Y004156D02*
X007526Y004256D01*
X007456Y004256D02*
X007856Y004256D01*
X007856Y004257D02*
X007856Y004656D01*
X007720Y004656D01*
X007456Y004393D01*
X007456Y004256D01*
X007456Y004286D02*
X007436Y004286D01*
X007436Y004406D02*
X007470Y004406D01*
X007526Y004463D02*
X007526Y004950D01*
X007470Y005006D02*
X007436Y005006D01*
X007456Y005020D02*
X007720Y004756D01*
X007856Y004756D01*
X007856Y005156D01*
X007956Y005156D01*
X007956Y004756D01*
X008093Y004756D01*
X008356Y005020D01*
X008356Y005156D01*
X007957Y005156D01*
X007957Y005256D01*
X008356Y005256D01*
X008356Y005393D01*
X008093Y005656D01*
X007956Y005656D01*
X007956Y005257D01*
X007856Y005257D01*
X007856Y005256D02*
X007856Y005156D01*
X007456Y005156D01*
X007456Y005020D01*
X007406Y004957D02*
X007406Y004456D01*
X007336Y004526D02*
X007590Y004526D01*
X007646Y004583D02*
X007646Y004830D01*
X007590Y004886D02*
X007336Y004886D01*
X007286Y004837D02*
X007286Y004576D01*
X007216Y004646D02*
X007710Y004646D01*
X007766Y004656D02*
X007766Y004756D01*
X007710Y004766D02*
X007216Y004766D01*
X007166Y004717D02*
X007166Y004696D01*
X007436Y005126D02*
X007456Y005126D01*
X007526Y005156D02*
X007526Y005256D01*
X007456Y005256D02*
X007856Y005256D01*
X007856Y005257D02*
X007856Y005656D01*
X007720Y005656D01*
X007456Y005393D01*
X007456Y005256D01*
X007436Y005246D02*
X007856Y005246D01*
X007886Y005257D02*
X007886Y011278D01*
X008006Y011285D02*
X008006Y005656D01*
X007956Y005606D02*
X007856Y005606D01*
X007766Y005656D02*
X007766Y011301D01*
X008126Y011334D02*
X008126Y005623D01*
X008143Y005606D02*
X008557Y005606D01*
X008486Y005536D02*
X008486Y007102D01*
X008509Y007046D02*
X007196Y007046D01*
X007196Y007166D02*
X008478Y007166D01*
X008478Y007286D02*
X007196Y007286D01*
X007196Y007646D02*
X008616Y007646D01*
X008616Y007766D02*
X007196Y007766D01*
X007196Y007886D02*
X008616Y007886D01*
X008616Y008006D02*
X007196Y008006D01*
X007196Y008126D02*
X008616Y008126D01*
X008616Y008246D02*
X007196Y008246D01*
X007196Y008366D02*
X008616Y008366D01*
X008616Y008486D02*
X007196Y008486D01*
X007196Y008606D02*
X008616Y008606D01*
X008616Y008726D02*
X007196Y008726D01*
X007196Y008846D02*
X008616Y008846D01*
X008616Y008966D02*
X007196Y008966D01*
X007196Y009086D02*
X008616Y009086D01*
X008616Y009206D02*
X007196Y009206D01*
X007196Y009326D02*
X008616Y009326D01*
X008616Y009446D02*
X007196Y009446D01*
X007196Y009566D02*
X008616Y009566D01*
X008616Y009686D02*
X007196Y009686D01*
X007196Y009806D02*
X008616Y009806D01*
X008616Y009926D02*
X007196Y009926D01*
X007196Y010046D02*
X008616Y010046D01*
X008616Y010166D02*
X007196Y010166D01*
X007196Y010286D02*
X008616Y010286D01*
X008616Y010406D02*
X007196Y010406D01*
X007196Y010526D02*
X008616Y010526D01*
X008616Y010646D02*
X007196Y010646D01*
X007196Y010766D02*
X008616Y010766D01*
X008616Y010886D02*
X007196Y010886D01*
X007196Y011006D02*
X008616Y011006D01*
X008616Y011126D02*
X007196Y011126D01*
X007196Y011246D02*
X008616Y011246D01*
X008616Y011366D02*
X008172Y011366D01*
X008246Y011441D02*
X008246Y005503D01*
X008263Y005486D02*
X008437Y005486D01*
X008376Y005366D02*
X008356Y005366D01*
X008376Y005246D02*
X007957Y005246D01*
X008006Y005256D02*
X008006Y005156D01*
X007956Y005126D02*
X007856Y005126D01*
X007886Y005156D02*
X007886Y004257D01*
X007856Y004286D02*
X007956Y004286D01*
X008006Y004256D02*
X008006Y004156D01*
X007957Y004166D02*
X008376Y004166D01*
X008376Y004046D02*
X008356Y004046D01*
X008246Y004156D02*
X008246Y004256D01*
X008356Y004286D02*
X008376Y004286D01*
X008376Y004406D02*
X008343Y004406D01*
X008246Y004503D02*
X008246Y004910D01*
X008223Y004886D02*
X008477Y004886D01*
X008486Y004877D02*
X008486Y004536D01*
X008477Y004526D02*
X008223Y004526D01*
X008126Y004623D02*
X008126Y004790D01*
X008103Y004766D02*
X008597Y004766D01*
X008606Y004757D02*
X008606Y004656D01*
X008597Y004646D02*
X008103Y004646D01*
X008006Y004656D02*
X008006Y004756D01*
X007956Y004766D02*
X007856Y004766D01*
X007856Y004646D02*
X007956Y004646D01*
X007956Y004526D02*
X007856Y004526D01*
X007856Y004406D02*
X007956Y004406D01*
X008126Y004256D02*
X008126Y004156D01*
X007956Y004046D02*
X007856Y004046D01*
X007856Y003926D02*
X007956Y003926D01*
X007766Y004156D02*
X007766Y004256D01*
X007646Y004256D02*
X007646Y004156D01*
X007456Y004046D02*
X007436Y004046D01*
X007406Y003957D02*
X007406Y000416D01*
X007526Y000416D02*
X007526Y003950D01*
X007550Y003926D02*
X007376Y003926D01*
X007046Y003676D02*
X007046Y000416D01*
X006926Y000416D02*
X006926Y003676D01*
X006806Y003676D02*
X006806Y000416D01*
X006686Y000416D02*
X006686Y003677D01*
X006677Y003686D02*
X002636Y003686D01*
X002636Y003566D02*
X015176Y003566D01*
X015206Y003457D02*
X015206Y001956D01*
X015176Y001926D02*
X015176Y001487D01*
X015487Y001176D01*
X015926Y001176D01*
X016206Y001457D01*
X016487Y001176D01*
X016926Y001176D01*
X017236Y001487D01*
X017236Y001926D01*
X016926Y002236D01*
X016487Y002236D01*
X016206Y001956D01*
X015926Y002236D01*
X015487Y002236D01*
X015176Y001926D01*
X015176Y001886D02*
X002556Y001886D01*
X002556Y001893D02*
X002293Y002156D01*
X002156Y002156D01*
X002156Y001757D01*
X002056Y001757D01*
X002056Y001756D02*
X002056Y001656D01*
X001656Y001656D01*
X001656Y001520D01*
X001920Y001256D01*
X002056Y001256D01*
X002056Y001656D01*
X002156Y001656D01*
X002156Y001256D01*
X002293Y001256D01*
X002556Y001520D01*
X002556Y001656D01*
X002157Y001656D01*
X002157Y001756D01*
X002556Y001756D01*
X002556Y001893D01*
X002486Y001963D02*
X002486Y002337D01*
X002516Y002366D02*
X002826Y002366D01*
X002815Y002378D02*
X002978Y002215D01*
X003191Y002126D01*
X002323Y002126D01*
X002366Y002083D02*
X002366Y002217D01*
X002396Y002246D02*
X002946Y002246D01*
X002966Y002226D02*
X002966Y000416D01*
X002846Y000416D02*
X002846Y002346D01*
X002815Y002378D02*
X002726Y002591D01*
X002726Y000416D01*
X002606Y000416D02*
X002606Y002457D01*
X002636Y002486D02*
X002770Y002486D01*
X002726Y002591D02*
X002726Y002822D01*
X002737Y002846D02*
X002636Y002846D01*
X002606Y002956D02*
X002606Y003457D01*
X002596Y003446D02*
X015217Y003446D01*
X015326Y003337D02*
X015326Y002963D01*
X015330Y002966D02*
X005827Y002966D01*
X005846Y002918D02*
X005846Y004843D01*
X005892Y004886D02*
X006477Y004886D01*
X006566Y004797D02*
X006566Y004616D01*
X006597Y004646D02*
X005235Y004646D01*
X005235Y004766D02*
X006597Y004766D01*
X006376Y004406D02*
X005112Y004406D01*
X005006Y004326D02*
X005006Y003210D01*
X004998Y003206D02*
X004615Y003206D01*
X004646Y003187D02*
X004646Y004309D01*
X004702Y004286D02*
X002436Y004286D01*
X002486Y004337D02*
X002486Y004076D01*
X002516Y004046D02*
X006376Y004046D01*
X006376Y004166D02*
X002396Y004166D01*
X002366Y004196D02*
X002366Y004217D01*
X002356Y004206D02*
X002636Y004487D01*
X002636Y004926D01*
X002356Y005206D01*
X002636Y005487D01*
X002636Y005486D02*
X003834Y005486D01*
X003926Y005381D02*
X003926Y003147D01*
X003866Y003086D02*
X003747Y003086D01*
X003798Y003035D02*
X003635Y003198D01*
X003422Y003286D01*
X003191Y003286D01*
X002978Y003198D01*
X002966Y003187D02*
X002966Y026993D01*
X002846Y026993D02*
X002846Y003067D01*
X002866Y003086D02*
X002476Y003086D01*
X002486Y003076D02*
X002486Y003337D01*
X002476Y003326D02*
X015337Y003326D01*
X015446Y003217D02*
X015446Y003083D01*
X015450Y003086D02*
X005747Y003086D01*
X005726Y003107D02*
X005726Y004793D01*
X005606Y004778D02*
X005606Y003210D01*
X005615Y003206D02*
X015457Y003206D01*
X015520Y003156D02*
X015256Y002893D01*
X015256Y002756D01*
X015656Y002756D01*
X015656Y002656D01*
X015256Y002656D01*
X015256Y002520D01*
X015520Y002256D01*
X015656Y002256D01*
X015656Y002656D01*
X015756Y002656D01*
X015756Y002256D01*
X015893Y002256D01*
X016156Y002520D01*
X016156Y002656D01*
X015757Y002656D01*
X015757Y002756D01*
X016156Y002756D01*
X016156Y002893D01*
X015893Y003156D01*
X015756Y003156D01*
X015756Y002757D01*
X015656Y002757D01*
X015656Y003156D01*
X015520Y003156D01*
X015566Y003156D02*
X015566Y003176D01*
X015686Y003176D02*
X015686Y002757D01*
X015656Y002726D02*
X005886Y002726D01*
X005886Y002822D02*
X005886Y002591D01*
X005798Y002378D01*
X005635Y002215D01*
X005422Y002126D01*
X015377Y002126D01*
X015326Y002076D02*
X015326Y002450D01*
X015290Y002486D02*
X005843Y002486D01*
X005846Y002495D02*
X005846Y000416D01*
X005726Y000416D02*
X005726Y002306D01*
X005667Y002246D02*
X020467Y002246D01*
X020467Y002126D02*
X017036Y002126D01*
X017006Y002156D02*
X017006Y002370D01*
X017003Y002366D02*
X020467Y002366D01*
X020467Y002486D02*
X017123Y002486D01*
X017126Y002490D02*
X017126Y002036D01*
X017156Y002006D02*
X020467Y002006D01*
X020467Y001886D02*
X017236Y001886D01*
X017236Y001766D02*
X020467Y001766D01*
X020467Y001646D02*
X017236Y001646D01*
X017236Y001526D02*
X020467Y001526D01*
X020467Y001406D02*
X017156Y001406D01*
X017126Y001377D02*
X017126Y000416D01*
X017006Y000416D02*
X017006Y001257D01*
X017036Y001286D02*
X020467Y001286D01*
X020467Y001166D02*
X000416Y001166D01*
X000416Y001046D02*
X020467Y001046D01*
X020467Y000926D02*
X000416Y000926D01*
X000416Y000806D02*
X020467Y000806D01*
X020467Y000686D02*
X000416Y000686D01*
X000416Y000566D02*
X020467Y000566D01*
X020467Y002606D02*
X017156Y002606D01*
X017156Y002656D02*
X016757Y002656D01*
X016757Y002756D01*
X017156Y002756D01*
X017156Y002893D01*
X016893Y003156D01*
X016756Y003156D01*
X016756Y002757D01*
X016656Y002757D01*
X016656Y002756D02*
X016656Y002656D01*
X016256Y002656D01*
X016256Y002520D01*
X016520Y002256D01*
X016656Y002256D01*
X016656Y002656D01*
X016756Y002656D01*
X016756Y002256D01*
X016893Y002256D01*
X017156Y002520D01*
X017156Y002656D01*
X017126Y002656D02*
X017126Y002756D01*
X017156Y002846D02*
X020467Y002846D01*
X020467Y002726D02*
X016757Y002726D01*
X016766Y002756D02*
X016766Y002656D01*
X016756Y002606D02*
X016656Y002606D01*
X016646Y002656D02*
X016646Y002756D01*
X016656Y002756D02*
X016256Y002756D01*
X016256Y002893D01*
X016520Y003156D01*
X016656Y003156D01*
X016656Y002757D01*
X016656Y002726D02*
X015757Y002726D01*
X015806Y002756D02*
X015806Y002656D01*
X015756Y002606D02*
X015656Y002606D01*
X015686Y002656D02*
X015686Y002236D01*
X015566Y002236D02*
X015566Y002256D01*
X015446Y002196D02*
X015446Y002330D01*
X015410Y002366D02*
X005787Y002366D01*
X005606Y002203D02*
X005606Y000416D01*
X005486Y000416D02*
X005486Y002153D01*
X005422Y002126D02*
X005191Y002126D01*
X004422Y002126D01*
X004635Y002215D01*
X004798Y002378D01*
X004806Y002398D01*
X004815Y002378D01*
X004978Y002215D01*
X005191Y002126D01*
X005246Y002126D02*
X005246Y000416D01*
X005126Y000416D02*
X005126Y002153D01*
X005006Y002203D02*
X005006Y000416D01*
X004886Y000416D02*
X004886Y002306D01*
X004946Y002246D02*
X004667Y002246D01*
X004646Y002226D02*
X004646Y000416D01*
X004526Y000416D02*
X004526Y002170D01*
X004422Y002126D02*
X004191Y002126D01*
X003422Y002126D01*
X003635Y002215D01*
X003798Y002378D01*
X003806Y002398D01*
X003806Y000416D01*
X003686Y000416D02*
X003686Y002266D01*
X003667Y002246D02*
X003946Y002246D01*
X003926Y002266D02*
X003926Y000416D01*
X004046Y000416D02*
X004046Y002186D01*
X003978Y002215D02*
X003815Y002378D01*
X003806Y002398D01*
X003787Y002366D02*
X003826Y002366D01*
X003978Y002215D02*
X004191Y002126D01*
X004166Y002137D02*
X004166Y000416D01*
X004286Y000416D02*
X004286Y002126D01*
X004406Y002126D02*
X004406Y000416D01*
X004766Y000416D02*
X004766Y002346D01*
X004787Y002366D02*
X004826Y002366D01*
X005366Y002126D02*
X005366Y000416D01*
X006446Y000416D02*
X006446Y003917D01*
X006437Y003926D02*
X002636Y003926D01*
X002356Y004206D01*
X002556Y004406D02*
X004501Y004406D01*
X004526Y004381D02*
X004526Y003243D01*
X004406Y003286D02*
X004406Y004553D01*
X004418Y004526D02*
X002636Y004526D01*
X002606Y004457D02*
X002606Y003956D01*
X002636Y003926D02*
X002636Y003487D01*
X002356Y003206D01*
X002366Y003196D02*
X002366Y003217D01*
X002596Y002966D02*
X002786Y002966D01*
X002726Y002726D02*
X002636Y002726D01*
X002636Y002606D02*
X002726Y002606D01*
X003086Y002170D02*
X003086Y000416D01*
X003206Y000416D02*
X003206Y002126D01*
X003191Y002126D02*
X003422Y002126D01*
X003446Y002137D02*
X003446Y000416D01*
X003326Y000416D02*
X003326Y002126D01*
X003566Y002186D02*
X003566Y000416D01*
X002556Y001526D02*
X015176Y001526D01*
X015206Y001457D02*
X015206Y000416D01*
X015086Y000416D02*
X015086Y019216D01*
X014966Y019216D02*
X014966Y000416D01*
X014846Y000416D02*
X014846Y019216D01*
X014726Y019216D02*
X014726Y000416D01*
X014606Y000416D02*
X014606Y019216D01*
X014486Y019216D02*
X014486Y000416D01*
X014366Y000416D02*
X014366Y019216D01*
X014246Y019216D02*
X014246Y000416D01*
X014126Y000416D02*
X014126Y019216D01*
X014006Y019216D02*
X014006Y000416D01*
X013886Y000416D02*
X013886Y019216D01*
X013766Y019216D02*
X013766Y000416D01*
X013646Y000416D02*
X013646Y019216D01*
X013526Y019216D02*
X013526Y000416D01*
X013406Y000416D02*
X013406Y019216D01*
X013286Y019216D02*
X013286Y000416D01*
X013166Y000416D02*
X013166Y019216D01*
X013046Y019216D02*
X013046Y000416D01*
X012926Y000416D02*
X012926Y019216D01*
X012806Y019216D02*
X012806Y000416D01*
X012686Y000416D02*
X012686Y019216D01*
X012566Y019216D02*
X012566Y000416D01*
X012446Y000416D02*
X012446Y019216D01*
X012086Y019216D02*
X012086Y005736D01*
X011966Y005736D02*
X011966Y019216D01*
X011846Y019216D02*
X011846Y005736D01*
X011726Y005736D02*
X011726Y019251D01*
X011640Y019286D02*
X010196Y019286D01*
X010196Y019166D02*
X020467Y019166D01*
X020467Y019046D02*
X010196Y019046D01*
X010196Y018926D02*
X020467Y018926D01*
X020467Y018806D02*
X010196Y018806D01*
X010196Y018686D02*
X020467Y018686D01*
X020467Y018566D02*
X010196Y018566D01*
X010196Y018446D02*
X020467Y018446D01*
X020467Y018326D02*
X010196Y018326D01*
X010196Y018206D02*
X020467Y018206D01*
X020467Y018086D02*
X010196Y018086D01*
X010196Y017966D02*
X020467Y017966D01*
X020467Y017846D02*
X010196Y017846D01*
X010196Y017726D02*
X020467Y017726D01*
X020467Y017606D02*
X010196Y017606D01*
X010196Y017486D02*
X020467Y017486D01*
X020467Y017366D02*
X010196Y017366D01*
X010196Y017246D02*
X020467Y017246D01*
X020467Y017126D02*
X010196Y017126D01*
X010196Y017006D02*
X020467Y017006D01*
X020467Y016886D02*
X010196Y016886D01*
X010196Y016766D02*
X020467Y016766D01*
X020467Y016646D02*
X010196Y016646D01*
X010196Y016526D02*
X020467Y016526D01*
X020467Y016406D02*
X010196Y016406D01*
X010196Y016286D02*
X020467Y016286D01*
X020467Y016166D02*
X016996Y016166D01*
X017006Y016156D02*
X017006Y019257D01*
X017036Y019286D02*
X020467Y019286D01*
X017236Y015487D02*
X016956Y015206D01*
X017006Y015156D02*
X017006Y015257D01*
X016406Y016156D02*
X016406Y019257D01*
X016377Y019286D02*
X016036Y019286D01*
X016046Y019297D02*
X016046Y016236D01*
X015926Y016236D02*
X015926Y019177D01*
X015806Y019176D02*
X015806Y016236D01*
X015686Y016236D02*
X015686Y019176D01*
X015566Y019176D02*
X015566Y016236D01*
X015446Y016236D02*
X015446Y019216D01*
X015326Y019216D02*
X015326Y016236D01*
X015230Y016166D02*
X010196Y016166D01*
X010196Y016046D02*
X015176Y016046D01*
X015206Y016143D02*
X015206Y019216D01*
X015806Y020236D02*
X015806Y020256D01*
X015756Y020366D02*
X015656Y020366D01*
X015656Y020486D02*
X015756Y020486D01*
X015926Y020656D02*
X015926Y020756D01*
X016046Y020756D02*
X016046Y020656D01*
X016156Y020606D02*
X016256Y020606D01*
X016286Y020656D02*
X016286Y020756D01*
X016256Y020846D02*
X016156Y020846D01*
X016083Y020966D02*
X016330Y020966D01*
X016286Y020923D02*
X016286Y021377D01*
X016337Y021326D02*
X016076Y021326D01*
X016046Y021297D02*
X016046Y021003D01*
X015963Y021086D02*
X016450Y021086D01*
X016406Y021043D02*
X016406Y021257D01*
X016457Y021206D02*
X015956Y021206D01*
X015926Y021177D02*
X015926Y021123D01*
X015806Y021156D02*
X015806Y021176D01*
X015756Y021086D02*
X015656Y021086D01*
X015686Y021176D02*
X015686Y020757D01*
X015656Y020726D02*
X012396Y020726D01*
X012396Y020606D02*
X015256Y020606D01*
X015326Y020656D02*
X015326Y020756D01*
X015256Y020846D02*
X012396Y020846D01*
X012396Y020966D02*
X015330Y020966D01*
X015326Y020963D02*
X015326Y021337D01*
X015337Y021326D02*
X012396Y021326D01*
X012396Y021206D02*
X015457Y021206D01*
X015446Y021217D02*
X015446Y021083D01*
X015450Y021086D02*
X012396Y021086D01*
X012396Y021446D02*
X015217Y021446D01*
X015566Y021176D02*
X015566Y021156D01*
X015656Y020966D02*
X015756Y020966D01*
X015756Y020846D02*
X015656Y020846D01*
X015566Y020756D02*
X015566Y020656D01*
X015446Y020656D02*
X015446Y020756D01*
X015926Y020290D02*
X015926Y020236D01*
X016003Y020366D02*
X016410Y020366D01*
X016406Y020370D02*
X016406Y020156D01*
X016377Y020126D02*
X016036Y020126D01*
X016046Y020116D02*
X016046Y020410D01*
X016123Y020486D02*
X016290Y020486D01*
X016286Y020490D02*
X016286Y020036D01*
X016257Y020006D02*
X016156Y020006D01*
X016166Y019996D02*
X016166Y021417D01*
X016196Y021446D02*
X016217Y021446D01*
X016526Y021176D02*
X016526Y021156D01*
X016646Y021156D02*
X016646Y021176D01*
X016656Y021086D02*
X016756Y021086D01*
X016766Y021156D02*
X016766Y021176D01*
X016886Y021176D02*
X016886Y021156D01*
X016756Y020966D02*
X016656Y020966D01*
X016656Y020846D02*
X016756Y020846D01*
X016886Y020756D02*
X016886Y020656D01*
X017006Y020656D02*
X017006Y020756D01*
X016756Y020486D02*
X016656Y020486D01*
X016656Y020366D02*
X016756Y020366D01*
X016766Y020256D02*
X016766Y020236D01*
X016646Y020236D02*
X016646Y020256D01*
X016526Y020256D02*
X016526Y020236D01*
X016886Y020236D02*
X016886Y020256D01*
X016526Y020656D02*
X016526Y020756D01*
X016406Y020756D02*
X016406Y020656D01*
X016257Y019406D02*
X016156Y019406D01*
X016166Y019417D02*
X016166Y016183D01*
X016183Y016166D02*
X016417Y016166D01*
X016526Y016236D02*
X016526Y019176D01*
X016646Y019176D02*
X016646Y016236D01*
X016766Y016236D02*
X016766Y019176D01*
X016886Y019176D02*
X016886Y016236D01*
X016297Y016046D02*
X016236Y016046D01*
X016286Y016036D02*
X016286Y019377D01*
X016206Y021956D02*
X015956Y022206D01*
X016206Y022457D01*
X016457Y022206D01*
X016206Y021956D01*
X016166Y021996D02*
X016166Y022417D01*
X016156Y022406D02*
X016257Y022406D01*
X016286Y022377D02*
X016286Y022036D01*
X016297Y022046D02*
X016116Y022046D01*
X016046Y022116D02*
X016046Y022297D01*
X016036Y022286D02*
X016377Y022286D01*
X016406Y022257D02*
X016406Y022156D01*
X016417Y022166D02*
X015996Y022166D01*
X015446Y022196D02*
X015446Y022217D01*
X015417Y022166D02*
X012436Y022166D01*
X012436Y022046D02*
X015297Y022046D01*
X015326Y022076D02*
X015326Y022337D01*
X015377Y022286D02*
X012436Y022286D01*
X012436Y022406D02*
X015257Y022406D01*
X015176Y022646D02*
X012216Y022646D01*
X012206Y022656D02*
X012206Y022757D01*
X012216Y022766D02*
X015176Y022766D01*
X015956Y023206D02*
X016206Y022956D01*
X016457Y023206D01*
X016206Y023457D01*
X015956Y023206D01*
X015996Y023246D02*
X016417Y023246D01*
X016406Y023257D02*
X016406Y023156D01*
X016377Y023126D02*
X016036Y023126D01*
X016046Y023116D02*
X016046Y023297D01*
X016116Y023366D02*
X016297Y023366D01*
X016286Y023377D02*
X016286Y023036D01*
X016257Y023006D02*
X016156Y023006D01*
X016166Y022996D02*
X016166Y023417D01*
X016206Y023956D02*
X015986Y024176D01*
X016113Y024176D01*
X016236Y024300D01*
X016236Y024427D01*
X016457Y024206D01*
X016143Y024206D01*
X016166Y024230D02*
X016166Y023996D01*
X016196Y023966D02*
X016217Y023966D01*
X016206Y023956D02*
X016457Y024206D01*
X016406Y024156D02*
X016406Y024257D01*
X016337Y024326D02*
X016236Y024326D01*
X016286Y024377D02*
X016286Y024036D01*
X016337Y024086D02*
X016076Y024086D01*
X016046Y024116D02*
X016046Y024176D01*
X016236Y025046D02*
X016297Y025046D01*
X016286Y025036D02*
X016286Y026993D01*
X011606Y022757D02*
X011606Y022656D01*
X011597Y022646D02*
X011103Y022646D01*
X011126Y022623D02*
X011126Y022790D01*
X011103Y022766D02*
X011597Y022766D01*
X011486Y022877D02*
X011486Y022536D01*
X011477Y022526D02*
X011223Y022526D01*
X011246Y022503D02*
X011246Y022910D01*
X011223Y022886D02*
X011477Y022886D01*
X011376Y023006D02*
X011343Y023006D01*
X011356Y023126D02*
X011376Y023126D01*
X011376Y023246D02*
X010957Y023246D01*
X011006Y023256D02*
X011006Y023156D01*
X010956Y023126D02*
X010856Y023126D01*
X010886Y023156D02*
X010886Y022257D01*
X010856Y022257D02*
X010856Y022656D01*
X010720Y022656D01*
X010456Y022393D01*
X010456Y022256D01*
X010856Y022256D01*
X010856Y022286D02*
X010956Y022286D01*
X011006Y022256D02*
X011006Y022156D01*
X010957Y022166D02*
X011376Y022166D01*
X011376Y022046D02*
X011356Y022046D01*
X011416Y021926D02*
X011263Y021926D01*
X011246Y021910D02*
X011246Y011972D01*
X011252Y011966D02*
X015330Y011966D01*
X015326Y011963D02*
X015326Y012337D01*
X015337Y012326D02*
X010196Y012326D01*
X010196Y012206D02*
X015457Y012206D01*
X015446Y012217D02*
X015446Y012083D01*
X015450Y012086D02*
X011108Y012086D01*
X011126Y012079D02*
X011126Y021790D01*
X011143Y021806D02*
X011416Y021806D01*
X011416Y021686D02*
X010196Y021686D01*
X010196Y021566D02*
X011416Y021566D01*
X011416Y021446D02*
X010196Y021446D01*
X010196Y021326D02*
X011416Y021326D01*
X011416Y021206D02*
X010196Y021206D01*
X010196Y021086D02*
X011416Y021086D01*
X011416Y020966D02*
X010196Y020966D01*
X010196Y020846D02*
X011416Y020846D01*
X011416Y020726D02*
X010196Y020726D01*
X010196Y020606D02*
X011416Y020606D01*
X011416Y020486D02*
X010196Y020486D01*
X010196Y020366D02*
X011416Y020366D01*
X011416Y020246D02*
X010196Y020246D01*
X010196Y020126D02*
X011416Y020126D01*
X011416Y020006D02*
X010196Y020006D01*
X010196Y019886D02*
X011416Y019886D01*
X011416Y019766D02*
X010196Y019766D01*
X010196Y019646D02*
X011416Y019646D01*
X011451Y019526D02*
X010196Y019526D01*
X010196Y019406D02*
X011514Y019406D01*
X011486Y019440D02*
X011486Y005723D01*
X011490Y005726D02*
X011196Y005726D01*
X011196Y006086D02*
X015337Y006086D01*
X015326Y006076D02*
X015326Y006176D01*
X015270Y006206D02*
X011196Y006206D01*
X011606Y005736D02*
X011606Y019314D01*
X010670Y021806D02*
X010256Y021806D01*
X010646Y021830D02*
X010646Y012052D01*
X010501Y011846D02*
X010196Y011846D01*
X010196Y011726D02*
X010478Y011726D01*
X010485Y011606D02*
X010196Y011606D01*
X009616Y011606D02*
X009196Y011606D01*
X009196Y011486D02*
X009616Y011486D01*
X009616Y011366D02*
X009196Y011366D01*
X009196Y011246D02*
X009616Y011246D01*
X009616Y011126D02*
X009196Y011126D01*
X009196Y011006D02*
X009616Y011006D01*
X009616Y010886D02*
X009196Y010886D01*
X009196Y010766D02*
X009616Y010766D01*
X009616Y010646D02*
X009196Y010646D01*
X009196Y010526D02*
X009616Y010526D01*
X009616Y010406D02*
X009196Y010406D01*
X009196Y010286D02*
X009616Y010286D01*
X009616Y010166D02*
X009196Y010166D01*
X009196Y010046D02*
X009616Y010046D01*
X009616Y009926D02*
X009196Y009926D01*
X009196Y009806D02*
X009616Y009806D01*
X009616Y009686D02*
X009196Y009686D01*
X009196Y009566D02*
X009616Y009566D01*
X009616Y009446D02*
X009196Y009446D01*
X009196Y009326D02*
X009616Y009326D01*
X009616Y009206D02*
X009196Y009206D01*
X009196Y009086D02*
X009616Y009086D01*
X009616Y008966D02*
X009196Y008966D01*
X009196Y008846D02*
X009616Y008846D01*
X009616Y008726D02*
X009196Y008726D01*
X009196Y008606D02*
X009616Y008606D01*
X009616Y008486D02*
X009196Y008486D01*
X009196Y008366D02*
X009556Y008366D01*
X009566Y008377D02*
X009566Y021797D01*
X009557Y021806D02*
X009256Y021806D01*
X009206Y021757D02*
X009206Y008017D01*
X009196Y008007D02*
X009242Y008052D01*
X009242Y008052D01*
X009616Y008427D01*
X009616Y021747D01*
X009406Y021957D01*
X009196Y021747D01*
X009196Y008007D01*
X009196Y008126D02*
X009316Y008126D01*
X009326Y008137D02*
X009326Y021877D01*
X009376Y021926D02*
X009437Y021926D01*
X009446Y021917D02*
X009446Y008257D01*
X009436Y008246D02*
X009196Y008246D01*
X010232Y006926D02*
X010616Y006926D01*
X010616Y006806D02*
X010196Y006806D01*
X010196Y006686D02*
X010616Y006686D01*
X010616Y006566D02*
X010196Y006566D01*
X010196Y006446D02*
X010616Y006446D01*
X010616Y006326D02*
X010196Y006326D01*
X010196Y006206D02*
X010616Y006206D01*
X010616Y006086D02*
X010196Y006086D01*
X010196Y005966D02*
X010616Y005966D01*
X010616Y005846D02*
X010196Y005846D01*
X010196Y005726D02*
X010616Y005726D01*
X010437Y005486D02*
X010376Y005486D01*
X009616Y005666D02*
X009406Y005456D01*
X009196Y005666D01*
X009196Y006086D01*
X009389Y006278D01*
X009492Y006278D01*
X009616Y006330D01*
X009616Y005666D01*
X009616Y005726D02*
X009196Y005726D01*
X009206Y005656D02*
X009206Y006096D01*
X009197Y006086D02*
X009616Y006086D01*
X009616Y005966D02*
X009196Y005966D01*
X009196Y005846D02*
X009616Y005846D01*
X009566Y005616D02*
X009566Y006309D01*
X009608Y006326D02*
X009616Y006326D01*
X009616Y006206D02*
X009317Y006206D01*
X009326Y006216D02*
X009326Y005536D01*
X009376Y005486D02*
X009437Y005486D01*
X009446Y005496D02*
X009446Y006278D01*
X009557Y005606D02*
X009256Y005606D01*
X008616Y006086D02*
X007320Y006086D01*
X007335Y006206D02*
X008616Y006206D01*
X008642Y006326D02*
X007320Y006326D01*
X007196Y006566D02*
X008856Y006566D01*
X008846Y006557D02*
X008846Y006778D01*
X008966Y006778D02*
X008966Y006677D01*
X008976Y006686D02*
X007196Y006686D01*
X006616Y006686D02*
X006035Y006686D01*
X006028Y006806D02*
X006616Y006806D01*
X006616Y006926D02*
X005979Y006926D01*
X005966Y006952D02*
X005966Y026993D01*
X005846Y026993D02*
X005846Y007070D01*
X005872Y007046D02*
X006616Y007046D01*
X006616Y007166D02*
X005235Y007166D01*
X005235Y007286D02*
X006616Y007286D01*
X006616Y007406D02*
X005187Y007406D01*
X005126Y007492D02*
X005126Y026993D01*
X005006Y026993D02*
X005006Y007587D01*
X005092Y007526D02*
X006616Y007526D01*
X006616Y006566D02*
X006012Y006566D01*
X005966Y006461D02*
X005966Y005452D01*
X005932Y005486D02*
X006437Y005486D01*
X006446Y005496D02*
X006446Y021730D01*
X006490Y021686D02*
X000416Y021686D01*
X000416Y021566D02*
X006616Y021566D01*
X006616Y021446D02*
X000416Y021446D01*
X000416Y021806D02*
X006376Y021806D01*
X006376Y021926D02*
X000416Y021926D01*
X000416Y022046D02*
X006376Y022046D01*
X006376Y022166D02*
X000416Y022166D01*
X000416Y022286D02*
X006376Y022286D01*
X006376Y022406D02*
X000416Y022406D01*
X000416Y022526D02*
X006376Y022526D01*
X006410Y022646D02*
X000416Y022646D01*
X000416Y022766D02*
X006597Y022766D01*
X006566Y022736D02*
X006566Y022797D01*
X006477Y022886D02*
X000416Y022886D01*
X000416Y023006D02*
X006376Y023006D01*
X006446Y022917D02*
X006446Y022683D01*
X006376Y023126D02*
X000416Y023126D01*
X000416Y023246D02*
X006376Y023246D01*
X006376Y023366D02*
X000416Y023366D01*
X001596Y020966D02*
X001617Y020966D01*
X001606Y020457D02*
X001857Y020206D01*
X001606Y019956D01*
X001356Y020206D01*
X001606Y020457D01*
X001646Y020417D02*
X001646Y019996D01*
X001657Y020006D02*
X001556Y020006D01*
X001526Y020036D02*
X001526Y020377D01*
X001516Y020366D02*
X001697Y020366D01*
X001766Y020297D02*
X001766Y020116D01*
X001777Y020126D02*
X001436Y020126D01*
X001406Y020156D02*
X001406Y020257D01*
X001396Y020246D02*
X001817Y020246D01*
X002356Y020206D02*
X002636Y020487D01*
X002636Y020926D01*
X002636Y020726D02*
X006616Y020726D01*
X006616Y020606D02*
X002636Y020606D01*
X002636Y020486D02*
X006616Y020486D01*
X006616Y020366D02*
X002516Y020366D01*
X002486Y020337D02*
X002486Y020076D01*
X002436Y020126D02*
X006616Y020126D01*
X006616Y020006D02*
X002556Y020006D01*
X002606Y019956D02*
X002606Y020457D01*
X002396Y020246D02*
X006616Y020246D01*
X006616Y019886D02*
X002636Y019886D01*
X002636Y019926D02*
X002356Y020206D01*
X002366Y020196D02*
X002366Y020217D01*
X002636Y019926D02*
X002636Y019487D01*
X002356Y019206D01*
X002636Y018926D01*
X002636Y018487D01*
X002356Y018206D01*
X002366Y018196D02*
X002366Y018217D01*
X002636Y018566D02*
X006616Y018566D01*
X006616Y018686D02*
X002636Y018686D01*
X002636Y018806D02*
X006616Y018806D01*
X006616Y018926D02*
X002636Y018926D01*
X002606Y018956D02*
X002606Y019457D01*
X002556Y019406D02*
X006616Y019406D01*
X006616Y019286D02*
X002436Y019286D01*
X002486Y019337D02*
X002486Y019076D01*
X002516Y019046D02*
X006616Y019046D01*
X006616Y019166D02*
X002396Y019166D01*
X002366Y019196D02*
X002366Y019217D01*
X002636Y019526D02*
X006616Y019526D01*
X006616Y019646D02*
X002636Y019646D01*
X002636Y019766D02*
X006616Y019766D01*
X006616Y021086D02*
X002476Y021086D01*
X002486Y021076D02*
X002486Y026993D01*
X003086Y026993D02*
X003086Y003243D01*
X003206Y003286D02*
X003206Y026993D01*
X003326Y026993D02*
X003326Y003286D01*
X003446Y003276D02*
X003446Y026993D01*
X003566Y026993D02*
X003566Y003227D01*
X003615Y003206D02*
X003998Y003206D01*
X004046Y003227D02*
X004046Y005309D01*
X003941Y005366D02*
X002516Y005366D01*
X002486Y005337D02*
X002486Y005076D01*
X002436Y005126D02*
X004516Y005126D01*
X004501Y005006D02*
X002556Y005006D01*
X002606Y004956D02*
X002606Y005457D01*
X002636Y005726D02*
X003778Y005726D01*
X003801Y005846D02*
X002636Y005846D01*
X002396Y005246D02*
X004516Y005246D01*
X004516Y005366D02*
X004472Y005366D01*
X004406Y005326D02*
X004406Y004860D01*
X004418Y004886D02*
X002636Y004886D01*
X002636Y004766D02*
X004378Y004766D01*
X004378Y004646D02*
X002636Y004646D01*
X002366Y005196D02*
X002366Y005217D01*
X001857Y005206D02*
X001606Y004956D01*
X001356Y005206D01*
X001606Y005457D01*
X001857Y005206D01*
X001817Y005246D02*
X001396Y005246D01*
X001406Y005257D02*
X001406Y005156D01*
X001436Y005126D02*
X001777Y005126D01*
X001766Y005116D02*
X001766Y005297D01*
X001697Y005366D02*
X001516Y005366D01*
X001526Y005377D02*
X001526Y005036D01*
X001556Y005006D02*
X001657Y005006D01*
X001646Y004996D02*
X001646Y005417D01*
X001606Y005956D02*
X001326Y006236D01*
X000887Y006236D01*
X000576Y005926D01*
X000576Y005487D01*
X000857Y005206D01*
X000576Y004926D01*
X000576Y004487D01*
X000857Y004206D01*
X000576Y003926D01*
X000576Y003487D01*
X000887Y003176D01*
X001326Y003176D01*
X001606Y003457D01*
X001857Y003206D01*
X001356Y003206D01*
X001406Y003257D02*
X001406Y003043D01*
X001363Y003086D02*
X001737Y003086D01*
X001766Y003116D02*
X001766Y003297D01*
X001737Y003326D02*
X001476Y003326D01*
X001526Y003377D02*
X001526Y002923D01*
X001556Y002893D02*
X001293Y003156D01*
X001156Y003156D01*
X001156Y002757D01*
X001056Y002757D01*
X001056Y002756D02*
X001056Y002656D01*
X000656Y002656D01*
X000656Y002520D01*
X000920Y002256D01*
X001056Y002256D01*
X001056Y002656D01*
X001156Y002656D01*
X001156Y002256D01*
X001293Y002256D01*
X001556Y002520D01*
X001556Y002656D01*
X001157Y002656D01*
X001157Y002756D01*
X001556Y002756D01*
X001556Y002893D01*
X001576Y002926D02*
X001576Y002487D01*
X001887Y002176D01*
X001920Y002156D02*
X001656Y001893D01*
X001656Y001756D01*
X002056Y001756D01*
X002056Y001757D02*
X002056Y002156D01*
X001920Y002156D01*
X002006Y002156D02*
X002006Y002176D01*
X002056Y002126D02*
X002156Y002126D01*
X002126Y002176D02*
X002126Y001757D01*
X002156Y001766D02*
X002056Y001766D01*
X002006Y001756D02*
X002006Y001656D01*
X002056Y001646D02*
X002156Y001646D01*
X002126Y001656D02*
X002126Y000416D01*
X002006Y000416D02*
X002006Y001256D01*
X002056Y001286D02*
X002156Y001286D01*
X002246Y001256D02*
X002246Y000416D01*
X002366Y000416D02*
X002366Y001330D01*
X002323Y001286D02*
X015377Y001286D01*
X015326Y001337D02*
X015326Y000416D01*
X015446Y000416D02*
X015446Y001217D01*
X015566Y001176D02*
X015566Y000416D01*
X015686Y000416D02*
X015686Y001176D01*
X015806Y001176D02*
X015806Y000416D01*
X015926Y000416D02*
X015926Y001177D01*
X016036Y001286D02*
X016377Y001286D01*
X016406Y001257D02*
X016406Y000416D01*
X016286Y000416D02*
X016286Y001377D01*
X016257Y001406D02*
X016156Y001406D01*
X016166Y001417D02*
X016166Y000416D01*
X016046Y000416D02*
X016046Y001297D01*
X016526Y001176D02*
X016526Y000416D01*
X016646Y000416D02*
X016646Y001176D01*
X016766Y001176D02*
X016766Y000416D01*
X016886Y000416D02*
X016886Y001176D01*
X016257Y002006D02*
X016156Y002006D01*
X016166Y001996D02*
X016166Y003417D01*
X016196Y003446D02*
X016217Y003446D01*
X016286Y003377D02*
X016286Y002923D01*
X016330Y002966D02*
X016083Y002966D01*
X016046Y003003D02*
X016046Y003297D01*
X016076Y003326D02*
X016337Y003326D01*
X016406Y003257D02*
X016406Y003043D01*
X016450Y003086D02*
X015963Y003086D01*
X015926Y003123D02*
X015926Y003177D01*
X015956Y003206D02*
X016457Y003206D01*
X016526Y003176D02*
X016526Y003156D01*
X016646Y003156D02*
X016646Y003176D01*
X016656Y003086D02*
X016756Y003086D01*
X016766Y003156D02*
X016766Y003176D01*
X016886Y003176D02*
X016886Y003156D01*
X016956Y003206D02*
X020467Y003206D01*
X020467Y003086D02*
X016963Y003086D01*
X017006Y003043D02*
X017006Y003257D01*
X017076Y003326D02*
X020467Y003326D01*
X020467Y003446D02*
X017196Y003446D01*
X017126Y003377D02*
X017126Y002923D01*
X017083Y002966D02*
X020467Y002966D01*
X020467Y003566D02*
X017236Y003566D01*
X017236Y003686D02*
X020467Y003686D01*
X020467Y003806D02*
X017236Y003806D01*
X017236Y003926D02*
X020467Y003926D01*
X020467Y004046D02*
X017116Y004046D01*
X017126Y004036D02*
X017126Y004377D01*
X017156Y004406D02*
X020467Y004406D01*
X020467Y004286D02*
X017036Y004286D01*
X017006Y004257D02*
X017006Y004156D01*
X016996Y004166D02*
X020467Y004166D01*
X020467Y004526D02*
X017236Y004526D01*
X017236Y004646D02*
X020467Y004646D01*
X020467Y004766D02*
X017236Y004766D01*
X017236Y004886D02*
X020467Y004886D01*
X020467Y005006D02*
X017156Y005006D01*
X017126Y005036D02*
X017126Y005377D01*
X017116Y005366D02*
X020467Y005366D01*
X020467Y005246D02*
X016996Y005246D01*
X017006Y005257D02*
X017006Y005156D01*
X017036Y005126D02*
X020467Y005126D01*
X020467Y005486D02*
X017236Y005486D01*
X017236Y005606D02*
X020467Y005606D01*
X020467Y005726D02*
X017236Y005726D01*
X017236Y005846D02*
X020467Y005846D01*
X020467Y005966D02*
X017196Y005966D01*
X017006Y006156D02*
X017006Y006257D01*
X016956Y006206D02*
X017236Y006487D01*
X017236Y006566D02*
X020467Y006566D01*
X020467Y006686D02*
X017236Y006686D01*
X017236Y006806D02*
X020467Y006806D01*
X020467Y006926D02*
X017236Y006926D01*
X016886Y007236D02*
X016886Y010176D01*
X016766Y010176D02*
X016766Y007236D01*
X016646Y007236D02*
X016646Y010176D01*
X016526Y010176D02*
X016526Y007236D01*
X016417Y007166D02*
X016183Y007166D01*
X016166Y007183D02*
X016166Y010417D01*
X016156Y010406D02*
X016257Y010406D01*
X016286Y010377D02*
X016286Y007036D01*
X016297Y007046D02*
X016236Y007046D01*
X016406Y007156D02*
X016406Y010257D01*
X016377Y010286D02*
X016036Y010286D01*
X016046Y010297D02*
X016046Y007236D01*
X015926Y007236D02*
X015926Y010177D01*
X015806Y010176D02*
X015806Y007236D01*
X015686Y007236D02*
X015686Y010176D01*
X015566Y010176D02*
X015566Y007236D01*
X015446Y007236D02*
X015446Y010217D01*
X015377Y010286D02*
X011196Y010286D01*
X009616Y011726D02*
X009196Y011726D01*
X009196Y011846D02*
X009616Y011846D01*
X009616Y011966D02*
X009196Y011966D01*
X009196Y012086D02*
X009616Y012086D01*
X009616Y012206D02*
X009196Y012206D01*
X009196Y012326D02*
X009616Y012326D01*
X009616Y012446D02*
X009196Y012446D01*
X009196Y012566D02*
X009616Y012566D01*
X009616Y012686D02*
X009196Y012686D01*
X009196Y012806D02*
X009616Y012806D01*
X009616Y012926D02*
X009196Y012926D01*
X009196Y013046D02*
X009616Y013046D01*
X009616Y013166D02*
X009196Y013166D01*
X009196Y013286D02*
X009616Y013286D01*
X009616Y013406D02*
X009196Y013406D01*
X009196Y013526D02*
X009616Y013526D01*
X009616Y013646D02*
X009196Y013646D01*
X009196Y013766D02*
X009616Y013766D01*
X009616Y013886D02*
X009196Y013886D01*
X009196Y014006D02*
X009616Y014006D01*
X009616Y014126D02*
X009196Y014126D01*
X009196Y014246D02*
X009616Y014246D01*
X009616Y014366D02*
X009196Y014366D01*
X009196Y014486D02*
X009616Y014486D01*
X009616Y014606D02*
X009196Y014606D01*
X009196Y014726D02*
X009616Y014726D01*
X009616Y014846D02*
X009196Y014846D01*
X009196Y014966D02*
X009616Y014966D01*
X009616Y015086D02*
X009196Y015086D01*
X009196Y015206D02*
X009616Y015206D01*
X009616Y015326D02*
X009196Y015326D01*
X009196Y015446D02*
X009616Y015446D01*
X009616Y015566D02*
X009196Y015566D01*
X009196Y015686D02*
X009616Y015686D01*
X009616Y015806D02*
X009196Y015806D01*
X009196Y015926D02*
X009616Y015926D01*
X009616Y016046D02*
X009196Y016046D01*
X009196Y016166D02*
X009616Y016166D01*
X009616Y016286D02*
X009196Y016286D01*
X009196Y016406D02*
X009616Y016406D01*
X009616Y016526D02*
X009196Y016526D01*
X009196Y016646D02*
X009616Y016646D01*
X009616Y016766D02*
X009196Y016766D01*
X009196Y016886D02*
X009616Y016886D01*
X009616Y017006D02*
X009196Y017006D01*
X009196Y017126D02*
X009616Y017126D01*
X009616Y017246D02*
X009196Y017246D01*
X009196Y017366D02*
X009616Y017366D01*
X009616Y017486D02*
X009196Y017486D01*
X009196Y017606D02*
X009616Y017606D01*
X009616Y017726D02*
X009196Y017726D01*
X009196Y017846D02*
X009616Y017846D01*
X009616Y017966D02*
X009196Y017966D01*
X009196Y018086D02*
X009616Y018086D01*
X009616Y018206D02*
X009196Y018206D01*
X009196Y018326D02*
X009616Y018326D01*
X009616Y018446D02*
X009196Y018446D01*
X009196Y018566D02*
X009616Y018566D01*
X009616Y018686D02*
X009196Y018686D01*
X009196Y018806D02*
X009616Y018806D01*
X009616Y018926D02*
X009196Y018926D01*
X009196Y019046D02*
X009616Y019046D01*
X009616Y019166D02*
X009196Y019166D01*
X009196Y019286D02*
X009616Y019286D01*
X009616Y019406D02*
X009196Y019406D01*
X009196Y019526D02*
X009616Y019526D01*
X009616Y019646D02*
X009196Y019646D01*
X009196Y019766D02*
X009616Y019766D01*
X009616Y019886D02*
X009196Y019886D01*
X009196Y020006D02*
X009616Y020006D01*
X009616Y020126D02*
X009196Y020126D01*
X009196Y020246D02*
X009616Y020246D01*
X009616Y020366D02*
X009196Y020366D01*
X009196Y020486D02*
X009616Y020486D01*
X009616Y020606D02*
X009196Y020606D01*
X009196Y020726D02*
X009616Y020726D01*
X009616Y020846D02*
X009196Y020846D01*
X009196Y020966D02*
X009616Y020966D01*
X009616Y021086D02*
X009196Y021086D01*
X009196Y021206D02*
X009616Y021206D01*
X009616Y021326D02*
X009196Y021326D01*
X009196Y021446D02*
X009616Y021446D01*
X009616Y021566D02*
X009196Y021566D01*
X009196Y021686D02*
X009616Y021686D01*
X009406Y022456D02*
X009657Y022706D01*
X009406Y022957D01*
X009156Y022706D01*
X009406Y022456D01*
X009446Y022496D02*
X009446Y022917D01*
X009477Y022886D02*
X009336Y022886D01*
X009326Y022877D02*
X009326Y022536D01*
X009336Y022526D02*
X009477Y022526D01*
X009566Y022616D02*
X009566Y022797D01*
X009597Y022766D02*
X009216Y022766D01*
X009206Y022757D02*
X009206Y022656D01*
X009216Y022646D02*
X009597Y022646D01*
X010166Y022696D02*
X010166Y022717D01*
X010216Y022766D02*
X010710Y022766D01*
X010766Y022756D02*
X010766Y022656D01*
X010710Y022646D02*
X010216Y022646D01*
X010286Y022576D02*
X010286Y022837D01*
X010336Y022886D02*
X010590Y022886D01*
X010646Y022830D02*
X010646Y022583D01*
X010590Y022526D02*
X010336Y022526D01*
X010406Y022456D02*
X010406Y022957D01*
X010436Y023006D02*
X010470Y023006D01*
X010526Y022950D02*
X010526Y022463D01*
X010470Y022406D02*
X010436Y022406D01*
X010436Y022286D02*
X010456Y022286D01*
X010526Y022256D02*
X010526Y022156D01*
X010646Y022156D02*
X010646Y022256D01*
X010766Y022256D02*
X010766Y022156D01*
X010856Y022046D02*
X010956Y022046D01*
X010956Y021926D02*
X010856Y021926D01*
X011126Y022156D02*
X011126Y022256D01*
X011246Y022256D02*
X011246Y022156D01*
X011356Y022286D02*
X011376Y022286D01*
X011376Y022406D02*
X011343Y022406D01*
X010956Y022406D02*
X010856Y022406D01*
X010856Y022526D02*
X010956Y022526D01*
X010956Y022646D02*
X010856Y022646D01*
X010856Y022766D02*
X010956Y022766D01*
X011006Y022756D02*
X011006Y022656D01*
X010956Y022886D02*
X010856Y022886D01*
X010856Y023006D02*
X010956Y023006D01*
X011126Y023156D02*
X011126Y023256D01*
X011246Y023256D02*
X011246Y023156D01*
X011356Y023366D02*
X011376Y023366D01*
X010956Y023366D02*
X010856Y023366D01*
X010886Y023257D02*
X010886Y026993D01*
X010526Y026993D02*
X010526Y023463D01*
X010550Y023486D02*
X010376Y023486D01*
X010406Y023456D02*
X010406Y026993D01*
X010046Y026993D02*
X010046Y023736D01*
X009926Y023736D02*
X009926Y026993D01*
X009806Y026993D02*
X009806Y023736D01*
X009686Y023736D02*
X009686Y026993D01*
X009566Y026993D02*
X009566Y023616D01*
X009557Y023606D02*
X009256Y023606D01*
X009206Y023656D02*
X009206Y026993D01*
X009086Y026993D02*
X009086Y023736D01*
X009136Y023726D02*
X009677Y023726D01*
X009446Y023496D02*
X009446Y026993D01*
X009326Y026993D02*
X009326Y023536D01*
X009376Y023486D02*
X009437Y023486D01*
X008966Y023736D02*
X008966Y026993D01*
X008846Y026993D02*
X008846Y023736D01*
X008726Y023736D02*
X008726Y026993D01*
X008606Y026993D02*
X008606Y023656D01*
X008557Y023606D02*
X008256Y023606D01*
X008246Y023616D02*
X008246Y026993D01*
X008126Y026993D02*
X008126Y023736D01*
X008136Y023726D02*
X008677Y023726D01*
X008486Y023536D02*
X008486Y026993D01*
X008366Y026993D02*
X008366Y023496D01*
X008376Y023486D02*
X008437Y023486D01*
X008006Y023736D02*
X008006Y026993D01*
X007886Y026993D02*
X007886Y023736D01*
X007766Y023736D02*
X007766Y026993D01*
X007646Y026993D02*
X007646Y023696D01*
X007677Y023726D02*
X007136Y023726D01*
X007166Y023696D02*
X007166Y026993D01*
X007046Y026993D02*
X007046Y023736D01*
X006926Y023736D02*
X006926Y026993D01*
X006806Y026993D02*
X006806Y023736D01*
X007256Y023606D02*
X007557Y023606D01*
X007526Y023576D02*
X007526Y026993D01*
X007406Y026993D02*
X007406Y023456D01*
X007376Y023486D02*
X007437Y023486D01*
X007286Y023576D02*
X007286Y026993D01*
X005726Y026993D02*
X005726Y007120D01*
X005606Y007135D02*
X005606Y026993D01*
X005486Y026993D02*
X005486Y007120D01*
X005366Y007070D02*
X005366Y026993D01*
X005246Y026993D02*
X005246Y006952D01*
X005234Y006926D02*
X005132Y006926D01*
X005126Y006921D02*
X005126Y004992D01*
X005112Y005006D02*
X005226Y005006D01*
X005246Y004961D02*
X005246Y003286D01*
X005191Y003286D02*
X005422Y003286D01*
X005635Y003198D01*
X005798Y003035D01*
X005886Y002822D01*
X005876Y002846D02*
X015256Y002846D01*
X015326Y002756D02*
X015326Y002656D01*
X015256Y002606D02*
X005886Y002606D01*
X005486Y003260D02*
X005486Y004793D01*
X005366Y004843D02*
X005366Y003286D01*
X004886Y003107D02*
X004886Y004278D01*
X004911Y004286D02*
X006376Y004286D01*
X006557Y003806D02*
X002636Y003806D01*
X001857Y004206D02*
X001606Y003956D01*
X001356Y004206D01*
X001606Y004457D01*
X001857Y004206D01*
X001817Y004166D02*
X001396Y004166D01*
X001406Y004156D02*
X001406Y004257D01*
X001436Y004286D02*
X001777Y004286D01*
X001766Y004297D02*
X001766Y004116D01*
X001697Y004046D02*
X001516Y004046D01*
X001526Y004036D02*
X001526Y004377D01*
X001556Y004406D02*
X001657Y004406D01*
X001646Y004417D02*
X001646Y003996D01*
X001617Y003446D02*
X001596Y003446D01*
X001646Y003417D02*
X001646Y002996D01*
X001617Y002966D02*
X001483Y002966D01*
X001576Y002926D02*
X001857Y003206D01*
X001576Y002846D02*
X001556Y002846D01*
X001526Y002756D02*
X001526Y002656D01*
X001556Y002606D02*
X001576Y002606D01*
X001577Y002486D02*
X001523Y002486D01*
X001526Y002490D02*
X001526Y002036D01*
X001556Y002006D02*
X001770Y002006D01*
X001766Y002003D02*
X001766Y002297D01*
X001817Y002246D02*
X000416Y002246D01*
X000416Y002126D02*
X000777Y002126D01*
X000806Y002156D02*
X000806Y002370D01*
X000810Y002366D02*
X000416Y002366D01*
X000416Y002486D02*
X000690Y002486D01*
X000686Y002490D02*
X000686Y002036D01*
X000657Y002006D02*
X000416Y002006D01*
X000416Y001886D02*
X000576Y001886D01*
X000576Y001766D02*
X000416Y001766D01*
X000416Y001646D02*
X000576Y001646D01*
X000576Y001526D02*
X000416Y001526D01*
X000926Y002236D02*
X000926Y002256D01*
X001046Y002256D02*
X001046Y002236D01*
X001166Y002236D02*
X001166Y002256D01*
X001156Y002366D02*
X001056Y002366D01*
X001056Y002486D02*
X001156Y002486D01*
X001156Y002606D02*
X001056Y002606D01*
X001046Y002656D02*
X001046Y002756D01*
X001056Y002756D02*
X000656Y002756D01*
X000656Y002893D01*
X000920Y003156D01*
X001056Y003156D01*
X001056Y002757D01*
X001056Y002726D02*
X000416Y002726D01*
X000416Y002606D02*
X000656Y002606D01*
X000686Y002656D02*
X000686Y002756D01*
X000656Y002846D02*
X000416Y002846D01*
X000416Y002966D02*
X000730Y002966D01*
X000686Y002923D02*
X000686Y003377D01*
X000737Y003326D02*
X000416Y003326D01*
X000416Y003206D02*
X000857Y003206D01*
X000806Y003257D02*
X000806Y003043D01*
X000850Y003086D02*
X000416Y003086D01*
X000416Y003446D02*
X000617Y003446D01*
X000576Y003566D02*
X000416Y003566D01*
X000416Y003686D02*
X000576Y003686D01*
X000576Y003806D02*
X000416Y003806D01*
X000416Y003926D02*
X000577Y003926D01*
X000686Y004036D02*
X000686Y004377D01*
X000657Y004406D02*
X000416Y004406D01*
X000416Y004286D02*
X000777Y004286D01*
X000806Y004257D02*
X000806Y004156D01*
X000817Y004166D02*
X000416Y004166D01*
X000416Y004046D02*
X000697Y004046D01*
X000576Y004526D02*
X000416Y004526D01*
X000416Y004646D02*
X000576Y004646D01*
X000576Y004766D02*
X000416Y004766D01*
X000416Y004886D02*
X000576Y004886D01*
X000657Y005006D02*
X000416Y005006D01*
X000416Y005126D02*
X000777Y005126D01*
X000806Y005156D02*
X000806Y005257D01*
X000817Y005246D02*
X000416Y005246D01*
X000416Y005366D02*
X000697Y005366D01*
X000686Y005377D02*
X000686Y005036D01*
X000577Y005486D02*
X000416Y005486D01*
X000416Y005606D02*
X000576Y005606D01*
X000576Y005726D02*
X000416Y005726D01*
X000416Y005846D02*
X000576Y005846D01*
X000617Y005966D02*
X000416Y005966D01*
X000416Y006086D02*
X000737Y006086D01*
X000686Y006036D02*
X000686Y006490D01*
X000656Y006520D02*
X000920Y006256D01*
X001056Y006256D01*
X001056Y006656D01*
X000656Y006656D01*
X000656Y006520D01*
X000656Y006566D02*
X000416Y006566D01*
X000416Y006446D02*
X000730Y006446D01*
X000806Y006370D02*
X000806Y006156D01*
X000857Y006206D02*
X000416Y006206D01*
X000416Y006326D02*
X000850Y006326D01*
X000926Y006256D02*
X000926Y006236D01*
X001046Y006236D02*
X001046Y006256D01*
X001056Y006326D02*
X001156Y006326D01*
X001156Y006256D02*
X001293Y006256D01*
X001556Y006520D01*
X001556Y006656D01*
X001157Y006656D01*
X001157Y006756D01*
X001556Y006756D01*
X001556Y006893D01*
X001293Y007156D01*
X001156Y007156D01*
X001156Y006757D01*
X001056Y006757D01*
X001056Y006756D02*
X001056Y006656D01*
X001156Y006656D01*
X001156Y006256D01*
X001166Y006256D02*
X001166Y006236D01*
X001286Y006236D02*
X001286Y006256D01*
X001356Y006206D02*
X001857Y006206D01*
X001606Y005956D01*
X001596Y005966D02*
X001617Y005966D01*
X001646Y005996D02*
X001646Y006417D01*
X001617Y006446D02*
X001483Y006446D01*
X001526Y006490D02*
X001526Y006036D01*
X001476Y006086D02*
X001737Y006086D01*
X001766Y006116D02*
X001766Y006297D01*
X001737Y006326D02*
X001363Y006326D01*
X001406Y006370D02*
X001406Y006156D01*
X001576Y006487D02*
X001857Y006206D01*
X001576Y006487D02*
X001576Y006926D01*
X001857Y007206D01*
X001606Y007457D01*
X001326Y007176D01*
X000887Y007176D01*
X000576Y007487D01*
X000576Y007926D01*
X000857Y008206D01*
X000576Y008487D01*
X000576Y008926D01*
X000857Y009206D01*
X000806Y009156D02*
X000806Y009257D01*
X000617Y008966D02*
X000416Y008966D01*
X000416Y008846D02*
X000576Y008846D01*
X000576Y008726D02*
X000416Y008726D01*
X000416Y008606D02*
X000576Y008606D01*
X000577Y008486D02*
X000416Y008486D01*
X000416Y008366D02*
X000697Y008366D01*
X000686Y008377D02*
X000686Y008036D01*
X000657Y008006D02*
X000416Y008006D01*
X000416Y007886D02*
X000576Y007886D01*
X000576Y007766D02*
X000416Y007766D01*
X000416Y007646D02*
X000576Y007646D01*
X000576Y007526D02*
X000416Y007526D01*
X000416Y007406D02*
X000657Y007406D01*
X000686Y007377D02*
X000686Y006923D01*
X000690Y006926D02*
X000416Y006926D01*
X000416Y006806D02*
X000656Y006806D01*
X000656Y006756D02*
X001056Y006756D01*
X001056Y006757D02*
X001056Y007156D01*
X000920Y007156D01*
X000656Y006893D01*
X000656Y006756D01*
X000686Y006756D02*
X000686Y006656D01*
X000806Y006656D02*
X000806Y006756D01*
X000926Y006756D02*
X000926Y006656D01*
X001046Y006656D02*
X001046Y006756D01*
X001056Y006806D02*
X001156Y006806D01*
X001166Y006756D02*
X001166Y006656D01*
X001157Y006686D02*
X001576Y006686D01*
X001526Y006656D02*
X001526Y006756D01*
X001556Y006806D02*
X001576Y006806D01*
X001577Y006926D02*
X001523Y006926D01*
X001526Y006923D02*
X001526Y007377D01*
X001556Y007406D02*
X001657Y007406D01*
X001646Y007417D02*
X001646Y006996D01*
X001697Y007046D02*
X001403Y007046D01*
X001406Y007043D02*
X001406Y007257D01*
X001436Y007286D02*
X001777Y007286D01*
X001766Y007297D02*
X001766Y007116D01*
X001817Y007166D02*
X000416Y007166D01*
X000416Y007046D02*
X000810Y007046D01*
X000806Y007043D02*
X000806Y007257D01*
X000777Y007286D02*
X000416Y007286D01*
X000416Y006686D02*
X001056Y006686D01*
X001056Y006566D02*
X001156Y006566D01*
X001156Y006446D02*
X001056Y006446D01*
X001286Y006656D02*
X001286Y006756D01*
X001406Y006756D02*
X001406Y006656D01*
X001556Y006566D02*
X001576Y006566D01*
X001156Y006926D02*
X001056Y006926D01*
X001056Y007046D02*
X001156Y007046D01*
X001166Y007156D02*
X001166Y007176D01*
X001046Y007176D02*
X001046Y007156D01*
X000926Y007156D02*
X000926Y007176D01*
X001286Y007156D02*
X001286Y007176D01*
X001606Y007956D02*
X001356Y008206D01*
X001606Y008457D01*
X001857Y008206D01*
X001606Y007956D01*
X001646Y007996D02*
X001646Y008417D01*
X001697Y008366D02*
X001516Y008366D01*
X001526Y008377D02*
X001526Y008036D01*
X001556Y008006D02*
X001657Y008006D01*
X001766Y008116D02*
X001766Y008297D01*
X001817Y008246D02*
X001396Y008246D01*
X001406Y008257D02*
X001406Y008156D01*
X001436Y008126D02*
X001777Y008126D01*
X001606Y008956D02*
X001356Y009206D01*
X001857Y009206D01*
X001606Y008956D01*
X001596Y008966D02*
X001617Y008966D01*
X001646Y008996D02*
X001646Y009417D01*
X001617Y009446D02*
X001596Y009446D01*
X001606Y009457D02*
X001857Y009206D01*
X001766Y009116D02*
X001766Y009297D01*
X001737Y009326D02*
X001476Y009326D01*
X001526Y009377D02*
X001526Y009036D01*
X001476Y009086D02*
X001737Y009086D01*
X001606Y009457D02*
X001356Y009206D01*
X001406Y009156D02*
X001406Y009257D01*
X001606Y009956D02*
X001356Y010206D01*
X001606Y010457D01*
X001857Y010206D01*
X001606Y009956D01*
X001646Y009996D02*
X001646Y010417D01*
X001657Y010406D02*
X001556Y010406D01*
X001526Y010377D02*
X001526Y010036D01*
X001516Y010046D02*
X001697Y010046D01*
X001766Y010116D02*
X001766Y010297D01*
X001777Y010286D02*
X001436Y010286D01*
X001406Y010257D02*
X001406Y010156D01*
X001396Y010166D02*
X001817Y010166D01*
X002486Y011076D02*
X002486Y011337D01*
X002366Y012196D02*
X002366Y012217D01*
X002356Y012206D02*
X002636Y012487D01*
X002366Y014196D02*
X002366Y014217D01*
X002366Y015196D02*
X002366Y015217D01*
X002356Y015206D02*
X002636Y015487D01*
X001576Y016886D02*
X001556Y016886D01*
X001526Y016923D02*
X001526Y017377D01*
X001516Y017366D02*
X001697Y017366D01*
X001646Y017417D02*
X001646Y016996D01*
X001657Y017006D02*
X001443Y017006D01*
X001406Y017043D02*
X001406Y017257D01*
X001396Y017246D02*
X001817Y017246D01*
X001766Y017297D02*
X001766Y017116D01*
X001777Y017126D02*
X001323Y017126D01*
X001286Y017156D02*
X001286Y017176D01*
X001166Y017176D02*
X001166Y017156D01*
X001156Y017126D02*
X001056Y017126D01*
X001046Y017156D02*
X001046Y017176D01*
X000926Y017176D02*
X000926Y017156D01*
X000890Y017126D02*
X000416Y017126D01*
X000416Y017006D02*
X000770Y017006D01*
X000806Y017043D02*
X000806Y017257D01*
X000817Y017246D02*
X000416Y017246D01*
X001056Y017006D02*
X001156Y017006D01*
X001156Y016886D02*
X001056Y016886D01*
X001606Y017956D02*
X001356Y018206D01*
X001857Y018206D01*
X001606Y017956D01*
X001596Y017966D02*
X001617Y017966D01*
X001646Y017996D02*
X001646Y018417D01*
X001617Y018446D02*
X001596Y018446D01*
X001606Y018457D02*
X001857Y018206D01*
X001766Y018116D02*
X001766Y018297D01*
X001737Y018326D02*
X001476Y018326D01*
X001526Y018377D02*
X001526Y018036D01*
X001476Y018086D02*
X001737Y018086D01*
X001406Y018156D02*
X001406Y018257D01*
X001356Y018206D02*
X001606Y018457D01*
X001606Y018956D02*
X001356Y019206D01*
X001606Y019457D01*
X001857Y019206D01*
X001606Y018956D01*
X001646Y018996D02*
X001646Y019417D01*
X001657Y019406D02*
X001556Y019406D01*
X001526Y019377D02*
X001526Y019036D01*
X001516Y019046D02*
X001697Y019046D01*
X001766Y019116D02*
X001766Y019297D01*
X001777Y019286D02*
X001436Y019286D01*
X001406Y019257D02*
X001406Y019156D01*
X001396Y019166D02*
X001817Y019166D01*
X002366Y017217D02*
X002366Y017196D01*
X004526Y011992D02*
X004526Y026993D01*
X004646Y026993D02*
X004646Y007604D01*
X004766Y007635D02*
X004766Y026993D01*
X004886Y026993D02*
X004886Y007635D01*
X004521Y007526D02*
X004496Y007526D01*
X004496Y006911D02*
X004516Y006891D01*
X004516Y006002D01*
X004496Y006022D01*
X004496Y006911D01*
X004496Y006806D02*
X004516Y006806D01*
X004516Y006686D02*
X004496Y006686D01*
X004496Y006566D02*
X004516Y006566D01*
X004516Y006446D02*
X004496Y006446D01*
X004496Y006326D02*
X004516Y006326D01*
X004516Y006206D02*
X004496Y006206D01*
X004496Y006086D02*
X004516Y006086D01*
X005096Y006086D02*
X005316Y006086D01*
X005316Y005966D02*
X005096Y005966D01*
X005096Y005846D02*
X005316Y005846D01*
X005316Y005726D02*
X005096Y005726D01*
X005096Y005606D02*
X005316Y005606D01*
X005281Y005486D02*
X005096Y005486D01*
X005096Y005366D02*
X005209Y005366D01*
X005246Y005452D02*
X005246Y006461D01*
X005261Y006446D02*
X005096Y006446D01*
X005096Y006326D02*
X005316Y006326D01*
X005316Y006206D02*
X005096Y006206D01*
X005096Y006566D02*
X005201Y006566D01*
X005178Y006686D02*
X005096Y006686D01*
X005096Y006806D02*
X005185Y006806D01*
X005204Y007046D02*
X005341Y007046D01*
X005952Y006446D02*
X006543Y006446D01*
X006566Y006472D02*
X006566Y021676D01*
X007186Y022736D02*
X007406Y022957D01*
X007657Y022706D01*
X007436Y022486D01*
X007436Y022613D01*
X007313Y022736D01*
X007186Y022736D01*
X007216Y022766D02*
X007597Y022766D01*
X007646Y022717D02*
X007646Y022696D01*
X007597Y022646D02*
X007403Y022646D01*
X007406Y022643D02*
X007406Y022957D01*
X007336Y022886D02*
X007477Y022886D01*
X007526Y022837D02*
X007526Y022576D01*
X007477Y022526D02*
X007436Y022526D01*
X007286Y022736D02*
X007286Y022837D01*
X008156Y022706D02*
X008406Y022957D01*
X008657Y022706D01*
X008406Y022456D01*
X008156Y022706D01*
X008216Y022646D02*
X008597Y022646D01*
X008606Y022656D02*
X008606Y022757D01*
X008597Y022766D02*
X008216Y022766D01*
X008246Y022797D02*
X008246Y022616D01*
X008336Y022526D02*
X008477Y022526D01*
X008486Y022536D02*
X008486Y022877D01*
X008477Y022886D02*
X008336Y022886D01*
X008366Y022917D02*
X008366Y022496D01*
X008196Y021686D02*
X008616Y021686D01*
X008616Y021566D02*
X008196Y021566D01*
X008196Y021446D02*
X008616Y021446D01*
X008616Y021326D02*
X008196Y021326D01*
X008196Y021206D02*
X008616Y021206D01*
X008616Y021086D02*
X008196Y021086D01*
X008196Y020966D02*
X008616Y020966D01*
X008616Y020846D02*
X008196Y020846D01*
X008196Y020726D02*
X008616Y020726D01*
X008616Y020606D02*
X008196Y020606D01*
X008196Y020486D02*
X008616Y020486D01*
X008616Y020366D02*
X008196Y020366D01*
X008196Y020246D02*
X008616Y020246D01*
X008616Y020126D02*
X008196Y020126D01*
X008196Y020006D02*
X008616Y020006D01*
X008616Y019886D02*
X008196Y019886D01*
X008196Y019766D02*
X008616Y019766D01*
X008616Y019646D02*
X008196Y019646D01*
X008196Y019526D02*
X008616Y019526D01*
X008616Y019406D02*
X008196Y019406D01*
X008196Y019286D02*
X008616Y019286D01*
X008616Y019166D02*
X008196Y019166D01*
X008196Y019046D02*
X008616Y019046D01*
X008616Y018926D02*
X008196Y018926D01*
X008196Y018806D02*
X008616Y018806D01*
X008616Y018686D02*
X008196Y018686D01*
X008196Y018566D02*
X008616Y018566D01*
X008616Y018446D02*
X008196Y018446D01*
X008196Y018326D02*
X008616Y018326D01*
X008616Y018206D02*
X008196Y018206D01*
X008196Y018086D02*
X008616Y018086D01*
X008616Y017966D02*
X008196Y017966D01*
X008196Y017846D02*
X008616Y017846D01*
X008616Y017726D02*
X008196Y017726D01*
X008196Y017606D02*
X008616Y017606D01*
X008616Y017486D02*
X008196Y017486D01*
X008196Y017366D02*
X008616Y017366D01*
X008616Y017246D02*
X008196Y017246D01*
X008196Y017126D02*
X008616Y017126D01*
X008616Y017006D02*
X008196Y017006D01*
X008196Y016886D02*
X008616Y016886D01*
X008616Y016766D02*
X008196Y016766D01*
X008196Y016646D02*
X008616Y016646D01*
X008616Y016526D02*
X008196Y016526D01*
X010196Y015926D02*
X015176Y015926D01*
X015176Y015806D02*
X010196Y015806D01*
X010196Y015686D02*
X015176Y015686D01*
X015176Y015566D02*
X010196Y015566D01*
X010196Y015446D02*
X015176Y015446D01*
X015297Y014366D02*
X010196Y014366D01*
X010196Y014246D02*
X015417Y014246D01*
X015446Y014217D02*
X015446Y014196D01*
X015377Y014126D02*
X010196Y014126D01*
X010196Y013286D02*
X015377Y013286D01*
X015326Y013337D02*
X015326Y013076D01*
X015297Y013046D02*
X010196Y013046D01*
X010196Y013166D02*
X015417Y013166D01*
X015446Y013196D02*
X015446Y013217D01*
X015956Y013206D02*
X016206Y012956D01*
X016457Y013206D01*
X016206Y013457D01*
X015956Y013206D01*
X015996Y013166D02*
X016417Y013166D01*
X016406Y013156D02*
X016406Y013257D01*
X016377Y013286D02*
X016036Y013286D01*
X016046Y013297D02*
X016046Y013116D01*
X016116Y013046D02*
X016297Y013046D01*
X016286Y013036D02*
X016286Y013377D01*
X016257Y013406D02*
X016156Y013406D01*
X016166Y013417D02*
X016166Y012996D01*
X016196Y012446D02*
X016217Y012446D01*
X015756Y011966D02*
X015656Y011966D01*
X015656Y011846D02*
X015756Y011846D01*
X015566Y011756D02*
X015566Y011656D01*
X015446Y011656D02*
X015446Y011756D01*
X015566Y012156D02*
X015566Y012176D01*
X015217Y012446D02*
X010196Y012446D01*
X008616Y011846D02*
X008312Y011846D01*
X008335Y011726D02*
X008616Y011726D01*
X008616Y011606D02*
X008328Y011606D01*
X008279Y011486D02*
X008616Y011486D01*
X007485Y011606D02*
X007196Y011606D01*
X007196Y011726D02*
X007478Y011726D01*
X007501Y011846D02*
X007196Y011846D01*
X006493Y006326D02*
X005896Y006326D01*
X005896Y006206D02*
X006478Y006206D01*
X006493Y006086D02*
X005896Y006086D01*
X005896Y005966D02*
X006543Y005966D01*
X006566Y005941D02*
X006566Y005616D01*
X006557Y005606D02*
X005896Y005606D01*
X005896Y005726D02*
X006677Y005726D01*
X006686Y005736D02*
X006686Y005834D01*
X006661Y005846D02*
X005896Y005846D01*
X006004Y005366D02*
X006376Y005366D01*
X006376Y005246D02*
X006035Y005246D01*
X006035Y005126D02*
X006376Y005126D01*
X006806Y005736D02*
X006806Y005785D01*
X006926Y005778D02*
X006926Y005736D01*
X007046Y005736D02*
X007046Y005801D01*
X007436Y005366D02*
X007456Y005366D01*
X007646Y005256D02*
X007646Y005156D01*
X007766Y005156D02*
X007766Y005256D01*
X007856Y005366D02*
X007956Y005366D01*
X007956Y005486D02*
X007856Y005486D01*
X008126Y005256D02*
X008126Y005156D01*
X008246Y005156D02*
X008246Y005256D01*
X008356Y005126D02*
X008376Y005126D01*
X008376Y005006D02*
X008343Y005006D01*
X007956Y005006D02*
X007856Y005006D01*
X007856Y004886D02*
X007956Y004886D01*
X008742Y006452D02*
X008742Y006452D01*
X010406Y003957D02*
X010687Y003676D01*
X011126Y003676D01*
X011406Y003957D01*
X011687Y003676D01*
X012126Y003676D01*
X012436Y003987D01*
X012436Y004426D01*
X012186Y004676D01*
X012313Y004676D01*
X012436Y004800D01*
X012436Y005613D01*
X012313Y005736D01*
X012436Y005606D02*
X015176Y005606D01*
X015177Y005486D02*
X012436Y005486D01*
X012436Y005366D02*
X015297Y005366D01*
X015326Y005337D02*
X015326Y005076D01*
X015377Y005126D02*
X012436Y005126D01*
X012436Y005006D02*
X015257Y005006D01*
X015206Y004956D02*
X015206Y005457D01*
X015417Y005246D02*
X012436Y005246D01*
X012436Y004886D02*
X015176Y004886D01*
X015176Y004766D02*
X012403Y004766D01*
X012326Y004690D02*
X012326Y004536D01*
X012336Y004526D02*
X015176Y004526D01*
X015206Y004457D02*
X015206Y003956D01*
X015177Y003926D02*
X012376Y003926D01*
X012326Y003877D02*
X012326Y000416D01*
X012206Y000416D02*
X012206Y003757D01*
X012256Y003806D02*
X015176Y003806D01*
X015176Y003686D02*
X012136Y003686D01*
X012086Y003676D02*
X012086Y000416D01*
X011966Y000416D02*
X011966Y003676D01*
X011846Y003676D02*
X011846Y000416D01*
X011726Y000416D02*
X011726Y003676D01*
X011677Y003686D02*
X011136Y003686D01*
X011126Y003677D02*
X011126Y000416D01*
X011006Y000416D02*
X011006Y003676D01*
X010886Y003676D02*
X010886Y000416D01*
X010766Y000416D02*
X010766Y003676D01*
X010437Y003926D02*
X010376Y003926D01*
X011246Y003797D02*
X011246Y000416D01*
X011366Y000416D02*
X011366Y003917D01*
X011376Y003926D02*
X011437Y003926D01*
X011486Y003877D02*
X011486Y000416D01*
X011606Y000416D02*
X011606Y003757D01*
X011557Y003806D02*
X011256Y003806D01*
X011406Y004456D02*
X011156Y004706D01*
X011376Y004927D01*
X011376Y004800D01*
X011500Y004676D01*
X011627Y004676D01*
X011406Y004456D01*
X011366Y004496D02*
X011366Y004917D01*
X011376Y004886D02*
X011336Y004886D01*
X011246Y004797D02*
X011246Y004616D01*
X011216Y004646D02*
X011597Y004646D01*
X011606Y004656D02*
X011606Y004676D01*
X011486Y004690D02*
X011486Y004536D01*
X011477Y004526D02*
X011336Y004526D01*
X011410Y004766D02*
X011216Y004766D01*
X012206Y004676D02*
X012206Y004656D01*
X012216Y004646D02*
X015176Y004646D01*
X015257Y004406D02*
X012436Y004406D01*
X012436Y004286D02*
X015377Y004286D01*
X015326Y004337D02*
X015326Y004076D01*
X015297Y004046D02*
X012436Y004046D01*
X012436Y004166D02*
X015417Y004166D01*
X015446Y004196D02*
X015446Y004217D01*
X015956Y004206D02*
X016206Y003956D01*
X016457Y004206D01*
X016206Y004457D01*
X015956Y004206D01*
X015996Y004166D02*
X016417Y004166D01*
X016406Y004156D02*
X016406Y004257D01*
X016377Y004286D02*
X016036Y004286D01*
X016046Y004297D02*
X016046Y004116D01*
X016116Y004046D02*
X016297Y004046D01*
X016286Y004036D02*
X016286Y004377D01*
X016257Y004406D02*
X016156Y004406D01*
X016166Y004417D02*
X016166Y003996D01*
X015806Y003176D02*
X015806Y003156D01*
X015756Y003086D02*
X015656Y003086D01*
X015656Y002966D02*
X015756Y002966D01*
X015756Y002846D02*
X015656Y002846D01*
X015566Y002756D02*
X015566Y002656D01*
X015446Y002656D02*
X015446Y002756D01*
X015656Y002486D02*
X015756Y002486D01*
X015756Y002366D02*
X015656Y002366D01*
X015806Y002256D02*
X015806Y002236D01*
X015926Y002236D02*
X015926Y002290D01*
X016003Y002366D02*
X016410Y002366D01*
X016406Y002370D02*
X016406Y002156D01*
X016377Y002126D02*
X016036Y002126D01*
X016046Y002116D02*
X016046Y002410D01*
X016123Y002486D02*
X016290Y002486D01*
X016286Y002490D02*
X016286Y002036D01*
X016526Y002236D02*
X016526Y002256D01*
X016646Y002256D02*
X016646Y002236D01*
X016766Y002236D02*
X016766Y002256D01*
X016756Y002366D02*
X016656Y002366D01*
X016656Y002486D02*
X016756Y002486D01*
X016886Y002656D02*
X016886Y002756D01*
X017006Y002756D02*
X017006Y002656D01*
X016756Y002846D02*
X016656Y002846D01*
X016656Y002966D02*
X016756Y002966D01*
X016526Y002756D02*
X016526Y002656D01*
X016406Y002656D02*
X016406Y002756D01*
X016286Y002756D02*
X016286Y002656D01*
X016256Y002606D02*
X016156Y002606D01*
X016046Y002656D02*
X016046Y002756D01*
X015926Y002756D02*
X015926Y002656D01*
X016156Y002846D02*
X016256Y002846D01*
X016886Y002256D02*
X016886Y002236D01*
X015257Y002006D02*
X002443Y002006D01*
X002246Y002156D02*
X002246Y002176D01*
X002156Y002006D02*
X002056Y002006D01*
X002056Y001886D02*
X002156Y001886D01*
X002246Y001756D02*
X002246Y001656D01*
X002366Y001656D02*
X002366Y001756D01*
X002486Y001756D02*
X002486Y001656D01*
X002556Y001646D02*
X015176Y001646D01*
X015176Y001766D02*
X002556Y001766D01*
X002486Y001450D02*
X002486Y000416D01*
X002443Y001406D02*
X015257Y001406D01*
X016206Y004956D02*
X015956Y005206D01*
X016206Y005457D01*
X016457Y005206D01*
X016206Y004956D01*
X016166Y004996D02*
X016166Y005417D01*
X016116Y005366D02*
X016297Y005366D01*
X016286Y005377D02*
X016286Y005036D01*
X016257Y005006D02*
X016156Y005006D01*
X016046Y005116D02*
X016046Y005297D01*
X015996Y005246D02*
X016417Y005246D01*
X016406Y005257D02*
X016406Y005156D01*
X016377Y005126D02*
X016036Y005126D01*
X015446Y005196D02*
X015446Y005217D01*
X016206Y005956D02*
X015986Y006176D01*
X016113Y006176D01*
X016236Y006300D01*
X016236Y006427D01*
X016457Y006206D01*
X016143Y006206D01*
X016166Y006230D02*
X016166Y005996D01*
X016196Y005966D02*
X016217Y005966D01*
X016206Y005956D02*
X016457Y006206D01*
X016406Y006156D02*
X016406Y006257D01*
X016337Y006326D02*
X016236Y006326D01*
X016286Y006377D02*
X016286Y006036D01*
X016337Y006086D02*
X016076Y006086D01*
X016046Y006116D02*
X016046Y006176D01*
X015326Y007236D02*
X015326Y010337D01*
X016526Y011236D02*
X016526Y011256D01*
X016646Y011256D02*
X016646Y011236D01*
X016766Y011236D02*
X016766Y011256D01*
X016756Y011366D02*
X016656Y011366D01*
X016656Y011486D02*
X016756Y011486D01*
X016886Y011656D02*
X016886Y011756D01*
X017006Y011756D02*
X017006Y011656D01*
X016886Y011256D02*
X016886Y011236D01*
X015326Y014076D02*
X015326Y014337D01*
X010766Y023156D02*
X010766Y023256D01*
X010856Y023246D02*
X010436Y023246D01*
X010526Y023256D02*
X010526Y023156D01*
X010456Y023126D02*
X010436Y023126D01*
X010646Y023156D02*
X010646Y023256D01*
X010456Y023366D02*
X010436Y023366D01*
X010856Y023486D02*
X010956Y023486D01*
X007437Y021926D02*
X007436Y021926D01*
X003686Y026993D02*
X003686Y003147D01*
X003798Y003035D02*
X003806Y003015D01*
X004166Y003276D02*
X004166Y005278D01*
X004286Y005278D02*
X004286Y003286D01*
X004747Y003086D02*
X004866Y003086D01*
X004766Y003067D02*
X004766Y004278D01*
X005195Y004886D02*
X005321Y004886D01*
X005178Y005126D02*
X005096Y005126D01*
X005096Y005246D02*
X005178Y005246D01*
X006566Y003797D02*
X006566Y000416D01*
X002156Y001406D02*
X002056Y001406D01*
X002056Y001526D02*
X002156Y001526D01*
X001886Y001656D02*
X001886Y001756D01*
X001766Y001756D02*
X001766Y001656D01*
X001656Y001646D02*
X001636Y001646D01*
X001636Y001526D02*
X001656Y001526D01*
X001636Y001766D02*
X001656Y001766D01*
X001656Y001886D02*
X001636Y001886D01*
X001286Y002236D02*
X001286Y002256D01*
X001286Y002656D02*
X001286Y002756D01*
X001166Y002756D02*
X001166Y002656D01*
X001157Y002726D02*
X001576Y002726D01*
X001406Y002756D02*
X001406Y002656D01*
X001156Y002846D02*
X001056Y002846D01*
X001056Y002966D02*
X001156Y002966D01*
X001156Y003086D02*
X001056Y003086D01*
X001046Y003156D02*
X001046Y003176D01*
X000926Y003176D02*
X000926Y003156D01*
X001166Y003156D02*
X001166Y003176D01*
X001286Y003176D02*
X001286Y003156D01*
X000926Y002756D02*
X000926Y002656D01*
X000806Y002656D02*
X000806Y002756D01*
X000777Y008126D02*
X000416Y008126D01*
X000416Y008246D02*
X000817Y008246D01*
X000806Y008257D02*
X000806Y008156D01*
D16*
X002106Y001706D02*
X007906Y001706D01*
X007906Y002706D01*
X007906Y005206D01*
X007906Y002706D02*
X015706Y002706D01*
X016706Y002706D01*
X016706Y011706D02*
X015706Y011706D01*
X015706Y019706D02*
X011906Y019706D01*
X011906Y022206D01*
X015706Y020706D02*
X016706Y020706D01*
M02*
