G75*
G70*
%OFA0B0*%
%FSLAX24Y24*%
%IPPOS*%
%LPD*%
%AMOC8*
5,1,8,0,0,1.08239X$1,22.5*
%
%ADD10OC8,0.0640*%
%ADD11R,0.0640X0.0640*%
%ADD12C,0.0740*%
%ADD13C,0.0591*%
%ADD14C,0.0160*%
%ADD15C,0.0120*%
%ADD16C,0.0560*%
%ADD17C,0.0436*%
%ADD18C,0.0100*%
D10*
X001106Y001706D03*
X001106Y002706D03*
X001106Y003706D03*
X001106Y004706D03*
X001106Y005706D03*
X001106Y006706D03*
X001106Y007706D03*
X001106Y008706D03*
X001106Y009706D03*
X001106Y010706D03*
X001106Y011706D03*
X001106Y012706D03*
X001106Y013706D03*
X001106Y014706D03*
X001106Y015706D03*
X001106Y016706D03*
X001106Y017706D03*
X001106Y018706D03*
X001106Y019706D03*
X001106Y020706D03*
X002106Y020706D03*
X002106Y019706D03*
X002106Y018706D03*
X002106Y017706D03*
X002106Y016706D03*
X002106Y015706D03*
X002106Y014706D03*
X002106Y013706D03*
X002106Y012706D03*
X002106Y011706D03*
X002106Y010706D03*
X002106Y009706D03*
X002106Y008706D03*
X002106Y007706D03*
X002106Y006706D03*
X002106Y005706D03*
X002106Y004706D03*
X002106Y003706D03*
X002106Y002706D03*
X002106Y001706D03*
X006906Y004206D03*
X006906Y005206D03*
X007906Y005206D03*
X007906Y004206D03*
X008906Y004206D03*
X008906Y005206D03*
X009906Y005206D03*
X009906Y004206D03*
X010906Y004206D03*
X010906Y005206D03*
X011906Y004206D03*
X015706Y003706D03*
X015706Y002706D03*
X015706Y001706D03*
X016706Y001706D03*
X016706Y002706D03*
X016706Y003706D03*
X016706Y004706D03*
X016706Y005706D03*
X015706Y005706D03*
X015706Y004706D03*
X016706Y006706D03*
X016706Y010706D03*
X016706Y011706D03*
X015706Y011706D03*
X015706Y010706D03*
X015706Y012706D03*
X015706Y013706D03*
X015706Y014706D03*
X016706Y014706D03*
X016706Y013706D03*
X016706Y012706D03*
X016706Y015706D03*
X016706Y019706D03*
X015706Y019706D03*
X015706Y020706D03*
X015706Y021706D03*
X015706Y022706D03*
X015706Y023706D03*
X016706Y023706D03*
X016706Y022706D03*
X016706Y021706D03*
X016706Y020706D03*
X016706Y024706D03*
X011906Y023206D03*
X011906Y022206D03*
X010906Y022206D03*
X010906Y023206D03*
X009906Y023206D03*
X009906Y022206D03*
X008906Y022206D03*
X008906Y023206D03*
X007906Y023206D03*
X007906Y022206D03*
X006906Y023206D03*
D11*
X006906Y022206D03*
X015706Y024706D03*
X015706Y015706D03*
X015706Y006706D03*
X011906Y005206D03*
D12*
X005306Y002706D03*
X004306Y002706D03*
X003306Y002706D03*
D13*
X000706Y000706D03*
X020206Y000706D03*
X020106Y026706D03*
X000706Y026706D03*
D14*
X001606Y021206D02*
X012306Y021206D01*
X012606Y021506D01*
X012606Y024906D01*
X012906Y025206D01*
X016206Y025206D01*
X016706Y024706D01*
X016206Y024206D02*
X016706Y023706D01*
X016206Y023206D02*
X014106Y023206D01*
X013806Y022906D01*
X013806Y019506D01*
X013506Y019206D01*
X001606Y019206D01*
X001106Y018706D01*
X001606Y018206D02*
X014106Y018206D01*
X014406Y018506D01*
X014406Y021906D01*
X014706Y022206D01*
X016206Y022206D01*
X016706Y021706D01*
X016706Y022706D02*
X016206Y023206D01*
X015706Y022706D02*
X014406Y022706D01*
X014106Y022406D01*
X014106Y018906D01*
X013906Y018706D01*
X002106Y018706D01*
X001606Y018206D02*
X001106Y017706D01*
X002106Y017706D02*
X014306Y017706D01*
X014706Y018106D01*
X014706Y021506D01*
X014906Y021706D01*
X015706Y021706D01*
X015706Y023706D02*
X013806Y023706D01*
X013506Y023406D01*
X013506Y020006D01*
X013206Y019706D01*
X002106Y019706D01*
X001606Y020206D02*
X012906Y020206D01*
X013206Y020506D01*
X013206Y023906D01*
X013506Y024206D01*
X016206Y024206D01*
X015706Y024706D02*
X013206Y024706D01*
X012906Y024406D01*
X012906Y021006D01*
X012606Y020706D01*
X002106Y020706D01*
X001606Y020206D02*
X001106Y019706D01*
X001106Y020706D02*
X001606Y021206D01*
X004206Y011706D02*
X007906Y011706D01*
X010906Y011706D01*
X012706Y009206D02*
X013506Y008406D01*
X013506Y005706D01*
X014006Y005206D01*
X016206Y005206D01*
X016706Y004706D01*
X016306Y004206D02*
X013206Y004206D01*
X012906Y004506D01*
X012906Y007806D01*
X012506Y008206D01*
X001606Y008206D01*
X001106Y007706D01*
X001106Y008706D02*
X001606Y009206D01*
X012706Y009206D01*
X012606Y008706D02*
X013206Y008106D01*
X013206Y005006D01*
X013506Y004706D01*
X015706Y004706D01*
X016306Y004206D02*
X016706Y003806D01*
X016706Y003706D01*
X015706Y003706D02*
X013006Y003706D01*
X012606Y004106D01*
X012606Y007306D01*
X012206Y007706D01*
X002106Y007706D01*
X002106Y008706D02*
X012606Y008706D01*
X013106Y009706D02*
X013806Y009006D01*
X013806Y006006D01*
X014106Y005706D01*
X015706Y005706D01*
X016206Y006206D02*
X014406Y006206D01*
X014106Y006506D01*
X014106Y009706D01*
X013606Y010206D01*
X001606Y010206D01*
X001106Y009706D01*
X001106Y010706D02*
X001606Y011206D01*
X014406Y011206D01*
X014706Y010906D01*
X014706Y007306D01*
X014806Y007206D01*
X016206Y007206D01*
X016706Y006706D01*
X016206Y006206D02*
X016706Y005706D01*
X015706Y006706D02*
X014506Y006706D01*
X014406Y006806D01*
X014406Y010206D01*
X013906Y010706D01*
X002106Y010706D01*
X002106Y009706D02*
X013106Y009706D01*
X011306Y006206D02*
X011906Y005606D01*
X011906Y005206D01*
X011306Y006206D02*
X006906Y006206D01*
X001606Y006206D01*
X001106Y005706D01*
X001606Y005206D02*
X005606Y005206D01*
X005806Y005206D01*
X004806Y004706D02*
X002106Y004706D01*
X001606Y004206D02*
X002706Y004206D01*
X001606Y004206D02*
X001106Y003706D01*
X001106Y004706D02*
X001606Y005206D01*
X002106Y005706D02*
X004206Y005706D01*
X004806Y007206D02*
X008906Y007206D01*
X009906Y007206D01*
X009406Y006706D02*
X005606Y006706D01*
X016706Y010706D02*
X017306Y010706D01*
X017606Y011006D01*
X017606Y019506D01*
X017406Y019706D01*
X016706Y019706D01*
X016706Y010706D02*
X017406Y010706D01*
X017606Y010506D01*
X017606Y001906D01*
X017406Y001706D01*
X016706Y001706D01*
D15*
X016706Y012706D02*
X016206Y013206D01*
X001606Y013206D01*
X001106Y012706D01*
X001106Y013706D02*
X001606Y014206D01*
X016206Y014206D01*
X016706Y013706D01*
X015706Y013706D02*
X002106Y013706D01*
X002106Y012706D02*
X015706Y012706D01*
X015706Y014706D02*
X002106Y014706D01*
X001506Y015206D02*
X016206Y015206D01*
X016706Y014706D01*
X016706Y015706D02*
X016206Y016206D01*
X001606Y016206D01*
X001106Y015706D01*
X001506Y015206D02*
X001106Y014806D01*
X001106Y014706D01*
X002106Y015706D02*
X015706Y015706D01*
D16*
X015706Y019706D02*
X016706Y019706D01*
X011906Y022206D02*
X011906Y023206D01*
X010906Y023206D02*
X010906Y022206D01*
X009906Y022206D02*
X009906Y023206D01*
X008906Y023206D02*
X008906Y022206D01*
X007906Y022206D02*
X007906Y023206D01*
X006906Y023206D02*
X006906Y022206D01*
X015706Y010706D02*
X016706Y010706D01*
X011906Y005206D02*
X011906Y004206D01*
X010906Y004206D02*
X010906Y005206D01*
X009906Y005206D02*
X009906Y004206D01*
X008906Y004206D02*
X008906Y005206D01*
X007906Y005206D02*
X007906Y004206D01*
X006906Y004206D02*
X006906Y005206D01*
X006906Y001706D01*
X004306Y001706D01*
X004306Y002706D01*
X003306Y002706D02*
X002106Y002706D01*
X003106Y003806D02*
X002706Y004206D01*
X003106Y003806D02*
X005306Y003806D01*
X005306Y002706D01*
X006906Y001706D02*
X015706Y001706D01*
X016706Y001706D01*
D17*
X009906Y007206D03*
X009406Y006706D03*
X008906Y007206D03*
X006906Y006206D03*
X005606Y006706D03*
X004806Y007206D03*
X004206Y005706D03*
X004806Y004706D03*
X005606Y005206D03*
X004206Y011706D03*
X007906Y011706D03*
X010906Y011706D03*
D18*
X011283Y011496D02*
X011335Y011621D01*
X011335Y011792D01*
X011269Y011949D01*
X011149Y012069D01*
X010992Y012135D01*
X010821Y012135D01*
X010664Y012069D01*
X010591Y011996D01*
X008222Y011996D01*
X008149Y012069D01*
X007992Y012135D01*
X007821Y012135D01*
X007664Y012069D01*
X007591Y011996D01*
X004522Y011996D01*
X004449Y012069D01*
X004292Y012135D01*
X004121Y012135D01*
X003964Y012069D01*
X003844Y011949D01*
X003778Y011792D01*
X003778Y011621D01*
X003830Y011496D01*
X002636Y011496D01*
X002636Y011926D01*
X002356Y012206D01*
X015457Y012206D01*
X015176Y011926D01*
X015176Y011487D01*
X015487Y011176D01*
X015926Y011176D01*
X016206Y011457D01*
X016487Y011176D01*
X016926Y011176D01*
X017236Y011487D01*
X017236Y011926D01*
X016956Y012206D01*
X020467Y012206D01*
X020467Y012086D02*
X017076Y012086D01*
X017126Y012036D02*
X017126Y012377D01*
X017076Y012326D02*
X020467Y012326D01*
X020467Y012446D02*
X017196Y012446D01*
X017236Y012487D02*
X017236Y012926D01*
X016956Y013206D01*
X017236Y013487D01*
X017236Y013926D01*
X016956Y014206D01*
X017236Y014487D01*
X017236Y014926D01*
X016956Y015206D01*
X020467Y015206D01*
X020467Y015086D02*
X017076Y015086D01*
X017126Y015036D02*
X017126Y015377D01*
X017076Y015326D02*
X020467Y015326D01*
X020467Y015446D02*
X017196Y015446D01*
X017236Y015487D02*
X017236Y015926D01*
X016926Y016236D01*
X016558Y016236D01*
X016359Y016435D01*
X016260Y016476D01*
X002626Y016476D01*
X002636Y016487D01*
X002636Y016926D01*
X002356Y017206D01*
X002566Y017416D01*
X014364Y017416D01*
X014471Y017461D01*
X014871Y017861D01*
X014952Y017942D01*
X014996Y018049D01*
X014996Y021386D01*
X015027Y021416D01*
X015247Y021416D01*
X015457Y021206D01*
X014996Y021206D01*
X014996Y021086D02*
X015337Y021086D01*
X015326Y021076D02*
X015326Y021337D01*
X015337Y021326D02*
X014996Y021326D01*
X015086Y021416D02*
X015086Y016476D01*
X014966Y016476D02*
X014966Y017976D01*
X014962Y017966D02*
X020467Y017966D01*
X020467Y017846D02*
X014857Y017846D01*
X014846Y017836D02*
X014846Y016476D01*
X014726Y016476D02*
X014726Y017716D01*
X014737Y017726D02*
X020467Y017726D01*
X020467Y017606D02*
X014617Y017606D01*
X014606Y017596D02*
X014606Y016476D01*
X014486Y016476D02*
X014486Y017476D01*
X014497Y017486D02*
X020467Y017486D01*
X020467Y017366D02*
X002516Y017366D01*
X002486Y017337D02*
X002486Y017076D01*
X002436Y017126D02*
X020467Y017126D01*
X020467Y017006D02*
X002556Y017006D01*
X002606Y016956D02*
X002606Y017416D01*
X002726Y017416D02*
X002726Y016476D01*
X002636Y016526D02*
X020467Y016526D01*
X020467Y016406D02*
X016388Y016406D01*
X016406Y016388D02*
X016406Y019370D01*
X016370Y019406D02*
X016043Y019406D01*
X016046Y019410D02*
X016046Y016476D01*
X015926Y016476D02*
X015926Y019290D01*
X015923Y019286D02*
X016490Y019286D01*
X016520Y019256D02*
X016256Y019520D01*
X016256Y019656D01*
X016656Y019656D01*
X016656Y019756D01*
X016256Y019756D01*
X016256Y019893D01*
X016520Y020156D01*
X016656Y020156D01*
X016656Y019757D01*
X016756Y019757D01*
X016756Y020156D01*
X016893Y020156D01*
X017156Y019893D01*
X017156Y019756D01*
X016757Y019756D01*
X016757Y019656D01*
X017156Y019656D01*
X017156Y019520D01*
X016893Y019256D01*
X016756Y019256D01*
X016756Y019656D01*
X016656Y019656D01*
X016656Y019256D01*
X016520Y019256D01*
X016526Y019256D02*
X016526Y016268D01*
X016508Y016286D02*
X020467Y016286D01*
X020467Y016166D02*
X016996Y016166D01*
X017006Y016156D02*
X017006Y019370D01*
X017043Y019406D02*
X020467Y019406D01*
X020467Y019286D02*
X016923Y019286D01*
X016886Y019256D02*
X016886Y016236D01*
X016766Y016236D02*
X016766Y019256D01*
X016756Y019286D02*
X016656Y019286D01*
X016646Y019256D02*
X016646Y016236D01*
X016286Y016466D02*
X016286Y019490D01*
X016256Y019526D02*
X016156Y019526D01*
X016156Y019520D02*
X016156Y019656D01*
X015757Y019656D01*
X015757Y019756D01*
X016156Y019756D01*
X016156Y019893D01*
X015893Y020156D01*
X015756Y020156D01*
X015756Y019757D01*
X015656Y019757D01*
X015656Y019756D02*
X015656Y019656D01*
X015256Y019656D01*
X015256Y019520D01*
X015520Y019256D01*
X015656Y019256D01*
X015656Y019656D01*
X015756Y019656D01*
X015756Y019256D01*
X015893Y019256D01*
X016156Y019520D01*
X016156Y019646D02*
X016256Y019646D01*
X016286Y019656D02*
X016286Y019756D01*
X016256Y019766D02*
X016156Y019766D01*
X016046Y019756D02*
X016046Y019656D01*
X015926Y019656D02*
X015926Y019756D01*
X015806Y019756D02*
X015806Y019656D01*
X015756Y019646D02*
X015656Y019646D01*
X015686Y019656D02*
X015686Y016476D01*
X015566Y016476D02*
X015566Y019256D01*
X015490Y019286D02*
X014996Y019286D01*
X014996Y019166D02*
X020467Y019166D01*
X020467Y019046D02*
X014996Y019046D01*
X014996Y018926D02*
X020467Y018926D01*
X020467Y018806D02*
X014996Y018806D01*
X014996Y018686D02*
X020467Y018686D01*
X020467Y018566D02*
X014996Y018566D01*
X014996Y018446D02*
X020467Y018446D01*
X020467Y018326D02*
X014996Y018326D01*
X014996Y018206D02*
X020467Y018206D01*
X020467Y018086D02*
X014996Y018086D01*
X014366Y017417D02*
X014366Y016476D01*
X014246Y016476D02*
X014246Y017416D01*
X014126Y017416D02*
X014126Y016476D01*
X014006Y016476D02*
X014006Y017416D01*
X013886Y017416D02*
X013886Y016476D01*
X013766Y016476D02*
X013766Y017416D01*
X013646Y017416D02*
X013646Y016476D01*
X013526Y016476D02*
X013526Y017416D01*
X013406Y017416D02*
X013406Y016476D01*
X013286Y016476D02*
X013286Y017416D01*
X013166Y017416D02*
X013166Y016476D01*
X013046Y016476D02*
X013046Y017416D01*
X012926Y017416D02*
X012926Y016476D01*
X012806Y016476D02*
X012806Y017416D01*
X012686Y017416D02*
X012686Y016476D01*
X012566Y016476D02*
X012566Y017416D01*
X012446Y017416D02*
X012446Y016476D01*
X012326Y016476D02*
X012326Y017416D01*
X012206Y017416D02*
X012206Y016476D01*
X012086Y016476D02*
X012086Y017416D01*
X011966Y017416D02*
X011966Y016476D01*
X011846Y016476D02*
X011846Y017416D01*
X011726Y017416D02*
X011726Y016476D01*
X011606Y016476D02*
X011606Y017416D01*
X011486Y017416D02*
X011486Y016476D01*
X011366Y016476D02*
X011366Y017416D01*
X011246Y017416D02*
X011246Y016476D01*
X011126Y016476D02*
X011126Y017416D01*
X011006Y017416D02*
X011006Y016476D01*
X010886Y016476D02*
X010886Y017416D01*
X010766Y017416D02*
X010766Y016476D01*
X010646Y016476D02*
X010646Y017416D01*
X010526Y017416D02*
X010526Y016476D01*
X010406Y016476D02*
X010406Y017416D01*
X010286Y017416D02*
X010286Y016476D01*
X010166Y016476D02*
X010166Y017416D01*
X010046Y017416D02*
X010046Y016476D01*
X009926Y016476D02*
X009926Y017416D01*
X009806Y017416D02*
X009806Y016476D01*
X009686Y016476D02*
X009686Y017416D01*
X009566Y017416D02*
X009566Y016476D01*
X009446Y016476D02*
X009446Y017416D01*
X009326Y017416D02*
X009326Y016476D01*
X009206Y016476D02*
X009206Y017416D01*
X009086Y017416D02*
X009086Y016476D01*
X008966Y016476D02*
X008966Y017416D01*
X008846Y017416D02*
X008846Y016476D01*
X008726Y016476D02*
X008726Y017416D01*
X008606Y017416D02*
X008606Y016476D01*
X008486Y016476D02*
X008486Y017416D01*
X008366Y017416D02*
X008366Y016476D01*
X008246Y016476D02*
X008246Y017416D01*
X008126Y017416D02*
X008126Y016476D01*
X008006Y016476D02*
X008006Y017416D01*
X007886Y017416D02*
X007886Y016476D01*
X007766Y016476D02*
X007766Y017416D01*
X007646Y017416D02*
X007646Y016476D01*
X007526Y016476D02*
X007526Y017416D01*
X007406Y017416D02*
X007406Y016476D01*
X007286Y016476D02*
X007286Y017416D01*
X007166Y017416D02*
X007166Y016476D01*
X007046Y016476D02*
X007046Y017416D01*
X006926Y017416D02*
X006926Y016476D01*
X006806Y016476D02*
X006806Y017416D01*
X006686Y017416D02*
X006686Y016476D01*
X006566Y016476D02*
X006566Y017416D01*
X006446Y017416D02*
X006446Y016476D01*
X006326Y016476D02*
X006326Y017416D01*
X006206Y017416D02*
X006206Y016476D01*
X006086Y016476D02*
X006086Y017416D01*
X005966Y017416D02*
X005966Y016476D01*
X005846Y016476D02*
X005846Y017416D01*
X005726Y017416D02*
X005726Y016476D01*
X005606Y016476D02*
X005606Y017416D01*
X005486Y017416D02*
X005486Y016476D01*
X005366Y016476D02*
X005366Y017416D01*
X005246Y017416D02*
X005246Y016476D01*
X005126Y016476D02*
X005126Y017416D01*
X005006Y017416D02*
X005006Y016476D01*
X004886Y016476D02*
X004886Y017416D01*
X004766Y017416D02*
X004766Y016476D01*
X004646Y016476D02*
X004646Y017416D01*
X004526Y017416D02*
X004526Y016476D01*
X004406Y016476D02*
X004406Y017416D01*
X004286Y017416D02*
X004286Y016476D01*
X004166Y016476D02*
X004166Y017416D01*
X004046Y017416D02*
X004046Y016476D01*
X003926Y016476D02*
X003926Y017416D01*
X003806Y017416D02*
X003806Y016476D01*
X003686Y016476D02*
X003686Y017416D01*
X003566Y017416D02*
X003566Y016476D01*
X003446Y016476D02*
X003446Y017416D01*
X003326Y017416D02*
X003326Y016476D01*
X003206Y016476D02*
X003206Y017416D01*
X003086Y017416D02*
X003086Y016476D01*
X002966Y016476D02*
X002966Y017416D01*
X002846Y017416D02*
X002846Y016476D01*
X002636Y016646D02*
X020467Y016646D01*
X020467Y016766D02*
X002636Y016766D01*
X002636Y016886D02*
X020467Y016886D01*
X020467Y017246D02*
X002396Y017246D01*
X002366Y017217D02*
X002366Y017196D01*
X001857Y017206D02*
X001606Y016956D01*
X001356Y017206D01*
X001606Y017457D01*
X001857Y017206D01*
X001817Y017246D02*
X001396Y017246D01*
X001406Y017257D02*
X001406Y017156D01*
X001436Y017126D02*
X001777Y017126D01*
X001766Y017116D02*
X001766Y017297D01*
X001697Y017366D02*
X001516Y017366D01*
X001526Y017377D02*
X001526Y017036D01*
X001556Y017006D02*
X001657Y017006D01*
X001646Y016996D02*
X001646Y017417D01*
X000857Y017206D02*
X000576Y016926D01*
X000576Y016487D01*
X000857Y016206D01*
X000576Y015926D01*
X000576Y015487D01*
X000857Y015206D01*
X000416Y015206D01*
X000416Y015086D02*
X000737Y015086D01*
X000686Y015036D02*
X000686Y015377D01*
X000737Y015326D02*
X000416Y015326D01*
X000416Y015446D02*
X000617Y015446D01*
X000576Y015566D02*
X000416Y015566D01*
X000416Y015686D02*
X000576Y015686D01*
X000576Y015806D02*
X000416Y015806D01*
X000416Y015926D02*
X000577Y015926D01*
X000686Y016036D02*
X000686Y016377D01*
X000657Y016406D02*
X000416Y016406D01*
X000416Y016286D02*
X000777Y016286D01*
X000806Y016257D02*
X000806Y016156D01*
X000817Y016166D02*
X000416Y016166D01*
X000416Y016046D02*
X000697Y016046D01*
X000576Y016526D02*
X000416Y016526D01*
X000416Y016646D02*
X000576Y016646D01*
X000576Y016766D02*
X000416Y016766D01*
X000416Y016886D02*
X000576Y016886D01*
X000657Y017006D02*
X000416Y017006D01*
X000416Y017126D02*
X000777Y017126D01*
X000806Y017156D02*
X000806Y017257D01*
X000817Y017246D02*
X000416Y017246D01*
X000416Y017366D02*
X000697Y017366D01*
X000686Y017377D02*
X000686Y017036D01*
X000857Y017206D02*
X000576Y017487D01*
X000576Y017926D01*
X000857Y018206D01*
X000416Y018206D01*
X000416Y018086D02*
X000737Y018086D01*
X000686Y018036D02*
X000686Y018377D01*
X000737Y018326D02*
X000416Y018326D01*
X000416Y018446D02*
X000617Y018446D01*
X000576Y018487D02*
X000857Y018206D01*
X000806Y018156D02*
X000806Y018257D01*
X000576Y018487D02*
X000576Y018926D01*
X000857Y019206D01*
X000576Y019487D01*
X000576Y019926D01*
X000857Y020206D01*
X000576Y020487D01*
X000576Y020926D01*
X000887Y021236D01*
X001226Y021236D01*
X001361Y021371D01*
X001442Y021452D01*
X001549Y021496D01*
X012186Y021496D01*
X012316Y021627D01*
X012316Y021980D01*
X012093Y021756D01*
X011956Y021756D01*
X011956Y022156D01*
X011856Y022156D01*
X011856Y021756D01*
X011720Y021756D01*
X011456Y022020D01*
X011456Y022156D01*
X011856Y022156D01*
X011856Y022256D01*
X011456Y022256D01*
X011456Y022393D01*
X011720Y022656D01*
X011856Y022656D01*
X011856Y022257D01*
X011956Y022257D01*
X011956Y022656D01*
X012093Y022656D01*
X012316Y022433D01*
X012316Y022980D01*
X012093Y022756D01*
X011956Y022756D01*
X011956Y023156D01*
X011856Y023156D01*
X011856Y022756D01*
X011720Y022756D01*
X011456Y023020D01*
X011456Y023156D01*
X011856Y023156D01*
X011856Y023256D01*
X011456Y023256D01*
X011456Y023393D01*
X011720Y023656D01*
X011856Y023656D01*
X011856Y023257D01*
X011956Y023257D01*
X011956Y023656D01*
X012093Y023656D01*
X012316Y023433D01*
X012316Y024964D01*
X012361Y025071D01*
X012661Y025371D01*
X012742Y025452D01*
X012849Y025496D01*
X016264Y025496D01*
X016371Y025452D01*
X016587Y025236D01*
X016926Y025236D01*
X017236Y024926D01*
X017236Y024487D01*
X016956Y024206D01*
X020467Y024206D01*
X020467Y024086D02*
X017076Y024086D01*
X017126Y024036D02*
X017126Y024377D01*
X017076Y024326D02*
X020467Y024326D01*
X020467Y024446D02*
X017196Y024446D01*
X017236Y024566D02*
X020467Y024566D01*
X020467Y024686D02*
X017236Y024686D01*
X017236Y024806D02*
X020467Y024806D01*
X020467Y024926D02*
X017236Y024926D01*
X017126Y025036D02*
X017126Y026993D01*
X017006Y026993D02*
X017006Y025156D01*
X016996Y025166D02*
X020467Y025166D01*
X020467Y025046D02*
X017116Y025046D01*
X016886Y025236D02*
X016886Y026993D01*
X016766Y026993D02*
X016766Y025236D01*
X016646Y025236D02*
X016646Y026993D01*
X016526Y026993D02*
X016526Y025297D01*
X016537Y025286D02*
X020467Y025286D01*
X020467Y025406D02*
X016417Y025406D01*
X016406Y025417D02*
X016406Y026993D01*
X016286Y026993D02*
X016286Y025487D01*
X016166Y025496D02*
X016166Y026993D01*
X016046Y026993D02*
X016046Y025496D01*
X015926Y025496D02*
X015926Y026993D01*
X015806Y026993D02*
X015806Y025496D01*
X015686Y025496D02*
X015686Y026993D01*
X015566Y026993D02*
X015566Y025496D01*
X015446Y025496D02*
X015446Y026993D01*
X015326Y026993D02*
X015326Y025496D01*
X015206Y025496D02*
X015206Y026993D01*
X015086Y026993D02*
X015086Y025496D01*
X014966Y025496D02*
X014966Y026993D01*
X014846Y026993D02*
X014846Y025496D01*
X014726Y025496D02*
X014726Y026993D01*
X014606Y026993D02*
X014606Y025496D01*
X014486Y025496D02*
X014486Y026993D01*
X014366Y026993D02*
X014366Y025496D01*
X014246Y025496D02*
X014246Y026993D01*
X014126Y026993D02*
X014126Y025496D01*
X014006Y025496D02*
X014006Y026993D01*
X013886Y026993D02*
X013886Y025496D01*
X013766Y025496D02*
X013766Y026993D01*
X013646Y026993D02*
X013646Y025496D01*
X013526Y025496D02*
X013526Y026993D01*
X013406Y026993D02*
X013406Y025496D01*
X013286Y025496D02*
X013286Y026993D01*
X013166Y026993D02*
X013166Y025496D01*
X013046Y025496D02*
X013046Y026993D01*
X012926Y026993D02*
X012926Y025496D01*
X012806Y025479D02*
X012806Y026993D01*
X012686Y026993D02*
X012686Y025397D01*
X012696Y025406D02*
X000416Y025406D01*
X000416Y025286D02*
X012576Y025286D01*
X012566Y025277D02*
X012566Y026993D01*
X012446Y026993D02*
X012446Y025157D01*
X012456Y025166D02*
X000416Y025166D01*
X000416Y025046D02*
X012351Y025046D01*
X012326Y024988D02*
X012326Y026993D01*
X012206Y026993D02*
X012206Y023543D01*
X012263Y023486D02*
X012316Y023486D01*
X012316Y023606D02*
X012143Y023606D01*
X012086Y023656D02*
X012086Y026993D01*
X011966Y026993D02*
X011966Y023656D01*
X011956Y023606D02*
X011856Y023606D01*
X011846Y023656D02*
X011846Y026993D01*
X011726Y026993D02*
X011726Y023656D01*
X011670Y023606D02*
X011256Y023606D01*
X011246Y023616D02*
X011246Y026993D01*
X011126Y026993D02*
X011126Y023736D01*
X010687Y023736D01*
X010406Y023456D01*
X010406Y026993D01*
X010286Y026993D02*
X010286Y023576D01*
X010256Y023606D02*
X010557Y023606D01*
X010526Y023576D02*
X010526Y026993D01*
X010646Y026993D02*
X010646Y023696D01*
X010677Y023726D02*
X010136Y023726D01*
X010126Y023736D02*
X009687Y023736D01*
X009406Y023456D01*
X009126Y023736D01*
X008687Y023736D01*
X008406Y023456D01*
X008126Y023736D01*
X007687Y023736D01*
X007406Y023456D01*
X007126Y023736D01*
X006687Y023736D01*
X006376Y023426D01*
X006376Y022987D01*
X006416Y022947D01*
X006416Y022653D01*
X006376Y022613D01*
X006376Y021800D01*
X006500Y021676D01*
X007313Y021676D01*
X007436Y021800D01*
X007436Y021927D01*
X007687Y021676D01*
X008126Y021676D01*
X008406Y021957D01*
X008687Y021676D01*
X009126Y021676D01*
X009406Y021957D01*
X009687Y021676D01*
X010126Y021676D01*
X010406Y021957D01*
X010687Y021676D01*
X011126Y021676D01*
X011436Y021987D01*
X011436Y022426D01*
X011396Y022466D01*
X011396Y022947D01*
X011436Y022987D01*
X011436Y023426D01*
X011126Y023736D01*
X011136Y023726D02*
X012316Y023726D01*
X012316Y023846D02*
X000416Y023846D01*
X000416Y023726D02*
X006677Y023726D01*
X006686Y023736D02*
X006686Y026993D01*
X006566Y026993D02*
X006566Y023616D01*
X006557Y023606D02*
X000416Y023606D01*
X000416Y023486D02*
X006437Y023486D01*
X006446Y023496D02*
X006446Y026993D01*
X006326Y026993D02*
X006326Y021496D01*
X006206Y021496D02*
X006206Y026993D01*
X006086Y026993D02*
X006086Y021496D01*
X005966Y021496D02*
X005966Y026993D01*
X005846Y026993D02*
X005846Y021496D01*
X005726Y021496D02*
X005726Y026993D01*
X005606Y026993D02*
X005606Y021496D01*
X005486Y021496D02*
X005486Y026993D01*
X005366Y026993D02*
X005366Y021496D01*
X005246Y021496D02*
X005246Y026993D01*
X005126Y026993D02*
X005126Y021496D01*
X005006Y021496D02*
X005006Y026993D01*
X004886Y026993D02*
X004886Y021496D01*
X004766Y021496D02*
X004766Y026993D01*
X004646Y026993D02*
X004646Y021496D01*
X004526Y021496D02*
X004526Y026993D01*
X004406Y026993D02*
X004406Y021496D01*
X004286Y021496D02*
X004286Y026993D01*
X004166Y026993D02*
X004166Y021496D01*
X004046Y021496D02*
X004046Y026993D01*
X003926Y026993D02*
X003926Y021496D01*
X003806Y021496D02*
X003806Y026993D01*
X003686Y026993D02*
X003686Y021496D01*
X003566Y021496D02*
X003566Y026993D01*
X003446Y026993D02*
X003446Y021496D01*
X003326Y021496D02*
X003326Y026993D01*
X003206Y026993D02*
X003206Y021496D01*
X003086Y021496D02*
X003086Y026993D01*
X002966Y026993D02*
X002966Y021496D01*
X002846Y021496D02*
X002846Y026993D01*
X002726Y026993D02*
X002726Y021496D01*
X002606Y021496D02*
X002606Y026993D01*
X002486Y026993D02*
X002486Y021496D01*
X002366Y021496D02*
X002366Y026993D01*
X002246Y026993D02*
X002246Y021496D01*
X002126Y021496D02*
X002126Y026993D01*
X002006Y026993D02*
X002006Y021496D01*
X001886Y021496D02*
X001886Y026993D01*
X001766Y026993D02*
X001766Y021496D01*
X001646Y021496D02*
X001646Y026993D01*
X001526Y026993D02*
X001526Y021487D01*
X001436Y021446D02*
X000416Y021446D01*
X000416Y021326D02*
X001316Y021326D01*
X001286Y021297D02*
X001286Y026993D01*
X001166Y026993D02*
X001166Y026916D01*
X001146Y026966D02*
X019667Y026966D01*
X019678Y026993D02*
X019601Y026807D01*
X019601Y026606D01*
X019678Y026420D01*
X019820Y026278D01*
X020006Y026201D01*
X020207Y026201D01*
X020393Y026278D01*
X020467Y026352D01*
X020467Y001146D01*
X020307Y001212D01*
X020106Y001212D01*
X019920Y001135D01*
X019778Y000993D01*
X019701Y000807D01*
X019701Y000606D01*
X019778Y000420D01*
X019782Y000416D01*
X001131Y000416D01*
X001135Y000420D01*
X001212Y000606D01*
X001212Y000807D01*
X001135Y000993D01*
X000993Y001135D01*
X000892Y001176D01*
X001326Y001176D01*
X001606Y001457D01*
X001887Y001176D01*
X002326Y001176D01*
X002636Y001487D01*
X002636Y001926D01*
X002356Y002206D01*
X002366Y002216D01*
X002976Y002216D01*
X002978Y002215D01*
X003191Y002126D01*
X002436Y002126D01*
X002486Y002076D02*
X002486Y002216D01*
X002366Y002216D02*
X002366Y002196D01*
X002606Y002216D02*
X002606Y001956D01*
X002556Y002006D02*
X015370Y002006D01*
X015326Y001963D02*
X015326Y002337D01*
X015297Y002366D02*
X005787Y002366D01*
X005798Y002378D02*
X005886Y002591D01*
X005886Y002822D01*
X005798Y003035D01*
X005796Y003037D01*
X005796Y003904D01*
X005722Y004084D01*
X005584Y004222D01*
X005404Y004296D01*
X004935Y004296D01*
X005049Y004344D01*
X005169Y004464D01*
X005235Y004621D01*
X005235Y004792D01*
X005183Y004916D01*
X005291Y004916D01*
X005364Y004844D01*
X005521Y004778D01*
X005692Y004778D01*
X005849Y004844D01*
X005963Y004957D01*
X005971Y004961D01*
X006052Y005042D01*
X006096Y005149D01*
X006096Y005264D01*
X006052Y005371D01*
X005971Y005452D01*
X005963Y005456D01*
X005849Y005569D01*
X005692Y005635D01*
X005521Y005635D01*
X005364Y005569D01*
X005291Y005496D01*
X004583Y005496D01*
X004635Y005621D01*
X004635Y005792D01*
X004583Y005916D01*
X006591Y005916D01*
X006664Y005844D01*
X006821Y005778D01*
X006992Y005778D01*
X007149Y005844D01*
X007222Y005916D01*
X011186Y005916D01*
X011433Y005670D01*
X011376Y005613D01*
X011376Y005486D01*
X011376Y005486D01*
X011126Y005736D01*
X010687Y005736D01*
X010406Y005456D01*
X010406Y005916D01*
X010286Y005916D02*
X010286Y005576D01*
X010256Y005606D02*
X010557Y005606D01*
X010526Y005576D02*
X010526Y005916D01*
X010646Y005916D02*
X010646Y005696D01*
X010677Y005726D02*
X010136Y005726D01*
X010126Y005736D02*
X009687Y005736D01*
X009406Y005456D01*
X009126Y005736D01*
X008687Y005736D01*
X008406Y005456D01*
X008126Y005736D01*
X007687Y005736D01*
X007376Y005426D01*
X007376Y004987D01*
X007416Y004947D01*
X007416Y004466D01*
X007376Y004426D01*
X007376Y003987D01*
X007687Y003676D01*
X008126Y003676D01*
X008406Y003957D01*
X008687Y003676D01*
X009126Y003676D01*
X009406Y003957D01*
X009687Y003676D01*
X010126Y003676D01*
X010406Y003957D01*
X010406Y000416D01*
X010286Y000416D02*
X010286Y003837D01*
X010256Y003806D02*
X010557Y003806D01*
X010526Y003837D02*
X010526Y000416D01*
X010646Y000416D02*
X010646Y003717D01*
X010677Y003686D02*
X010136Y003686D01*
X010166Y003717D02*
X010166Y000416D01*
X010046Y000416D02*
X010046Y003676D01*
X009926Y003676D02*
X009926Y000416D01*
X009806Y000416D02*
X009806Y003676D01*
X009686Y003677D02*
X009686Y000416D01*
X009566Y000416D02*
X009566Y003797D01*
X009557Y003806D02*
X009256Y003806D01*
X009206Y003757D02*
X009206Y000416D01*
X009086Y000416D02*
X009086Y003676D01*
X009136Y003686D02*
X009677Y003686D01*
X009446Y003917D02*
X009446Y000416D01*
X009326Y000416D02*
X009326Y003877D01*
X009376Y003926D02*
X009437Y003926D01*
X009406Y004456D02*
X009396Y004466D01*
X009396Y004947D01*
X009406Y004957D01*
X009416Y004947D01*
X009416Y004466D01*
X009406Y004456D01*
X009396Y004526D02*
X009416Y004526D01*
X009416Y004646D02*
X009396Y004646D01*
X009396Y004766D02*
X009416Y004766D01*
X009416Y004886D02*
X009396Y004886D01*
X009376Y005486D02*
X009437Y005486D01*
X009446Y005496D02*
X009446Y005916D01*
X009326Y005916D02*
X009326Y005536D01*
X009256Y005606D02*
X009557Y005606D01*
X009566Y005616D02*
X009566Y005916D01*
X009686Y005916D02*
X009686Y005736D01*
X009677Y005726D02*
X009136Y005726D01*
X009086Y005736D02*
X009086Y005916D01*
X008966Y005916D02*
X008966Y005736D01*
X008846Y005736D02*
X008846Y005916D01*
X008726Y005916D02*
X008726Y005736D01*
X008677Y005726D02*
X008136Y005726D01*
X008126Y005736D02*
X008126Y005916D01*
X008006Y005916D02*
X008006Y005736D01*
X007886Y005736D02*
X007886Y005916D01*
X007766Y005916D02*
X007766Y005736D01*
X007677Y005726D02*
X004635Y005726D01*
X004628Y005606D02*
X005453Y005606D01*
X005486Y005620D02*
X005486Y005916D01*
X005366Y005916D02*
X005366Y005570D01*
X005246Y005496D02*
X005246Y005916D01*
X005126Y005916D02*
X005126Y005496D01*
X005006Y005496D02*
X005006Y005916D01*
X004886Y005916D02*
X004886Y005496D01*
X004766Y005496D02*
X004766Y005916D01*
X004646Y005916D02*
X004646Y005496D01*
X004612Y005846D02*
X006661Y005846D01*
X006686Y005834D02*
X006686Y005623D01*
X006670Y005606D02*
X005760Y005606D01*
X005726Y005620D02*
X005726Y005916D01*
X005606Y005916D02*
X005606Y005635D01*
X005846Y005570D02*
X005846Y005916D01*
X005966Y005916D02*
X005966Y005454D01*
X005932Y005486D02*
X006550Y005486D01*
X006566Y005503D02*
X006566Y005916D01*
X006446Y005916D02*
X006446Y000416D01*
X006326Y000416D02*
X006326Y005916D01*
X006206Y005916D02*
X006206Y000416D01*
X006086Y000416D02*
X006086Y005125D01*
X006087Y005126D02*
X006456Y005126D01*
X006456Y005156D02*
X006456Y005020D01*
X006720Y004756D01*
X006856Y004756D01*
X006856Y005156D01*
X006956Y005156D01*
X006956Y004756D01*
X007093Y004756D01*
X007356Y005020D01*
X007356Y005156D01*
X006957Y005156D01*
X006957Y005256D01*
X007356Y005256D01*
X007356Y005393D01*
X007093Y005656D01*
X006956Y005656D01*
X006956Y005257D01*
X006856Y005257D01*
X006856Y005256D02*
X006856Y005156D01*
X006456Y005156D01*
X006456Y005256D02*
X006856Y005256D01*
X006856Y005257D02*
X006856Y005656D01*
X006720Y005656D01*
X006456Y005393D01*
X006456Y005256D01*
X006456Y005366D02*
X006054Y005366D01*
X006086Y005288D02*
X006086Y005916D01*
X006096Y005246D02*
X006856Y005246D01*
X006806Y005256D02*
X006806Y005156D01*
X006856Y005126D02*
X006956Y005126D01*
X006926Y005156D02*
X006926Y004257D01*
X006956Y004257D02*
X006856Y004257D01*
X006856Y004256D02*
X006856Y004156D01*
X006956Y004156D01*
X006956Y003756D01*
X007093Y003756D01*
X007356Y004020D01*
X007356Y004156D01*
X006957Y004156D01*
X006957Y004256D01*
X007356Y004256D01*
X007356Y004393D01*
X007093Y004656D01*
X006956Y004656D01*
X006956Y004257D01*
X006956Y004286D02*
X006856Y004286D01*
X006856Y004257D02*
X006856Y004656D01*
X006720Y004656D01*
X006456Y004393D01*
X006456Y004256D01*
X006856Y004256D01*
X006806Y004256D02*
X006806Y004156D01*
X006856Y004156D02*
X006456Y004156D01*
X006456Y004020D01*
X006720Y003756D01*
X006856Y003756D01*
X006856Y004156D01*
X006856Y004166D02*
X005639Y004166D01*
X005606Y004199D02*
X005606Y004778D01*
X005486Y004793D02*
X005486Y004262D01*
X005428Y004286D02*
X006456Y004286D01*
X006566Y004256D02*
X006566Y004156D01*
X006686Y004156D02*
X006686Y004256D01*
X006856Y004406D02*
X006956Y004406D01*
X006956Y004526D02*
X006856Y004526D01*
X006856Y004646D02*
X006956Y004646D01*
X007046Y004656D02*
X007046Y004756D01*
X007103Y004766D02*
X007416Y004766D01*
X007416Y004646D02*
X007103Y004646D01*
X007166Y004583D02*
X007166Y004830D01*
X007223Y004886D02*
X007416Y004886D01*
X007406Y004957D02*
X007406Y004456D01*
X007376Y004406D02*
X007343Y004406D01*
X007286Y004463D02*
X007286Y004950D01*
X007343Y005006D02*
X007376Y005006D01*
X007376Y005126D02*
X007356Y005126D01*
X007286Y005156D02*
X007286Y005256D01*
X007376Y005246D02*
X006957Y005246D01*
X006926Y005257D02*
X006926Y005778D01*
X006806Y005785D02*
X006806Y005656D01*
X006856Y005606D02*
X006956Y005606D01*
X007046Y005656D02*
X007046Y005801D01*
X007152Y005846D02*
X011256Y005846D01*
X011246Y005856D02*
X011246Y005616D01*
X011256Y005606D02*
X011376Y005606D01*
X011366Y005496D02*
X011366Y005736D01*
X011376Y005726D02*
X011136Y005726D01*
X011126Y005736D02*
X011126Y005916D01*
X011006Y005916D02*
X011006Y005736D01*
X010886Y005736D02*
X010886Y005916D01*
X010766Y005916D02*
X010766Y005736D01*
X010437Y005486D02*
X010376Y005486D01*
X010406Y005456D02*
X010126Y005736D01*
X010166Y005696D02*
X010166Y005916D01*
X010046Y005916D02*
X010046Y005736D01*
X009926Y005736D02*
X009926Y005916D01*
X009806Y005916D02*
X009806Y005736D01*
X009206Y005656D02*
X009206Y005916D01*
X009783Y006496D02*
X009835Y006621D01*
X009835Y006778D01*
X009992Y006778D01*
X010149Y006844D01*
X010269Y006964D01*
X010335Y007121D01*
X010335Y007292D01*
X010283Y007416D01*
X012086Y007416D01*
X012086Y005837D01*
X012077Y005846D02*
X012316Y005846D01*
X012313Y005736D02*
X012167Y005736D01*
X012152Y005771D01*
X011471Y006452D01*
X011364Y006496D01*
X009783Y006496D01*
X009806Y006496D02*
X009806Y006553D01*
X009812Y006566D02*
X012316Y006566D01*
X012316Y006446D02*
X011477Y006446D01*
X011486Y006437D02*
X011486Y007416D01*
X011366Y007416D02*
X011366Y006496D01*
X011246Y006496D02*
X011246Y007416D01*
X011126Y007416D02*
X011126Y006496D01*
X011006Y006496D02*
X011006Y007416D01*
X010886Y007416D02*
X010886Y006496D01*
X010766Y006496D02*
X010766Y007416D01*
X010646Y007416D02*
X010646Y006496D01*
X010526Y006496D02*
X010526Y007416D01*
X010406Y007416D02*
X010406Y006496D01*
X010286Y006496D02*
X010286Y007005D01*
X010304Y007046D02*
X012316Y007046D01*
X012316Y006926D02*
X010232Y006926D01*
X010166Y006861D02*
X010166Y006496D01*
X010046Y006496D02*
X010046Y006801D01*
X010060Y006806D02*
X012316Y006806D01*
X012316Y006686D02*
X009835Y006686D01*
X009926Y006778D02*
X009926Y006496D01*
X010335Y007166D02*
X012316Y007166D01*
X012316Y007186D02*
X012316Y005733D01*
X012313Y005736D01*
X012206Y005736D02*
X012206Y007296D01*
X012216Y007286D02*
X010335Y007286D01*
X010287Y007406D02*
X012096Y007406D01*
X012086Y007416D02*
X012316Y007186D01*
X011966Y007416D02*
X011966Y005957D01*
X011957Y005966D02*
X012316Y005966D01*
X012316Y006086D02*
X011837Y006086D01*
X011846Y006077D02*
X011846Y007416D01*
X011726Y007416D02*
X011726Y006197D01*
X011717Y006206D02*
X012316Y006206D01*
X012316Y006326D02*
X011597Y006326D01*
X011606Y006317D02*
X011606Y007416D01*
X010286Y007408D02*
X010286Y007416D01*
X008606Y005916D02*
X008606Y005656D01*
X008557Y005606D02*
X008256Y005606D01*
X008246Y005616D02*
X008246Y005916D01*
X008366Y005916D02*
X008366Y005496D01*
X008376Y005486D02*
X008437Y005486D01*
X008486Y005536D02*
X008486Y005916D01*
X008406Y004957D02*
X008396Y004947D01*
X008396Y004466D01*
X008406Y004456D01*
X008416Y004466D01*
X008416Y004947D01*
X008406Y004957D01*
X008396Y004886D02*
X008416Y004886D01*
X008416Y004766D02*
X008396Y004766D01*
X008396Y004646D02*
X008416Y004646D01*
X008416Y004526D02*
X008396Y004526D01*
X008376Y003926D02*
X008437Y003926D01*
X008486Y003877D02*
X008486Y000416D01*
X008366Y000416D02*
X008366Y003917D01*
X008256Y003806D02*
X008557Y003806D01*
X008606Y003757D02*
X008606Y000416D01*
X008726Y000416D02*
X008726Y003676D01*
X008677Y003686D02*
X008136Y003686D01*
X008126Y003677D02*
X008126Y000416D01*
X008006Y000416D02*
X008006Y003676D01*
X007886Y003676D02*
X007886Y000416D01*
X007766Y000416D02*
X007766Y003676D01*
X007677Y003686D02*
X005796Y003686D01*
X005796Y003566D02*
X012736Y003566D01*
X012686Y003616D02*
X012686Y000416D01*
X012566Y000416D02*
X012566Y003736D01*
X012616Y003686D02*
X012136Y003686D01*
X012126Y003676D02*
X012376Y003927D01*
X012442Y003861D01*
X012842Y003461D01*
X012949Y003416D01*
X015247Y003416D01*
X015457Y003206D01*
X005796Y003206D01*
X005796Y003086D02*
X015337Y003086D01*
X015326Y003076D02*
X015326Y003337D01*
X015337Y003326D02*
X005796Y003326D01*
X005796Y003446D02*
X012876Y003446D01*
X012926Y003426D02*
X012926Y000416D01*
X012806Y000416D02*
X012806Y003496D01*
X013046Y003416D02*
X013046Y000416D01*
X013166Y000416D02*
X013166Y003416D01*
X013286Y003416D02*
X013286Y000416D01*
X013406Y000416D02*
X013406Y003416D01*
X013526Y003416D02*
X013526Y000416D01*
X013646Y000416D02*
X013646Y003416D01*
X013766Y003416D02*
X013766Y000416D01*
X013886Y000416D02*
X013886Y003416D01*
X014006Y003416D02*
X014006Y000416D01*
X014126Y000416D02*
X014126Y003416D01*
X014246Y003416D02*
X014246Y000416D01*
X014366Y000416D02*
X014366Y003416D01*
X014486Y003416D02*
X014486Y000416D01*
X014606Y000416D02*
X014606Y003416D01*
X014726Y003416D02*
X014726Y000416D01*
X014846Y000416D02*
X014846Y003416D01*
X014966Y003416D02*
X014966Y000416D01*
X015086Y000416D02*
X015086Y003416D01*
X015206Y003416D02*
X015206Y002956D01*
X015217Y002966D02*
X005827Y002966D01*
X005846Y002918D02*
X005846Y004843D01*
X005892Y004886D02*
X006590Y004886D01*
X006566Y004910D02*
X006566Y004503D01*
X006590Y004526D02*
X005195Y004526D01*
X005126Y004421D02*
X005126Y004296D01*
X005112Y004406D02*
X006470Y004406D01*
X006686Y004623D02*
X006686Y004790D01*
X006710Y004766D02*
X005235Y004766D01*
X005235Y004646D02*
X006710Y004646D01*
X006806Y004656D02*
X006806Y004756D01*
X006856Y004766D02*
X006956Y004766D01*
X006956Y004886D02*
X006856Y004886D01*
X006856Y005006D02*
X006956Y005006D01*
X007046Y005156D02*
X007046Y005256D01*
X007166Y005256D02*
X007166Y005156D01*
X007356Y005366D02*
X007376Y005366D01*
X007406Y005456D02*
X007406Y005916D01*
X007286Y005916D02*
X007286Y005463D01*
X007263Y005486D02*
X007437Y005486D01*
X007526Y005576D02*
X007526Y005916D01*
X007646Y005916D02*
X007646Y005696D01*
X007557Y005606D02*
X007143Y005606D01*
X007166Y005583D02*
X007166Y005861D01*
X006956Y005486D02*
X006856Y005486D01*
X006856Y005366D02*
X006956Y005366D01*
X006686Y005256D02*
X006686Y005156D01*
X006566Y005156D02*
X006566Y005256D01*
X006470Y005006D02*
X006017Y005006D01*
X005966Y004959D02*
X005966Y000416D01*
X005846Y000416D02*
X005846Y002495D01*
X005843Y002486D02*
X015177Y002486D01*
X015176Y002487D02*
X015487Y002176D01*
X015926Y002176D01*
X016206Y002457D01*
X016487Y002176D01*
X016926Y002176D01*
X017236Y002487D01*
X017236Y002926D01*
X016956Y003206D01*
X020467Y003206D01*
X020467Y003086D02*
X017076Y003086D01*
X017126Y003036D02*
X017126Y003377D01*
X017076Y003326D02*
X020467Y003326D01*
X020467Y003446D02*
X017196Y003446D01*
X017236Y003487D02*
X017236Y003926D01*
X016956Y004206D01*
X017236Y004487D01*
X017236Y004926D01*
X016956Y005206D01*
X017236Y005487D01*
X017236Y005926D01*
X016956Y006206D01*
X020467Y006206D01*
X020467Y006086D02*
X017076Y006086D01*
X017126Y006036D02*
X017126Y006377D01*
X017076Y006326D02*
X020467Y006326D01*
X020467Y006446D02*
X017196Y006446D01*
X017236Y006487D02*
X017236Y006926D01*
X016926Y007236D01*
X016587Y007236D01*
X016452Y007371D01*
X016371Y007452D01*
X016264Y007496D01*
X014996Y007496D01*
X014996Y010964D01*
X014952Y011071D01*
X014871Y011152D01*
X014571Y011452D01*
X014464Y011496D01*
X011283Y011496D01*
X011366Y011496D02*
X011366Y012436D01*
X011246Y012436D02*
X011246Y011972D01*
X011252Y011966D02*
X015217Y011966D01*
X015206Y011956D02*
X015206Y012436D01*
X015227Y012436D02*
X015457Y012206D01*
X015446Y012196D02*
X015446Y012217D01*
X015337Y012326D02*
X002476Y012326D01*
X002486Y012337D02*
X002486Y012076D01*
X002476Y012086D02*
X004005Y012086D01*
X004046Y012104D02*
X004046Y012436D01*
X003926Y012436D02*
X003926Y012032D01*
X003861Y011966D02*
X002596Y011966D01*
X002606Y011956D02*
X002606Y012436D01*
X002586Y012436D02*
X015227Y012436D01*
X015326Y012337D02*
X015326Y012076D01*
X015337Y012086D02*
X011108Y012086D01*
X011126Y012079D02*
X011126Y012436D01*
X011006Y012436D02*
X011006Y012128D01*
X010886Y012135D02*
X010886Y012436D01*
X010766Y012436D02*
X010766Y012112D01*
X010705Y012086D02*
X008108Y012086D01*
X008126Y012079D02*
X008126Y012436D01*
X008006Y012436D02*
X008006Y012128D01*
X007886Y012135D02*
X007886Y012436D01*
X007766Y012436D02*
X007766Y012112D01*
X007705Y012086D02*
X004408Y012086D01*
X004406Y012087D02*
X004406Y012436D01*
X004286Y012436D02*
X004286Y012135D01*
X004166Y012135D02*
X004166Y012436D01*
X003806Y012436D02*
X003806Y011860D01*
X003801Y011846D02*
X002636Y011846D01*
X002636Y011726D02*
X003778Y011726D01*
X003785Y011606D02*
X002636Y011606D01*
X002726Y011496D02*
X002726Y012436D01*
X002846Y012436D02*
X002846Y011496D01*
X002966Y011496D02*
X002966Y012436D01*
X003086Y012436D02*
X003086Y011496D01*
X003206Y011496D02*
X003206Y012436D01*
X003326Y012436D02*
X003326Y011496D01*
X003446Y011496D02*
X003446Y012436D01*
X003566Y012436D02*
X003566Y011496D01*
X003686Y011496D02*
X003686Y012436D01*
X003806Y011553D02*
X003806Y011496D01*
X004526Y011996D02*
X004526Y012436D01*
X004646Y012436D02*
X004646Y011996D01*
X004766Y011996D02*
X004766Y012436D01*
X004886Y012436D02*
X004886Y011996D01*
X005006Y011996D02*
X005006Y012436D01*
X005126Y012436D02*
X005126Y011996D01*
X005246Y011996D02*
X005246Y012436D01*
X005366Y012436D02*
X005366Y011996D01*
X005486Y011996D02*
X005486Y012436D01*
X005606Y012436D02*
X005606Y011996D01*
X005726Y011996D02*
X005726Y012436D01*
X005846Y012436D02*
X005846Y011996D01*
X005966Y011996D02*
X005966Y012436D01*
X006086Y012436D02*
X006086Y011996D01*
X006206Y011996D02*
X006206Y012436D01*
X006326Y012436D02*
X006326Y011996D01*
X006446Y011996D02*
X006446Y012436D01*
X006566Y012436D02*
X006566Y011996D01*
X006686Y011996D02*
X006686Y012436D01*
X006806Y012436D02*
X006806Y011996D01*
X006926Y011996D02*
X006926Y012436D01*
X007046Y012436D02*
X007046Y011996D01*
X007166Y011996D02*
X007166Y012436D01*
X007286Y012436D02*
X007286Y011996D01*
X007406Y011996D02*
X007406Y012436D01*
X007526Y012436D02*
X007526Y011996D01*
X007646Y012052D02*
X007646Y012436D01*
X008246Y012436D02*
X008246Y011996D01*
X008366Y011996D02*
X008366Y012436D01*
X008486Y012436D02*
X008486Y011996D01*
X008606Y011996D02*
X008606Y012436D01*
X008726Y012436D02*
X008726Y011996D01*
X008846Y011996D02*
X008846Y012436D01*
X008966Y012436D02*
X008966Y011996D01*
X009086Y011996D02*
X009086Y012436D01*
X009206Y012436D02*
X009206Y011996D01*
X009326Y011996D02*
X009326Y012436D01*
X009446Y012436D02*
X009446Y011996D01*
X009566Y011996D02*
X009566Y012436D01*
X009686Y012436D02*
X009686Y011996D01*
X009806Y011996D02*
X009806Y012436D01*
X009926Y012436D02*
X009926Y011996D01*
X010046Y011996D02*
X010046Y012436D01*
X010166Y012436D02*
X010166Y011996D01*
X010286Y011996D02*
X010286Y012436D01*
X010406Y012436D02*
X010406Y011996D01*
X010526Y011996D02*
X010526Y012436D01*
X010646Y012436D02*
X010646Y012052D01*
X011312Y011846D02*
X015176Y011846D01*
X015176Y011726D02*
X011335Y011726D01*
X011328Y011606D02*
X015176Y011606D01*
X015177Y011486D02*
X014488Y011486D01*
X014486Y011487D02*
X014486Y012436D01*
X014366Y012436D02*
X014366Y011496D01*
X014246Y011496D02*
X014246Y012436D01*
X014126Y012436D02*
X014126Y011496D01*
X014006Y011496D02*
X014006Y012436D01*
X013886Y012436D02*
X013886Y011496D01*
X013766Y011496D02*
X013766Y012436D01*
X013646Y012436D02*
X013646Y011496D01*
X013526Y011496D02*
X013526Y012436D01*
X013406Y012436D02*
X013406Y011496D01*
X013286Y011496D02*
X013286Y012436D01*
X013166Y012436D02*
X013166Y011496D01*
X013046Y011496D02*
X013046Y012436D01*
X012926Y012436D02*
X012926Y011496D01*
X012806Y011496D02*
X012806Y012436D01*
X012686Y012436D02*
X012686Y011496D01*
X012566Y011496D02*
X012566Y012436D01*
X012446Y012436D02*
X012446Y011496D01*
X012326Y011496D02*
X012326Y012436D01*
X012206Y012436D02*
X012206Y011496D01*
X012086Y011496D02*
X012086Y012436D01*
X011966Y012436D02*
X011966Y011496D01*
X011846Y011496D02*
X011846Y012436D01*
X011726Y012436D02*
X011726Y011496D01*
X011606Y011496D02*
X011606Y012436D01*
X011486Y012436D02*
X011486Y011496D01*
X012907Y009416D02*
X012986Y009416D01*
X013516Y008886D01*
X013516Y008807D01*
X012907Y009416D01*
X012926Y009416D02*
X012926Y009397D01*
X012997Y009326D02*
X013076Y009326D01*
X013046Y009356D02*
X013046Y009277D01*
X013117Y009206D02*
X013196Y009206D01*
X013166Y009236D02*
X013166Y009157D01*
X013237Y009086D02*
X013316Y009086D01*
X013286Y009116D02*
X013286Y009037D01*
X013357Y008966D02*
X013436Y008966D01*
X013406Y008996D02*
X013406Y008917D01*
X013477Y008846D02*
X013516Y008846D01*
X013816Y009407D02*
X013307Y009916D01*
X013486Y009916D01*
X013816Y009586D01*
X013816Y009407D01*
X013816Y009446D02*
X013777Y009446D01*
X013766Y009457D02*
X013766Y009636D01*
X013716Y009686D02*
X013537Y009686D01*
X013526Y009697D02*
X013526Y009876D01*
X013596Y009806D02*
X013417Y009806D01*
X013406Y009817D02*
X013406Y009916D01*
X013646Y009756D02*
X013646Y009577D01*
X013657Y009566D02*
X013816Y009566D01*
X014416Y010607D02*
X014107Y010916D01*
X014286Y010916D01*
X014416Y010786D01*
X014416Y010607D01*
X014416Y010646D02*
X014377Y010646D01*
X014366Y010657D02*
X014366Y010836D01*
X014316Y010886D02*
X014137Y010886D01*
X014126Y010897D02*
X014126Y010916D01*
X014246Y010916D02*
X014246Y010777D01*
X014257Y010766D02*
X014416Y010766D01*
X014846Y011177D02*
X014846Y012436D01*
X014726Y012436D02*
X014726Y011297D01*
X014777Y011246D02*
X015417Y011246D01*
X015446Y011217D02*
X015446Y011083D01*
X015490Y011126D02*
X014897Y011126D01*
X014966Y011037D02*
X014966Y012436D01*
X015086Y012436D02*
X015086Y007496D01*
X014996Y007526D02*
X020467Y007526D01*
X020467Y007406D02*
X016417Y007406D01*
X016406Y007417D02*
X016406Y010370D01*
X016370Y010406D02*
X016043Y010406D01*
X016046Y010410D02*
X016046Y007496D01*
X015926Y007496D02*
X015926Y010290D01*
X015923Y010286D02*
X016490Y010286D01*
X016520Y010256D02*
X016256Y010520D01*
X016256Y010656D01*
X016656Y010656D01*
X016656Y010756D01*
X016256Y010756D01*
X016256Y010893D01*
X016520Y011156D01*
X016656Y011156D01*
X016656Y010757D01*
X016756Y010757D01*
X016756Y011156D01*
X016893Y011156D01*
X017156Y010893D01*
X017156Y010756D01*
X016757Y010756D01*
X016757Y010656D01*
X017156Y010656D01*
X017156Y010520D01*
X016893Y010256D01*
X016756Y010256D01*
X016756Y010656D01*
X016656Y010656D01*
X016656Y010256D01*
X016520Y010256D01*
X016526Y010256D02*
X016526Y007297D01*
X016537Y007286D02*
X020467Y007286D01*
X020467Y007166D02*
X016996Y007166D01*
X017006Y007156D02*
X017006Y010370D01*
X017043Y010406D02*
X020467Y010406D01*
X020467Y010286D02*
X016923Y010286D01*
X016886Y010256D02*
X016886Y007236D01*
X016766Y007236D02*
X016766Y010256D01*
X016756Y010286D02*
X016656Y010286D01*
X016646Y010256D02*
X016646Y007236D01*
X016286Y007487D02*
X016286Y010490D01*
X016256Y010526D02*
X016156Y010526D01*
X016156Y010520D02*
X016156Y010656D01*
X015757Y010656D01*
X015757Y010756D01*
X016156Y010756D01*
X016156Y010893D01*
X015893Y011156D01*
X015756Y011156D01*
X015756Y010757D01*
X015656Y010757D01*
X015656Y010756D02*
X015656Y010656D01*
X015256Y010656D01*
X015256Y010520D01*
X015520Y010256D01*
X015656Y010256D01*
X015656Y010656D01*
X015756Y010656D01*
X015756Y010256D01*
X015893Y010256D01*
X016156Y010520D01*
X016156Y010646D02*
X016256Y010646D01*
X016286Y010656D02*
X016286Y010756D01*
X016256Y010766D02*
X016156Y010766D01*
X016046Y010756D02*
X016046Y010656D01*
X015926Y010656D02*
X015926Y010756D01*
X015806Y010756D02*
X015806Y010656D01*
X015756Y010646D02*
X015656Y010646D01*
X015686Y010656D02*
X015686Y007496D01*
X015566Y007496D02*
X015566Y010256D01*
X015490Y010286D02*
X014996Y010286D01*
X014996Y010166D02*
X020467Y010166D01*
X020467Y010046D02*
X014996Y010046D01*
X014996Y009926D02*
X020467Y009926D01*
X020467Y009806D02*
X014996Y009806D01*
X014996Y009686D02*
X020467Y009686D01*
X020467Y009566D02*
X014996Y009566D01*
X014996Y009446D02*
X020467Y009446D01*
X020467Y009326D02*
X014996Y009326D01*
X014996Y009206D02*
X020467Y009206D01*
X020467Y009086D02*
X014996Y009086D01*
X014996Y008966D02*
X020467Y008966D01*
X020467Y008846D02*
X014996Y008846D01*
X014996Y008726D02*
X020467Y008726D01*
X020467Y008606D02*
X014996Y008606D01*
X014996Y008486D02*
X020467Y008486D01*
X020467Y008366D02*
X014996Y008366D01*
X014996Y008246D02*
X020467Y008246D01*
X020467Y008126D02*
X014996Y008126D01*
X014996Y008006D02*
X020467Y008006D01*
X020467Y007886D02*
X014996Y007886D01*
X014996Y007766D02*
X020467Y007766D01*
X020467Y007646D02*
X014996Y007646D01*
X015206Y007496D02*
X015206Y011457D01*
X015297Y011366D02*
X014657Y011366D01*
X014606Y011417D02*
X014606Y012436D01*
X015326Y011337D02*
X015326Y010963D01*
X015370Y011006D02*
X014979Y011006D01*
X014996Y010886D02*
X015256Y010886D01*
X015256Y010893D02*
X015256Y010756D01*
X015656Y010756D01*
X015656Y010757D02*
X015656Y011156D01*
X015520Y011156D01*
X015256Y010893D01*
X015256Y010766D02*
X014996Y010766D01*
X014996Y010646D02*
X015256Y010646D01*
X015326Y010656D02*
X015326Y010756D01*
X015446Y010756D02*
X015446Y010656D01*
X015566Y010656D02*
X015566Y010756D01*
X015656Y010766D02*
X015756Y010766D01*
X015686Y010757D02*
X015686Y011176D01*
X015656Y011126D02*
X015756Y011126D01*
X015806Y011156D02*
X015806Y011176D01*
X015926Y011177D02*
X015926Y011123D01*
X015923Y011126D02*
X016490Y011126D01*
X016526Y011156D02*
X016526Y011176D01*
X016646Y011176D02*
X016646Y011156D01*
X016656Y011126D02*
X016756Y011126D01*
X016766Y011156D02*
X016766Y011176D01*
X016886Y011176D02*
X016886Y011156D01*
X016923Y011126D02*
X020467Y011126D01*
X020467Y011006D02*
X017043Y011006D01*
X017006Y011043D02*
X017006Y011257D01*
X016996Y011246D02*
X020467Y011246D01*
X020467Y011366D02*
X017116Y011366D01*
X017126Y011377D02*
X017126Y010923D01*
X017156Y010886D02*
X020467Y010886D01*
X020467Y010766D02*
X017156Y010766D01*
X017126Y010756D02*
X017126Y010656D01*
X017156Y010646D02*
X020467Y010646D01*
X020467Y010526D02*
X017156Y010526D01*
X017126Y010490D02*
X017126Y007036D01*
X017116Y007046D02*
X020467Y007046D01*
X020467Y006926D02*
X017236Y006926D01*
X017236Y006806D02*
X020467Y006806D01*
X020467Y006686D02*
X017236Y006686D01*
X017236Y006566D02*
X020467Y006566D01*
X020467Y005966D02*
X017196Y005966D01*
X017236Y005846D02*
X020467Y005846D01*
X020467Y005726D02*
X017236Y005726D01*
X017236Y005606D02*
X020467Y005606D01*
X020467Y005486D02*
X017236Y005486D01*
X017126Y005377D02*
X017126Y005036D01*
X017156Y005006D02*
X020467Y005006D01*
X020467Y004886D02*
X017236Y004886D01*
X017236Y004766D02*
X020467Y004766D01*
X020467Y004646D02*
X017236Y004646D01*
X017236Y004526D02*
X020467Y004526D01*
X020467Y004406D02*
X017156Y004406D01*
X017126Y004377D02*
X017126Y004036D01*
X017116Y004046D02*
X020467Y004046D01*
X020467Y003926D02*
X017236Y003926D01*
X017236Y003806D02*
X020467Y003806D01*
X020467Y003686D02*
X017236Y003686D01*
X017236Y003566D02*
X020467Y003566D01*
X020467Y004166D02*
X016996Y004166D01*
X017006Y004156D02*
X017006Y004257D01*
X017036Y004286D02*
X020467Y004286D01*
X020467Y005126D02*
X017036Y005126D01*
X017006Y005156D02*
X017006Y005257D01*
X016996Y005246D02*
X020467Y005246D01*
X020467Y005366D02*
X017116Y005366D01*
X017006Y006156D02*
X017006Y006257D01*
X016956Y006206D02*
X017236Y006487D01*
X016166Y007496D02*
X016166Y011417D01*
X016116Y011366D02*
X016297Y011366D01*
X016286Y011377D02*
X016286Y010923D01*
X016256Y010886D02*
X016156Y010886D01*
X016046Y011003D02*
X016046Y011297D01*
X015996Y011246D02*
X016417Y011246D01*
X016406Y011257D02*
X016406Y011043D01*
X016370Y011006D02*
X016043Y011006D01*
X015756Y011006D02*
X015656Y011006D01*
X015656Y010886D02*
X015756Y010886D01*
X015566Y011156D02*
X015566Y011176D01*
X015656Y010526D02*
X015756Y010526D01*
X015756Y010406D02*
X015656Y010406D01*
X015656Y010286D02*
X015756Y010286D01*
X015806Y010256D02*
X015806Y007496D01*
X015446Y007496D02*
X015446Y010330D01*
X015370Y010406D02*
X014996Y010406D01*
X014996Y010526D02*
X015256Y010526D01*
X015326Y010450D02*
X015326Y007496D01*
X013496Y005306D02*
X013496Y005127D01*
X013627Y004996D01*
X013806Y004996D01*
X013496Y005306D01*
X013526Y005276D02*
X013526Y005097D01*
X013497Y005126D02*
X013676Y005126D01*
X013646Y005156D02*
X013646Y004996D01*
X013617Y005006D02*
X013796Y005006D01*
X013766Y004996D02*
X013766Y005036D01*
X013556Y005246D02*
X013496Y005246D01*
X012376Y003926D02*
X012376Y003926D01*
X012326Y003877D02*
X012326Y000416D01*
X012206Y000416D02*
X012206Y003757D01*
X012256Y003806D02*
X012496Y003806D01*
X012446Y003856D02*
X012446Y000416D01*
X012086Y000416D02*
X012086Y003676D01*
X012126Y003676D02*
X011687Y003676D01*
X011406Y003957D01*
X011126Y003676D01*
X010687Y003676D01*
X010406Y003957D01*
X010376Y003926D02*
X010437Y003926D01*
X010766Y003676D02*
X010766Y000416D01*
X010886Y000416D02*
X010886Y003676D01*
X011006Y003676D02*
X011006Y000416D01*
X011126Y000416D02*
X011126Y003677D01*
X011136Y003686D02*
X011677Y003686D01*
X011726Y003676D02*
X011726Y000416D01*
X011606Y000416D02*
X011606Y003757D01*
X011557Y003806D02*
X011256Y003806D01*
X011246Y003797D02*
X011246Y000416D01*
X011366Y000416D02*
X011366Y003917D01*
X011376Y003926D02*
X011437Y003926D01*
X011486Y003877D02*
X011486Y000416D01*
X011846Y000416D02*
X011846Y003676D01*
X011966Y003676D02*
X011966Y000416D01*
X008966Y000416D02*
X008966Y003676D01*
X008846Y003676D02*
X008846Y000416D01*
X008246Y000416D02*
X008246Y003797D01*
X007646Y003717D02*
X007646Y000416D01*
X007526Y000416D02*
X007526Y003837D01*
X007557Y003806D02*
X007143Y003806D01*
X007166Y003830D02*
X007166Y000416D01*
X007046Y000416D02*
X007046Y003756D01*
X006956Y003806D02*
X006856Y003806D01*
X006806Y003756D02*
X006806Y000416D01*
X006686Y000416D02*
X006686Y003790D01*
X006670Y003806D02*
X005796Y003806D01*
X005787Y003926D02*
X006550Y003926D01*
X006566Y003910D02*
X006566Y000416D01*
X006926Y000416D02*
X006926Y004156D01*
X006957Y004166D02*
X007376Y004166D01*
X007286Y004156D02*
X007286Y004256D01*
X007356Y004286D02*
X007376Y004286D01*
X007166Y004256D02*
X007166Y004156D01*
X007046Y004156D02*
X007046Y004256D01*
X006956Y004046D02*
X006856Y004046D01*
X006856Y003926D02*
X006956Y003926D01*
X007263Y003926D02*
X007437Y003926D01*
X007406Y003957D02*
X007406Y000416D01*
X007286Y000416D02*
X007286Y003950D01*
X007356Y004046D02*
X007376Y004046D01*
X007416Y004526D02*
X007223Y004526D01*
X006456Y004046D02*
X005737Y004046D01*
X005726Y004073D02*
X005726Y004793D01*
X005366Y004843D02*
X005366Y004296D01*
X005246Y004296D02*
X005246Y004916D01*
X005195Y004886D02*
X005321Y004886D01*
X005006Y004326D02*
X005006Y004296D01*
X004678Y004296D02*
X003309Y004296D01*
X003189Y004416D01*
X004491Y004416D01*
X004564Y004344D01*
X004678Y004296D01*
X004646Y004296D02*
X004646Y004309D01*
X004526Y004296D02*
X004526Y004381D01*
X004501Y004406D02*
X003199Y004406D01*
X003206Y004399D02*
X003206Y004416D01*
X003326Y004416D02*
X003326Y004296D01*
X003446Y004296D02*
X003446Y004416D01*
X003566Y004416D02*
X003566Y004296D01*
X003686Y004296D02*
X003686Y004416D01*
X003806Y004416D02*
X003806Y004296D01*
X003926Y004296D02*
X003926Y004416D01*
X004046Y004416D02*
X004046Y004296D01*
X004166Y004296D02*
X004166Y004416D01*
X004286Y004416D02*
X004286Y004296D01*
X004406Y004296D02*
X004406Y004416D01*
X004406Y003316D02*
X004406Y003197D01*
X004424Y003194D02*
X004356Y003205D01*
X004356Y002757D01*
X004256Y002757D01*
X004256Y003205D01*
X004189Y003194D01*
X004115Y003170D01*
X004044Y003134D01*
X003981Y003088D01*
X003925Y003032D01*
X003879Y002969D01*
X003850Y002911D01*
X003798Y003035D01*
X003635Y003198D01*
X003422Y003286D01*
X003191Y003286D01*
X002978Y003198D01*
X002976Y003196D01*
X002366Y003196D01*
X002356Y003206D01*
X002998Y003206D01*
X002966Y003196D02*
X002966Y003334D01*
X002985Y003326D02*
X002476Y003326D01*
X002486Y003337D02*
X002486Y003196D01*
X002366Y003196D02*
X002366Y003217D01*
X002356Y003206D02*
X002636Y003487D01*
X002636Y003584D01*
X002829Y003391D01*
X003009Y003316D01*
X004816Y003316D01*
X004816Y003037D01*
X004815Y003035D01*
X004763Y002911D01*
X004734Y002969D01*
X004688Y003032D01*
X004632Y003088D01*
X004569Y003134D01*
X004498Y003170D01*
X004424Y003194D01*
X004526Y003156D02*
X004526Y003316D01*
X004646Y003316D02*
X004646Y003074D01*
X004634Y003086D02*
X004816Y003086D01*
X004816Y003206D02*
X003615Y003206D01*
X003566Y003227D02*
X003566Y003316D01*
X003446Y003316D02*
X003446Y003276D01*
X003326Y003286D02*
X003326Y003316D01*
X003206Y003316D02*
X003206Y003286D01*
X003086Y003316D02*
X003086Y003243D01*
X002846Y003196D02*
X002846Y003384D01*
X002774Y003446D02*
X002596Y003446D01*
X002606Y003457D02*
X002606Y003196D01*
X002726Y003196D02*
X002726Y003494D01*
X002654Y003566D02*
X002636Y003566D01*
X001857Y003206D02*
X001356Y003206D01*
X001606Y002956D01*
X001857Y003206D01*
X001606Y003457D01*
X001356Y003206D01*
X001406Y003156D02*
X001406Y003257D01*
X001476Y003326D02*
X001737Y003326D01*
X001766Y003297D02*
X001766Y003116D01*
X001737Y003086D02*
X001476Y003086D01*
X001526Y003036D02*
X001526Y003377D01*
X001596Y003446D02*
X001617Y003446D01*
X001646Y003417D02*
X001646Y002996D01*
X001617Y002966D02*
X001596Y002966D01*
X001606Y002457D02*
X001356Y002206D01*
X001606Y001956D01*
X001857Y002206D01*
X001606Y002457D01*
X001646Y002417D02*
X001646Y001996D01*
X001657Y002006D02*
X001556Y002006D01*
X001526Y002036D02*
X001526Y002377D01*
X001516Y002366D02*
X001697Y002366D01*
X001766Y002297D02*
X001766Y002116D01*
X001777Y002126D02*
X001436Y002126D01*
X001406Y002156D02*
X001406Y002257D01*
X001396Y002246D02*
X001817Y002246D01*
X001646Y001417D02*
X001646Y000416D01*
X001526Y000416D02*
X001526Y001377D01*
X001556Y001406D02*
X001657Y001406D01*
X001766Y001297D02*
X001766Y000416D01*
X001886Y000416D02*
X001886Y001177D01*
X002006Y001176D02*
X002006Y000416D01*
X002126Y000416D02*
X002126Y001176D01*
X002246Y001176D02*
X002246Y000416D01*
X002366Y000416D02*
X002366Y001217D01*
X002436Y001286D02*
X015490Y001286D01*
X015520Y001256D02*
X015256Y001520D01*
X015256Y001656D01*
X015656Y001656D01*
X015656Y001756D01*
X015256Y001756D01*
X015256Y001893D01*
X015520Y002156D01*
X015656Y002156D01*
X015656Y001757D01*
X015756Y001757D01*
X015756Y002156D01*
X015893Y002156D01*
X016156Y001893D01*
X016156Y001756D01*
X015757Y001756D01*
X015757Y001656D01*
X016156Y001656D01*
X016156Y001520D01*
X015893Y001256D01*
X015756Y001256D01*
X015756Y001656D01*
X015656Y001656D01*
X015656Y001256D01*
X015520Y001256D01*
X015566Y001256D02*
X015566Y000416D01*
X015446Y000416D02*
X015446Y001330D01*
X015370Y001406D02*
X002556Y001406D01*
X002606Y001457D02*
X002606Y000416D01*
X002486Y000416D02*
X002486Y001337D01*
X002636Y001526D02*
X015256Y001526D01*
X015326Y001450D02*
X015326Y000416D01*
X015206Y000416D02*
X015206Y002457D01*
X015176Y002487D02*
X015176Y002926D01*
X015457Y003206D01*
X015446Y003196D02*
X015446Y003217D01*
X015176Y002846D02*
X005876Y002846D01*
X005886Y002726D02*
X015176Y002726D01*
X015176Y002606D02*
X005886Y002606D01*
X005798Y002378D02*
X005635Y002215D01*
X005422Y002126D01*
X015490Y002126D01*
X015446Y002083D02*
X015446Y002217D01*
X015417Y002246D02*
X005667Y002246D01*
X005606Y002203D02*
X005606Y000416D01*
X005486Y000416D02*
X005486Y002153D01*
X005422Y002126D02*
X005191Y002126D01*
X003422Y002126D01*
X003635Y002215D01*
X003798Y002378D01*
X003850Y002502D01*
X003879Y002444D01*
X003925Y002381D01*
X003981Y002325D01*
X004044Y002279D01*
X004115Y002243D01*
X004189Y002219D01*
X004256Y002208D01*
X004256Y002656D01*
X004356Y002656D01*
X004356Y002208D01*
X004424Y002219D01*
X004498Y002243D01*
X004569Y002279D01*
X004632Y002325D01*
X004688Y002381D01*
X004734Y002444D01*
X004763Y002502D01*
X004815Y002378D01*
X004978Y002215D01*
X005191Y002126D01*
X005246Y002126D02*
X005246Y000416D01*
X005126Y000416D02*
X005126Y002153D01*
X005006Y002203D02*
X005006Y000416D01*
X004886Y000416D02*
X004886Y002306D01*
X004946Y002246D02*
X004505Y002246D01*
X004526Y002257D02*
X004526Y000416D01*
X004406Y000416D02*
X004406Y002216D01*
X004356Y002246D02*
X004256Y002246D01*
X004166Y002226D02*
X004166Y000416D01*
X004046Y000416D02*
X004046Y002278D01*
X004108Y002246D02*
X003667Y002246D01*
X003686Y002266D02*
X003686Y000416D01*
X003566Y000416D02*
X003566Y002186D01*
X003446Y002137D02*
X003446Y000416D01*
X003326Y000416D02*
X003326Y002126D01*
X003422Y002126D02*
X003191Y002126D01*
X003206Y002126D02*
X003206Y000416D01*
X003086Y000416D02*
X003086Y002170D01*
X002966Y002216D02*
X002966Y000416D01*
X002846Y000416D02*
X002846Y002216D01*
X002726Y002216D02*
X002726Y000416D01*
X003806Y000416D02*
X003806Y002398D01*
X003787Y002366D02*
X003939Y002366D01*
X003926Y002379D02*
X003926Y000416D01*
X004286Y000416D02*
X004286Y002656D01*
X004256Y002606D02*
X004356Y002606D01*
X004356Y002486D02*
X004256Y002486D01*
X004256Y002366D02*
X004356Y002366D01*
X004646Y002339D02*
X004646Y000416D01*
X004766Y000416D02*
X004766Y002495D01*
X004770Y002486D02*
X004756Y002486D01*
X004826Y002366D02*
X004674Y002366D01*
X004286Y002757D02*
X004286Y003316D01*
X004166Y003316D02*
X004166Y003187D01*
X004046Y003135D02*
X004046Y003316D01*
X003926Y003316D02*
X003926Y003034D01*
X003979Y003086D02*
X003747Y003086D01*
X003686Y003147D02*
X003686Y003316D01*
X003806Y003316D02*
X003806Y003015D01*
X003827Y002966D02*
X003878Y002966D01*
X003857Y002486D02*
X003843Y002486D01*
X004256Y002846D02*
X004356Y002846D01*
X004356Y002966D02*
X004256Y002966D01*
X004256Y003086D02*
X004356Y003086D01*
X004735Y002966D02*
X004786Y002966D01*
X004766Y002918D02*
X004766Y003316D01*
X005366Y002126D02*
X005366Y000416D01*
X005726Y000416D02*
X005726Y002306D01*
X002636Y001886D02*
X015256Y001886D01*
X015256Y001766D02*
X002636Y001766D01*
X002636Y001646D02*
X015256Y001646D01*
X015326Y001656D02*
X015326Y001756D01*
X015446Y001756D02*
X015446Y001656D01*
X015566Y001656D02*
X015566Y001756D01*
X015656Y001766D02*
X015756Y001766D01*
X015806Y001756D02*
X015806Y001656D01*
X015756Y001646D02*
X015656Y001646D01*
X015686Y001656D02*
X015686Y000416D01*
X015806Y000416D02*
X015806Y001256D01*
X015756Y001286D02*
X015656Y001286D01*
X015656Y001406D02*
X015756Y001406D01*
X015756Y001526D02*
X015656Y001526D01*
X015686Y001757D02*
X015686Y002176D01*
X015656Y002126D02*
X015756Y002126D01*
X015806Y002156D02*
X015806Y002176D01*
X015926Y002177D02*
X015926Y002123D01*
X015923Y002126D02*
X016490Y002126D01*
X016520Y002156D02*
X016256Y001893D01*
X016256Y001756D01*
X016656Y001756D01*
X016656Y001656D01*
X016256Y001656D01*
X016256Y001520D01*
X016520Y001256D01*
X016656Y001256D01*
X016656Y001656D01*
X016756Y001656D01*
X016756Y001256D01*
X016893Y001256D01*
X017156Y001520D01*
X017156Y001656D01*
X016757Y001656D01*
X016757Y001756D01*
X017156Y001756D01*
X017156Y001893D01*
X016893Y002156D01*
X016756Y002156D01*
X016756Y001757D01*
X016656Y001757D01*
X016656Y002156D01*
X016520Y002156D01*
X016526Y002156D02*
X016526Y002176D01*
X016646Y002176D02*
X016646Y002156D01*
X016656Y002126D02*
X016756Y002126D01*
X016766Y002156D02*
X016766Y002176D01*
X016886Y002176D02*
X016886Y002156D01*
X016923Y002126D02*
X020467Y002126D01*
X020467Y002006D02*
X017043Y002006D01*
X017006Y002043D02*
X017006Y002257D01*
X016996Y002246D02*
X020467Y002246D01*
X020467Y002366D02*
X017116Y002366D01*
X017126Y002377D02*
X017126Y001923D01*
X017156Y001886D02*
X020467Y001886D01*
X020467Y001766D02*
X017156Y001766D01*
X017126Y001756D02*
X017126Y001656D01*
X017156Y001646D02*
X020467Y001646D01*
X020467Y001526D02*
X017156Y001526D01*
X017126Y001490D02*
X017126Y000416D01*
X017006Y000416D02*
X017006Y001370D01*
X017043Y001406D02*
X020467Y001406D01*
X020467Y001286D02*
X016923Y001286D01*
X016886Y001256D02*
X016886Y000416D01*
X016766Y000416D02*
X016766Y001256D01*
X016756Y001286D02*
X016656Y001286D01*
X016646Y001256D02*
X016646Y000416D01*
X016526Y000416D02*
X016526Y001256D01*
X016490Y001286D02*
X015923Y001286D01*
X015926Y001290D02*
X015926Y000416D01*
X016046Y000416D02*
X016046Y001410D01*
X016043Y001406D02*
X016370Y001406D01*
X016406Y001370D02*
X016406Y000416D01*
X016286Y000416D02*
X016286Y001490D01*
X016256Y001526D02*
X016156Y001526D01*
X016156Y001646D02*
X016256Y001646D01*
X016286Y001656D02*
X016286Y001756D01*
X016256Y001766D02*
X016156Y001766D01*
X016046Y001756D02*
X016046Y001656D01*
X015926Y001656D02*
X015926Y001756D01*
X015756Y001886D02*
X015656Y001886D01*
X015656Y002006D02*
X015756Y002006D01*
X015566Y002156D02*
X015566Y002176D01*
X015996Y002246D02*
X016417Y002246D01*
X016406Y002257D02*
X016406Y002043D01*
X016370Y002006D02*
X016043Y002006D01*
X016046Y002003D02*
X016046Y002297D01*
X016116Y002366D02*
X016297Y002366D01*
X016286Y002377D02*
X016286Y001923D01*
X016256Y001886D02*
X016156Y001886D01*
X016406Y001756D02*
X016406Y001656D01*
X016526Y001656D02*
X016526Y001756D01*
X016646Y001756D02*
X016646Y001656D01*
X016656Y001646D02*
X016756Y001646D01*
X016766Y001656D02*
X016766Y001756D01*
X016756Y001766D02*
X016656Y001766D01*
X016656Y001886D02*
X016756Y001886D01*
X016756Y002006D02*
X016656Y002006D01*
X016886Y001756D02*
X016886Y001656D01*
X017006Y001656D02*
X017006Y001756D01*
X016756Y001526D02*
X016656Y001526D01*
X016656Y001406D02*
X016756Y001406D01*
X016166Y000416D02*
X016166Y002417D01*
X016206Y002956D02*
X015956Y003206D01*
X016457Y003206D01*
X016206Y002956D01*
X016196Y002966D02*
X016217Y002966D01*
X016166Y002996D02*
X016166Y003417D01*
X016196Y003446D02*
X016217Y003446D01*
X016206Y003457D02*
X016457Y003206D01*
X016406Y003156D02*
X016406Y003257D01*
X016337Y003326D02*
X016076Y003326D01*
X016046Y003297D02*
X016046Y003116D01*
X016076Y003086D02*
X016337Y003086D01*
X016286Y003036D02*
X016286Y003377D01*
X016206Y003457D02*
X015956Y003206D01*
X016956Y003206D02*
X017236Y003487D01*
X017006Y003257D02*
X017006Y003156D01*
X017196Y002966D02*
X020467Y002966D01*
X020467Y002846D02*
X017236Y002846D01*
X017236Y002726D02*
X020467Y002726D01*
X020467Y002606D02*
X017236Y002606D01*
X017236Y002486D02*
X020467Y002486D01*
X020246Y001212D02*
X020246Y026218D01*
X020316Y026246D02*
X020467Y026246D01*
X020366Y026267D02*
X020366Y001187D01*
X020416Y001166D02*
X020467Y001166D01*
X020126Y001212D02*
X020126Y026201D01*
X020006Y026201D02*
X020006Y001171D01*
X019997Y001166D02*
X000916Y001166D01*
X000926Y001162D02*
X000926Y001176D01*
X000883Y001180D02*
X000807Y001212D01*
X000606Y001212D01*
X000420Y001135D01*
X000416Y001131D01*
X000416Y026282D01*
X000420Y026278D01*
X000606Y026201D01*
X000807Y026201D01*
X000993Y026278D01*
X001135Y026420D01*
X001212Y026606D01*
X001212Y026807D01*
X001135Y026993D01*
X019678Y026993D01*
X019646Y026993D02*
X019646Y026916D01*
X019618Y026846D02*
X001195Y026846D01*
X001212Y026726D02*
X019601Y026726D01*
X019601Y026606D02*
X001212Y026606D01*
X001166Y026497D02*
X001166Y021236D01*
X001046Y021236D02*
X001046Y026332D01*
X001081Y026366D02*
X019732Y026366D01*
X019766Y026332D02*
X019766Y000965D01*
X019751Y000926D02*
X001162Y000926D01*
X001166Y000916D02*
X001166Y001176D01*
X001046Y001176D02*
X001046Y001081D01*
X001081Y001046D02*
X019832Y001046D01*
X019886Y001101D02*
X019886Y026251D01*
X019897Y026246D02*
X000916Y026246D01*
X000926Y026251D02*
X000926Y021236D01*
X000857Y021206D02*
X000416Y021206D01*
X000416Y021086D02*
X000737Y021086D01*
X000686Y021036D02*
X000686Y026201D01*
X000806Y026201D02*
X000806Y021156D01*
X000617Y020966D02*
X000416Y020966D01*
X000416Y020846D02*
X000576Y020846D01*
X000576Y020726D02*
X000416Y020726D01*
X000416Y020606D02*
X000576Y020606D01*
X000577Y020486D02*
X000416Y020486D01*
X000416Y020366D02*
X000697Y020366D01*
X000686Y020377D02*
X000686Y020036D01*
X000657Y020006D02*
X000416Y020006D01*
X000416Y019886D02*
X000576Y019886D01*
X000576Y019766D02*
X000416Y019766D01*
X000416Y019646D02*
X000576Y019646D01*
X000576Y019526D02*
X000416Y019526D01*
X000416Y019406D02*
X000657Y019406D01*
X000686Y019377D02*
X000686Y019036D01*
X000697Y019046D02*
X000416Y019046D01*
X000416Y018926D02*
X000577Y018926D01*
X000576Y018806D02*
X000416Y018806D01*
X000416Y018686D02*
X000576Y018686D01*
X000576Y018566D02*
X000416Y018566D01*
X000416Y017966D02*
X000617Y017966D01*
X000576Y017846D02*
X000416Y017846D01*
X000416Y017726D02*
X000576Y017726D01*
X000576Y017606D02*
X000416Y017606D01*
X000416Y017486D02*
X000577Y017486D01*
X000806Y019156D02*
X000806Y019257D01*
X000777Y019286D02*
X000416Y019286D01*
X000416Y019166D02*
X000817Y019166D01*
X000777Y020126D02*
X000416Y020126D01*
X000416Y020246D02*
X000817Y020246D01*
X000806Y020257D02*
X000806Y020156D01*
X001406Y021417D02*
X001406Y026993D01*
X001162Y026486D02*
X019651Y026486D01*
X019646Y026497D02*
X019646Y000416D01*
X019526Y000416D02*
X019526Y026993D01*
X019406Y026993D02*
X019406Y000416D01*
X019286Y000416D02*
X019286Y026993D01*
X019166Y026993D02*
X019166Y000416D01*
X019046Y000416D02*
X019046Y026993D01*
X018926Y026993D02*
X018926Y000416D01*
X018806Y000416D02*
X018806Y026993D01*
X018686Y026993D02*
X018686Y000416D01*
X018566Y000416D02*
X018566Y026993D01*
X018446Y026993D02*
X018446Y000416D01*
X018326Y000416D02*
X018326Y026993D01*
X018206Y026993D02*
X018206Y000416D01*
X018086Y000416D02*
X018086Y026993D01*
X017966Y026993D02*
X017966Y000416D01*
X017846Y000416D02*
X017846Y026993D01*
X017726Y026993D02*
X017726Y000416D01*
X017606Y000416D02*
X017606Y026993D01*
X017486Y026993D02*
X017486Y000416D01*
X017366Y000416D02*
X017366Y026993D01*
X017246Y026993D02*
X017246Y000416D01*
X019701Y000686D02*
X001212Y000686D01*
X001212Y000806D02*
X019701Y000806D01*
X019718Y000566D02*
X001195Y000566D01*
X001166Y000497D02*
X001166Y000416D01*
X001146Y000446D02*
X019767Y000446D01*
X019766Y000448D02*
X019766Y000416D01*
X016756Y010406D02*
X016656Y010406D01*
X016656Y010526D02*
X016756Y010526D01*
X016756Y010646D02*
X016656Y010646D01*
X016646Y010656D02*
X016646Y010756D01*
X016656Y010766D02*
X016756Y010766D01*
X016766Y010756D02*
X016766Y010656D01*
X016886Y010656D02*
X016886Y010756D01*
X017006Y010756D02*
X017006Y010656D01*
X016756Y010886D02*
X016656Y010886D01*
X016656Y011006D02*
X016756Y011006D01*
X016526Y010756D02*
X016526Y010656D01*
X016406Y010656D02*
X016406Y010756D01*
X017236Y011486D02*
X020467Y011486D01*
X020467Y011606D02*
X017236Y011606D01*
X017236Y011726D02*
X020467Y011726D01*
X020467Y011846D02*
X017236Y011846D01*
X017196Y011966D02*
X020467Y011966D01*
X020467Y012566D02*
X017236Y012566D01*
X017236Y012487D02*
X016956Y012206D01*
X017006Y012156D02*
X017006Y012257D01*
X017236Y012686D02*
X020467Y012686D01*
X020467Y012806D02*
X017236Y012806D01*
X017236Y012926D02*
X020467Y012926D01*
X020467Y013046D02*
X017116Y013046D01*
X017126Y013036D02*
X017126Y013377D01*
X017156Y013406D02*
X020467Y013406D01*
X020467Y013286D02*
X017036Y013286D01*
X017006Y013257D02*
X017006Y013156D01*
X016996Y013166D02*
X020467Y013166D01*
X020467Y013526D02*
X017236Y013526D01*
X017236Y013646D02*
X020467Y013646D01*
X020467Y013766D02*
X017236Y013766D01*
X017236Y013886D02*
X020467Y013886D01*
X020467Y014006D02*
X017156Y014006D01*
X017126Y014036D02*
X017126Y014377D01*
X017116Y014366D02*
X020467Y014366D01*
X020467Y014246D02*
X016996Y014246D01*
X017006Y014257D02*
X017006Y014156D01*
X017036Y014126D02*
X020467Y014126D01*
X020467Y014486D02*
X017236Y014486D01*
X017236Y014606D02*
X020467Y014606D01*
X020467Y014726D02*
X017236Y014726D01*
X017236Y014846D02*
X020467Y014846D01*
X020467Y014966D02*
X017196Y014966D01*
X017006Y015156D02*
X017006Y015257D01*
X016956Y015206D02*
X017236Y015487D01*
X017236Y015566D02*
X020467Y015566D01*
X020467Y015686D02*
X017236Y015686D01*
X017236Y015806D02*
X020467Y015806D01*
X020467Y015926D02*
X017236Y015926D01*
X017126Y016036D02*
X017126Y019490D01*
X017156Y019526D02*
X020467Y019526D01*
X020467Y019646D02*
X017156Y019646D01*
X017126Y019656D02*
X017126Y019756D01*
X017156Y019766D02*
X020467Y019766D01*
X020467Y019886D02*
X017156Y019886D01*
X017126Y019923D02*
X017126Y020377D01*
X017116Y020366D02*
X020467Y020366D01*
X020467Y020246D02*
X016996Y020246D01*
X017006Y020257D02*
X017006Y020043D01*
X017043Y020006D02*
X020467Y020006D01*
X020467Y020126D02*
X016923Y020126D01*
X016886Y020156D02*
X016886Y020176D01*
X016926Y020176D02*
X017236Y020487D01*
X017236Y020926D01*
X016956Y021206D01*
X020467Y021206D01*
X020467Y021086D02*
X017076Y021086D01*
X017126Y021036D02*
X017126Y021377D01*
X017076Y021326D02*
X020467Y021326D01*
X020467Y021446D02*
X017196Y021446D01*
X017236Y021487D02*
X017236Y021926D01*
X016956Y022206D01*
X017236Y022487D01*
X017236Y022926D01*
X016956Y023206D01*
X017236Y023487D01*
X017236Y023926D01*
X016956Y024206D01*
X017006Y024156D02*
X017006Y024257D01*
X017196Y023966D02*
X020467Y023966D01*
X020467Y023846D02*
X017236Y023846D01*
X017236Y023726D02*
X020467Y023726D01*
X020467Y023606D02*
X017236Y023606D01*
X017236Y023486D02*
X020467Y023486D01*
X020467Y023366D02*
X017116Y023366D01*
X017126Y023377D02*
X017126Y023036D01*
X017156Y023006D02*
X020467Y023006D01*
X020467Y022886D02*
X017236Y022886D01*
X017236Y022766D02*
X020467Y022766D01*
X020467Y022646D02*
X017236Y022646D01*
X017236Y022526D02*
X020467Y022526D01*
X020467Y022406D02*
X017156Y022406D01*
X017126Y022377D02*
X017126Y022036D01*
X017116Y022046D02*
X020467Y022046D01*
X020467Y021926D02*
X017236Y021926D01*
X017236Y021806D02*
X020467Y021806D01*
X020467Y021686D02*
X017236Y021686D01*
X017236Y021566D02*
X020467Y021566D01*
X020467Y020966D02*
X017196Y020966D01*
X017236Y020846D02*
X020467Y020846D01*
X020467Y020726D02*
X017236Y020726D01*
X017236Y020606D02*
X020467Y020606D01*
X020467Y020486D02*
X017236Y020486D01*
X016926Y020176D02*
X016487Y020176D01*
X016206Y020457D01*
X015926Y020176D01*
X015487Y020176D01*
X015176Y020487D01*
X015176Y020926D01*
X015457Y021206D01*
X015446Y021196D02*
X015446Y021217D01*
X015206Y021416D02*
X015206Y020956D01*
X015217Y020966D02*
X014996Y020966D01*
X014996Y020846D02*
X015176Y020846D01*
X015176Y020726D02*
X014996Y020726D01*
X014996Y020606D02*
X015176Y020606D01*
X015177Y020486D02*
X014996Y020486D01*
X014996Y020366D02*
X015297Y020366D01*
X015326Y020337D02*
X015326Y019963D01*
X015370Y020006D02*
X014996Y020006D01*
X014996Y019886D02*
X015256Y019886D01*
X015256Y019893D02*
X015256Y019756D01*
X015656Y019756D01*
X015656Y019757D02*
X015656Y020156D01*
X015520Y020156D01*
X015256Y019893D01*
X015256Y019766D02*
X014996Y019766D01*
X014996Y019646D02*
X015256Y019646D01*
X015326Y019656D02*
X015326Y019756D01*
X015446Y019756D02*
X015446Y019656D01*
X015566Y019656D02*
X015566Y019756D01*
X015656Y019766D02*
X015756Y019766D01*
X015686Y019757D02*
X015686Y020176D01*
X015656Y020126D02*
X015756Y020126D01*
X015806Y020156D02*
X015806Y020176D01*
X015926Y020177D02*
X015926Y020123D01*
X015923Y020126D02*
X016490Y020126D01*
X016526Y020156D02*
X016526Y020176D01*
X016646Y020176D02*
X016646Y020156D01*
X016656Y020126D02*
X016756Y020126D01*
X016766Y020156D02*
X016766Y020176D01*
X016756Y020006D02*
X016656Y020006D01*
X016656Y019886D02*
X016756Y019886D01*
X016756Y019766D02*
X016656Y019766D01*
X016646Y019756D02*
X016646Y019656D01*
X016656Y019646D02*
X016756Y019646D01*
X016766Y019656D02*
X016766Y019756D01*
X016886Y019756D02*
X016886Y019656D01*
X017006Y019656D02*
X017006Y019756D01*
X016756Y019526D02*
X016656Y019526D01*
X016656Y019406D02*
X016756Y019406D01*
X016526Y019656D02*
X016526Y019756D01*
X016406Y019756D02*
X016406Y019656D01*
X016256Y019886D02*
X016156Y019886D01*
X016286Y019923D02*
X016286Y020377D01*
X016297Y020366D02*
X016116Y020366D01*
X016166Y020417D02*
X016166Y016476D01*
X015806Y016476D02*
X015806Y019256D01*
X015756Y019286D02*
X015656Y019286D01*
X015656Y019406D02*
X015756Y019406D01*
X015756Y019526D02*
X015656Y019526D01*
X015446Y019330D02*
X015446Y016476D01*
X015326Y016476D02*
X015326Y019450D01*
X015370Y019406D02*
X014996Y019406D01*
X014996Y019526D02*
X015256Y019526D01*
X015656Y019886D02*
X015756Y019886D01*
X015756Y020006D02*
X015656Y020006D01*
X015566Y020156D02*
X015566Y020176D01*
X015490Y020126D02*
X014996Y020126D01*
X014996Y020246D02*
X015417Y020246D01*
X015446Y020217D02*
X015446Y020083D01*
X015206Y020457D02*
X015206Y016476D01*
X017116Y016046D02*
X020467Y016046D01*
X016457Y012206D02*
X015956Y012206D01*
X016206Y011956D01*
X016457Y012206D01*
X016206Y012457D01*
X015956Y012206D01*
X016046Y012116D02*
X016046Y012297D01*
X016076Y012326D02*
X016337Y012326D01*
X016286Y012377D02*
X016286Y012036D01*
X016337Y012086D02*
X016076Y012086D01*
X016166Y011996D02*
X016166Y012417D01*
X016196Y012446D02*
X016217Y012446D01*
X016406Y012257D02*
X016406Y012156D01*
X016217Y011966D02*
X016196Y011966D01*
X013786Y018996D02*
X013707Y018996D01*
X013816Y019106D01*
X013816Y019027D01*
X013786Y018996D01*
X013766Y018996D02*
X013766Y019056D01*
X013757Y019046D02*
X013816Y019046D01*
X012206Y021517D02*
X012206Y021870D01*
X012263Y021926D02*
X012316Y021926D01*
X012316Y021806D02*
X012143Y021806D01*
X012086Y021756D02*
X012086Y021496D01*
X011966Y021496D02*
X011966Y021756D01*
X011956Y021806D02*
X011856Y021806D01*
X011846Y021756D02*
X011846Y021496D01*
X011726Y021496D02*
X011726Y021756D01*
X011670Y021806D02*
X011256Y021806D01*
X011246Y021797D02*
X011246Y021496D01*
X011126Y021496D02*
X011126Y021677D01*
X011136Y021686D02*
X012316Y021686D01*
X012256Y021566D02*
X000416Y021566D01*
X000416Y021686D02*
X006490Y021686D01*
X006446Y021730D02*
X006446Y021496D01*
X006566Y021496D02*
X006566Y021676D01*
X006686Y021676D02*
X006686Y021496D01*
X006806Y021496D02*
X006806Y021676D01*
X006926Y021676D02*
X006926Y021496D01*
X007046Y021496D02*
X007046Y021676D01*
X007166Y021676D02*
X007166Y021496D01*
X007286Y021496D02*
X007286Y021676D01*
X007323Y021686D02*
X007677Y021686D01*
X007646Y021717D02*
X007646Y021496D01*
X007526Y021496D02*
X007526Y021837D01*
X007557Y021806D02*
X007436Y021806D01*
X007406Y021770D02*
X007406Y021496D01*
X007436Y021926D02*
X007437Y021926D01*
X007766Y021676D02*
X007766Y021496D01*
X007886Y021496D02*
X007886Y021676D01*
X008006Y021676D02*
X008006Y021496D01*
X008126Y021496D02*
X008126Y021677D01*
X008136Y021686D02*
X008677Y021686D01*
X008726Y021676D02*
X008726Y021496D01*
X008606Y021496D02*
X008606Y021757D01*
X008557Y021806D02*
X008256Y021806D01*
X008246Y021797D02*
X008246Y021496D01*
X008366Y021496D02*
X008366Y021917D01*
X008376Y021926D02*
X008437Y021926D01*
X008486Y021877D02*
X008486Y021496D01*
X008846Y021496D02*
X008846Y021676D01*
X008966Y021676D02*
X008966Y021496D01*
X009086Y021496D02*
X009086Y021676D01*
X009136Y021686D02*
X009677Y021686D01*
X009686Y021677D02*
X009686Y021496D01*
X009566Y021496D02*
X009566Y021797D01*
X009557Y021806D02*
X009256Y021806D01*
X009206Y021757D02*
X009206Y021496D01*
X009326Y021496D02*
X009326Y021877D01*
X009376Y021926D02*
X009437Y021926D01*
X009446Y021917D02*
X009446Y021496D01*
X009806Y021496D02*
X009806Y021676D01*
X009926Y021676D02*
X009926Y021496D01*
X010046Y021496D02*
X010046Y021676D01*
X010136Y021686D02*
X010677Y021686D01*
X010646Y021717D02*
X010646Y021496D01*
X010526Y021496D02*
X010526Y021837D01*
X010557Y021806D02*
X010256Y021806D01*
X010286Y021837D02*
X010286Y021496D01*
X010166Y021496D02*
X010166Y021717D01*
X010376Y021926D02*
X010437Y021926D01*
X010406Y021957D02*
X010406Y021496D01*
X010766Y021496D02*
X010766Y021676D01*
X010886Y021676D02*
X010886Y021496D01*
X011006Y021496D02*
X011006Y021676D01*
X011366Y021496D02*
X011366Y021917D01*
X011376Y021926D02*
X011550Y021926D01*
X011606Y021870D02*
X011606Y021496D01*
X011486Y021496D02*
X011486Y021990D01*
X011456Y022046D02*
X011436Y022046D01*
X011436Y022166D02*
X011856Y022166D01*
X011846Y022156D02*
X011846Y022256D01*
X011856Y022286D02*
X011956Y022286D01*
X011956Y022406D02*
X011856Y022406D01*
X011856Y022526D02*
X011956Y022526D01*
X011956Y022646D02*
X011856Y022646D01*
X011846Y022656D02*
X011846Y022756D01*
X011856Y022766D02*
X011956Y022766D01*
X011966Y022756D02*
X011966Y022656D01*
X012086Y022656D02*
X012086Y022756D01*
X012103Y022766D02*
X012316Y022766D01*
X012316Y022646D02*
X012103Y022646D01*
X012206Y022543D02*
X012206Y022870D01*
X012223Y022886D02*
X012316Y022886D01*
X012316Y022526D02*
X012223Y022526D01*
X011956Y022886D02*
X011856Y022886D01*
X011856Y023006D02*
X011956Y023006D01*
X011956Y023126D02*
X011856Y023126D01*
X011846Y023156D02*
X011846Y023256D01*
X011856Y023246D02*
X011436Y023246D01*
X011486Y023256D02*
X011486Y023156D01*
X011456Y023126D02*
X011436Y023126D01*
X011436Y023006D02*
X011470Y023006D01*
X011486Y022990D02*
X011486Y022423D01*
X011470Y022406D02*
X011436Y022406D01*
X011436Y022286D02*
X011456Y022286D01*
X011486Y022256D02*
X011486Y022156D01*
X011606Y022156D02*
X011606Y022256D01*
X011726Y022256D02*
X011726Y022156D01*
X011856Y022046D02*
X011956Y022046D01*
X011956Y021926D02*
X011856Y021926D01*
X011590Y022526D02*
X011396Y022526D01*
X011396Y022646D02*
X011710Y022646D01*
X011726Y022656D02*
X011726Y022756D01*
X011710Y022766D02*
X011396Y022766D01*
X011396Y022886D02*
X011590Y022886D01*
X011606Y022870D02*
X011606Y022543D01*
X011606Y023156D02*
X011606Y023256D01*
X011726Y023256D02*
X011726Y023156D01*
X011856Y023366D02*
X011956Y023366D01*
X011956Y023486D02*
X011856Y023486D01*
X011606Y023543D02*
X011606Y026993D01*
X011486Y026993D02*
X011486Y023423D01*
X011456Y023366D02*
X011436Y023366D01*
X011376Y023486D02*
X011550Y023486D01*
X011366Y023496D02*
X011366Y026993D01*
X011006Y026993D02*
X011006Y023736D01*
X010886Y023736D02*
X010886Y026993D01*
X010766Y026993D02*
X010766Y023736D01*
X010437Y023486D02*
X010376Y023486D01*
X010406Y023456D02*
X010126Y023736D01*
X010166Y023696D02*
X010166Y026993D01*
X010046Y026993D02*
X010046Y023736D01*
X009926Y023736D02*
X009926Y026993D01*
X009806Y026993D02*
X009806Y023736D01*
X009686Y023736D02*
X009686Y026993D01*
X009566Y026993D02*
X009566Y023616D01*
X009557Y023606D02*
X009256Y023606D01*
X009206Y023656D02*
X009206Y026993D01*
X009086Y026993D02*
X009086Y023736D01*
X009136Y023726D02*
X009677Y023726D01*
X009446Y023496D02*
X009446Y026993D01*
X009326Y026993D02*
X009326Y023536D01*
X009376Y023486D02*
X009437Y023486D01*
X009406Y022957D02*
X009416Y022947D01*
X009416Y022466D01*
X009406Y022456D01*
X009396Y022466D01*
X009396Y022947D01*
X009406Y022957D01*
X009396Y022886D02*
X009416Y022886D01*
X009416Y022766D02*
X009396Y022766D01*
X009396Y022646D02*
X009416Y022646D01*
X009416Y022526D02*
X009396Y022526D01*
X008416Y022526D02*
X008396Y022526D01*
X008396Y022466D02*
X008396Y022947D01*
X008406Y022957D01*
X008416Y022947D01*
X008416Y022466D01*
X008406Y022456D01*
X008396Y022466D01*
X008396Y022646D02*
X008416Y022646D01*
X008416Y022766D02*
X008396Y022766D01*
X008396Y022886D02*
X008416Y022886D01*
X008437Y023486D02*
X008376Y023486D01*
X008366Y023496D02*
X008366Y026993D01*
X008246Y026993D02*
X008246Y023616D01*
X008256Y023606D02*
X008557Y023606D01*
X008606Y023656D02*
X008606Y026993D01*
X008486Y026993D02*
X008486Y023536D01*
X008677Y023726D02*
X008136Y023726D01*
X008126Y023736D02*
X008126Y026993D01*
X008006Y026993D02*
X008006Y023736D01*
X007886Y023736D02*
X007886Y026993D01*
X007766Y026993D02*
X007766Y023736D01*
X007677Y023726D02*
X007136Y023726D01*
X007166Y023696D02*
X007166Y026993D01*
X007046Y026993D02*
X007046Y023736D01*
X006926Y023736D02*
X006926Y026993D01*
X006806Y026993D02*
X006806Y023736D01*
X007256Y023606D02*
X007557Y023606D01*
X007526Y023576D02*
X007526Y026993D01*
X007406Y026993D02*
X007406Y023456D01*
X007376Y023486D02*
X007437Y023486D01*
X007286Y023576D02*
X007286Y026993D01*
X007646Y026993D02*
X007646Y023696D01*
X007406Y022957D02*
X007396Y022947D01*
X007396Y022653D01*
X007416Y022633D01*
X007416Y022947D01*
X007406Y022957D01*
X007406Y022643D01*
X007403Y022646D02*
X007416Y022646D01*
X007416Y022766D02*
X007396Y022766D01*
X007396Y022886D02*
X007416Y022886D01*
X006416Y022886D02*
X000416Y022886D01*
X000416Y022766D02*
X006416Y022766D01*
X006410Y022646D02*
X000416Y022646D01*
X000416Y022526D02*
X006376Y022526D01*
X006376Y022406D02*
X000416Y022406D01*
X000416Y022286D02*
X006376Y022286D01*
X006376Y022166D02*
X000416Y022166D01*
X000416Y022046D02*
X006376Y022046D01*
X006376Y021926D02*
X000416Y021926D01*
X000416Y021806D02*
X006376Y021806D01*
X006376Y023006D02*
X000416Y023006D01*
X000416Y023126D02*
X006376Y023126D01*
X006376Y023246D02*
X000416Y023246D01*
X000416Y023366D02*
X006376Y023366D01*
X008726Y023736D02*
X008726Y026993D01*
X008846Y026993D02*
X008846Y023736D01*
X008966Y023736D02*
X008966Y026993D01*
X010406Y022957D02*
X010406Y022456D01*
X010416Y022466D01*
X010416Y022947D01*
X010406Y022957D01*
X010396Y022947D01*
X010396Y022466D01*
X010406Y022456D01*
X010396Y022526D02*
X010416Y022526D01*
X010416Y022646D02*
X010396Y022646D01*
X010396Y022766D02*
X010416Y022766D01*
X010416Y022886D02*
X010396Y022886D01*
X012316Y023966D02*
X000416Y023966D01*
X000416Y024086D02*
X012316Y024086D01*
X012316Y024206D02*
X000416Y024206D01*
X000416Y024326D02*
X012316Y024326D01*
X012316Y024446D02*
X000416Y024446D01*
X000416Y024566D02*
X012316Y024566D01*
X012316Y024686D02*
X000416Y024686D01*
X000416Y024806D02*
X012316Y024806D01*
X012316Y024926D02*
X000416Y024926D01*
X000416Y025526D02*
X020467Y025526D01*
X020467Y025646D02*
X000416Y025646D01*
X000416Y025766D02*
X020467Y025766D01*
X020467Y025886D02*
X000416Y025886D01*
X000416Y026006D02*
X020467Y026006D01*
X020467Y026126D02*
X000416Y026126D01*
X000416Y026246D02*
X000497Y026246D01*
X000446Y026267D02*
X000446Y001146D01*
X000416Y001166D02*
X000497Y001166D01*
X000566Y001195D02*
X000566Y026218D01*
X000806Y015257D02*
X000806Y015156D01*
X000857Y015206D02*
X000576Y014926D01*
X000576Y014487D01*
X000857Y014206D01*
X000576Y013926D01*
X000576Y013487D01*
X000857Y013206D01*
X000576Y012926D01*
X000576Y012487D01*
X000857Y012206D01*
X000416Y012206D01*
X000416Y012086D02*
X000737Y012086D01*
X000686Y012036D02*
X000686Y012377D01*
X000737Y012326D02*
X000416Y012326D01*
X000416Y012446D02*
X000617Y012446D01*
X000576Y012566D02*
X000416Y012566D01*
X000416Y012686D02*
X000576Y012686D01*
X000576Y012806D02*
X000416Y012806D01*
X000416Y012926D02*
X000577Y012926D01*
X000686Y013036D02*
X000686Y013377D01*
X000657Y013406D02*
X000416Y013406D01*
X000416Y013286D02*
X000777Y013286D01*
X000806Y013257D02*
X000806Y013156D01*
X000817Y013166D02*
X000416Y013166D01*
X000416Y013046D02*
X000697Y013046D01*
X000576Y013526D02*
X000416Y013526D01*
X000416Y013646D02*
X000576Y013646D01*
X000576Y013766D02*
X000416Y013766D01*
X000416Y013886D02*
X000576Y013886D01*
X000657Y014006D02*
X000416Y014006D01*
X000416Y014126D02*
X000777Y014126D01*
X000806Y014156D02*
X000806Y014257D01*
X000817Y014246D02*
X000416Y014246D01*
X000416Y014366D02*
X000697Y014366D01*
X000686Y014377D02*
X000686Y014036D01*
X000577Y014486D02*
X000416Y014486D01*
X000416Y014606D02*
X000576Y014606D01*
X000576Y014726D02*
X000416Y014726D01*
X000416Y014846D02*
X000576Y014846D01*
X000617Y014966D02*
X000416Y014966D01*
X001606Y012457D02*
X001857Y012206D01*
X001356Y012206D01*
X001606Y011956D01*
X001857Y012206D01*
X001766Y012116D02*
X001766Y012297D01*
X001737Y012326D02*
X001476Y012326D01*
X001526Y012377D02*
X001526Y012036D01*
X001476Y012086D02*
X001737Y012086D01*
X001646Y011996D02*
X001646Y012417D01*
X001617Y012446D02*
X001596Y012446D01*
X001606Y012457D02*
X001356Y012206D01*
X001406Y012156D02*
X001406Y012257D01*
X001596Y011966D02*
X001617Y011966D01*
X000857Y012206D02*
X000576Y011926D01*
X000576Y011487D01*
X000857Y011206D01*
X000576Y010926D01*
X000576Y010487D01*
X000857Y010206D01*
X000576Y009926D01*
X000576Y009487D01*
X000857Y009206D01*
X000416Y009206D01*
X000416Y009086D02*
X000737Y009086D01*
X000686Y009036D02*
X000686Y009377D01*
X000737Y009326D02*
X000416Y009326D01*
X000416Y009446D02*
X000617Y009446D01*
X000576Y009566D02*
X000416Y009566D01*
X000416Y009686D02*
X000576Y009686D01*
X000576Y009806D02*
X000416Y009806D01*
X000416Y009926D02*
X000577Y009926D01*
X000686Y010036D02*
X000686Y010377D01*
X000657Y010406D02*
X000416Y010406D01*
X000416Y010286D02*
X000777Y010286D01*
X000806Y010257D02*
X000806Y010156D01*
X000817Y010166D02*
X000416Y010166D01*
X000416Y010046D02*
X000697Y010046D01*
X000576Y010526D02*
X000416Y010526D01*
X000416Y010646D02*
X000576Y010646D01*
X000576Y010766D02*
X000416Y010766D01*
X000416Y010886D02*
X000576Y010886D01*
X000657Y011006D02*
X000416Y011006D01*
X000416Y011126D02*
X000777Y011126D01*
X000806Y011156D02*
X000806Y011257D01*
X000817Y011246D02*
X000416Y011246D01*
X000416Y011366D02*
X000697Y011366D01*
X000686Y011377D02*
X000686Y011036D01*
X000577Y011486D02*
X000416Y011486D01*
X000416Y011606D02*
X000576Y011606D01*
X000576Y011726D02*
X000416Y011726D01*
X000416Y011846D02*
X000576Y011846D01*
X000617Y011966D02*
X000416Y011966D01*
X000806Y012156D02*
X000806Y012257D01*
X002356Y012206D02*
X002586Y012436D01*
X002366Y012217D02*
X002366Y012196D01*
X000806Y009257D02*
X000806Y009156D01*
X000857Y009206D02*
X000576Y008926D01*
X000576Y008487D01*
X000857Y008206D01*
X000576Y007926D01*
X000576Y007487D01*
X000857Y007206D01*
X000576Y006926D01*
X000576Y006487D01*
X000857Y006206D01*
X000416Y006206D01*
X000416Y006086D02*
X000737Y006086D01*
X000686Y006036D02*
X000686Y006377D01*
X000737Y006326D02*
X000416Y006326D01*
X000416Y006446D02*
X000617Y006446D01*
X000576Y006566D02*
X000416Y006566D01*
X000416Y006686D02*
X000576Y006686D01*
X000576Y006806D02*
X000416Y006806D01*
X000416Y006926D02*
X000577Y006926D01*
X000686Y007036D02*
X000686Y007377D01*
X000657Y007406D02*
X000416Y007406D01*
X000416Y007286D02*
X000777Y007286D01*
X000806Y007257D02*
X000806Y007156D01*
X000817Y007166D02*
X000416Y007166D01*
X000416Y007046D02*
X000697Y007046D01*
X000576Y007526D02*
X000416Y007526D01*
X000416Y007646D02*
X000576Y007646D01*
X000576Y007766D02*
X000416Y007766D01*
X000416Y007886D02*
X000576Y007886D01*
X000657Y008006D02*
X000416Y008006D01*
X000416Y008126D02*
X000777Y008126D01*
X000806Y008156D02*
X000806Y008257D01*
X000817Y008246D02*
X000416Y008246D01*
X000416Y008366D02*
X000697Y008366D01*
X000686Y008377D02*
X000686Y008036D01*
X000577Y008486D02*
X000416Y008486D01*
X000416Y008606D02*
X000576Y008606D01*
X000576Y008726D02*
X000416Y008726D01*
X000416Y008846D02*
X000576Y008846D01*
X000617Y008966D02*
X000416Y008966D01*
X001606Y007457D02*
X001356Y007206D01*
X001606Y006956D01*
X001857Y007206D01*
X001606Y007457D01*
X001646Y007417D02*
X001646Y006996D01*
X001697Y007046D02*
X001516Y007046D01*
X001526Y007036D02*
X001526Y007377D01*
X001556Y007406D02*
X001657Y007406D01*
X001766Y007297D02*
X001766Y007116D01*
X001817Y007166D02*
X001396Y007166D01*
X001406Y007156D02*
X001406Y007257D01*
X001436Y007286D02*
X001777Y007286D01*
X002356Y007206D02*
X002566Y007416D01*
X004430Y007416D01*
X004378Y007292D01*
X004378Y007121D01*
X004444Y006964D01*
X004564Y006844D01*
X004721Y006778D01*
X004892Y006778D01*
X005049Y006844D01*
X005122Y006916D01*
X005230Y006916D01*
X005178Y006792D01*
X005178Y006621D01*
X005230Y006496D01*
X002636Y006496D01*
X002636Y006926D01*
X002356Y007206D01*
X002366Y007196D02*
X002366Y007217D01*
X002396Y007166D02*
X004378Y007166D01*
X004406Y007053D02*
X004406Y006496D01*
X004286Y006496D02*
X004286Y007416D01*
X004166Y007416D02*
X004166Y006496D01*
X004046Y006496D02*
X004046Y007416D01*
X003926Y007416D02*
X003926Y006496D01*
X003806Y006496D02*
X003806Y007416D01*
X003686Y007416D02*
X003686Y006496D01*
X003566Y006496D02*
X003566Y007416D01*
X003446Y007416D02*
X003446Y006496D01*
X003326Y006496D02*
X003326Y007416D01*
X003206Y007416D02*
X003206Y006496D01*
X003086Y006496D02*
X003086Y007416D01*
X002966Y007416D02*
X002966Y006496D01*
X002846Y006496D02*
X002846Y007416D01*
X002726Y007416D02*
X002726Y006496D01*
X002636Y006566D02*
X005201Y006566D01*
X005126Y006496D02*
X005126Y006916D01*
X005185Y006806D02*
X004960Y006806D01*
X005006Y006826D02*
X005006Y006496D01*
X004886Y006496D02*
X004886Y006778D01*
X004766Y006778D02*
X004766Y006496D01*
X004646Y006496D02*
X004646Y006809D01*
X004653Y006806D02*
X002636Y006806D01*
X002636Y006686D02*
X005178Y006686D01*
X004526Y006496D02*
X004526Y006881D01*
X004481Y006926D02*
X002636Y006926D01*
X002606Y006956D02*
X002606Y007416D01*
X002556Y007406D02*
X004426Y007406D01*
X004406Y007416D02*
X004406Y007360D01*
X004378Y007286D02*
X002436Y007286D01*
X002486Y007337D02*
X002486Y007076D01*
X002516Y007046D02*
X004409Y007046D01*
X000857Y006206D02*
X000576Y005926D01*
X000576Y005487D01*
X000857Y005206D01*
X000576Y004926D01*
X000576Y004487D01*
X000857Y004206D01*
X000576Y003926D01*
X000576Y003487D01*
X000857Y003206D01*
X000416Y003206D01*
X000416Y003086D02*
X000737Y003086D01*
X000686Y003036D02*
X000686Y003377D01*
X000737Y003326D02*
X000416Y003326D01*
X000416Y003446D02*
X000617Y003446D01*
X000576Y003566D02*
X000416Y003566D01*
X000416Y003686D02*
X000576Y003686D01*
X000576Y003806D02*
X000416Y003806D01*
X000416Y003926D02*
X000577Y003926D01*
X000686Y004036D02*
X000686Y004377D01*
X000657Y004406D02*
X000416Y004406D01*
X000416Y004286D02*
X000777Y004286D01*
X000806Y004257D02*
X000806Y004156D01*
X000817Y004166D02*
X000416Y004166D01*
X000416Y004046D02*
X000697Y004046D01*
X000576Y004526D02*
X000416Y004526D01*
X000416Y004646D02*
X000576Y004646D01*
X000576Y004766D02*
X000416Y004766D01*
X000416Y004886D02*
X000576Y004886D01*
X000657Y005006D02*
X000416Y005006D01*
X000416Y005126D02*
X000777Y005126D01*
X000806Y005156D02*
X000806Y005257D01*
X000817Y005246D02*
X000416Y005246D01*
X000416Y005366D02*
X000697Y005366D01*
X000686Y005377D02*
X000686Y005036D01*
X000577Y005486D02*
X000416Y005486D01*
X000416Y005606D02*
X000576Y005606D01*
X000576Y005726D02*
X000416Y005726D01*
X000416Y005846D02*
X000576Y005846D01*
X000617Y005966D02*
X000416Y005966D01*
X000806Y006156D02*
X000806Y006257D01*
X000806Y003257D02*
X000806Y003156D01*
X000857Y003206D02*
X000576Y002926D01*
X000576Y002487D01*
X000857Y002206D01*
X000576Y001926D01*
X000576Y001487D01*
X000883Y001180D01*
X000806Y001212D02*
X000806Y001257D01*
X000777Y001286D02*
X000416Y001286D01*
X000416Y001406D02*
X000657Y001406D01*
X000686Y001377D02*
X000686Y001212D01*
X000576Y001526D02*
X000416Y001526D01*
X000416Y001646D02*
X000576Y001646D01*
X000576Y001766D02*
X000416Y001766D01*
X000416Y001886D02*
X000576Y001886D01*
X000657Y002006D02*
X000416Y002006D01*
X000416Y002126D02*
X000777Y002126D01*
X000806Y002156D02*
X000806Y002257D01*
X000817Y002246D02*
X000416Y002246D01*
X000416Y002366D02*
X000697Y002366D01*
X000686Y002377D02*
X000686Y002036D01*
X000577Y002486D02*
X000416Y002486D01*
X000416Y002606D02*
X000576Y002606D01*
X000576Y002726D02*
X000416Y002726D01*
X000416Y002846D02*
X000576Y002846D01*
X000617Y002966D02*
X000416Y002966D01*
X001436Y001286D02*
X001777Y001286D01*
X001406Y001257D02*
X001406Y000416D01*
X001286Y000416D02*
X001286Y001176D01*
X010396Y004466D02*
X010396Y004947D01*
X010406Y004957D01*
X010406Y004456D01*
X010396Y004466D01*
X010406Y004456D02*
X010416Y004466D01*
X010416Y004947D01*
X010406Y004957D01*
X010396Y004886D02*
X010416Y004886D01*
X010416Y004766D02*
X010396Y004766D01*
X010396Y004646D02*
X010416Y004646D01*
X010416Y004526D02*
X010396Y004526D01*
X011396Y004526D02*
X011416Y004526D01*
X011416Y004466D02*
X011406Y004456D01*
X011396Y004466D01*
X011396Y004780D01*
X011416Y004760D01*
X011416Y004466D01*
X011416Y004646D02*
X011396Y004646D01*
X011396Y004766D02*
X011410Y004766D01*
X016046Y020003D02*
X016046Y020297D01*
X015996Y020246D02*
X016417Y020246D01*
X016406Y020257D02*
X016406Y020043D01*
X016370Y020006D02*
X016043Y020006D01*
X016206Y020956D02*
X015956Y021206D01*
X016457Y021206D01*
X016206Y020956D01*
X016196Y020966D02*
X016217Y020966D01*
X016166Y020996D02*
X016166Y021417D01*
X016196Y021446D02*
X016217Y021446D01*
X016206Y021457D02*
X016457Y021206D01*
X016406Y021156D02*
X016406Y021257D01*
X016337Y021326D02*
X016076Y021326D01*
X016046Y021297D02*
X016046Y021116D01*
X016076Y021086D02*
X016337Y021086D01*
X016286Y021036D02*
X016286Y021377D01*
X016206Y021457D02*
X015956Y021206D01*
X016956Y021206D02*
X017236Y021487D01*
X017006Y021257D02*
X017006Y021156D01*
X017006Y022156D02*
X017006Y022257D01*
X017036Y022286D02*
X020467Y022286D01*
X020467Y022166D02*
X016996Y022166D01*
X017036Y023126D02*
X020467Y023126D01*
X020467Y023246D02*
X016996Y023246D01*
X017006Y023257D02*
X017006Y023156D01*
M02*
